<svg width="24" height="24" viewBox="0 0 24 24" fill="none" xmlns="http://www.w3.org/2000/svg">
<path d="M17.3333 9.2C17.3333 7.82087 16.7714 6.49823 15.7712 5.52304C14.771 4.54786 13.4145 4 12 4C10.5855 4 9.22896 4.54786 8.22876 5.52304C7.22857 6.49823 6.66667 7.82087 6.66667 9.2C6.66667 15.2667 4 17 4 17H20C20 17 17.3333 15.2667 17.3333 9.2Z" stroke="#222222" stroke-width="1.5" stroke-linecap="round" stroke-linejoin="round"/>
<path d="M14 19C13.7968 19.3042 13.505 19.5566 13.154 19.7321C12.803 19.9076 12.4051 20 12 20C11.5949 20 11.197 19.9076 10.846 19.7321C10.495 19.5566 10.2032 19.3042 10 19" stroke="#222222" stroke-width="1.5" stroke-linecap="round" stroke-linejoin="round"/>
</svg>
