<svg width="25" height="25" viewBox="0 0 25 25" fill="none" xmlns="http://www.w3.org/2000/svg">
<path d="M12.502 13.8542C13.2212 13.8542 13.8041 13.2712 13.8041 12.5521C13.8041 11.833 13.2212 11.25 12.502 11.25C11.7829 11.25 11.2 11.833 11.2 12.5521C11.2 13.2712 11.7829 13.8542 12.502 13.8542Z" fill="#222222"/>
<path d="M12.502 8.24967C13.2212 8.24967 13.8041 7.66671 13.8041 6.94759C13.8041 6.22847 13.2212 5.64551 12.502 5.64551C11.7829 5.64551 11.2 6.22847 11.2 6.94759C11.2 7.66671 11.7829 8.24967 12.502 8.24967Z" fill="#222222"/>
<path d="M12.502 19.4587C13.2212 19.4587 13.8041 18.8757 13.8041 18.1566C13.8041 17.4375 13.2212 16.8545 12.502 16.8545C11.7829 16.8545 11.2 17.4375 11.2 18.1566C11.2 18.8757 11.7829 19.4587 12.502 19.4587Z" fill="#222222"/>
</svg>
