<svg width="25" height="25" viewBox="0 0 25 25" fill="none" xmlns="http://www.w3.org/2000/svg">
<path d="M12.502 13.8542C13.2212 13.8542 13.8041 13.2712 13.8041 12.5521C13.8041 11.833 13.2212 11.25 12.502 11.25C11.7829 11.25 11.2 11.833 11.2 12.5521C11.2 13.2712 11.7829 13.8542 12.502 13.8542Z" fill="#222222"/>
<path d="M12.502 8.2487C13.2212 8.2487 13.8041 7.66574 13.8041 6.94661C13.8041 6.22749 13.2212 5.64453 12.502 5.64453C11.7829 5.64453 11.2 6.22749 11.2 6.94661C11.2 7.66574 11.7829 8.2487 12.502 8.2487Z" fill="#222222"/>
<path d="M12.502 19.4596C13.2212 19.4596 13.8041 18.8767 13.8041 18.1576C13.8041 17.4384 13.2212 16.8555 12.502 16.8555C11.7829 16.8555 11.2 17.4384 11.2 18.1576C11.2 18.8767 11.7829 19.4596 12.502 19.4596Z" fill="#222222"/>
</svg>
