<svg width="96" height="96" viewBox="0 0 96 96" fill="none" xmlns="http://www.w3.org/2000/svg">
<path d="M89.706 25.9551C89.236 24.0801 88.2787 22.3622 86.9308 20.9749C85.583 19.5875 83.8923 18.5799 82.0296 18.0537C75.2236 16.3944 47.9998 16.3944 47.9998 16.3944C47.9998 16.3944 20.7761 16.3944 13.9701 18.2117C12.1074 18.7379 10.4167 19.7456 9.06884 21.1329C7.72098 22.5203 6.76369 24.2382 6.29365 26.1131C5.04806 33.0093 4.43877 40.005 4.47345 47.0124C4.42905 54.0725 5.03838 61.1215 6.29365 68.0696C6.81185 69.8863 7.79059 71.5389 9.1353 72.8677C10.48 74.1964 12.1453 75.1564 13.9701 75.655C20.7761 77.4723 47.9998 77.4723 47.9998 77.4723C47.9998 77.4723 75.2236 77.4723 82.0296 75.655C83.8923 75.1288 85.583 74.1211 86.9308 72.7338C88.2787 71.3464 89.236 69.6285 89.706 67.7536C90.942 60.9093 91.5513 53.9669 91.5262 47.0124C91.5706 39.9523 90.9613 32.9032 89.706 25.9551Z" fill="#FF0E0E"/>
<path d="M39.0967 59.9311L61.8491 47.0123L39.0967 34.0935V59.9311Z" fill="white"/>
</svg>
