<svg width="44" height="44" viewBox="0 0 44 44" fill="none" xmlns="http://www.w3.org/2000/svg">
<path d="M41.3233 11.7702C41.1055 10.9001 40.662 10.1029 40.0375 9.45907C39.413 8.81527 38.6297 8.34767 37.7667 8.1035C34.6133 7.3335 22 7.3335 22 7.3335C22 7.3335 9.38666 7.3335 6.23332 8.17683C5.37028 8.421 4.58695 8.8886 3.96246 9.53241C3.33797 10.1762 2.89444 10.9734 2.67666 11.8435C2.09955 15.0437 1.81726 18.2901 1.83332 21.5418C1.81275 24.8181 2.09506 28.0892 2.67666 31.3135C2.91675 32.1565 3.37022 32.9234 3.99325 33.54C4.61629 34.1567 5.38783 34.6022 6.23332 34.8335C9.38666 35.6768 22 35.6768 22 35.6768C22 35.6768 34.6133 35.6768 37.7667 34.8335C38.6297 34.5893 39.413 34.1217 40.0375 33.4779C40.662 32.8341 41.1055 32.0369 41.3233 31.1668C41.896 27.9907 42.1783 24.7691 42.1667 21.5418C42.1872 18.2656 41.9049 14.9944 41.3233 11.7702Z" fill="#FF0E0E"/>
<path d="M17.875 27.5369L28.4167 21.5419L17.875 15.5469V27.5369Z" fill="white"/>
</svg>
