<svg width="58" height="25" viewBox="0 0 58 25" fill="none" xmlns="http://www.w3.org/2000/svg">
<g clip-path="url(#clip0_52_83)">
<path d="M52.8608 12.5C52.8608 9.73857 55.1617 7.5 58 7.5V2.71429C58 1.21521 56.7509 0 55.2101 0H2.78987C1.24906 0 0 1.21521 0 2.71429V22.2857C0 23.7848 1.24906 25 2.78987 25H55.2101C56.7509 25 58 23.7848 58 22.2857V17.5C55.1617 17.5 52.8608 15.2614 52.8608 12.5Z" fill="#DD3C3C"/>
<path d="M9.19389 11.2547H11.382C11.6676 11.2547 11.9023 11.2822 12.0859 11.3366C12.2695 11.3912 12.4122 11.4657 12.5144 11.5599C12.6162 11.6543 12.6851 11.7634 12.7209 11.8874C12.7565 12.0116 12.7745 12.1479 12.7745 12.2967C12.7745 12.4159 12.7566 12.5375 12.7209 12.6614C12.6851 12.7857 12.6162 12.8948 12.5144 12.989C12.4122 13.0834 12.2695 13.1602 12.0859 13.2197C11.9023 13.2792 11.6675 13.309 11.382 13.309H9.19389V16.3461H11.734C12.0194 16.3461 12.2542 16.3758 12.4379 16.4354C12.6215 16.4949 12.7642 16.5717 12.8662 16.6661C12.9681 16.7603 13.0369 16.8694 13.0728 16.9937C13.1084 17.1176 13.1264 17.2392 13.1264 17.3583C13.1264 17.5072 13.1085 17.6435 13.0728 17.7677C13.0369 17.8917 12.9681 18.0008 12.8662 18.0952C12.7641 18.1894 12.6215 18.2639 12.4379 18.3185C12.2542 18.373 12.0194 18.4004 11.734 18.4004H7.95445C7.66871 18.4004 7.44427 18.373 7.28121 18.3185C7.11793 18.2639 6.9929 18.1894 6.90634 18.0952C6.81956 18.0008 6.76597 17.8917 6.7457 17.7677C6.72515 17.6435 6.71509 17.5072 6.71509 17.3583V7.29473C6.71509 7.14587 6.72515 7.00444 6.7457 6.87051C6.76597 6.73651 6.81956 6.61508 6.90634 6.50573C6.9929 6.39665 7.11793 6.30987 7.28121 6.24523C7.44427 6.1808 7.66878 6.14851 7.95445 6.14851H11.428C11.7134 6.14851 11.9482 6.17594 12.1318 6.2303C12.3155 6.28501 12.4582 6.35944 12.5602 6.45365C12.6621 6.54808 12.7309 6.65723 12.7668 6.78115C12.8024 6.90537 12.8204 7.04173 12.8204 7.19051C12.8204 7.30965 12.8024 7.4313 12.7668 7.55523C12.7309 7.67944 12.6621 7.78858 12.5602 7.88273C12.4581 7.97715 12.3155 8.05394 12.1318 8.11351C11.9482 8.17301 11.7134 8.2028 11.428 8.2028H9.19389V11.2547ZM16.0797 7.29465C16.0797 6.79851 16.2045 6.45865 16.4546 6.27494C16.7044 6.09144 16.9925 5.99951 17.3192 5.99951C17.4822 5.99951 17.6379 6.01951 17.7859 6.05908C17.9336 6.09887 18.0637 6.16837 18.176 6.26751C18.2882 6.36687 18.38 6.50087 18.4514 6.66944C18.5227 6.8383 18.5585 7.04673 18.5585 7.29473V17.4627C18.5585 17.7207 18.5227 17.934 18.4514 18.1029C18.3799 18.2714 18.2881 18.4054 18.176 18.5048C18.0636 18.6039 17.9336 18.6734 17.7859 18.7132C17.6379 18.7528 17.4822 18.7728 17.3192 18.7728C17.1561 18.7728 17.0003 18.7528 16.8525 18.7132C16.7045 18.6734 16.5718 18.6039 16.4546 18.5048C16.3372 18.4054 16.2454 18.2714 16.1792 18.1029C16.1128 17.934 16.0797 17.7207 16.0797 17.4627V7.29465Z" fill="white"/>
<path d="M25.1079 6.17808C25.3833 6.17808 25.5976 6.20558 25.7506 6.26001C25.9036 6.31473 26.0208 6.38915 26.1025 6.48337C26.184 6.5778 26.235 6.6943 26.2555 6.83323C26.2758 6.9723 26.2862 7.13101 26.2862 7.30965V8.70901H27.8163V7.29473C27.8163 6.79858 27.9132 6.45873 28.1071 6.27501C28.3007 6.09151 28.5609 5.99958 28.8875 5.99958C29.2036 5.99958 29.4613 6.09151 29.6602 6.27501C29.8591 6.45873 29.9585 6.79858 29.9585 7.29473V11.7609C29.9585 12.2771 29.8641 12.6244 29.6755 12.803C29.4867 12.9817 29.2291 13.071 28.9028 13.071C28.5764 13.071 28.3137 12.9817 28.1148 12.803C27.9158 12.6244 27.8164 12.2771 27.8164 11.7609V10.823H26.1485C26.0667 11.2398 25.924 11.6518 25.72 12.0587C25.5159 12.4657 25.2201 12.8477 24.8326 13.2049C24.5774 13.4334 24.3299 13.5499 24.0904 13.5548C23.8506 13.5599 23.6184 13.5027 23.3942 13.3836C23.2718 13.3241 23.1696 13.2399 23.0882 13.1305C23.0064 13.0214 22.9504 12.8998 22.9199 12.7658C22.8893 12.6319 22.8893 12.493 22.9199 12.3489C22.9504 12.2052 23.0166 12.0687 23.1188 11.9396C23.2513 11.771 23.3686 11.6121 23.4707 11.4632C23.5726 11.3144 23.6593 11.1606 23.7309 11.0017H21.6651C21.3794 11.0017 21.1499 10.9794 20.9765 10.9347C20.803 10.8901 20.6704 10.8257 20.5787 10.7412C20.4868 10.657 20.428 10.5552 20.4027 10.4361C20.3771 10.3169 20.3645 10.1829 20.3645 10.0341C20.3645 9.91501 20.3798 9.79844 20.4104 9.68423C20.441 9.57023 20.5046 9.4683 20.6016 9.37901C20.6985 9.28973 20.8336 9.22037 21.0071 9.17065C21.1804 9.12108 21.41 9.09615 21.6957 9.09615H23.9604V8.11365H21.8334C21.5477 8.11365 21.3181 8.08894 21.1448 8.03915C20.9712 7.98965 20.8388 7.92265 20.7469 7.83823C20.6552 7.75401 20.5964 7.65215 20.571 7.53301C20.5454 7.41394 20.5328 7.27994 20.5328 7.13108C20.5328 7.01194 20.548 6.89537 20.5787 6.78123C20.6093 6.66723 20.6729 6.56537 20.7699 6.47608C20.8667 6.38673 21.0018 6.31487 21.1753 6.26015C21.3487 6.20573 21.5782 6.17823 21.8639 6.17823H25.1079V6.17808ZM28.5508 14.515C28.5508 14.8625 28.6603 15.17 28.8798 15.438C29.099 15.7059 29.3795 15.9344 29.7214 16.1228C30.0631 16.3115 30.4482 16.4652 30.8767 16.5843C31.3051 16.7034 31.7335 16.7877 32.162 16.8374C32.5598 16.8869 32.8556 17.0135 33.0495 17.217C33.2432 17.4203 33.3147 17.7106 33.2638 18.0879C33.2332 18.2863 33.1744 18.4452 33.0878 18.5643C33.001 18.6834 32.8966 18.7776 32.7742 18.8472C32.6518 18.9165 32.514 18.9612 32.361 18.9812C32.208 19.0009 32.055 19.0058 31.902 18.996C31.045 18.9264 30.2238 18.718 29.4383 18.3707C28.6527 18.0232 27.9693 17.6064 27.3879 17.1202C27.1021 17.3584 26.7732 17.584 26.4009 17.7976C26.0285 18.0109 25.6358 18.2019 25.2227 18.3707C24.8095 18.5394 24.3835 18.6783 23.945 18.7876C23.5063 18.8967 23.0728 18.9662 22.6443 18.996C22.4913 19.0058 22.3383 19.0009 22.1853 18.9812C22.0323 18.9612 21.8945 18.9165 21.7721 18.8472C21.6497 18.7776 21.545 18.6834 21.4585 18.5643C21.3716 18.4452 21.3131 18.2863 21.2825 18.0879C21.2314 17.7106 21.3029 17.4202 21.4967 17.217C21.6904 17.0134 21.9864 16.8869 22.3843 16.8374C22.8228 16.7877 23.2565 16.7109 23.685 16.6067C24.1134 16.5024 24.4984 16.3561 24.8402 16.1675C25.1819 15.979 25.4599 15.7483 25.6741 15.4752C25.8884 15.2024 26.0005 14.8774 26.0108 14.5002V14.3067C26.0108 14.0289 26.1229 13.8079 26.3474 13.6442C26.5717 13.4804 26.883 13.3986 27.2808 13.3986C27.6787 13.3986 27.9897 13.4805 28.2143 13.6442C28.4385 13.8079 28.5509 14.0289 28.5509 14.3067V14.5151L28.5508 14.515ZM31.1062 7.29465C31.1062 6.79851 31.2031 6.45865 31.397 6.27494C31.5907 6.09144 31.8509 5.99951 32.1774 5.99951C32.4935 5.99951 32.7512 6.09144 32.9501 6.27494C33.149 6.45865 33.2484 6.79851 33.2484 7.29465V12.2819C33.2484 12.7981 33.154 13.1454 32.9654 13.324C32.7766 13.5027 32.519 13.5919 32.1927 13.5919C31.8663 13.5919 31.6036 13.5027 31.4047 13.324C31.2057 13.1454 31.1062 12.7981 31.1062 12.2819V7.29465Z" fill="white"/>
<path d="M46.3008 6.19287C46.5557 6.19287 46.7599 6.2103 46.9129 6.24494C47.066 6.2798 47.1831 6.33194 47.2648 6.4013C47.3463 6.47087 47.3999 6.55273 47.4255 6.64687C47.4508 6.7413 47.4637 6.85301 47.4637 6.98187C47.4637 7.09123 47.4507 7.1903 47.4255 7.27966C47.3999 7.36894 47.3463 7.44851 47.2648 7.51787C47.1831 7.58744 47.066 7.64201 46.9129 7.68159C46.7599 7.72137 46.5557 7.74116 46.3008 7.74116H38.6652V8.29201H46.1478C46.4027 8.29201 46.6069 8.30687 46.7599 8.33666C46.9129 8.36644 47.03 8.41109 47.1118 8.47066C47.1933 8.53016 47.2469 8.60716 47.2725 8.70137C47.2978 8.7958 47.3107 8.90744 47.3107 9.0363C47.3107 9.14559 47.2977 9.24237 47.2725 9.32659C47.2469 9.41101 47.1933 9.48544 47.1118 9.54987C47.03 9.61451 46.9129 9.66409 46.7599 9.69873C46.6069 9.73359 46.4027 9.75087 46.1478 9.75087H38.6652V10.3612H46.3926C46.6475 10.3612 46.8517 10.3812 47.0047 10.4208C47.1577 10.4606 47.2749 10.5127 47.3567 10.5772C47.4382 10.6418 47.4918 10.7212 47.5173 10.8154C47.5427 10.9098 47.5555 11.0066 47.5555 11.1057C47.5555 11.2348 47.5426 11.349 47.5173 11.4481C47.4917 11.5474 47.4382 11.6319 47.3567 11.7012C47.2749 11.7708 47.1577 11.8229 47.0047 11.8575C46.8517 11.8924 46.6475 11.9097 46.3926 11.9097H43.0874V12.6094H47.4026C47.6575 12.6094 47.8617 12.6343 48.0147 12.6838C48.1677 12.7336 48.2848 12.7981 48.3665 12.8774C48.4481 12.9569 48.5017 13.0462 48.5272 13.1454C48.5526 13.2447 48.5654 13.3489 48.5654 13.458C48.5654 13.5971 48.5525 13.7162 48.5272 13.8153C48.5016 13.9147 48.4481 13.999 48.3665 14.0684C48.2848 14.1379 48.1677 14.19 48.0147 14.2247C47.8617 14.2595 47.6575 14.2767 47.4026 14.2767H36.2782C36.023 14.2767 35.8191 14.2595 35.6661 14.2247C35.5131 14.19 35.3956 14.1379 35.3141 14.0684C35.2324 13.999 35.1788 13.9147 35.1535 13.8153C35.1279 13.7162 35.1152 13.5971 35.1152 13.458C35.1152 13.3489 35.1279 13.2447 35.1535 13.1454C35.1789 13.0462 35.2324 12.9569 35.3141 12.8774C35.3956 12.7981 35.5131 12.7336 35.6661 12.6838C35.8191 12.6343 36.023 12.6094 36.2782 12.6094H40.6086V11.9097H37.4258C37.14 11.9097 36.9155 11.8824 36.7524 11.8278C36.5891 11.7733 36.4641 11.7013 36.3776 11.6119C36.2908 11.5225 36.2373 11.416 36.2169 11.2918C36.1965 11.1679 36.1863 11.0312 36.1863 10.8824V7.2053C36.1863 7.05637 36.1965 6.92009 36.2169 6.79594C36.2373 6.67194 36.2909 6.56516 36.3776 6.47587C36.4641 6.38651 36.5892 6.31723 36.7524 6.26744C36.9155 6.21794 37.14 6.19301 37.4258 6.19301H46.3008V6.19287ZM38.4357 18.9512C37.9561 18.9412 37.5481 18.8891 37.2115 18.7949C36.8749 18.7004 36.6044 18.5664 36.4005 18.3929C36.1964 18.2191 36.0486 18.0058 35.9567 17.7527C35.865 17.4997 35.819 17.2042 35.819 16.8669C35.819 16.5297 35.8597 16.2369 35.9415 15.9886C36.023 15.7407 36.1633 15.5297 36.3622 15.3559C36.5611 15.1824 36.8314 15.0533 37.1732 14.9689C37.5149 14.8847 37.9459 14.8374 38.4662 14.8274H45.0154C45.5356 14.8274 45.9664 14.8722 46.3084 14.9614C46.65 15.0508 46.9204 15.1799 47.1193 15.3485C47.3183 15.5174 47.4584 15.7282 47.5402 15.9812C47.6217 16.2343 47.6625 16.5297 47.6625 16.8669C47.6625 17.5418 47.466 18.0505 47.0734 18.3929C46.6806 18.7353 46.0047 18.9214 45.046 18.9512H38.4356L38.4357 18.9512ZM44.3575 17.2392C44.6532 17.2392 44.8675 17.2169 45.0001 17.1722C45.1326 17.1274 45.1991 17.0256 45.1991 16.8669C45.1991 16.7083 45.1326 16.6114 45.0001 16.5767C44.8675 16.542 44.6532 16.5246 44.3575 16.5246H39.1243C38.8283 16.5246 38.614 16.542 38.4816 16.5767C38.3488 16.6113 38.2826 16.7081 38.2826 16.8669C38.2826 17.0258 38.3488 17.1275 38.4816 17.1722C38.614 17.2168 38.8283 17.2392 39.1243 17.2392H44.3575Z" fill="white"/>
</g>
<defs>
<clipPath id="clip0_52_83">
<rect width="58" height="25" fill="white"/>
</clipPath>
</defs>
</svg>
