<svg width="16" height="16" viewBox="0 0 16 16" fill="none" xmlns="http://www.w3.org/2000/svg">
<path d="M13.7074 8.57962L8.49362 13.8068C8.23673 14.0644 7.81947 14.0644 7.56252 13.8068L2.34882 8.57962C1.97421 8.21062 1.67915 7.76706 1.4822 7.27695C1.28525 6.78684 1.19067 6.26077 1.20444 5.7318C1.2182 5.2029 1.34 4.68258 1.56217 4.20364C1.78434 3.7247 2.10206 3.29751 2.49533 2.94898C2.8886 2.60045 3.3489 2.33812 3.84724 2.17852C4.34559 2.01892 4.87117 1.9655 5.39091 2.02162C5.91065 2.07775 6.41325 2.24221 6.86713 2.50463C7.32101 2.76706 7.71631 3.12178 8.0281 3.54645C8.34121 3.12486 8.73697 2.77324 9.19052 2.5136C9.64407 2.25396 10.1457 2.09188 10.6639 2.0375C11.1823 1.98313 11.706 2.03764 12.2025 2.19761C12.6991 2.35759 13.1576 2.61958 13.5495 2.96721C13.9414 3.31484 14.2582 3.7406 14.4801 4.21787C14.7019 4.69512 14.8241 5.21361 14.8389 5.74087C14.8537 6.26813 14.7608 6.79276 14.5661 7.28202C14.3715 7.77127 14.0791 8.21463 13.7074 8.58422" stroke="#888888" stroke-width="1.2" stroke-linecap="round" stroke-linejoin="round"/>
</svg>
