<svg width="20" height="20" viewBox="0 0 20 20" fill="none" xmlns="http://www.w3.org/2000/svg">
<g clip-path="url(#clip0_2051_698)">
<path d="M10 19.5C15.2467 19.5 19.5 15.2467 19.5 10C19.5 4.75329 15.2467 0.5 10 0.5C4.75329 0.5 0.5 4.75329 0.5 10C0.5 15.2467 4.75329 19.5 10 19.5Z" fill="#1DCADA"/>
<path d="M10 5.33594C12.4809 5.33594 14.5 7.35505 14.5 9.83594H11.8984C11.8984 8.78865 11.0473 7.93755 10 7.93755C8.95272 7.93755 8.10161 8.78865 8.10161 9.83594H5.5C5.5 7.35505 7.51911 5.33594 10 5.33594Z" fill="white"/>
<path d="M11.8906 14.7217H14.9083V15.1874H11.8906V14.7217ZM12.4186 14.4357L12.0813 14.0177L12.91 13.3467C13.075 13.2147 13.097 13.1634 13.097 13.101V13.0204H12.2316V12.5547H14.5453V13.0204H13.68V13.101C13.68 13.1634 13.702 13.2147 13.867 13.3467L14.6956 14.0177L14.3583 14.4357L13.5296 13.7647C13.4746 13.7207 13.4306 13.6767 13.3903 13.6364C13.3463 13.6767 13.3023 13.7207 13.2473 13.7647L12.4186 14.4357Z" fill="white"/>
<path d="M10.927 14.7706V12.3359H11.4734V14.7706H10.927ZM9.25871 14.6093H9.83438V15.1703H11.51V15.6249H9.25871V14.6093ZM8.73438 13.2049H9.34671V13.0106H8.73438V12.5449H9.92238V13.6339H9.31004V13.8283H10.0654V14.2976H8.73438V13.2049ZM10.0104 13.5789V13.1206H10.2487V12.3946H10.784V14.7009H10.2487V13.5789H10.0104Z" fill="white"/>
<path d="M5.33594 14.7314H8.3536V15.2008H5.33594V14.7314ZM5.63294 12.5938H8.0456V13.0521H7.63494V13.9651H8.0456V14.4198H5.63294V13.9651H6.03994V13.0521H5.63294V12.5938ZM6.6156 13.9651H7.06294V13.0521H6.6156V13.9651Z" fill="white"/>
</g>
<defs>
<clipPath id="clip0_2051_698">
<rect width="20" height="20" fill="white"/>
</clipPath>
</defs>
</svg>
