<svg width="16" height="16" viewBox="0 0 16 16" fill="none" xmlns="http://www.w3.org/2000/svg">
<path d="M8 14C6.71442 14 5.45772 13.6188 4.3888 12.9046C3.31988 12.1903 2.48676 11.1752 1.99479 9.98744C1.50282 8.79972 1.37409 7.49279 1.6249 6.23191C1.8757 4.97104 2.49477 3.81285 3.40381 2.90381C4.31285 1.99477 5.47104 1.3757 6.73192 1.1249C7.99279 0.874095 9.29973 1.00282 10.4874 1.49479C11.6752 1.98676 12.6903 2.81988 13.4046 3.8888C14.1188 4.95771 14.5 6.21442 14.5 7.5C14.5 8.57467 14.24 9.58722 13.7778 10.4806L14.5 14L10.9806 13.2778C10.0879 13.7393 9.07395 14 8 14Z" stroke="#888888" stroke-width="1.2" stroke-linecap="round" stroke-linejoin="round"/>
<circle cx="5.21763" cy="7.49888" r="0.928571" fill="#888888"/>
<circle cx="7.99888" cy="7.49888" r="0.928571" fill="#888888"/>
<circle cx="10.7879" cy="7.49888" r="0.928571" fill="#888888"/>
</svg>
