<svg width="529" height="104" viewBox="0 0 529 104" fill="none" xmlns="http://www.w3.org/2000/svg">
<rect x="186" y="80" width="156" height="22" fill="#D5FB4E"/>
<rect y="29" width="529" height="22" fill="#D5FB4E"/>
<path d="M15.9963 12.28C16.1163 13.4 16.1163 25.84 16.1163 37.28C17.6763 37.2 23.5563 37.24 24.9963 37.28C25.1563 38.84 25.1563 41.8 24.9963 43.72C22.2363 44 12.6763 43.96 9.15625 43.72C8.95625 40.68 8.91625 14.48 9.15625 12.28C10.7163 12 14.7963 12 15.9963 12.28ZM43.5828 43.92C32.8628 44.28 25.4628 39.44 25.4628 28C25.4628 16.56 32.8628 11.44 43.7828 12C43.9828 13.52 43.9828 17 43.7828 18.6C36.4228 18 32.3828 21.52 32.3828 28C32.3828 33.48 35.2628 36.88 40.5028 37.44V29.84C39.7428 29.92 38.6628 29.88 37.2228 29.84C37.1428 28.96 37.1428 25.12 37.2228 23.84C38.7828 23.6 43.5028 23.56 46.9028 23.8C47.1028 26.44 47.1428 41.44 46.9028 43.64C46.1828 43.8 44.8628 43.88 43.5828 43.92ZM62.9947 34.84C61.4347 34.52 57.5547 33.12 56.7147 32.2C58.5947 27.28 64.5547 14.28 66.3147 10.88C67.4747 10.76 70.8747 10.76 72.0347 10.88C73.7947 14.28 79.7547 27.28 81.6347 32.2C80.8347 33.12 76.9147 34.52 75.3947 34.84C74.5547 33.2 69.8347 22.16 69.1947 20.24C68.5147 22.16 63.8347 33.2 62.9947 34.84ZM56.5947 44.52C56.3147 42.96 56.3147 39.88 56.5947 38.36C58.2347 38.16 79.7547 38.2 81.7547 38.36C82.0347 39.96 82.0747 43.08 81.7547 44.52C79.7547 44.68 58.2347 44.68 56.5947 44.52ZM113.9 23.72C114.1 24.6 114.1 29.12 113.9 30C113.22 30.08 111.86 30.12 110.46 30.12C110.46 37.2 110.38 43.72 110.26 44.6C109.1 44.88 105.18 44.88 103.62 44.6C103.38 42.64 103.38 12.72 103.62 10.72C104.98 10.48 108.9 10.48 110.26 10.72C110.38 11.56 110.46 17.16 110.46 23.56C111.86 23.56 113.22 23.64 113.9 23.72ZM91.6603 36.96C93.6203 36.88 100.02 36.88 101.74 36.96C101.9 38 101.9 42 101.74 43.36C99.4203 43.64 87.3003 43.64 84.6603 43.36C84.3803 39.76 84.3803 15.16 84.6603 11.56C86.5803 11.32 97.9403 11.32 100.66 11.56C100.78 12.6 100.78 16.48 100.66 17.88C98.8203 17.92 92.9803 17.92 91.6603 17.88C91.6203 18.48 91.5803 21.68 91.5803 25.28C94.4203 25.24 98.8203 25.28 100.66 25.36C100.86 26.12 100.86 30.44 100.66 31.44C98.8203 31.52 94.4203 31.56 91.5803 31.52C91.5803 34.28 91.6203 36.48 91.6603 36.96ZM125.989 25.68C119.029 25.68 115.189 22.72 115.189 18.04C115.189 13.36 119.029 10.4 125.989 10.4C132.949 10.4 136.789 13.36 136.789 18.04C136.789 22.72 132.949 25.68 125.989 25.68ZM138.949 25.56C138.749 23.6 138.749 12.72 138.949 10.72C140.309 10.48 144.189 10.48 145.549 10.72C145.829 12.72 145.829 23.6 145.549 25.56C144.389 25.72 140.509 25.72 138.949 25.56ZM125.989 20.24C129.029 20.24 130.229 19.32 130.229 18.04C130.229 16.76 129.029 15.84 125.989 15.84C122.949 15.84 121.749 16.76 121.749 18.04C121.749 19.32 122.949 20.24 125.989 20.24ZM116.909 45.16C116.669 42.6 116.669 35.88 116.909 33.44C120.869 33.36 135.229 33.4 138.869 33.44V32.12C135.189 32.2 120.749 32.2 116.749 32.12C116.549 30.32 116.549 28.72 116.749 26.92C119.189 26.76 143.109 26.76 145.549 26.92C145.869 29.24 145.829 36.72 145.549 38.16C142.029 38.28 126.789 38.2 123.749 38.16V39.48C126.589 39.4 142.429 39.4 146.349 39.48C146.589 40.92 146.589 43.72 146.349 45.16C142.909 45.4 120.349 45.4 116.909 45.16ZM177.231 10.72C177.511 12.72 177.511 42.64 177.231 44.6C176.071 44.88 172.151 44.88 170.591 44.6C170.471 43.64 170.431 36.12 170.431 28.4C168.671 28.4 166.831 28.36 165.991 28.28C165.751 27.4 165.751 23.04 165.991 22.16C166.831 22.04 168.711 22 170.431 22C170.431 16.28 170.511 11.48 170.591 10.72C171.951 10.48 175.871 10.48 177.231 10.72ZM156.151 37C157.951 36.88 164.551 36.88 166.311 37C166.511 38.32 166.511 42 166.311 43.32C163.551 43.52 151.991 43.52 149.271 43.32C149.031 41.12 149.031 25.72 149.271 23.52C151.071 23.4 155.591 23.4 157.471 23.52C157.591 22.2 157.591 19.04 157.471 17.84C155.591 17.92 150.831 17.92 148.951 17.84C148.751 16.08 148.751 13.16 148.951 11.52C150.711 11.4 162.511 11.4 164.271 11.52C164.431 13.72 164.431 27.48 164.271 29.68C162.511 29.8 158.431 29.8 156.151 29.68C156.071 31.04 156.071 35.6 156.151 37ZM199.107 32.44C191.707 32.44 187.027 27.76 187.027 21.44C187.027 15.12 191.707 10.44 199.107 10.44C206.507 10.44 211.187 15.12 211.187 21.44C211.187 27.76 206.507 32.44 199.107 32.44ZM199.107 16.6C195.987 16.6 193.867 18.4 193.867 21.44C193.867 24.48 195.987 26.28 199.107 26.28C202.227 26.28 204.347 24.48 204.347 21.44C204.347 18.4 202.227 16.6 199.107 16.6ZM211.267 38.4C211.547 40 211.587 43.08 211.267 44.52C209.267 44.68 188.547 44.68 186.907 44.52C186.627 42.96 186.627 39.92 186.907 38.4C187.547 38.32 191.307 38.28 195.667 38.28C195.627 36.76 195.667 35.12 195.707 33.92C197.147 33.72 201.147 33.72 202.547 33.92C202.587 35.12 202.627 36.76 202.587 38.28C206.827 38.28 210.467 38.32 211.267 38.4ZM239.152 33.28C237.232 33.48 216.672 33.52 214.392 33.28C214.152 29.96 214.192 14.96 214.392 11.32C215.552 11.12 219.672 11.12 221.032 11.32C221.072 12.56 221.072 14.4 221.072 16.48C223.952 16.4 229.592 16.4 232.472 16.44C232.472 14.4 232.472 12.52 232.512 11.32C233.952 11.12 237.872 11.12 239.152 11.32C239.352 14.92 239.352 30.68 239.152 33.28ZM232.472 22.48C229.592 22.52 223.952 22.52 221.072 22.48C221.072 24.88 221.032 26.8 221.032 27.24C221.912 27.32 231.632 27.32 232.512 27.24C232.512 26.8 232.472 24.88 232.472 22.48ZM240.152 38.4C240.432 40 240.472 43.08 240.152 44.52C238.152 44.68 215.032 44.68 213.392 44.52C213.112 42.96 213.112 39.92 213.392 38.4C215.032 38.2 238.152 38.24 240.152 38.4ZM279.099 10.72C279.339 12.72 279.339 42.64 279.099 44.6C277.899 44.88 274.099 44.88 272.539 44.6C272.419 42.64 272.419 12.72 272.539 10.72C273.899 10.48 277.739 10.48 279.099 10.72ZM264.099 10.88C265.459 10.64 269.179 10.64 270.539 10.88C270.699 12.92 270.699 42.08 270.539 44.08C269.339 44.32 265.619 44.32 264.099 44.08C264.019 43.12 263.979 35.88 263.979 28.36C262.459 28.36 260.979 28.32 260.099 28.28C259.899 27.44 259.899 22.72 260.099 21.84C260.979 21.8 262.459 21.8 263.979 21.8C264.019 16.24 264.019 11.64 264.099 10.88ZM261.339 17.88C260.739 17.92 259.459 17.92 257.819 17.96C258.699 25.32 260.379 41.28 260.299 42.8C259.059 43.28 255.299 43.6 253.859 43.4C253.579 41.96 252.299 27.88 251.659 19.96C251.059 27.88 249.819 42.04 249.459 43.52C248.059 43.68 244.259 43.36 243.059 42.84C242.979 41.28 244.659 25.28 245.579 17.96C244.059 17.96 242.939 17.92 242.499 17.88C242.299 17 242.299 12.56 242.499 11.72C244.819 11.4 259.299 11.4 261.339 11.72C261.539 12.48 261.539 16.84 261.339 17.88ZM290.146 23.6C287.346 23.64 283.906 23.6 282.586 23.48C282.386 22.12 282.386 19.76 282.586 18.44C283.906 18.4 287.346 18.36 290.146 18.4C290.146 17.84 290.186 17.32 290.186 16.8C288.346 16.84 284.866 16.84 283.066 16.8C282.866 15.24 282.866 12.76 283.066 11.24C285.066 11 294.746 11.04 296.746 11.24C296.826 11.92 296.906 13.68 296.906 15.72C298.146 15.72 299.586 15.68 300.826 15.72C300.826 13.48 300.866 11.52 300.946 10.72C302.306 10.48 306.186 10.48 307.546 10.72C307.826 12.72 307.826 23.4 307.546 25.68C306.386 25.84 302.506 25.84 300.946 25.68C300.866 24.96 300.826 23.48 300.826 21.68H296.906C296.866 23.36 296.826 24.8 296.746 25.4C295.146 25.6 291.826 25.6 290.186 25.4C290.186 24.8 290.146 24.2 290.146 23.6ZM308.346 39.72C308.586 41.08 308.586 43.8 308.346 45.16C304.906 45.4 287.146 45.4 283.706 45.16C283.466 42.68 283.466 35.84 283.706 33.52C287.666 33.44 297.226 33.48 300.866 33.52V32.04C297.186 32.12 287.546 32.12 283.546 32.04C283.346 30.28 283.346 28.76 283.546 27.04C285.986 26.84 305.106 26.84 307.546 27.04C307.866 29.24 307.826 36.76 307.546 38.2C304.026 38.32 291.986 38.24 290.546 38.2V39.72C291.786 39.64 304.426 39.64 308.346 39.72ZM344.463 31.24C343.183 31.4 339.423 31.4 337.983 31.24C337.943 29.32 337.943 12.48 337.983 10.72C339.343 10.48 343.103 10.48 344.463 10.72C344.703 12.52 344.703 29.36 344.463 31.24ZM329.863 22.72C328.703 22.72 327.623 22.68 326.743 22.64C326.583 20.96 326.583 17.96 326.743 16.72C327.623 16.68 328.743 16.64 329.863 16.64C329.903 13.76 329.943 11.44 329.983 10.88C331.343 10.68 334.943 10.68 336.303 10.88C336.423 12.56 336.423 29.16 336.303 31.08C335.143 31.32 331.543 31.32 329.983 31.08C329.903 30.24 329.863 26.68 329.863 22.72ZM327.623 30.56C325.103 30.76 313.983 30.76 311.423 30.56C311.143 28.6 311.143 21.04 311.423 18.48C313.143 18.4 316.823 18.4 318.983 18.48V16.64C316.863 16.68 313.023 16.68 311.303 16.64C311.103 15.2 311.103 12.76 311.303 11.36C312.903 11.16 323.463 11.16 325.063 11.36C325.263 13.24 325.263 21 325.063 23.28C323.463 23.36 318.863 23.36 317.783 23.28V25.16C318.903 25.12 325.983 25.12 327.623 25.16C327.823 26.28 327.823 29.4 327.623 30.56ZM311.783 32.68C313.823 32.48 342.463 32.48 344.463 32.68C344.663 34.36 344.663 43.4 344.463 45.04C342.863 45.16 339.263 45.16 337.583 45.04C337.543 43.84 337.583 40.24 337.583 38.72C335.743 38.8 313.583 38.8 311.783 38.72C311.663 37.76 311.663 33.84 311.783 32.68ZM372.938 19.6C370.938 19.64 368.538 19.6 367.578 19.52C367.418 18.68 367.418 14.44 367.578 13.56C368.538 13.44 370.978 13.4 372.978 13.44C373.018 12.04 373.018 11.08 373.058 10.72C374.418 10.48 378.338 10.48 379.698 10.72C379.978 12.72 379.978 33.56 379.698 35.56C378.538 35.72 374.618 35.72 373.058 35.56C373.018 34.88 372.978 31.76 372.938 28C371.018 28 368.738 27.96 367.778 27.92C367.618 27.08 367.618 22.84 367.778 21.96C368.738 21.84 371.018 21.8 372.938 21.84V19.6ZM356.698 20.16C355.138 25 353.218 30.76 352.658 31.84C351.338 31.6 347.578 30.16 346.498 29.36C346.938 27.48 352.298 12.92 353.218 11C354.498 10.92 358.538 10.92 359.778 11C360.658 12.92 366.858 27.8 367.458 29.72C366.418 30.52 362.778 32.12 361.458 32.4C360.698 31.36 358.298 24.92 356.698 20.16ZM380.098 38.28C380.338 39.64 380.338 43.24 380.098 44.56C377.378 44.72 351.938 44.72 349.058 44.56C348.898 41.84 348.858 35.76 349.058 33.36C350.418 33.12 354.458 33.12 355.858 33.36C355.898 34.68 355.938 37.2 355.858 38.28C357.698 38.2 378.338 38.16 380.098 38.28ZM395.088 28.12C393.608 27.16 391.128 24.64 390.248 23.2C393.528 19.6 399.688 13.52 402.368 10.88C403.728 10.76 407.408 10.76 408.768 10.88C411.448 13.52 417.608 19.6 420.888 23.2C420.008 24.64 417.528 27.16 416.048 28.12C414.328 26.72 407.208 19.48 405.568 17.6C403.928 19.48 396.808 26.72 395.088 28.12ZM421.728 29.52C422.008 31.12 422.048 34.16 421.728 35.6C421.208 35.64 418.928 35.68 415.808 35.68C415.888 38.76 415.848 43.32 415.688 44.8C414.568 45.04 410.848 45.04 409.368 44.8C409.248 43.36 409.208 38.76 409.288 35.72H401.808C401.888 38.76 401.848 43.36 401.728 44.8C400.608 45.04 396.888 45.04 395.408 44.8C395.248 43.32 395.208 38.76 395.288 35.68C392.128 35.68 389.808 35.64 389.368 35.6C389.088 34.04 389.088 31.04 389.368 29.52C391.008 29.32 419.728 29.36 421.728 29.52ZM456.7 10.72C456.94 12.72 456.94 42.64 456.7 44.6C455.5 44.88 451.7 44.88 450.14 44.6C450.02 42.64 450.02 12.72 450.14 10.72C451.5 10.48 455.34 10.48 456.7 10.72ZM441.62 10.88C442.98 10.64 446.7 10.64 448.06 10.88C448.22 12.88 448.22 42.08 448.06 44.08C446.86 44.32 443.14 44.32 441.62 44.08C441.54 43.16 441.5 36.6 441.5 29.56H437.82C437.82 36.32 437.74 42.6 437.66 43.36C436.06 43.48 432.54 43.48 430.9 43.36C430.86 42.16 430.86 37.64 430.86 32.72C428.38 32.76 425.3 32.72 424.02 32.6C423.78 31.76 423.78 27.48 424.02 26.6C425.3 26.52 428.38 26.48 430.86 26.52C430.86 22.48 430.86 19.04 430.9 18.04C429.06 18.12 426.18 18.12 424.38 18.04C424.22 16.88 424.22 12.8 424.38 11.64C426.38 11.44 435.66 11.44 437.66 11.64C437.74 12.32 437.78 17.4 437.82 23.36C438.98 23.32 440.22 23.32 441.5 23.36C441.5 17.12 441.54 11.72 441.62 10.88ZM486.084 44.6C485.844 42.64 485.844 12.72 486.084 10.72C487.444 10.48 491.364 10.48 492.724 10.72C493.004 12.72 493.004 42.64 492.724 44.6C491.564 44.88 487.644 44.88 486.084 44.6ZM471.844 43.52C464.164 43.52 459.524 38.32 459.524 27.36C459.524 16 464.484 11.2 471.844 11.2C479.564 11.2 484.164 16.44 484.164 27.36C484.164 38.72 479.204 43.52 471.844 43.52ZM471.844 37.24C475.164 37.24 477.244 34.04 477.244 27.36C477.244 20.44 474.964 17.48 471.844 17.48C468.524 17.48 466.444 20.64 466.444 27.36C466.444 34.32 468.724 37.24 471.844 37.24ZM502.018 34.84C500.458 34.52 496.578 33.12 495.738 32.2C497.618 27.28 503.578 14.28 505.338 10.88C506.498 10.76 509.898 10.76 511.058 10.88C512.818 14.28 518.778 27.28 520.658 32.2C519.858 33.12 515.938 34.52 514.418 34.84C513.578 33.2 508.858 22.16 508.218 20.24C507.538 22.16 502.858 33.2 502.018 34.84ZM495.618 44.52C495.338 42.96 495.338 39.88 495.618 38.36C497.258 38.16 518.778 38.2 520.778 38.36C521.058 39.96 521.098 43.08 520.778 44.52C518.778 44.68 497.258 44.68 495.618 44.52ZM228.028 69.04C228.228 69.92 228.228 74.16 228.028 75C227.348 75.08 225.988 75.16 224.588 75.16C224.548 77.96 224.508 80.36 224.388 81.08C223.228 81.24 219.348 81.24 217.788 81.08C217.588 79.12 217.588 64.72 217.788 62.72C219.148 62.48 223.028 62.48 224.388 62.72C224.508 63.48 224.548 65.96 224.588 68.88C225.988 68.88 227.348 68.96 228.028 69.04ZM215.228 80.08C212.908 80.24 197.908 80.24 195.268 80.08C194.988 76.52 194.988 66.8 195.268 63.24C197.188 63.08 212.228 63.08 213.348 63.24C213.468 64.28 213.468 67.68 213.348 69.08C212.708 69.12 203.388 69.12 202.068 69.08C201.948 70.12 201.948 72.76 202.068 74.16C204.028 74.08 213.508 74.08 215.228 74.16C215.388 75.16 215.388 78.72 215.228 80.08ZM210.428 81.68C221.228 81.68 225.388 84.48 225.388 89.68C225.388 94.88 221.228 97.68 210.428 97.68C199.628 97.68 195.468 94.88 195.468 89.68C195.468 84.48 199.628 81.68 210.428 81.68ZM210.428 91.96C216.828 91.96 218.428 91.16 218.428 89.68C218.428 88.2 216.828 87.4 210.428 87.4C204.028 87.4 202.428 88.2 202.428 89.68C202.428 91.16 204.028 91.96 210.428 91.96ZM234.87 82.4C233.51 82.12 230.07 80.56 229.11 79.72C229.51 78.48 231.27 74.36 232.67 71.2C231.19 71.2 230.07 71.16 229.59 71.12C229.39 70.28 229.39 66.12 229.59 65.24C230.39 65.16 232.63 65.12 235.31 65.08C235.31 63.8 235.35 62.44 235.43 61.56C236.79 61.36 241.03 61.36 242.43 61.56C242.51 62.44 242.55 63.8 242.55 65.08C245.11 65.12 247.23 65.16 247.95 65.24C248.15 66.04 248.15 70.12 247.95 71.12C247.43 71.16 246.43 71.16 245.11 71.2C246.51 74.36 248.27 78.48 248.67 79.72C247.71 80.56 244.27 82.12 242.91 82.4C242.15 81.32 240.23 76.64 238.91 73.12C237.55 76.64 235.63 81.32 234.87 82.4ZM252.95 76.88C251.59 76.88 250.23 76.84 249.03 76.8C248.83 75.08 248.87 72.24 249.03 70.84C250.19 70.76 251.55 70.72 252.91 70.76C252.95 67 252.99 63.6 253.07 62.72C254.43 62.48 258.31 62.48 259.67 62.72C259.95 64.72 259.95 80.4 259.67 82.4C258.51 82.56 254.63 82.56 253.07 82.4C252.99 81.76 252.95 79.56 252.95 76.88ZM231.03 83.8C233.15 83.56 257.55 83.56 259.67 83.8C259.95 85.76 259.95 95.08 259.67 97C257.75 97.2 232.95 97.2 231.03 97C230.75 95.08 230.75 85.76 231.03 83.8ZM252.99 91.56C253.07 90.84 253.07 90 252.99 89.28C251.47 89.2 239.19 89.16 237.75 89.28C237.67 90 237.67 90.84 237.75 91.56C239.23 91.68 251.51 91.68 252.99 91.56ZM301.789 67.64C301.989 68.48 301.989 72.72 301.789 73.6C301.109 73.68 299.749 73.72 298.349 73.72C298.309 75.6 298.229 77.16 298.149 77.88C296.989 78.04 293.109 78.04 291.549 77.88C291.349 75.6 291.349 64.88 291.549 62.72C292.909 62.48 296.789 62.48 298.149 62.72C298.269 63.44 298.309 65.28 298.349 67.48C299.749 67.48 301.109 67.56 301.789 67.64ZM288.869 77.48C286.949 77.64 272.469 77.68 270.189 77.48C269.909 74.4 269.949 65.32 270.189 63.04C271.349 62.84 275.269 62.84 276.629 63.04C276.629 63.6 276.669 64.36 276.669 65.2C278.389 65.16 280.789 65.16 282.429 65.2C282.429 64.36 282.469 63.6 282.469 63.04C283.909 62.84 287.589 62.84 288.869 63.04C289.109 65.28 289.109 75.08 288.869 77.48ZM276.669 70.2C276.669 71.12 276.629 71.88 276.629 72.28C277.509 72.36 281.589 72.36 282.469 72.28C282.469 71.88 282.429 71.12 282.429 70.2H276.669ZM277.949 90.28V91.64C280.789 91.56 295.029 91.56 298.949 91.64C299.189 93.04 299.189 95.76 298.949 97.16C295.509 97.4 274.549 97.4 271.109 97.16C270.869 94.64 270.869 88.04 271.109 85.64C275.069 85.56 287.829 85.6 291.469 85.64V84.32C287.789 84.4 274.949 84.4 270.949 84.32C270.749 82.52 270.749 81 270.949 79.24C273.389 79.08 295.709 79.08 298.149 79.24C298.469 81.52 298.429 88.88 298.149 90.28C294.629 90.4 280.989 90.32 277.949 90.28ZM304.06 75.92C304.46 75.88 305.9 75.88 307.94 75.84C307.74 73.96 307.46 71.28 307.34 69.52H304.1C303.9 68.12 303.9 64.8 304.1 63.44C306.02 63.16 331.38 63.16 333.5 63.44C333.7 64.72 333.7 68.04 333.5 69.52H330.26C330.14 71.28 329.86 73.96 329.66 75.84C331.7 75.88 333.1 75.88 333.54 75.92C333.78 77.36 333.78 80.16 333.54 81.96C331.46 82.2 305.98 82.2 304.06 81.96C303.82 80.28 303.82 77.44 304.06 75.92ZM314.26 69.52C314.46 71.4 314.7 74 314.82 75.8H322.78C322.9 74 323.14 71.4 323.34 69.52H314.26ZM334.58 90.4C334.86 92 334.9 95.08 334.58 96.52C332.58 96.68 304.66 96.68 303.02 96.52C302.74 94.96 302.74 91.92 303.02 90.4C303.42 90.36 305.54 90.32 308.5 90.28C308.46 88.2 308.5 85.6 308.62 84.12C309.98 84 313.9 84 315.26 84.12C315.34 85.6 315.38 88.16 315.34 90.28H322.26C322.22 88.16 322.26 85.6 322.34 84.12C323.7 84 327.62 84 328.98 84.12C329.1 85.6 329.14 88.2 329.1 90.32C331.98 90.32 334.1 90.36 334.58 90.4Z" fill="#00A76F"/>
</svg>
