<svg width="143" height="112" viewBox="0 0 143 112" fill="none" xmlns="http://www.w3.org/2000/svg">
<g clip-path="url(#clip0_9581_15751)">
<path d="M12.2656 90.9533L12.3039 90.9522C12.2619 90.7955 12.2205 90.641 12.1808 90.4928C12.1553 90.3976 12.1298 90.3023 12.1037 90.2049C11.2569 87.0446 14.945 84.7859 20.5283 81.3683C21.2891 80.9012 22.0836 80.4161 22.9027 79.9039C30.4683 75.1861 45.6879 66.0805 49.3083 63.917C49.6774 58.8428 56.0138 50.0801 59.9572 45.0782C66.5352 36.734 73.973 29.2757 78.9075 26.0818C80.7868 24.8636 83.5225 23.391 85.5589 24.658C87.5867 25.9183 88.0535 28.9831 86.9868 34.031C86.6689 35.5318 86.2695 36.9661 85.9246 38.0953C88.9283 38.089 92.7977 38.7197 97.5743 39.9808C99.9065 40.5969 102.146 41.2832 104.087 41.9203C105.908 39.3246 105.697 36.3432 105.493 33.451C105.278 30.4298 105.057 27.3061 107.769 25.5946C108.525 25.1176 109.361 24.88 110.236 24.8884C110.197 20.8876 112.265 15.7029 116.175 14.3399C118.243 13.6203 120.381 14.361 121.499 16.1828C122.62 18.0126 122.629 20.9368 120.119 23.3429C118.982 24.4325 118.533 25.5055 118.749 26.6251C118.8 26.8837 118.882 27.1204 118.971 27.3257C118.991 27.3477 119.009 27.3724 119.028 27.3944C126.567 37.5664 128.38 48.8328 128.61 50.4614C129.796 51.8701 130.843 53.6926 131.741 55.9249C132.873 58.7433 133.393 61.3127 133.517 61.9693C136.574 62.8313 139.133 65.2696 140.026 68.6014C141.362 73.5885 138.473 78.7096 133.588 80.0186L122.683 82.9404C121.46 83.2681 120.164 82.9644 119.216 82.1316L117.822 80.9078L117.324 82.5409C116.94 83.7942 115.956 84.7429 114.691 85.082L88.2572 92.1648C88.2572 92.1648 88.2487 92.1671 88.2445 92.1682C82.1956 93.789 68.2847 97.5119 68.0452 97.5761C67.4962 97.7232 66.9093 97.5673 66.5062 97.1649L65.6604 96.3229L65.3379 97.4507C65.1809 98.001 64.7457 98.4284 64.1838 98.5608C55.0487 100.795 46.9168 102.128 40.01 102.522C39.4241 102.557 38.8663 102.264 38.5595 101.763L38.1869 101.153L37.7965 101.84C37.5151 102.333 36.9933 102.641 36.425 102.648C13.4664 102.878 12.2992 91.4434 12.2619 90.9566L12.2656 90.9533ZM83.869 33.3736C84.7756 29.0764 84.2025 27.5988 83.8884 27.3676C83.7646 27.3463 82.2403 27.1853 77.6005 31.0126C75.8369 32.4675 73.8724 34.3007 71.838 36.3726C74.645 37.1247 77.4647 38.4496 79.7828 39.7251C80.4802 39.1571 81.3695 38.7373 82.4576 38.4662C82.8178 37.3941 83.4325 35.4325 83.869 33.3736ZM96.7582 43.0559C90.0722 41.29 86.2848 41.0842 84.1464 41.3691C83.9955 41.4164 83.8368 41.443 83.6755 41.4431C83.4076 41.4945 83.1685 41.5517 82.9604 41.6143C84.2352 42.4298 85.0481 43.0219 85.1532 43.1004C85.8627 43.6204 86.0138 44.6167 85.4906 45.3263C85.2673 45.6289 84.9577 45.8298 84.6207 45.9201C84.1693 46.0411 83.6693 45.9641 83.2642 45.6643C83.185 45.6061 75.549 40.0405 69.2637 39.0748C67.6476 40.826 66.0194 42.6847 64.4478 44.585C67.0292 45.275 69.6223 46.5086 71.723 47.6768C73.2403 46.1926 74.6473 44.7969 75.8609 43.5869C76.9098 44.0931 77.9096 44.6284 78.8085 45.143C77.5932 46.3557 76.1377 47.8075 74.5419 49.3717C75.5452 50.0217 76.1798 50.4824 76.2676 50.5473C76.9771 51.0673 77.1282 52.0636 76.6072 52.7727C76.3839 53.0753 76.0743 53.2762 75.7373 53.3665C75.2858 53.4875 74.7859 53.4104 74.3786 53.1112C74.3107 53.0613 67.6769 48.2346 62.2157 47.352C61.7195 47.9841 61.2329 48.6182 60.7569 49.2494C59.8174 50.4993 58.9731 51.6716 58.2158 52.7707C60.1945 53.3136 62.1737 54.2149 63.857 55.1137C65.1496 53.9438 66.461 52.7258 67.7475 51.5076C68.8155 52.0178 69.8229 52.5645 70.7134 53.0815C69.4072 54.3276 68.0676 55.5849 66.7339 56.8044C67.7021 57.4253 68.3199 57.8745 68.3991 57.9327C69.1086 58.4527 69.2603 59.4512 68.7366 60.1587C68.5133 60.4613 68.2042 60.6643 67.8673 60.7546C67.4158 60.8756 66.9132 60.797 66.5086 60.4993C66.4514 60.4556 60.9736 56.4671 56.3446 55.6044C53.926 59.4558 52.7999 62.1284 52.5373 63.6666C53.4229 63.3431 55.4156 62.2851 59.5396 58.8728C60.6468 59.3339 61.7164 59.8754 62.6666 60.4035C55.4336 66.5659 52.8959 67.2005 51.3983 66.9439C51.172 66.9047 50.9597 66.8413 50.7592 66.7544C46.8373 69.0984 32.0098 77.9719 24.5886 82.6012C23.761 83.1156 22.9597 83.6094 22.1904 84.0787C19.839 85.5187 17.8095 86.7613 16.5004 87.8357C15.1862 88.9162 15.1788 89.3719 15.18 89.3761C15.2083 89.482 15.2361 89.5857 15.2633 89.6873C15.5282 90.7098 15.6313 91.018 16.1875 91.3136C17.2211 91.8648 19.422 92.1349 22.9207 92.1367C23.157 92.1369 23.4189 92.1393 23.7052 92.1397C27.348 92.1619 34.9268 92.207 45.484 89.8456C48.4846 89.1754 51.492 88.3605 54.5034 87.4084L71.706 67.417C73.755 65.0349 76.7306 63.5592 79.8712 63.3688L93.7032 62.5302C98.0504 57.3905 103.19 51.3171 107.344 46.4221C105.054 45.5836 101.026 44.1811 96.7555 43.0543L96.7582 43.0559ZM83.457 73.9535C83.5001 73.9193 83.5458 73.8866 83.597 73.8571L84.7369 73.1433C85.3987 72.3579 87.7446 69.5831 90.863 65.8935L80.0642 66.5477C77.7796 66.6857 75.6164 67.76 74.1251 69.4936L60.4979 85.3303C68.1733 82.4297 75.8524 78.6275 83.4591 73.953L83.457 73.9535ZM99.837 63.7021C99.8523 63.6912 99.8708 63.684 99.8866 63.6752C105.853 57.2192 111.572 52.1135 113.378 50.6222C117.425 47.2782 121.174 46.2124 124.521 47.4549C124.607 47.4864 124.692 47.5248 124.779 47.5606C124.012 44.3675 122.481 39.3668 119.625 34.2175C119.342 36.1016 118.631 38.1276 117.111 39.8755C114.661 42.692 101.68 58.0333 93.5765 67.6189L99.8376 63.7043L99.837 63.7021ZM109.471 28.2831C108.422 28.9454 108.48 30.5111 108.67 33.2212C108.878 36.1511 109.126 39.6853 107.189 42.9788C108.168 43.3267 108.97 43.6245 109.537 43.8381C112.013 40.9218 113.911 38.698 114.706 37.7838C115.7 36.6419 116.203 35.2798 116.432 33.966C115.112 31.8036 112.588 28.6072 110.622 28.1199C110.177 28.01 109.822 28.0575 109.471 28.281L109.471 28.2831ZM117.914 21.0479C119.144 19.8674 119.236 18.5904 118.78 17.8481C118.583 17.5267 118.121 17.0312 117.224 17.3463C114.444 18.3136 112.97 23.3095 113.528 26.0096C114.338 26.539 115.104 27.2117 115.8 27.9281C115.748 27.7674 115.702 27.6028 115.661 27.4275C115.303 25.8447 115.403 23.4518 117.913 21.0458L117.914 21.0479ZM123.411 50.4388C121.209 49.6222 118.516 50.5093 115.41 53.0749C112.763 55.261 105.221 62.1959 98.8042 69.6734C96.3318 72.5524 94.4172 75.046 92.9377 77.2053L128.527 62.0132C128.596 61.9834 128.667 61.9598 128.741 61.9399C129.229 61.8093 129.717 61.7239 130.204 61.6773C129.457 58.3223 127.288 51.8795 123.411 50.4409L123.411 50.4388ZM90.1789 88.358L113.866 82.0111C114.059 81.9594 114.216 81.8084 114.275 81.6155L114.907 79.5473C115.195 78.6057 115.935 77.8812 116.882 77.6114C117.828 77.3422 118.841 77.5699 119.581 78.2201L121.321 79.7459C121.467 79.8768 121.668 79.9228 121.859 79.8717L132.763 76.9498C135.951 76.0957 137.827 72.7229 136.946 69.4335C136.065 66.144 132.826 64.2054 129.67 64.9899L90.1202 81.8738C88.2937 85.4509 88.1 87.6105 88.3292 88.8559C89.391 88.5713 90.0692 88.3896 90.171 88.3624L90.1837 88.3589L90.1789 88.358ZM35.4843 99.4673L35.9874 98.5815C36.4307 97.8026 37.2329 97.329 38.1283 97.3137C39.0264 97.2999 39.8396 97.749 40.3078 98.5129L40.781 99.2868C47.0576 98.8551 54.3639 97.646 62.5265 95.6903L62.7374 94.9599C63.0186 93.9748 63.7759 93.232 64.7635 92.9673L64.7847 92.9616C65.7831 92.7032 66.8159 92.98 67.547 93.7075L68.1081 94.2673C70.9015 93.5188 79.6363 91.1806 85.2448 89.68C84.6445 86.9732 85.5028 83.5806 87.8752 79.3195C89.1529 77.0261 90.8709 74.4853 93.0085 71.73L86.7452 75.6452C86.7022 75.6794 86.6612 75.7131 86.6143 75.7415C74.7199 83.2347 62.623 88.6495 50.5952 91.8723C49.1222 92.267 47.6519 92.6292 46.1815 92.9574C35.2722 95.3951 27.4481 95.3499 23.6871 95.3276C23.405 95.326 23.1501 95.324 22.9186 95.3248C21.0963 95.323 19.6039 95.2555 18.3679 95.1103C22.6537 98.6174 29.8547 99.4398 35.4864 99.4668L35.4843 99.4673Z" fill="white"/>
</g>
<path d="M51 28.5C43.3326 30.6166 41.6166 32.3326 39.5 40C37.3834 32.3326 35.6674 30.6166 28 28.5C35.6674 26.3834 37.3834 24.6674 39.5 17C41.6166 24.6674 43.3326 26.3834 51 28.5Z" fill="white"/>
<path d="M57 6C53 7.10414 52.1041 8 51 12C49.8959 8 49 7.10414 45 6C49 4.89586 49.8959 4 51 0C52.1041 4 53 4.89586 57 6Z" fill="white"/>
<defs>
<clipPath id="clip0_9581_15751">
<rect width="129.262" height="67.9627" fill="white" transform="matrix(-0.965926 0.258819 0.258819 0.965926 124.859 12)"/>
</clipPath>
</defs>
</svg>
