<svg width="152" height="88" viewBox="0 0 152 88" fill="none" xmlns="http://www.w3.org/2000/svg">
<path d="M126.964 61.4516C126.873 61.4331 126.779 61.4272 126.689 61.4088C126.689 61.4057 126.689 61.3995 126.692 61.3963C129.478 47.7019 120.623 34.353 106.918 31.5833C103.734 30.9385 100.571 30.9313 97.5507 31.4548C94.0774 20.3525 84.8225 11.4341 72.6045 8.96227C62.5089 6.92033 52.5585 9.71953 45.1548 15.7571C44.9356 15.7079 44.7196 15.6524 44.4973 15.6063C35.6383 13.8162 26.9174 16.5891 20.7642 22.3064C11.4999 23.2403 3.51964 30.077 1.5667 39.6705C-0.833587 51.4662 6.79246 62.9661 18.6004 65.3519C21.1047 65.8585 23.592 65.8902 25.9844 65.5502C28.3534 66.8669 30.9592 67.8514 33.7578 68.4163C38.1467 69.3037 42.4979 69.066 46.5242 67.9105C50.2582 70.6413 54.6221 72.6353 59.4554 73.6148C67.053 75.1501 74.5869 81.8149 81.0006 78.5503C84.5885 83.7884 90.1147 79.8143 96.8326 81.1746C102.502 82.3199 108.112 81.4744 112.942 79.1188C114.57 82.6637 117.8 85.4151 121.92 86.2472C128.772 87.632 135.455 83.2068 136.849 76.3596C138.241 69.5124 133.817 62.8364 126.964 61.4516Z" fill="#568EFF"/>
<path d="M124.485 87.498C123.575 87.5013 122.648 87.414 121.722 87.2267C117.802 86.4345 114.413 83.9244 112.488 80.4306C107.489 82.6461 102.028 83.2441 96.6344 82.151C94.249 81.6689 92.0283 81.8989 89.8827 82.1224C86.4517 82.4818 83.1926 82.8186 80.6842 79.7864C76.3279 81.5183 71.6102 79.4318 67.0398 77.4135C64.4836 76.285 61.8397 75.1131 59.2603 74.5942C54.5646 73.6454 50.2167 71.7639 46.3325 69.0024C42.1371 70.1303 37.8419 70.2647 33.5626 69.3957C30.8392 68.846 28.2272 67.8991 25.7956 66.5826C23.2968 66.9011 20.8124 66.8163 18.4051 66.3281C6.08064 63.8347 -1.90989 51.7891 0.595279 39.471C2.57596 29.7303 10.4862 22.4875 20.335 21.3515C26.9161 15.3825 35.9976 12.8708 44.7001 14.6303C44.7722 14.6456 44.841 14.661 44.913 14.6764C52.8011 8.4276 62.9402 5.98714 72.8073 7.98617C84.6748 10.3874 94.3478 18.9136 98.2412 30.3396C101.2 29.9225 104.185 30.0117 107.124 30.6074C114.014 32.0015 119.945 35.9902 123.825 41.8431C127.527 47.4247 128.941 54.0586 127.853 60.6328C131.137 61.4711 133.952 63.4644 135.837 66.3082C137.852 69.3454 138.56 72.9843 137.835 76.5565C136.523 83.0033 130.836 87.4718 124.494 87.4949L124.485 87.498ZM113.423 77.7828L113.847 78.7065C115.4 82.086 118.491 84.541 122.12 85.2748C128.424 86.5491 134.595 82.4633 135.875 76.1635C136.495 73.1137 135.889 70.0026 134.17 67.4083C132.448 64.8139 129.821 63.0449 126.766 62.4278C126.741 62.4216 126.713 62.4217 126.688 62.4155C126.628 62.4095 126.572 62.4003 126.512 62.388L125.533 62.2135L125.72 61.1688C127.007 54.8345 125.743 48.3533 122.158 42.9432C118.57 37.5331 113.087 33.8459 106.72 32.5562C103.743 31.9544 100.714 31.9122 97.7216 32.4326L96.8616 32.5826L96.6027 31.749C93.1168 20.606 83.8447 12.2471 72.4062 9.93494C62.9648 8.02501 53.2605 10.4295 45.7818 16.5268L45.4073 16.8345L44.6841 16.6683C44.5557 16.6375 44.4273 16.6067 44.299 16.5822C36.1192 14.9271 27.5725 17.3399 21.4411 23.0353L21.1946 23.2644L20.863 23.2969C11.7333 24.2177 4.37193 30.8772 2.5424 39.8671C0.256272 51.1061 7.54925 62.104 18.7969 64.3762C21.0883 64.8399 23.4569 64.9032 25.843 64.5632L26.1745 64.5151L26.4659 64.6766C28.8005 65.9747 31.3185 66.9064 33.9512 67.4376C38.074 68.2728 42.2095 68.1078 46.2453 66.9491L46.7142 66.8161L47.1061 67.1054C50.8589 69.8518 55.0785 71.7119 59.6489 72.6361C62.4412 73.2011 65.1853 74.4133 67.8386 75.5884C72.4561 77.6283 76.8197 79.5598 80.5436 77.6615L81.3246 77.2648L81.8179 77.985C83.7186 80.76 86.2145 80.4978 89.6737 80.1383C91.8631 79.9115 94.3433 79.6525 97.0292 80.196C102.31 81.2645 107.661 80.5825 112.504 78.2237L113.419 77.7766L113.423 77.7828Z" fill="white"/>
<path d="M68.7486 28.3693C70.793 28.7844 71.4436 25.6052 69.3929 25.1932C67.3484 24.778 66.6979 27.9572 68.7486 28.3693Z" fill="white"/>
<path d="M78.2564 31.2139C80.3008 31.6291 80.9514 28.4499 78.9007 28.0379C76.8563 27.6227 76.2057 30.8019 78.2564 31.2139Z" fill="white"/>
<path d="M61.6758 34.7264C66.0421 39.5985 72.4962 44.9043 79.1246 40.5732C80.8762 39.4291 79.0817 36.7275 77.3333 37.8716C72.1005 41.2912 67.0758 35.9211 63.8364 32.3084C62.4427 30.7529 60.2978 33.1896 61.6758 34.7264Z" fill="white"/>
<path d="M133.61 23.2284L129.506 10.036L119.039 10.3962L122.322 21.1234C122.075 21.0434 121.811 20.9984 121.537 20.9985C120.157 20.9988 119.037 22.0922 119.037 23.4418C119.036 24.7915 120.155 25.8845 121.536 25.8842C122.917 25.8839 124.035 24.7905 124.036 23.4408C124.036 22.9658 123.895 22.5231 123.654 22.148L121.538 15.0493L129.413 15.0477L131.983 22.1877C131.837 22.1616 131.687 22.1464 131.534 22.1464C130.154 22.1467 129.034 23.2401 129.034 24.5898C129.033 25.9394 130.152 27.0324 131.533 27.0321C132.914 27.0318 134.032 25.9384 134.033 24.5888C134.033 24.0849 133.876 23.617 133.609 23.2284L133.61 23.2284Z" fill="white"/>
<path d="M146.753 0.0376315L145.338 8.56652C144.824 7.775 143.935 7.25054 142.922 7.25074C141.33 7.25105 140.037 8.54703 140.037 10.1433C140.037 11.7397 141.327 13.0351 142.921 13.0348C144.431 13.0345 145.667 11.8711 145.792 10.3886L146.672 5.84599L149.766 8.38267L151.036 3.29849L146.751 0.0357744L146.753 0.0376315Z" fill="white"/>
</svg>
