<svg width="385" height="88" viewBox="0 0 385 88" fill="none" xmlns="http://www.w3.org/2000/svg">
<path d="M19.2531 35.6C19.0131 33.64 19.0131 3.72 19.2531 1.72C20.6131 1.48 24.5331 1.48 25.8931 1.72C26.1731 3.72 26.1731 33.64 25.8931 35.6C24.7331 35.88 20.8131 35.88 19.2531 35.6ZM0.293125 34.44C0.013125 32.36 0.013125 4.72 0.293125 2.64C2.41313 2.28 14.6931 2.28 16.8131 2.64C17.0531 4.68 17.0531 32.28 16.8131 34.44C14.8531 34.6 2.21313 34.6 0.293125 34.44ZM6.85313 28.32C7.65313 28.44 9.57313 28.44 10.3331 28.32C10.4531 25.6 10.4531 11.44 10.3331 8.76C9.57313 8.6 7.65313 8.6 6.85313 8.76C6.73313 11.44 6.73313 25.6 6.85313 28.32ZM54.43 10.6C52.43 10.64 50.03 10.6 49.07 10.52C48.91 9.68 48.91 5.44 49.07 4.56C50.03 4.44 52.47 4.4 54.47 4.44C54.51 3.04 54.51 2.08 54.55 1.72C55.91 1.48 59.83 1.48 61.19 1.72C61.47 3.72 61.47 24.56 61.19 26.56C60.03 26.72 56.11 26.72 54.55 26.56C54.51 25.88 54.47 22.76 54.43 19C52.51 19 50.23 18.96 49.27 18.92C49.11 18.08 49.11 13.84 49.27 12.96C50.23 12.84 52.51 12.8 54.43 12.84V10.6ZM38.19 11.16C36.63 16 34.71 21.76 34.15 22.84C32.83 22.6 29.07 21.16 27.99 20.36C28.43 18.48 33.79 3.92 34.71 2C35.99 1.92 40.03 1.92 41.27 2C42.15 3.92 48.35 18.8 48.95 20.72C47.91 21.52 44.27 23.12 42.95 23.4C42.19 22.36 39.79 15.92 38.19 11.16ZM61.59 29.28C61.83 30.64 61.83 34.24 61.59 35.56C58.87 35.72 33.43 35.72 30.55 35.56C30.39 32.84 30.35 26.76 30.55 24.36C31.91 24.12 35.95 24.12 37.35 24.36C37.39 25.68 37.43 28.2 37.35 29.28C39.19 29.2 59.83 29.16 61.59 29.28ZM74.8634 13.56C67.9434 13.56 64.6634 11.08 64.6634 7.2C64.6634 3.32 67.9434 0.839998 74.8634 0.839998C81.7834 0.839998 85.0634 3.32 85.0634 7.2C85.0634 11.08 81.7834 13.56 74.8634 13.56ZM74.8634 8.56C77.3834 8.56 78.1034 7.92 78.1034 7.2C78.1034 6.48 77.3834 5.84 74.8634 5.84C72.3434 5.84 71.6234 6.48 71.6234 7.2C71.6234 7.92 72.3434 8.56 74.8634 8.56ZM64.0234 19.72C63.8234 18.44 63.8234 15.64 64.0234 14.36C65.9834 14.24 83.3834 14.24 85.7434 14.36C85.9434 15.56 85.9034 18.4 85.7434 19.72C83.3834 19.84 65.9834 19.84 64.0234 19.72ZM65.0234 36.6C64.7834 34.44 64.7834 28.8 65.0234 26.56C68.9834 26.52 74.3834 26.56 77.9434 26.56V25.48C74.2634 25.52 68.8634 25.52 64.8634 25.48C64.6634 23.88 64.6634 22.48 64.8634 20.88C67.3034 20.76 82.1834 20.76 84.6234 20.88C84.9434 23 84.9034 29 84.6234 30.36C81.1034 30.44 74.9034 30.36 71.8634 30.36V31.52C74.7034 31.48 81.5034 31.48 85.4234 31.52C85.6634 32.76 85.6634 35.32 85.4234 36.6C81.9834 36.8 68.4634 36.8 65.0234 36.6ZM121.092 26.56C120.932 24.6 120.932 3.72 121.092 1.72C122.452 1.48 126.372 1.48 127.732 1.72C128.012 3.72 128.012 24.56 127.732 26.56C126.572 26.72 122.652 26.72 121.092 26.56ZM106.772 22.64C99.1722 22.64 94.5722 18.64 94.5722 12.16C94.5722 5.68 99.1722 1.68 106.772 1.68C114.372 1.68 118.972 5.68 118.972 12.16C118.972 18.64 114.372 22.64 106.772 22.64ZM106.772 16.92C110.532 16.92 112.412 14.96 112.412 12.16C112.412 9.36 110.532 7.4 106.772 7.4C103.012 7.4 101.132 9.36 101.132 12.16C101.132 14.96 103.012 16.92 106.772 16.92ZM96.2922 35.56C96.1322 32.84 96.0922 26.08 96.2922 23.68C97.7722 23.44 101.692 23.44 103.092 23.68C103.132 25 103.172 28.2 103.092 29.28C104.932 29.2 126.372 29.2 128.132 29.28C128.372 30.64 128.372 34.24 128.132 35.56C125.412 35.72 99.1722 35.72 96.2922 35.56ZM133.346 16.32C132.506 15.04 131.426 12.44 131.066 10.64C132.546 10.04 136.386 8.96 139.706 8.04C135.826 8.04 132.626 8.04 131.666 8C131.466 6.32 131.466 3.36 131.666 1.88C134.426 1.72 155.906 1.72 158.426 1.88C158.626 3.48 158.626 6.44 158.426 8C157.546 8.04 154.306 8.04 150.386 8.04C153.706 8.96 157.546 10.04 159.026 10.64C158.666 12.44 157.586 15.04 156.746 16.32C153.826 15.48 148.546 13.76 145.066 12.44C141.546 13.76 136.266 15.48 133.346 16.32ZM159.506 17.08C159.666 19.04 159.706 21.08 159.506 22.84C157.026 22.92 132.626 22.92 130.586 22.84C130.386 21 130.386 19 130.586 17.08C132.626 16.96 157.026 16.96 159.506 17.08ZM145.026 23.8C155.506 23.8 159.226 26.24 159.226 30.44C159.226 34.64 155.506 37.08 145.026 37.08C134.546 37.08 130.826 34.64 130.826 30.44C130.826 26.24 134.546 23.8 145.026 23.8ZM145.026 31.8C151.226 31.8 152.346 31.28 152.346 30.44C152.346 29.6 151.226 29.08 145.026 29.08C138.826 29.08 137.706 29.6 137.706 30.44C137.706 31.28 138.826 31.8 145.026 31.8ZM183.124 10.2C180.524 10.32 164.044 10.32 161.684 10.2C161.404 9.24 161.404 5.08 161.684 4.16C162.604 4.08 165.604 4.08 169.084 4.04C169.084 3 169.124 1.88 169.204 0.839998C170.644 0.639998 174.844 0.639998 176.284 0.839998C176.364 1.88 176.404 3 176.404 4.04C179.524 4.08 182.204 4.12 183.124 4.16C183.364 4.96 183.364 9.12 183.124 10.2ZM200.364 1.72C200.604 3.72 200.604 33.64 200.364 35.6C199.164 35.88 195.364 35.88 193.804 35.6C193.764 34.68 193.724 27.6 193.724 20.16H191.324C191.324 27.36 191.284 34.16 191.204 35.08C190.004 35.32 186.284 35.32 184.764 35.08C184.604 33.08 184.604 3.88 184.764 1.88C186.124 1.64 189.844 1.64 191.204 1.88C191.284 2.68 191.324 7.88 191.324 13.96C192.084 13.92 192.924 13.92 193.724 13.96C193.724 7.8 193.764 2.52 193.804 1.72C195.164 1.48 199.004 1.48 200.364 1.72ZM172.724 11.32C179.564 11.32 183.324 15.72 183.324 23.12C183.324 31.28 179.124 34.92 172.724 34.92C165.564 34.92 162.124 30.48 162.124 23.12C162.124 14.96 166.564 11.32 172.724 11.32ZM172.764 29.2C175.204 29.2 176.844 27.28 176.844 23.12C176.844 18.88 175.084 17 172.764 17C170.324 17 168.604 19 168.604 23.12C168.604 27.4 170.484 29.2 172.764 29.2ZM238.041 14.72C238.241 15.6 238.241 20.12 238.041 21C237.361 21.08 236.001 21.12 234.561 21.12C234.561 28.2 234.521 34.72 234.401 35.6C233.201 35.88 229.241 35.88 227.681 35.6C227.441 33.64 227.441 3.72 227.681 1.72C229.081 1.48 233.041 1.48 234.401 1.72C234.481 2.56 234.561 8.16 234.561 14.56C236.001 14.56 237.361 14.64 238.041 14.72ZM217.921 27.64C219.761 27.6 223.681 27.6 225.481 27.64C225.641 28.8 225.641 33 225.481 34.16C223.441 34.32 213.001 34.32 211.001 34.16C210.761 32.48 210.761 4.32 211.001 2.68C212.601 2.56 216.241 2.56 217.921 2.68C217.961 5.32 217.961 25 217.921 27.64ZM268.538 6.04C268.738 6.88 268.738 11.12 268.538 12C267.858 12.08 266.498 12.12 265.058 12.12C265.058 13.8 264.978 15.16 264.898 15.76C263.738 15.92 259.858 15.92 258.298 15.76C258.098 13.8 258.098 3.88 258.298 1.72C259.658 1.48 263.538 1.48 264.898 1.72C264.978 2.4 265.058 4 265.098 5.88C266.498 5.88 267.858 5.96 268.538 6.04ZM248.498 8.08C246.258 8.2 241.298 8.2 239.458 8.08C239.258 6.68 239.258 3.44 239.458 2.12C241.458 1.92 253.178 1.92 255.178 2.12C255.418 4.56 255.418 13.48 255.178 15.52C253.578 15.72 250.138 15.72 248.498 15.52C248.458 13.64 248.458 10.04 248.498 8.08ZM247.898 28.84V30.44C250.738 30.36 261.778 30.36 265.698 30.44C265.938 31.88 265.938 34.68 265.698 36.16C262.258 36.4 244.498 36.4 241.058 36.16C240.818 33.6 240.818 26.4 241.058 23.96C245.018 23.88 254.578 23.92 258.218 23.96V22.36C254.538 22.44 244.898 22.44 240.898 22.36C240.698 20.56 240.698 18.92 240.898 17.12C243.338 16.96 262.458 16.96 264.898 17.12C265.218 19.44 265.178 27.4 264.898 28.84C261.378 28.96 250.938 28.88 247.898 28.84ZM317.803 1.72C318.043 3.72 318.043 33.64 317.803 35.6C316.603 35.88 312.803 35.88 311.243 35.6C311.203 34.68 311.163 27.6 311.163 20.16H308.363C308.363 27.36 308.323 34.16 308.243 35.08C307.043 35.32 303.323 35.32 301.803 35.08C301.643 33.08 301.643 3.88 301.803 1.88C303.163 1.64 306.883 1.64 308.243 1.88C308.323 2.68 308.363 7.88 308.363 13.96C309.243 13.92 310.243 13.92 311.163 13.96C311.163 7.8 311.203 2.52 311.243 1.72C312.603 1.48 316.443 1.48 317.803 1.72ZM287.683 8.8C286.243 8.84 285.043 8.84 284.123 8.8C284.003 9.88 284.003 26.56 284.123 28C285.283 27.92 286.323 27.92 287.643 28C287.803 29.08 287.843 32.88 287.643 34.32C285.723 34.48 280.043 34.48 277.403 34.32C277.123 30.56 277.123 6.32 277.403 2.56C279.323 2.4 285.363 2.4 287.683 2.56C287.843 3.68 287.843 7.32 287.683 8.8ZM295.963 28C296.723 27.92 298.243 27.96 299.963 28.04C300.123 29.12 300.163 32.92 299.963 34.36C297.643 34.52 291.883 34.48 289.243 34.32C288.963 30.56 288.963 6.32 289.243 2.56C291.163 2.4 297.003 2.4 299.123 2.56C299.283 3.68 299.283 7.32 299.123 8.8C297.883 8.84 297.283 8.84 295.963 8.8C295.843 9.88 295.843 26.56 295.963 28ZM352.266 14.72C352.466 15.6 352.466 20.12 352.266 21C351.586 21.08 350.226 21.12 348.826 21.12C348.826 28.2 348.746 34.72 348.626 35.6C347.466 35.88 343.546 35.88 341.986 35.6C341.746 33.64 341.746 3.72 341.986 1.72C343.346 1.48 347.266 1.48 348.626 1.72C348.746 2.56 348.826 8.16 348.826 14.56C350.226 14.56 351.586 14.64 352.266 14.72ZM321.426 2.64C323.546 2.28 336.946 2.28 339.066 2.64C339.306 4.68 339.306 32.28 339.066 34.44C337.106 34.6 323.346 34.6 321.426 34.44C321.146 32.36 321.146 4.72 321.426 2.64ZM332.466 28.32C332.586 25.6 332.586 11.44 332.466 8.76C331.706 8.6 328.826 8.6 328.026 8.76C327.906 11.44 327.906 25.6 328.026 28.32C328.826 28.44 331.706 28.44 332.466 28.32ZM384.357 14.72C384.557 15.6 384.557 20.12 384.357 21C383.677 21.08 382.317 21.12 380.917 21.12C380.917 28.2 380.837 34.72 380.717 35.6C379.557 35.88 375.637 35.88 374.077 35.6C373.837 33.64 373.837 3.72 374.077 1.72C375.437 1.48 379.357 1.48 380.717 1.72C380.837 2.56 380.917 8.16 380.917 14.56C382.317 14.56 383.677 14.64 384.357 14.72ZM361.277 28C363.237 27.92 369.797 27.92 371.517 28C371.677 29.08 371.717 32.88 371.517 34.32C369.197 34.48 356.997 34.48 354.357 34.32C354.077 30.56 354.077 6.32 354.357 2.56C356.277 2.4 367.317 2.4 370.037 2.56C370.197 3.68 370.197 7.32 370.037 8.8C368.197 8.84 362.597 8.84 361.277 8.8C361.157 9.88 361.157 26.56 361.277 28ZM50.9425 61.76C50.1825 61.8 47.4225 61.84 43.9425 61.84C46.7025 68.48 51.6225 80.88 51.9425 82.32C50.8625 83.12 47.1825 84.52 45.7425 84.68C45.0225 83.36 40.1825 70.92 37.7025 64.16C35.3025 70.92 30.5425 83.32 29.8625 84.64C28.3825 84.48 24.7425 83.08 23.6225 82.32C23.9425 80.88 28.7825 68.56 31.5025 61.84C27.9825 61.84 25.2625 61.8 24.6225 61.76C24.4225 60.88 24.4225 56.36 24.6225 55.52C25.5425 55.4 29.4625 55.32 34.0625 55.28C33.9825 53.72 34.0225 51.8 34.1425 50.72C35.5025 50.52 39.7425 50.52 41.1425 50.72C41.2625 51.8 41.3025 53.72 41.2225 55.28C45.9825 55.32 50.1025 55.4 50.9425 55.52C51.1425 56.28 51.1425 60.72 50.9425 61.76ZM63.7425 64.2C63.9425 65.08 63.9425 69.6 63.7425 70.48C63.0625 70.56 61.7025 70.6 60.3025 70.6C60.3025 77.88 60.2225 84.68 60.1425 85.6C58.9425 85.88 55.0225 85.88 53.4625 85.6C53.2225 83.64 53.2225 53.72 53.4625 51.72C54.8625 51.48 58.7825 51.48 60.1425 51.72C60.2225 52.52 60.3025 57.84 60.3025 64.04C61.7025 64.04 63.0625 64.12 63.7425 64.2ZM80.0809 58.36C78.2809 58.48 68.0409 58.48 66.2409 58.36C66.0809 57.36 66.0809 53.48 66.2409 52.28C68.2809 51.96 85.1609 51.96 86.9209 52.28C87.0809 53.96 87.0809 62.96 86.9209 63.84C85.2809 64.04 81.7609 64.04 80.0809 63.84C80.0809 63.08 80.0409 59.52 80.0809 58.36ZM88.2809 65.92C88.4409 67.72 88.4809 70.52 88.2809 72.24C85.8009 72.32 67.0009 72.32 64.9609 72.24C64.7609 70.44 64.7609 67.8 64.9609 65.92C65.6009 65.88 67.8809 65.84 70.8009 65.84C70.8009 64.12 70.8009 62.24 70.8809 61.12C72.3209 60.96 76.2809 60.96 77.6409 61.12C77.7209 62.16 77.7209 64.08 77.7209 65.84C82.5609 65.84 87.1609 65.88 88.2809 65.92ZM65.8009 74.32C67.8409 74.12 85.6409 74.12 87.4009 74.32C87.5609 76 87.5609 84.64 87.4009 86.04C85.7609 86.2 82.1609 86.2 80.4809 86.04C80.4809 85.16 80.4409 81.64 80.4809 80.44C78.6809 80.52 67.6009 80.52 65.8009 80.44C65.6009 79.48 65.6009 75.44 65.8009 74.32ZM117.114 61.76C116.354 61.8 113.594 61.84 110.114 61.84C112.874 68.48 117.794 80.88 118.114 82.32C117.034 83.12 113.354 84.52 111.914 84.68C111.194 83.36 106.354 70.92 103.874 64.16C101.474 70.92 96.7144 83.32 96.0344 84.64C94.5544 84.48 90.9144 83.08 89.7944 82.32C90.1144 80.88 94.9544 68.56 97.6744 61.84C94.1544 61.84 91.4344 61.8 90.7944 61.76C90.5944 60.88 90.5944 56.36 90.7944 55.52C91.7144 55.4 95.6344 55.32 100.234 55.28C100.154 53.72 100.194 51.8 100.314 50.72C101.674 50.52 105.914 50.52 107.314 50.72C107.434 51.8 107.474 53.72 107.394 55.28C112.154 55.32 116.274 55.4 117.114 55.52C117.314 56.28 117.314 60.72 117.114 61.76ZM129.914 64.2C130.114 65.08 130.114 69.6 129.914 70.48C129.234 70.56 127.874 70.6 126.474 70.6C126.474 77.88 126.394 84.68 126.314 85.6C125.114 85.88 121.194 85.88 119.634 85.6C119.394 83.64 119.394 53.72 119.634 51.72C121.034 51.48 124.954 51.48 126.314 51.72C126.394 52.52 126.474 57.84 126.474 64.04C127.874 64.04 129.234 64.12 129.914 64.2ZM146.253 58.36C144.453 58.48 134.213 58.48 132.413 58.36C132.253 57.36 132.253 53.48 132.413 52.28C134.453 51.96 151.333 51.96 153.093 52.28C153.253 53.96 153.253 62.96 153.093 63.84C151.453 64.04 147.933 64.04 146.253 63.84C146.253 63.08 146.213 59.52 146.253 58.36ZM154.453 65.92C154.613 67.72 154.653 70.52 154.453 72.24C151.973 72.32 133.173 72.32 131.133 72.24C130.933 70.44 130.933 67.8 131.133 65.92C131.773 65.88 134.053 65.84 136.973 65.84C136.973 64.12 136.973 62.24 137.053 61.12C138.493 60.96 142.453 60.96 143.813 61.12C143.893 62.16 143.893 64.08 143.893 65.84C148.733 65.84 153.333 65.88 154.453 65.92ZM131.973 74.32C134.013 74.12 151.813 74.12 153.573 74.32C153.733 76 153.733 84.64 153.573 86.04C151.933 86.2 148.333 86.2 146.653 86.04C146.653 85.16 146.613 81.64 146.653 80.44C144.853 80.52 133.773 80.52 131.973 80.44C131.773 79.48 131.773 75.44 131.973 74.32ZM201.283 57.72C201.483 58.56 201.483 62.8 201.283 63.68C200.603 63.76 199.243 63.8 197.843 63.8C197.803 66.52 197.763 68.88 197.643 69.68C196.483 69.84 192.603 69.84 191.043 69.68C190.843 67.44 190.843 53.72 191.043 51.72C192.403 51.48 196.283 51.48 197.643 51.72C197.763 52.44 197.803 54.8 197.843 57.56C199.243 57.56 200.603 57.64 201.283 57.72ZM170.763 61.04C170.203 63 168.883 67.96 168.483 68.8C167.163 68.72 163.643 67.72 162.563 67.04C162.803 65.76 166.603 53.44 167.083 52.16C167.843 51.96 173.123 51.96 173.963 52.16C174.683 54.92 175.523 58.04 176.283 60.6C177.003 58.04 177.843 54.92 178.603 52.16C179.443 51.96 184.723 51.96 185.483 52.16C185.923 53.44 189.683 65.36 189.923 66.64C188.843 67.32 185.363 68.32 184.003 68.4C183.603 67.56 182.363 63 181.803 61.04C181.083 63 179.563 67.4 179.283 68.2C178.083 68.36 174.443 68.36 173.283 68.2L170.763 61.04ZM185.163 72.2C191.283 72.24 196.763 72.24 198.243 72.32C198.483 73.4 198.483 76.76 198.243 77.76C197.763 77.76 196.723 77.8 195.283 77.8C196.203 78.6 196.563 79.56 196.563 80.68C196.563 84.48 193.563 87.08 181.563 87.08C169.563 87.08 166.563 84.48 166.563 80.68C166.563 79.56 166.923 78.6 167.843 77.8C166.363 77.8 165.243 77.76 164.723 77.76C164.483 76.28 164.483 73.44 164.723 72.32C166.043 72.28 171.683 72.24 177.963 72.2C177.963 71.48 178.003 70.68 178.083 69.72C179.443 69.52 183.643 69.48 185.043 69.72C185.123 70.68 185.163 71.48 185.163 72.2ZM181.563 81.96C188.563 81.96 189.883 81.08 189.883 80.08C189.883 78.96 188.403 78.16 181.563 78.16C174.723 78.16 173.243 78.96 173.243 80.08C173.243 81.08 174.563 81.96 181.563 81.96ZM229.1 85.6C228.86 83.64 228.86 53.72 229.1 51.72C230.46 51.48 234.38 51.48 235.74 51.72C236.02 53.72 236.02 83.64 235.74 85.6C234.58 85.88 230.66 85.88 229.1 85.6ZM214.86 84.52C207.18 84.52 202.54 79.32 202.54 68.36C202.54 57 207.5 52.2 214.86 52.2C222.58 52.2 227.18 57.44 227.18 68.36C227.18 79.72 222.22 84.52 214.86 84.52ZM214.86 78.24C218.18 78.24 220.26 75.04 220.26 68.36C220.26 61.44 217.98 58.48 214.86 58.48C211.54 58.48 209.46 61.64 209.46 68.36C209.46 75.32 211.74 78.24 214.86 78.24ZM239.834 65.2C239.514 63.52 239.514 53.8 239.834 52.12C241.434 51.92 244.954 51.92 246.634 52.12C246.714 53.44 246.714 57.92 246.634 59.24C248.474 59.16 254.674 59.16 256.474 59.24C256.674 60.4 256.674 64.04 256.474 65.2C254.434 65.36 241.834 65.36 239.834 65.2ZM238.594 73.52C238.354 71.32 238.354 69.16 238.594 67.16C240.514 67.04 255.114 67.04 257.474 67.16C257.714 69.08 257.674 71.28 257.474 73.52C255.114 73.64 240.514 73.64 238.594 73.52ZM239.434 85.92C239.154 84.24 239.154 77.16 239.434 75.48C241.074 75.32 244.594 75.32 246.234 75.48C246.314 76.84 246.314 78.36 246.234 79.72C248.074 79.64 255.234 79.64 257.034 79.72C257.194 80.84 257.194 84.76 257.034 85.92C255.034 86.08 241.434 86.08 239.434 85.92ZM294.689 79.4C294.969 81 295.009 84.08 294.689 85.52C292.689 85.68 267.969 85.68 266.329 85.52C266.049 83.96 266.049 80.92 266.329 79.4C267.009 79.32 271.689 79.28 277.049 79.28C277.049 78.24 277.049 77.2 277.089 76.2C272.289 76.2 268.169 76.12 267.369 76.04C267.129 74.36 267.129 71.52 267.369 70C267.809 69.96 269.249 69.92 271.289 69.92C271.009 67 270.609 61.6 270.449 58.56H267.409C267.209 57.16 267.209 53.84 267.409 52.48C269.329 52.2 291.489 52.2 293.609 52.48C293.809 53.76 293.809 57.08 293.609 58.56H290.569C290.409 61.56 290.009 67 289.729 69.92C291.729 69.92 293.209 69.96 293.649 70C293.889 71.44 293.889 74.24 293.649 76.04C292.809 76.12 288.689 76.2 283.929 76.2C283.969 77.2 283.969 78.24 283.969 79.28C289.249 79.28 293.889 79.32 294.689 79.4ZM277.409 58.56C277.689 61.8 278.009 66.96 278.129 69.88H282.889C283.009 66.96 283.329 61.76 283.609 58.56H277.409ZM323.358 76.56C323.198 74.6 323.198 53.72 323.358 51.72C324.718 51.48 328.638 51.48 329.998 51.72C330.278 53.72 330.278 74.56 329.998 76.56C328.838 76.72 324.918 76.72 323.358 76.56ZM309.038 72.64C301.438 72.64 296.838 68.64 296.838 62.16C296.838 55.68 301.438 51.68 309.038 51.68C316.638 51.68 321.238 55.68 321.238 62.16C321.238 68.64 316.638 72.64 309.038 72.64ZM309.038 66.92C312.798 66.92 314.678 64.96 314.678 62.16C314.678 59.36 312.798 57.4 309.038 57.4C305.278 57.4 303.398 59.36 303.398 62.16C303.398 64.96 305.278 66.92 309.038 66.92ZM298.558 85.56C298.398 82.84 298.358 76.08 298.558 73.68C300.038 73.44 303.958 73.44 305.358 73.68C305.398 75 305.438 78.2 305.358 79.28C307.198 79.2 328.638 79.2 330.398 79.28C330.638 80.64 330.638 84.24 330.398 85.56C327.678 85.72 301.438 85.72 298.558 85.56ZM357.892 75.84C355.652 76.12 336.572 76.12 333.932 75.84C333.652 72.24 333.652 56.2 333.932 52.6C335.852 52.32 354.772 52.32 357.492 52.6C357.732 54.08 357.732 56.8 357.492 58.48C355.652 58.52 342.332 58.52 341.012 58.48C340.972 59.08 340.972 60 340.972 61.12C346.532 61.08 355.572 61.12 357.012 61.24C357.172 62.84 357.212 65.64 357.012 67.08C355.572 67.2 346.532 67.24 340.972 67.16C340.972 68.32 340.972 69.24 341.012 69.84C342.932 69.76 356.172 69.76 357.892 69.84C358.052 70.88 358.052 74.44 357.892 75.84ZM358.852 79.48C359.132 81.08 359.172 84.08 358.852 85.52C356.852 85.68 334.532 85.68 332.892 85.52C332.612 83.96 332.612 81 332.892 79.48C334.532 79.28 356.852 79.32 358.852 79.48Z" fill="#00A76F"/>
</svg>
