<svg width="325" height="37" viewBox="0 0 325 37" fill="none" xmlns="http://www.w3.org/2000/svg">
<path d="M10.0334 11.44C8.23344 13.72 5.99344 16.52 4.83344 17.56C3.63344 16.88 1.19344 14.8 0.393438 13.84C1.11344 12.88 2.71344 11.04 4.23344 9.32C2.51344 9.28 1.23344 9.28 0.713438 9.24C0.513438 8.4 0.513438 4.6 0.713438 3.8C1.51344 3.72 3.83344 3.68 6.51344 3.64C6.51344 2.64 6.55344 1.64 6.63344 0.959999C7.99344 0.759999 12.1534 0.759999 13.5534 0.959999C13.6334 1.64 13.6734 2.64 13.6734 3.64C16.2734 3.68 18.3934 3.72 19.1134 3.8C19.3134 4.56 19.3134 8.28 19.1134 9.24C18.5934 9.28 17.4734 9.28 16.0334 9.32C17.5934 10.84 19.1934 12.52 19.9134 13.36C19.1934 14.36 16.9134 16.6 15.7534 17.36C14.4734 16.4 11.9934 13.64 10.0334 11.44ZM27.1934 16.88C26.0334 17.08 22.4334 17.08 20.8734 16.88C20.7134 14.92 20.7134 3.56 20.8734 1.88C22.2334 1.68 25.8334 1.68 27.1934 1.88C27.2334 2.44 27.2734 4.2 27.2734 6.28H29.3934C29.3934 4.12 29.4334 2.32 29.4334 1.72C30.7934 1.48 34.5534 1.48 35.9134 1.72C36.1934 3.48 36.1934 15.12 35.9134 17C34.6334 17.2 30.8734 17.2 29.4334 17C29.4334 16.32 29.3934 14.4 29.3934 12.12H27.2734C27.2734 14.32 27.2334 16.2 27.1934 16.88ZM36.7134 30.68C36.9534 32.16 36.9534 34.76 36.7134 36.16C33.1934 36.48 5.47344 36.44 2.07344 36.16C1.83344 33.64 1.83344 27.12 2.07344 24.72C6.03344 24.64 25.5934 24.68 29.2334 24.72V23.36C25.5534 23.44 5.91344 23.44 1.91344 23.36C1.71344 21.6 1.71344 20.12 1.91344 18.36C4.35344 18.2 33.4734 18.2 35.9134 18.36C36.2334 20.68 36.1934 27.92 35.9134 29.32C32.3934 29.44 11.5534 29.36 8.91344 29.32V30.68C11.3534 30.6 32.7934 30.6 36.7134 30.68ZM62.15 26.76C61.99 24.8 61.99 3.72 62.15 1.72C63.51 1.48 67.43 1.48 68.79 1.72C69.07 3.72 69.07 24.76 68.79 26.76C67.63 26.92 63.71 26.92 62.15 26.76ZM41.83 22.92C41.55 20.84 41.55 12.64 41.83 9.84C43.67 9.76 49.15 9.76 51.47 9.84V7.84C49.19 7.88 43.55 7.88 41.67 7.84C41.47 6.28 41.47 3.68 41.67 2.2C43.43 2.04 56.31 2.04 58.03 2.2C58.23 4.2 58.23 12.68 58.03 15.12C56.31 15.2 50.03 15.2 48.67 15.12V17.2C50.07 17.16 58.47 17.16 60.23 17.2C60.43 18.36 60.43 21.68 60.23 22.92C57.51 23.16 44.59 23.16 41.83 22.92ZM42.55 35.56C42.39 32.84 42.35 27.2 42.55 24.8C43.91 24.56 47.95 24.56 49.35 24.8C49.39 26.12 49.43 28.2 49.35 29.28C51.19 29.2 67.43 29.2 69.19 29.28C69.43 30.64 69.43 34.24 69.19 35.56C66.47 35.72 45.43 35.72 42.55 35.56ZM106.888 1.72C107.168 3.72 107.168 33.64 106.888 35.6C105.728 35.88 101.808 35.88 100.248 35.6C100.008 33.64 100.008 3.72 100.248 1.72C101.608 1.48 105.528 1.48 106.888 1.72ZM97.4084 8.88C96.6884 8.92 94.5684 8.96 91.8484 8.96C94.0884 16.28 98.3684 30.76 98.6484 32.32C97.6084 32.92 93.8884 34.08 92.3284 34.2C91.7684 32.92 88.1284 19.84 86.0884 12.16C83.9284 19.96 80.1284 33.28 79.5284 34.64C78.0884 34.52 74.3684 33.44 73.2084 32.72C73.4084 31.24 77.8484 16.48 80.2484 8.96C77.2484 8.96 74.8884 8.92 74.2484 8.88C74.0484 8 74.0484 3.56 74.2484 2.72C76.5684 2.4 95.3684 2.4 97.4084 2.72C97.6084 3.48 97.6084 7.84 97.4084 8.88ZM140.339 35.6C140.099 33.64 140.099 3.72 140.339 1.72C141.699 1.48 145.619 1.48 146.979 1.72C147.259 3.72 147.259 33.64 146.979 35.6C145.819 35.88 141.899 35.88 140.339 35.6ZM121.379 34.44C121.099 32.36 121.099 4.72 121.379 2.64C123.499 2.28 135.779 2.28 137.899 2.64C138.139 4.68 138.139 32.28 137.899 34.44C135.939 34.6 123.299 34.6 121.379 34.44ZM127.939 28.32C128.739 28.44 130.659 28.44 131.419 28.32C131.539 25.6 131.539 11.44 131.419 8.76C130.659 8.6 128.739 8.6 127.939 8.76C127.819 11.44 127.819 25.6 127.939 28.32ZM177.516 10.6C175.516 10.64 173.116 10.6 172.156 10.52C171.996 9.68 171.996 5.44 172.156 4.56C173.116 4.44 175.556 4.4 177.556 4.44C177.596 3.04 177.596 2.08 177.636 1.72C178.996 1.48 182.916 1.48 184.276 1.72C184.556 3.72 184.556 24.56 184.276 26.56C183.116 26.72 179.196 26.72 177.636 26.56C177.596 25.88 177.556 22.76 177.516 19C175.596 19 173.316 18.96 172.356 18.92C172.196 18.08 172.196 13.84 172.356 12.96C173.316 12.84 175.596 12.8 177.516 12.84V10.6ZM161.276 11.16C159.716 16 157.796 21.76 157.236 22.84C155.916 22.6 152.156 21.16 151.076 20.36C151.516 18.48 156.876 3.92 157.796 2C159.076 1.92 163.116 1.92 164.356 2C165.236 3.92 171.436 18.8 172.036 20.72C170.996 21.52 167.356 23.12 166.036 23.4C165.276 22.36 162.876 15.92 161.276 11.16ZM184.676 29.28C184.916 30.64 184.916 34.24 184.676 35.56C181.956 35.72 156.516 35.72 153.636 35.56C153.476 32.84 153.436 26.76 153.636 24.36C154.996 24.12 159.036 24.12 160.436 24.36C160.476 25.68 160.516 28.2 160.436 29.28C162.276 29.2 182.916 29.16 184.676 29.28ZM234.786 1.72C235.026 3.72 235.026 33.64 234.786 35.6C233.586 35.88 229.786 35.88 228.226 35.6C228.106 33.64 228.106 3.72 228.226 1.72C229.586 1.48 233.426 1.48 234.786 1.72ZM219.626 1.88C220.986 1.64 224.706 1.64 226.066 1.88C226.226 3.88 226.226 33.08 226.066 35.08C224.866 35.32 221.146 35.32 219.626 35.08C219.546 34.12 219.506 26.72 219.506 19.16C218.026 19.16 216.666 19.12 215.746 19.08C215.546 18.24 215.546 13.88 215.746 13C216.666 12.96 218.026 12.96 219.506 12.96C219.546 7.32 219.546 2.64 219.626 1.88ZM204.066 2.68C205.346 2.48 209.386 2.48 210.626 2.68C212.186 8.28 217.346 30.8 217.586 32.6C216.466 33.12 212.746 34 211.146 34C210.786 32.96 208.226 21.28 207.466 15.2C206.506 20.88 203.786 33.28 203.386 34.36C201.946 34.36 198.146 33.44 196.986 32.84C197.106 31.08 202.506 8.28 204.066 2.68ZM274.071 14.72C274.271 15.6 274.271 20.12 274.071 21C273.391 21.08 272.031 21.12 270.631 21.12C270.631 28.2 270.551 34.72 270.431 35.6C269.271 35.88 265.351 35.88 263.791 35.6C263.551 33.64 263.551 3.72 263.791 1.72C265.151 1.48 269.071 1.48 270.431 1.72C270.551 2.56 270.631 8.16 270.631 14.56C272.031 14.56 273.391 14.64 274.071 14.72ZM248.271 2.64C250.271 2.44 259.151 2.44 261.151 2.64C261.351 5.08 261.351 32.28 261.151 34.32C259.551 34.52 256.071 34.52 254.471 34.32C254.391 32.44 254.391 11.12 254.471 9.16C252.191 9.24 250.111 9.28 248.271 9.16C248.071 8 248.071 3.8 248.271 2.64ZM310.506 1.72C310.786 3.72 310.786 33.64 310.506 35.6C309.346 35.88 305.426 35.88 303.866 35.6C303.626 33.64 303.626 3.72 303.866 1.72C305.226 1.48 309.146 1.48 310.506 1.72ZM301.026 8.88C300.306 8.92 298.186 8.96 295.466 8.96C297.706 16.28 301.986 30.76 302.266 32.32C301.226 32.92 297.506 34.08 295.946 34.2C295.386 32.92 291.746 19.84 289.706 12.16C287.546 19.96 283.746 33.28 283.146 34.64C281.706 34.52 277.986 33.44 276.826 32.72C277.026 31.24 281.466 16.48 283.866 8.96C280.866 8.96 278.506 8.92 277.866 8.88C277.666 8 277.666 3.56 277.866 2.72C280.186 2.4 298.986 2.4 301.026 2.72C301.226 3.48 301.226 7.84 301.026 8.88ZM323.359 25.08C321.839 25.2 318.159 25.2 316.719 25.08C316.439 19.68 316.359 6.4 316.519 2.68C317.879 2.48 322.519 2.48 323.559 2.68C323.599 7.08 323.679 19.24 323.359 25.08ZM320.039 35.8C317.799 35.8 315.999 34.04 315.999 31.8C315.999 29.56 317.799 27.8 320.039 27.8C322.279 27.8 324.079 29.56 324.079 31.8C324.079 34.04 322.279 35.8 320.039 35.8Z" fill="#D5FB4E"/>
</svg>
