<svg width="50" height="66" viewBox="0 0 50 66" fill="none" xmlns="http://www.w3.org/2000/svg">
<path d="M24.9096 16.9618L21.5 17.5381L28.4189 58.4704L31.8285 57.8941L24.9096 16.9618Z" fill="#568EFF"/>
<path d="M32.7464 58.5439L27.7697 59.3851L20.5859 16.8857L25.5626 16.0445L32.7464 58.5439ZM29.0719 57.5532L30.9169 57.2413L24.2625 17.8736L22.4174 18.1854L29.0719 57.5532Z" fill="white"/>
<path d="M13.003 16.3763C12.477 15.2406 11.9432 14.0884 11.7541 12.8502C11.3406 10.1342 12.7573 7.28852 15.0585 5.78367C17.3577 4.28169 20.3995 4.0889 22.9661 5.06698C24.1615 5.52279 25.3018 6.25105 25.9581 7.3496C26.5827 8.39531 26.7021 9.65549 26.8087 10.8697C27.803 9.31252 29.7783 8.72306 31.6099 8.48177C33.5924 8.22003 35.826 8.30554 37.2893 9.67252C38.3827 10.6921 38.8161 12.2231 39.0971 13.6913C39.4438 15.5026 39.6245 17.395 39.154 19.1775C38.6811 20.9603 37.4524 22.628 35.704 23.212C37.4775 24.0787 38.2489 26.1724 38.6369 28.1083C39.0339 30.0832 39.1327 32.3438 37.8372 33.8861C36.984 34.9007 35.6365 35.417 34.3118 35.4688C32.9871 35.5207 31.675 35.1529 30.4507 34.6463C29.2917 34.1666 28.1138 33.4852 27.573 32.3519C27.5638 34.5725 26.2632 36.7433 24.308 37.7949C22.3527 38.8466 19.8246 38.74 17.9666 37.5232C16.1086 36.3064 14.996 34.035 15.1783 31.8206C10.8898 32.7808 6.09213 30.2796 4.42121 26.2175C4.09082 25.4155 3.87145 24.5518 3.94288 23.6871C4.05899 22.2783 4.93512 21.0396 5.94472 20.0517C7.88167 18.158 10.4411 16.9081 13.1252 16.5455" fill="#568EFF"/>
<path d="M13.8477 15.9829C13.0089 14.1637 12.2964 12.3737 12.8348 10.3647C13.3676 8.38199 14.8342 6.7146 16.7483 5.95836C18.6153 5.22275 20.7576 5.2174 22.6312 5.94318C24.9791 6.85449 25.6625 8.66708 25.8816 11.0262C25.9602 11.8657 27.1099 12.0205 27.5637 11.4124C29.7432 8.48334 36.1167 8.30175 37.6426 11.9101C39.0489 15.23 39.1979 20.7817 35.2984 22.3669C34.6829 22.6177 34.5495 23.6246 35.1528 23.9755C37.537 25.3564 38.5725 29.5967 37.7224 32.1568C36.4792 35.9094 30.0613 34.7802 28.408 31.9601C27.9814 31.2326 26.68 31.2577 26.6318 32.2603C26.496 35.0641 24.5236 37.4369 21.6101 37.565C18.398 37.7082 15.9864 35.0718 16.0936 31.9187C16.1131 31.3309 15.6385 30.7836 15.0084 30.9027C11.2702 31.6156 7.15986 29.813 5.46889 26.3059C3.1115 21.416 9.27111 18.1127 13.2667 17.4702C14.4541 17.2796 14.1426 15.4371 12.9552 15.6277C8.26756 16.3821 1.45599 20.3042 3.33535 26.0036C4.94582 30.8906 10.3853 33.6857 15.3198 32.7453L14.2347 31.7294C14.0972 35.8112 17.0492 39.3987 21.2695 39.4419C25.2211 39.4824 28.3016 36.3302 28.4879 32.4476L26.7117 32.7478C28.8435 36.3778 35.6822 38.0203 38.5845 34.4276C41.1767 31.2162 39.7367 24.4785 36.2338 22.4517C36.1854 22.9887 36.1365 23.5233 36.0882 24.0603C41.2018 21.9788 41.3925 14.2899 38.8321 10.1302C36.2931 6.00731 28.7003 6.75938 26.0424 10.3311C26.603 10.459 27.1636 10.5869 27.7246 10.7173C27.481 8.094 26.737 5.95258 24.294 4.65757C21.9289 3.40504 19.0352 3.2009 16.5065 4.06355C14.1261 4.87582 12.214 6.6919 11.2978 9.04055C10.2425 11.7492 10.989 14.2495 12.1523 16.7755C12.6552 17.8646 14.3494 17.0797 13.8457 15.9857L13.8477 15.9829Z" fill="white"/>
<path d="M31.2626 59.0554C28.6229 60.8781 25.3221 62.2027 22.2364 61.3276C21.1866 61.0293 20.2202 60.4918 19.2866 59.9234C18.2121 59.27 17.1568 58.5653 16.2745 57.6719C14.3328 55.7052 13.3671 52.956 12.9506 50.2228C15.0534 49.6093 17.2077 48.9871 19.3934 49.1186C20.8197 49.2039 22.2144 49.6109 23.516 50.2006C27.043 51.8007 29.9046 54.8088 31.3308 58.4113" fill="#568EFF"/>
<path d="M30.665 58.3401C29.135 59.3628 27.4328 60.2502 25.5989 60.5526C23.3369 60.9274 21.459 60.177 19.5618 58.9973C16.1657 56.8841 14.5241 53.9683 13.8748 50.0675C13.6193 50.427 13.3638 50.7865 13.1103 51.1431C16.7788 50.0777 20.1593 49.5088 23.7126 51.3246C26.8229 52.9142 29.1481 55.6082 30.4881 58.8052C30.9513 59.9136 32.6446 59.1238 32.1815 58.0154C30.7343 54.5582 28.2009 51.6363 24.8876 49.8482C20.8753 47.6824 17.0437 48.0669 12.7988 49.3006C12.3139 49.4407 11.9424 49.8325 12.0343 50.3762C12.8561 55.2979 15.2192 58.7546 19.6013 61.1768C23.8297 63.5136 28.0369 62.3268 31.8656 59.7692C32.8636 59.102 31.6606 57.6733 30.6671 58.3372L30.665 58.3401Z" fill="white"/>
<path d="M31.2373 58.4381C30.6771 56.1568 30.1158 53.7492 30.7693 51.4931C31.0375 50.5646 31.5043 49.7039 32.0443 48.9016C34.9588 44.573 40.2443 41.9514 45.4541 42.2499C46.5622 44.4942 47.0931 47.0512 46.7632 49.5309C46.4334 52.0107 45.2101 54.3986 43.258 55.9634C40.987 57.782 37.9831 58.3631 35.0902 58.6876C33.96 58.8129 32.7597 58.8968 31.745 58.3877" fill="#568EFF"/>
<path d="M32.1575 58.283C31.6532 56.2124 31.054 53.9403 31.6423 51.8217C32.1727 49.9152 33.5744 48.193 35.025 46.8952C37.8583 44.3617 41.5664 43.0365 45.3579 43.1775C45.1077 42.9996 44.8575 42.8218 44.6073 42.6439C46.3551 46.4122 46.5437 51.031 43.6489 54.3087C42.2727 55.8672 40.3231 56.713 38.3411 57.2023C36.4415 57.6702 33.9368 58.2555 32.0729 57.5129C30.9525 57.0672 30.2966 58.8152 31.4116 59.2593C33.7152 60.1781 36.6341 59.5733 38.9563 58.9708C41.1478 58.403 43.2366 57.4528 44.807 55.7855C48.4092 51.9631 48.4129 46.4161 46.2962 41.8575C46.1651 41.576 45.8639 41.3359 45.5456 41.3239C41.0794 41.1578 36.6557 42.7254 33.418 45.846C31.9034 47.3039 30.4945 49.1184 29.8943 51.1657C29.1719 53.6284 29.7257 56.1713 30.3154 58.5969C30.5978 59.7587 32.4416 59.4546 32.1579 58.2855L32.1575 58.283Z" fill="white"/>
<path d="M20.7963 14.843C23.0644 14.4596 28.1383 15.9754 28.8294 20.0639C29.5205 24.1525 27.0759 28.2372 24.6208 28.6522C22.1657 29.0672 18.0833 26.1718 17.3789 22.0045C16.6744 17.8372 20.7942 14.8458 20.7942 14.8458L20.7963 14.843Z" fill="#568EFF"/>
<path d="M29.4956 19.3808C28.4617 15.5096 24.5793 12.8993 20.6127 13.8633C20.4451 13.9042 20.3111 13.98 20.2006 14.0746C12.5648 17.0277 16.984 31.6752 25.2534 29.207C29.1677 28.0393 30.4418 22.9278 29.4928 19.3788L29.4956 19.3808ZM24.9395 27.3649C18.7163 29.6187 15.2489 17.7127 21.2502 15.6735C21.2932 15.6586 21.328 15.6401 21.3678 15.6207C24.055 15.1867 26.6152 16.7554 27.5473 19.366C28.4547 21.9049 27.8508 26.311 24.9395 27.3649Z" fill="white"/>
</svg>
