<svg width="150" height="30" viewBox="0 0 150 30" fill="none" xmlns="http://www.w3.org/2000/svg">
<path d="M0 20C0 8.9543 8.95431 0 20 0H135C143.284 0 150 6.71573 150 15C150 23.2843 143.284 30 135 30H0V20Z" fill="#00A76F"/>
<path d="M27.5739 12.312C26.7899 13.368 25.6699 14.824 25.2539 15.192C24.8379 14.984 24.0859 14.344 23.8139 14.008C24.0699 13.656 24.9659 12.552 25.7019 11.672C24.8539 11.672 24.1819 11.672 23.9259 11.656C23.8459 11.352 23.8459 10.168 23.9259 9.896C24.2779 9.864 25.2859 9.848 26.4539 9.832C26.4539 9.384 26.4539 8.936 26.4859 8.584C26.9339 8.504 28.2619 8.504 28.6939 8.584C28.7259 8.936 28.7259 9.384 28.7259 9.832C29.8779 9.848 30.8379 9.864 31.1579 9.896C31.2379 10.152 31.2379 11.32 31.1579 11.656C30.8859 11.672 30.2779 11.672 29.4939 11.672C30.2779 12.504 31.2219 13.512 31.4779 13.848C31.2379 14.2 30.5179 14.872 30.1179 15.112C29.6699 14.776 28.4219 13.32 27.5739 12.312ZM34.0699 14.984C33.7019 15.064 32.5499 15.064 32.0379 14.984C31.9899 14.2 31.9899 9.656 32.0379 8.952C32.4859 8.872 33.6379 8.872 34.0699 8.952C34.0859 9.208 34.1019 9.992 34.1019 10.904C34.5979 10.888 35.1579 10.888 35.6699 10.904C35.6699 9.96 35.6699 9.16 35.6859 8.888C36.1339 8.792 37.3019 8.792 37.7499 8.888C37.8459 9.608 37.8459 14.28 37.7499 15.032C37.3499 15.112 36.1659 15.112 35.6859 15.032C35.6699 14.728 35.6699 13.816 35.6699 12.776H34.1019C34.1019 13.784 34.0859 14.68 34.0699 14.984ZM38.1659 20.808C38.2459 21.288 38.2459 22.12 38.1659 22.568C36.7739 22.68 25.7819 22.664 24.4379 22.568C24.3419 21.656 24.3419 19.176 24.4379 18.28C25.7979 18.248 34.4059 18.264 35.6219 18.28V17.304C34.3899 17.32 26.3739 17.32 24.3899 17.304C24.3099 16.728 24.3099 16.232 24.3899 15.656C25.8459 15.608 36.8859 15.608 37.7499 15.656C37.8619 16.456 37.8459 19.288 37.7499 19.8C36.3739 19.832 27.5739 19.816 26.6139 19.8V20.808C27.6059 20.776 36.6619 20.776 38.1659 20.808ZM48.7405 18.904C48.6765 18.12 48.6765 9.688 48.7405 8.888C49.1725 8.792 50.4205 8.792 50.8525 8.888C50.9485 9.688 50.9485 18.104 50.8525 18.904C50.4845 18.968 49.2365 18.968 48.7405 18.904ZM40.3885 17.192C40.2765 16.392 40.2765 13.368 40.3885 12.296C41.1245 12.264 43.6045 12.264 44.5325 12.296V10.984C43.6205 11 41.0765 11 40.3245 10.984C40.2445 10.488 40.2445 9.64 40.3245 9.176C41.0285 9.112 45.9405 9.112 46.6285 9.176C46.7085 9.944 46.7085 13.064 46.6285 14.008C45.9405 14.04 43.0925 14.04 42.5485 14.008V15.368C43.1085 15.352 46.9005 15.352 47.6045 15.368C47.6845 15.736 47.6845 16.808 47.6045 17.192C46.5165 17.288 41.4925 17.288 40.3885 17.192ZM40.7085 22.344C40.6605 21.288 40.6445 19.032 40.7085 18.12C41.1565 18.024 42.4045 18.024 42.8845 18.12C42.9005 18.728 42.9165 19.768 42.8845 20.344C43.8445 20.312 50.4365 20.312 51.1405 20.344C51.2365 20.776 51.2365 21.912 51.1405 22.344C50.0525 22.392 41.6845 22.408 40.7085 22.344ZM66.0919 8.888C66.1879 9.688 66.1879 21.656 66.0919 22.44C65.7079 22.536 64.5079 22.536 63.9799 22.44C63.8999 21.656 63.8999 9.688 63.9799 8.888C64.4279 8.808 65.6439 8.808 66.0919 8.888ZM62.4119 11.368C62.0919 11.384 61.0199 11.384 59.7239 11.4C60.6519 14.184 62.7479 20.664 62.8759 21.272C62.5239 21.496 61.3719 21.848 60.8599 21.88C60.6199 21.368 58.7959 15.448 57.8999 12.424C56.9879 15.48 55.1319 21.48 54.8919 22.024C54.4119 21.992 53.2439 21.656 52.8759 21.4C52.9719 20.824 55.0839 14.264 56.0599 11.4C54.6679 11.4 53.5159 11.384 53.2279 11.368C53.1479 11.08 53.1479 9.672 53.2279 9.4C54.1559 9.304 61.5959 9.304 62.4119 9.4C62.4919 9.64 62.4919 11.032 62.4119 11.368ZM76.9601 10.152C78.1281 10.168 79.1521 10.184 79.5201 10.2C79.6001 10.472 79.6001 11.768 79.5201 12.12C78.5121 12.168 72.7201 12.168 71.8081 12.12C71.7121 11.8 71.7121 10.504 71.8081 10.2C72.1761 10.168 73.3281 10.152 74.6401 10.152C74.6241 9.624 74.6241 9.016 74.6721 8.536C75.1361 8.456 76.4481 8.456 76.9281 8.536C76.9601 9.016 76.9601 9.624 76.9601 10.152ZM86.9921 8.888C87.0721 9.688 87.0721 21.672 86.9921 22.456C86.6081 22.552 85.4241 22.552 84.9121 22.456C84.8641 21.672 84.8641 9.688 84.9121 8.888C85.3601 8.792 86.5441 8.792 86.9921 8.888ZM81.5681 8.952C82.0001 8.856 83.1681 8.856 83.6001 8.952C83.6641 9.752 83.6641 21.432 83.6001 22.232C83.2161 22.328 82.0481 22.328 81.5681 22.232C81.5521 21.976 81.5361 20.648 81.5361 18.92C80.8801 18.936 80.2401 18.92 79.8721 18.904C79.8241 18.456 79.8241 17.384 79.8721 16.92C80.2401 16.904 80.8801 16.888 81.5361 16.904V14.84C80.8321 14.856 80.1121 14.84 79.7281 14.808C79.6801 14.36 79.6801 13.288 79.7281 12.84C80.1121 12.808 80.8321 12.792 81.5361 12.808C81.5361 10.824 81.5521 9.224 81.5681 8.952ZM75.8081 12.776C78.3521 12.776 79.4881 14.552 79.4881 17.416C79.4881 20.504 78.1761 22.056 75.8081 22.056C73.2321 22.056 72.0961 20.28 72.0961 17.416C72.0961 14.344 73.4881 12.776 75.8081 12.776ZM75.8081 20.184C76.8321 20.184 77.4241 19.24 77.4241 17.416C77.4241 15.56 76.7841 14.648 75.8081 14.648C74.8001 14.648 74.1921 15.592 74.1921 17.416C74.1921 19.272 74.8321 20.184 75.8081 20.184ZM98.8038 17.032C98.4198 17.128 97.2678 17.128 96.7718 17.032C96.7078 16.248 96.7078 9.656 96.7718 8.952C97.2038 8.872 98.3718 8.872 98.8038 8.952C98.8198 9.24 98.8358 10.488 98.8358 11.944C99.2998 11.928 99.8278 11.928 100.292 11.944C100.292 10.472 100.308 9.192 100.308 8.888C100.772 8.792 101.94 8.792 102.388 8.888C102.468 9.624 102.468 16.328 102.388 17.096C101.972 17.16 100.788 17.16 100.308 17.096C100.308 16.776 100.292 15.416 100.292 13.896H98.8358C98.8358 15.384 98.8198 16.712 98.8038 17.032ZM95.9398 16.696C95.1078 16.76 90.5958 16.776 89.5558 16.696C89.4438 15.816 89.4438 10.152 89.5558 9.192C90.7078 9.112 94.7878 9.128 95.6838 9.192C95.7638 9.496 95.7638 10.552 95.6838 10.888C94.8038 10.904 92.3558 10.904 91.6998 10.888C91.6838 11.048 91.6678 11.56 91.6678 12.168C92.7718 12.136 94.8838 12.152 95.4278 12.184C95.5078 12.392 95.5078 13.592 95.4278 13.816C94.8838 13.848 92.7718 13.848 91.6678 13.832C91.6678 14.392 91.6838 14.872 91.6998 15.032C92.4358 15.016 95.0758 15.016 95.9398 15.032C96.0198 15.448 96.0198 16.344 95.9398 16.696ZM89.7478 17.752C90.6438 17.688 101.668 17.688 102.388 17.752C102.452 18.52 102.452 21.832 102.388 22.536C101.876 22.6 100.74 22.6 100.196 22.536C100.18 21.96 100.18 20.392 100.196 19.688C99.2198 19.72 90.4678 19.72 89.7478 19.688C89.6998 19.368 89.6998 18.152 89.7478 17.752ZM117.236 15.8C117.236 20.392 115.348 22.248 112.628 22.248C109.908 22.248 108.02 20.392 108.02 15.8C108.02 11.208 109.908 9.352 112.628 9.352C115.348 9.352 117.236 11.208 117.236 15.8ZM115.044 15.8C115.044 12.776 114.052 11.448 112.628 11.448C111.204 11.448 110.212 12.776 110.212 15.8C110.212 18.824 111.204 20.152 112.628 20.152C114.052 20.152 115.044 18.824 115.044 15.8ZM121.121 11.528H119.313C119.265 11.032 119.249 10.04 119.297 9.512C119.873 9.48 120.625 9.48 121.217 9.48C124.481 9.496 125.841 10.872 125.841 13.288C125.841 15.032 125.393 16.296 124.081 17.784C123.361 18.616 122.545 19.48 121.905 20.04C123.185 20.008 125.185 20.024 126.081 20.04C126.129 20.568 126.113 21.56 126.081 22.024C125.153 22.088 120.113 22.088 119.073 22.024C118.993 21.416 118.993 20.664 119.073 20.088C119.777 19.4 120.945 18.136 121.729 17.272C123.201 15.64 123.681 14.632 123.681 13.432C123.681 12.136 122.945 11.528 121.121 11.528Z" fill="white"/>
</svg>
