<svg width="16" height="16" viewBox="0 0 16 16" fill="none" xmlns="http://www.w3.org/2000/svg">
<path d="M11.5 2.4H14.3C14.4857 2.4 14.6637 2.47375 14.795 2.60503C14.9263 2.7363 15 2.91435 15 3.1V14.3C15 14.4857 14.9263 14.6637 14.795 14.795C14.6637 14.9263 14.4857 15 14.3 15H1.7C1.51435 15 1.3363 14.9263 1.20503 14.795C1.07375 14.6637 1 14.4857 1 14.3V3.1C1 2.91435 1.07375 2.7363 1.20503 2.60503C1.3363 2.47375 1.51435 2.4 1.7 2.4H4.5V1H5.9V2.4H10.1V1H11.5V2.4ZM10.1 3.8H5.9V5.2H4.5V3.8H2.4V6.6H13.6V3.8H11.5V5.2H10.1V3.8ZM13.6 8H2.4V13.6H13.6V8Z" fill="black"/>
</svg>
