<svg width="268" height="66" viewBox="0 0 268 66" fill="none" xmlns="http://www.w3.org/2000/svg">
<path d="M28.4125 64.2C28.2525 59.56 28.2925 32.84 28.4125 28.2C29.4925 27.96 33.0125 28 34.4125 28.2C34.5725 33.68 34.5725 59.44 34.4125 64.2C33.1725 64.36 29.8125 64.32 28.4125 64.2ZM12.8125 62.48C4.8125 62.48 1.4925 58.64 1.4925 45.44C1.4925 32.24 4.8125 28.4 12.8125 28.4C20.8125 28.4 24.0925 32.24 24.0925 45.44C24.0925 58.64 20.8125 62.48 12.8125 62.48ZM12.8125 56.88C16.8525 56.88 17.9725 54.72 17.9725 45.44C17.9725 36.16 16.8525 34 12.8125 34C8.7725 34 7.6125 36.16 7.6125 45.44C7.6125 54.72 8.7725 56.88 12.8125 56.88ZM70.8494 54.6C69.7694 54.76 66.5694 54.68 65.1694 54.6C65.0894 50.96 65.1294 30.76 65.1694 28.2C66.2494 28 69.6494 28 70.8494 28.2C70.9294 31.6 70.9294 50.96 70.8494 54.6ZM53.8494 48.28C51.0094 48.44 41.1294 48.48 37.8894 48.28C37.8094 45.2 37.8094 32.36 37.8894 29.32C39.4494 29.16 42.0894 29.2 43.4494 29.32V34.16C45.0494 34.12 46.7294 34.12 48.3294 34.16V29.32C49.8894 29.2 52.2894 29.2 53.8494 29.32C53.8894 30.6 53.9294 33.16 53.9294 36C54.9694 35.96 56.0894 35.96 57.1294 36C57.1294 32.32 57.1694 29.32 57.2094 28.4C58.2894 28.2 61.6494 28.24 62.8494 28.4C62.9694 31.84 62.8894 50.76 62.8494 54.32C61.7694 54.44 58.6094 54.44 57.2094 54.32C57.1294 52.52 57.0894 46.88 57.0894 41.24C56.0894 41.28 54.9694 41.28 53.9294 41.24C53.9294 44.64 53.8894 47.6 53.8494 48.28ZM43.4494 39.12V43.4C45.3694 43.48 46.6094 43.48 48.3294 43.4V39.12C46.7294 39.16 45.0094 39.16 43.4494 39.12ZM71.5294 59.12C71.6894 60.56 71.6894 62.84 71.5294 64.32C68.3294 64.52 44.5694 64.52 40.9294 64.32C40.7294 61.36 40.8094 53.6 40.9294 51.24C42.1694 51.12 45.4494 51.12 46.8894 51.24C46.9694 53.24 46.9694 56.96 46.8894 59.12C55.7294 59.08 68.5294 59.04 71.5294 59.12ZM105.846 51.8C102.566 51.96 79.3262 51.92 75.4062 51.8C75.1662 47.12 75.2062 33.84 75.4062 29.24C79.2862 29.04 101.046 29.12 105.046 29.24C105.206 30.76 105.206 33.04 105.046 34.56C102.246 34.64 84.6062 34.64 81.6062 34.56C81.6062 35.16 81.5662 36.4 81.5662 37.88C86.8062 37.84 100.646 37.88 103.846 37.88C104.006 39.4 103.966 41.68 103.846 43.2C100.726 43.28 86.8062 43.24 81.5662 43.2C81.5662 44.72 81.6062 46 81.6062 46.56C84.7662 46.56 102.886 46.52 105.846 46.56C105.966 48.12 105.966 50.52 105.846 51.8ZM107.606 58.04C107.766 59.52 107.766 61.56 107.606 63.24C104.166 63.48 77.9262 63.4 73.2062 63.24C73.0462 61.8 73.0462 59.6 73.2062 58.04C81.5262 57.88 103.846 57.96 107.606 58.04ZM128.282 31.04C129.962 31.04 131.722 31.08 133.522 31.12C133.642 32.64 133.642 34.88 133.522 36.28C129.442 36.36 119.762 36.44 116.802 36.28C116.642 34.68 116.642 32.56 116.802 31.12C118.082 31.08 119.882 31.04 122.002 31.04C122.002 29.64 122.042 28.24 122.082 27.4C123.162 27.2 126.842 27.16 128.242 27.4C128.282 28.24 128.322 29.64 128.282 31.04ZM150.442 28.2C150.522 33.2 150.522 59.36 150.442 64.2C149.362 64.36 146.122 64.28 144.722 64.2C144.642 59.36 144.682 32.4 144.722 28.2C145.802 27.96 149.242 27.96 150.442 28.2ZM137.042 28.4C138.122 28.16 141.562 28.2 142.762 28.4C142.882 33.44 142.802 59.08 142.762 63.84C141.682 63.96 138.442 63.96 137.042 63.84C137.002 62.52 136.962 59.6 136.962 55.96C135.882 55.96 134.882 55.96 134.322 55.92C134.162 54.36 134.162 51.88 134.322 50.4C134.882 50.36 135.882 50.36 136.922 50.36V43.76C135.882 43.76 134.882 43.76 134.322 43.72C134.162 42.16 134.162 39.68 134.322 38.2C134.882 38.16 135.882 38.16 136.962 38.16C136.962 33.52 137.002 29.76 137.042 28.4ZM125.162 37.92C131.282 37.92 133.322 41.52 133.322 50.52C133.322 59.52 131.282 63.12 125.162 63.12C119.042 63.12 117.002 59.52 117.002 50.52C117.002 41.52 119.042 37.92 125.162 37.92ZM125.162 58.08C127.242 58.08 127.682 56.36 127.682 50.52C127.682 44.68 127.242 42.96 125.162 42.96C123.082 42.96 122.642 44.68 122.642 50.52C122.642 56.36 123.082 58.08 125.162 58.08ZM178.038 48.32C176.958 48.44 173.798 48.44 172.398 48.32C172.238 44.68 172.278 31 172.398 28.4C173.478 28.2 176.838 28.24 178.038 28.4C178.078 29.72 178.118 32.4 178.118 35.44H180.718C180.718 32.12 180.758 29.24 180.758 28.2C181.838 28 185.238 28 186.438 28.2C186.518 31.6 186.518 44.96 186.438 48.6C185.358 48.76 182.158 48.68 180.758 48.6C180.718 47.16 180.718 44.08 180.718 40.76H178.078C178.078 43.96 178.038 46.88 178.038 48.32ZM170.518 47.6C167.238 47.76 157.398 47.8 153.478 47.6C153.238 44.12 153.278 32.28 153.478 28.88C157.038 28.72 165.798 28.76 169.318 28.88C169.478 30.28 169.478 32.28 169.318 33.8C166.918 33.88 162.278 33.84 159.438 33.8C159.398 34.36 159.398 35.08 159.398 35.88C162.278 35.84 165.158 35.84 168.118 35.88C168.278 37.4 168.238 39.08 168.118 40.6C165.198 40.68 162.478 40.68 159.398 40.64C159.398 41.44 159.398 42.12 159.438 42.68C162.318 42.6 167.958 42.6 170.518 42.68C170.678 44.2 170.678 46.08 170.518 47.6ZM186.438 50.52C186.638 53.88 186.558 62.36 186.438 64.32C185.198 64.44 181.958 64.44 180.518 64.32C180.438 62.28 180.518 58.28 180.518 55.84C171.678 55.84 159.118 55.96 156.118 55.84C155.958 54.32 155.958 52.04 156.118 50.52C159.358 50.36 182.798 50.32 186.438 50.52ZM230.034 28.2C230.114 33.2 230.114 59.36 230.034 64.2C228.954 64.36 225.714 64.28 224.314 64.2C224.274 61.88 224.274 54.52 224.274 47.04H220.954C220.954 54.4 220.914 61.56 220.914 63.84C219.834 63.96 216.594 63.96 215.194 63.84C215.034 59 215.074 32.6 215.194 28.4C216.274 28.16 219.714 28.2 220.914 28.4C220.954 30.4 220.994 35.6 220.994 41.48H224.274C224.274 35.32 224.314 29.88 224.314 28.2C225.394 27.96 228.834 27.96 230.034 28.2ZM203.194 56.08C206.034 56 210.354 56 213.354 56.08C213.514 57.6 213.514 60 213.354 61.52C210.154 61.64 200.754 61.68 197.114 61.52C196.874 53.32 196.914 34.84 197.114 29.32C198.354 29.16 201.754 29.2 203.194 29.32C203.314 35.32 203.274 48.28 203.194 56.08ZM266.791 43.96C266.951 45.36 266.951 47.4 266.791 48.96C263.351 49.2 237.111 49.12 232.391 48.96C232.231 47.6 232.231 45.44 232.391 43.96C234.031 43.92 236.191 43.92 238.631 43.88V40.8C235.191 39.64 234.111 37.68 234.111 34.84C234.111 30.04 237.271 27.76 249.591 27.76C261.911 27.76 265.071 30.04 265.071 34.84C265.071 37.72 263.951 39.68 260.511 40.8V43.92C263.511 43.92 265.791 43.92 266.791 43.96ZM249.591 33C241.271 33 240.311 33.72 240.311 34.84C240.311 36 241.271 36.72 249.591 36.72C257.911 36.72 258.871 36 258.871 34.84C258.871 33.72 257.911 33 249.591 33ZM244.751 43.88H254.391C254.391 43.2 254.391 42.48 254.391 41.8C252.951 41.92 251.391 41.96 249.591 41.96C247.791 41.96 246.191 41.92 244.751 41.8V43.88ZM249.591 50.6C262.151 50.6 265.391 52.88 265.391 57.68C265.391 62.52 262.151 64.8 249.591 64.8C237.031 64.8 233.791 62.52 233.791 57.68C233.791 52.88 237.031 50.6 249.591 50.6ZM249.591 59.56C258.071 59.56 259.031 58.8 259.031 57.68C259.031 56.6 258.071 55.84 249.591 55.84C241.111 55.84 240.151 56.6 240.151 57.68C240.151 58.8 241.111 59.56 249.591 59.56Z" fill="#AD263B"/>
<path d="M85.1418 1.52344L87.1943 7.84026H93.8362L88.4627 11.7443L90.5152 18.0611L85.1418 14.1571L79.7684 18.0611L81.8208 11.7443L76.4474 7.84026H83.0893L85.1418 1.52344Z" fill="#AD263B"/>
<path d="M109.521 1.52344L111.573 7.84026H118.215L112.842 11.7443L114.894 18.0611L109.521 14.1571L104.147 18.0611L106.2 11.7443L100.826 7.84026H107.468L109.521 1.52344Z" fill="#AD263B"/>
<path d="M158.275 1.52344L160.327 7.84026H166.969L161.596 11.7443L163.648 18.0611L158.275 14.1571L152.901 18.0611L154.954 11.7443L149.58 7.84026H156.222L158.275 1.52344Z" fill="#AD263B"/>
<path d="M182.654 1.52344L184.706 7.84026H191.348L185.974 11.7443L188.027 18.0611L182.654 14.1571L177.28 18.0611L179.333 11.7443L173.959 7.84026H180.601L182.654 1.52344Z" fill="#AD263B"/>
<g clip-path="url(#clip0_10084_19546)">
<path d="M139.751 15.9133C142.892 12.5888 142.641 7.2426 139.191 3.97226C135.741 0.701922 130.398 0.745824 127.257 4.07032C124.116 7.39481 124.367 12.741 127.817 16.0113C131.267 19.2817 136.61 19.2378 139.751 15.9133Z" fill="white"/>
<path d="M133.176 1.55035C135.315 1.55035 137.482 2.35524 139.189 3.97611C142.642 7.24561 142.891 12.5912 139.749 15.9162C138.164 17.5981 136.014 18.4363 133.83 18.4363C131.647 18.4363 129.524 17.6314 127.817 16.0105C124.365 12.7466 124.116 7.39548 127.258 4.07603C128.843 2.3941 130.993 1.5559 133.176 1.5559M133.176 0.00164468C130.466 0.00164468 127.962 1.06742 126.127 3.01025C124.315 4.91977 123.384 7.45654 123.512 10.1376C123.639 12.7965 124.786 15.2834 126.748 17.1429C128.687 18.9803 131.203 19.9961 133.83 19.9961C136.457 19.9961 139.045 18.9303 140.879 16.9875C144.603 13.0463 144.326 6.70162 140.259 2.84372C138.319 1.00636 135.803 -0.00390625 133.176 -0.00390625V0.00164468Z" fill="white"/>
<path d="M139.755 15.925C142.896 12.6005 142.645 7.25432 139.195 3.98398C135.745 0.713641 130.402 0.757542 127.261 4.08204C124.12 7.40653 124.371 12.7527 127.821 16.023C131.271 19.2934 136.614 19.2495 139.755 15.925Z" fill="white"/>
<path d="M133.32 18.8162C133.165 18.8162 133.015 18.7219 132.954 18.5664C131.923 15.8576 132.483 12.91 134.412 10.8673C136.34 8.82456 139.25 8.10294 142.009 8.98554C142.214 9.05215 142.325 9.26864 142.259 9.47402C142.192 9.67941 141.976 9.79042 141.771 9.72381C139.299 8.93558 136.7 9.57394 134.977 11.4002C133.253 13.2209 132.76 15.8631 133.68 18.2889C133.758 18.4887 133.658 18.7163 133.453 18.7885C133.409 18.8051 133.359 18.8162 133.314 18.8162H133.32Z" fill="#B41E23"/>
<path d="M127.335 11.3848C126.56 11.3848 125.767 11.2626 124.991 11.0128C124.786 10.9462 124.675 10.7297 124.742 10.5244C124.808 10.319 125.025 10.208 125.23 10.2746C127.701 11.0628 130.3 10.4244 132.024 8.59819C133.747 6.77749 134.24 4.13524 133.321 1.70949C133.243 1.50965 133.343 1.28207 133.548 1.2099C133.747 1.13219 133.974 1.23211 134.046 1.43749C135.077 4.14635 134.518 7.09389 132.589 9.13663C131.204 10.6021 129.314 11.3848 127.335 11.3848Z" fill="#B41E23"/>
<path d="M133.832 18.8802C131.582 18.8802 129.304 18.0364 127.514 16.3378C123.896 12.9074 123.635 7.27317 126.938 3.77608C128.54 2.08305 130.729 1.13384 133.106 1.11719C133.128 1.11719 133.156 1.11719 133.178 1.11719C135.522 1.11719 137.761 2.02199 139.495 3.66506C141.247 5.32479 142.272 7.54516 142.383 9.91541C142.494 12.2912 141.673 14.5338 140.072 16.2268C138.404 17.9976 136.132 18.8802 133.832 18.8802ZM133.178 1.99979C133.178 1.99979 133.134 1.99979 133.111 1.99979C130.978 2.01644 129.011 2.86573 127.575 4.38113C124.605 7.52296 124.849 12.6021 128.118 15.6995C131.388 18.7969 136.464 18.7636 139.429 15.6218C140.864 14.1008 141.601 12.0914 141.502 9.95427C141.402 7.81161 140.471 5.80772 138.886 4.30342C137.318 2.81577 135.289 1.99979 133.172 1.99979H133.178Z" fill="#1D1E1C"/>
</g>
<defs>
<clipPath id="clip0_10084_19546">
<rect width="20" height="20" fill="white" transform="translate(123.5)"/>
</clipPath>
</defs>
</svg>
