<svg width="59" height="36" viewBox="0 0 59 36" fill="none" xmlns="http://www.w3.org/2000/svg">
<path d="M0.544 18.048C0.544 12.512 1.536 8.176 3.52 5.04C5.536 1.904 8.864 0.335999 13.504 0.335999C18.144 0.335999 21.456 1.904 23.44 5.04C25.456 8.176 26.464 12.512 26.464 18.048C26.464 23.616 25.456 27.984 23.44 31.152C21.456 34.32 18.144 35.904 13.504 35.904C8.864 35.904 5.536 34.32 3.52 31.152C1.536 27.984 0.544 23.616 0.544 18.048ZM19.84 18.048C19.84 15.68 19.68 13.696 19.36 12.096C19.072 10.464 18.464 9.136 17.536 8.112C16.64 7.088 15.296 6.576 13.504 6.576C11.712 6.576 10.352 7.088 9.424 8.112C8.528 9.136 7.92 10.464 7.6 12.096C7.312 13.696 7.168 15.68 7.168 18.048C7.168 20.48 7.312 22.528 7.6 24.192C7.888 25.824 8.496 27.152 9.424 28.176C10.352 29.168 11.712 29.664 13.504 29.664C15.296 29.664 16.656 29.168 17.584 28.176C18.512 27.152 19.12 25.824 19.408 24.192C19.696 22.528 19.84 20.48 19.84 18.048ZM30.3273 29.184V23.904L46.0233 1.44H53.8473V23.328H58.0713V29.184H53.8473V36H47.1273V29.184H30.3273ZM47.5593 8.64L37.7193 23.328H47.5593V8.64Z" fill="white" fill-opacity="0.25"/>
</svg>
