<svg width="54" height="36" viewBox="0 0 54 36" fill="none" xmlns="http://www.w3.org/2000/svg">
<path d="M0.544 18.048C0.544 12.512 1.536 8.176 3.52 5.04C5.536 1.904 8.864 0.335999 13.504 0.335999C18.144 0.335999 21.456 1.904 23.44 5.04C25.456 8.176 26.464 12.512 26.464 18.048C26.464 23.616 25.456 27.984 23.44 31.152C21.456 34.32 18.144 35.904 13.504 35.904C8.864 35.904 5.536 34.32 3.52 31.152C1.536 27.984 0.544 23.616 0.544 18.048ZM19.84 18.048C19.84 15.68 19.68 13.696 19.36 12.096C19.072 10.464 18.464 9.136 17.536 8.112C16.64 7.088 15.296 6.576 13.504 6.576C11.712 6.576 10.352 7.088 9.424 8.112C8.528 9.136 7.92 10.464 7.6 12.096C7.312 13.696 7.168 15.68 7.168 18.048C7.168 20.48 7.312 22.528 7.6 24.192C7.888 25.824 8.496 27.152 9.424 28.176C10.352 29.168 11.712 29.664 13.504 29.664C15.296 29.664 16.656 29.168 17.584 28.176C18.512 27.152 19.12 25.824 19.408 24.192C19.696 22.528 19.84 20.48 19.84 18.048ZM32.7273 28.416C35.7993 25.856 38.2473 23.728 40.0713 22.032C41.8953 20.304 43.4153 18.512 44.6313 16.656C45.8473 14.8 46.4553 12.976 46.4553 11.184C46.4553 9.552 46.0713 8.272 45.3033 7.344C44.5353 6.416 43.3513 5.952 41.7513 5.952C40.1513 5.952 38.9193 6.496 38.0553 7.584C37.1913 8.64 36.7433 10.096 36.7113 11.952H30.1833C30.3113 8.112 31.4473 5.2 33.5913 3.216C35.7673 1.232 38.5193 0.239997 41.8473 0.239997C45.4953 0.239997 48.2953 1.216 50.2473 3.168C52.1993 5.088 53.1753 7.632 53.1753 10.8C53.1753 13.296 52.5033 15.68 51.1593 17.952C49.8153 20.224 48.2793 22.208 46.5513 23.904C44.8233 25.568 42.5673 27.584 39.7833 29.952H53.9433V35.52H30.2313V30.528L32.7273 28.416Z" fill="white" fill-opacity="0.25"/>
</svg>
