<svg width="213" height="45" viewBox="0 0 213 45" fill="none" xmlns="http://www.w3.org/2000/svg">
<path d="M59.296 7.95H64.93C66.19 7.95 67.27 8.172 68.17 8.616C69.082 9.06 69.778 9.684 70.258 10.488C70.738 11.292 70.978 12.234 70.978 13.314C70.978 14.406 70.738 15.36 70.258 16.176C69.778 16.98 69.082 17.604 68.17 18.048C67.27 18.492 66.19 18.714 64.93 18.714H62.572V22.62H59.296V7.95ZM64.786 15.816C65.71 15.816 66.424 15.6 66.928 15.168C67.444 14.736 67.702 14.118 67.702 13.314C67.702 12.51 67.444 11.898 66.928 11.478C66.424 11.058 65.71 10.848 64.786 10.848H62.572V15.816H64.786ZM72.7433 7.95H75.3533L80.4113 16.158L85.4693 7.95H88.0793V22.62H84.8033V14.574L81.4013 20.208H79.4213L76.0193 14.574V22.62H72.7433V7.95ZM96.379 7.59C97.459 7.59 98.437 7.794 99.313 8.202C100.189 8.61 100.885 9.18 101.401 9.912C101.929 10.632 102.217 11.454 102.265 12.378H98.881C98.785 11.73 98.503 11.226 98.035 10.866C97.567 10.506 96.943 10.326 96.163 10.326C95.419 10.326 94.837 10.464 94.417 10.74C93.997 11.004 93.787 11.364 93.787 11.82C93.787 12.18 93.919 12.474 94.183 12.702C94.447 12.93 94.849 13.134 95.389 13.314C95.941 13.482 96.739 13.674 97.783 13.89C99.403 14.226 100.561 14.784 101.257 15.564C101.965 16.332 102.319 17.298 102.319 18.462C102.319 19.374 102.055 20.172 101.527 20.856C101.011 21.54 100.303 22.062 99.403 22.422C98.503 22.794 97.501 22.98 96.397 22.98C95.197 22.98 94.117 22.77 93.157 22.35C92.209 21.942 91.453 21.354 90.889 20.586C90.337 19.818 90.037 18.918 89.989 17.886H93.355C93.451 18.594 93.787 19.164 94.363 19.596C94.951 20.016 95.707 20.226 96.631 20.226C97.303 20.226 97.855 20.076 98.287 19.776C98.731 19.476 98.953 19.086 98.953 18.606C98.953 18.222 98.833 17.904 98.593 17.652C98.365 17.4 97.993 17.184 97.477 17.004C96.973 16.824 96.265 16.65 95.353 16.482C93.709 16.17 92.479 15.648 91.663 14.916C90.847 14.184 90.439 13.152 90.439 11.82C90.439 10.956 90.697 10.206 91.213 9.57C91.741 8.934 92.455 8.448 93.355 8.112C94.255 7.764 95.263 7.59 96.379 7.59ZM111.196 8.076L116.758 17.868L122.32 8.076H123.976V22.494H122.086V11.856L117.442 20.064H116.074L111.43 11.856V22.494H109.54V8.076H111.196ZM136.228 18.93H129.298L127.858 22.494H125.878L131.818 8.076H133.816L139.738 22.494H137.668L136.228 18.93ZM135.562 17.256L132.772 10.29L129.964 17.256H135.562ZM143.419 8.076L152.149 19.308V7.986H154.057V22.404H152.275L143.545 11.172V22.494H141.655V8.076H143.419ZM166.322 18.93H159.392L157.952 22.494H155.972L161.912 8.076H163.91L169.832 22.494H167.762L166.322 18.93ZM165.656 17.256L162.866 10.29L160.058 17.256H165.656ZM177.922 22.818C176.47 22.818 175.168 22.494 174.016 21.846C172.876 21.198 171.982 20.304 171.334 19.164C170.686 18.012 170.362 16.716 170.362 15.276C170.362 13.836 170.686 12.546 171.334 11.406C171.982 10.254 172.876 9.354 174.016 8.706C175.168 8.058 176.47 7.734 177.922 7.734C179.11 7.734 180.202 7.95 181.198 8.382C182.206 8.802 183.046 9.384 183.718 10.128C184.39 10.872 184.852 11.706 185.104 12.63H183.052C182.86 12.03 182.512 11.49 182.008 11.01C181.516 10.53 180.916 10.152 180.208 9.876C179.512 9.6 178.762 9.462 177.958 9.462C176.866 9.462 175.882 9.714 175.006 10.218C174.142 10.71 173.464 11.4 172.972 12.288C172.492 13.164 172.252 14.16 172.252 15.276C172.252 16.392 172.492 17.4 172.972 18.3C173.464 19.188 174.148 19.884 175.024 20.388C175.9 20.88 176.89 21.126 177.994 21.126C178.966 21.126 179.842 20.928 180.622 20.532C181.414 20.136 182.05 19.596 182.53 18.912C183.01 18.216 183.286 17.436 183.358 16.572H177.616V14.934H185.374V15.582C185.374 16.974 185.044 18.222 184.384 19.326C183.736 20.418 182.842 21.27 181.702 21.882C180.574 22.506 179.314 22.818 177.922 22.818ZM198.022 8.076V9.75H189.67V14.286H197.392V15.96H189.67V20.82H198.184V22.494H187.78V8.076H198.022ZM210.098 22.494L206.822 17.364C206.462 17.388 206.192 17.4 206.012 17.4H202.502V22.494H200.612V8.076H206.012C207.212 8.076 208.244 8.268 209.108 8.652C209.984 9.024 210.65 9.564 211.106 10.272C211.562 10.968 211.79 11.79 211.79 12.738C211.79 13.758 211.526 14.634 210.998 15.366C210.47 16.098 209.708 16.638 208.712 16.986L212.33 22.494H210.098ZM205.868 15.708C207.14 15.708 208.13 15.456 208.838 14.952C209.546 14.436 209.9 13.698 209.9 12.738C209.9 11.778 209.546 11.046 208.838 10.542C208.13 10.026 207.14 9.768 205.868 9.768H202.502V15.708H205.868Z" fill="#EBEFF7"/>
<path d="M62.2249 28.4765C62.8165 28.4765 63.3269 28.578 63.7561 28.781C64.1911 28.9782 64.5217 29.2595 64.7479 29.6249C64.9799 29.9903 65.0959 30.4137 65.0959 30.8951C65.0959 31.3765 64.9799 31.7999 64.7479 32.1653C64.5217 32.5307 64.1911 32.8149 63.7561 33.0179C63.3269 33.2151 62.8165 33.3137 62.2249 33.3137H60.6676V35.4452H59.7541V28.4765H62.2249ZM62.1553 32.4872C62.7933 32.4872 63.2892 32.3509 63.643 32.0783C64.0026 31.7999 64.1824 31.4055 64.1824 30.8951C64.1824 30.3847 64.0026 29.9932 63.643 29.7206C63.2892 29.4422 62.7933 29.303 62.1553 29.303H60.6676V32.4872H62.1553ZM68.1373 35.567C67.6733 35.567 67.2528 35.4539 66.8758 35.2277C66.5046 35.0015 66.2117 34.6883 65.9971 34.2881C65.7825 33.8879 65.6752 33.4442 65.6752 32.957C65.6752 32.4698 65.7825 32.0261 65.9971 31.6259C66.2117 31.2257 66.5046 30.9125 66.8758 30.6863C67.2528 30.4601 67.6733 30.347 68.1373 30.347C68.5607 30.347 68.9261 30.4311 69.2335 30.5993C69.5409 30.7675 69.7642 30.9705 69.9034 31.2083V30.4688H70.7995V35.4452H69.9034V34.7057C69.7642 34.9435 69.5409 35.1465 69.2335 35.3147C68.9261 35.4829 68.5607 35.567 68.1373 35.567ZM68.2156 34.7753C68.5462 34.7753 68.8391 34.697 69.0943 34.5404C69.3553 34.378 69.5583 34.1605 69.7033 33.8879C69.8483 33.6095 69.9208 33.2992 69.9208 32.957C69.9208 32.6148 69.8483 32.3074 69.7033 32.0348C69.5583 31.7564 69.3553 31.5389 69.0943 31.3823C68.8391 31.2199 68.5462 31.1387 68.2156 31.1387C67.8908 31.1387 67.6008 31.217 67.3456 31.3736C67.0962 31.5302 66.9019 31.7477 66.7627 32.0261C66.6235 32.3045 66.5539 32.6148 66.5539 32.957C66.5539 33.2992 66.6235 33.6095 66.7627 33.8879C66.9019 34.1663 67.0962 34.3838 67.3456 34.5404C67.6008 34.697 67.8908 34.7753 68.2156 34.7753ZM73.0154 30.4688V31.2257C73.143 30.9995 73.3518 30.7965 73.6418 30.6167C73.9376 30.4369 74.2914 30.347 74.7032 30.347C75.0918 30.347 75.4369 30.4369 75.7385 30.6167C76.0459 30.7965 76.2837 31.0517 76.4519 31.3823C76.6201 31.7071 76.7042 32.0899 76.7042 32.5307V35.4452H75.8081V32.6873C75.8081 32.1885 75.6921 31.8057 75.4601 31.5389C75.2339 31.2663 74.9178 31.13 74.5118 31.13C74.2276 31.13 73.9724 31.2112 73.7462 31.3736C73.52 31.5302 73.3402 31.7419 73.2068 32.0087C73.0792 32.2755 73.0154 32.5626 73.0154 32.87V35.4452H72.1193V30.4688H73.0154ZM80.1742 30.347C80.6556 30.347 81.0906 30.4601 81.4792 30.6863C81.8678 30.9125 82.1694 31.2257 82.384 31.6259C82.6044 32.0203 82.7146 32.464 82.7146 32.957C82.7146 33.45 82.6044 33.8966 82.384 34.2968C82.1694 34.6912 81.8678 35.0015 81.4792 35.2277C81.0906 35.4539 80.6556 35.567 80.1742 35.567C79.687 35.567 79.2491 35.4539 78.8605 35.2277C78.4777 35.0015 78.1761 34.6912 77.9557 34.2968C77.7353 33.8966 77.6251 33.45 77.6251 32.957C77.6251 32.464 77.7353 32.0203 77.9557 31.6259C78.1761 31.2257 78.4777 30.9125 78.8605 30.6863C79.2491 30.4601 79.687 30.347 80.1742 30.347ZM80.1742 31.1387C79.8494 31.1387 79.5594 31.2199 79.3042 31.3823C79.0548 31.5389 78.8576 31.7564 78.7126 32.0348C78.5734 32.3074 78.5038 32.6148 78.5038 32.957C78.5038 33.2992 78.5734 33.6095 78.7126 33.8879C78.8576 34.1605 79.0548 34.378 79.3042 34.5404C79.5594 34.697 79.8494 34.7753 80.1742 34.7753C80.4932 34.7753 80.7803 34.697 81.0355 34.5404C81.2907 34.378 81.4879 34.1605 81.6271 33.8879C81.7663 33.6095 81.8359 33.2992 81.8359 32.957C81.8359 32.6148 81.7663 32.3074 81.6271 32.0348C81.4879 31.7564 81.2907 31.5389 81.0355 31.3823C80.7803 31.2199 80.4932 31.1387 80.1742 31.1387ZM84.6679 30.4688V31.2344C84.8013 31.0082 85.0217 30.8052 85.3291 30.6254C85.6423 30.4398 86.0193 30.347 86.4601 30.347C86.7443 30.347 86.9705 30.376 87.1387 30.434V31.2866C86.9357 31.1938 86.6892 31.1474 86.3992 31.1474C86.0686 31.1474 85.7699 31.2286 85.5031 31.391C85.2421 31.5476 85.0362 31.7593 84.8854 32.0261C84.7404 32.2871 84.6679 32.5684 84.6679 32.87V35.4452H83.7718V30.4688H84.6679ZM89.8791 35.567C89.4151 35.567 88.9946 35.4539 88.6176 35.2277C88.2464 35.0015 87.9535 34.6883 87.7389 34.2881C87.5243 33.8879 87.417 33.4442 87.417 32.957C87.417 32.4698 87.5243 32.0261 87.7389 31.6259C87.9535 31.2257 88.2464 30.9125 88.6176 30.6863C88.9946 30.4601 89.4151 30.347 89.8791 30.347C90.3025 30.347 90.6679 30.4311 90.9753 30.5993C91.2827 30.7675 91.506 30.9705 91.6452 31.2083V30.4688H92.5413V35.4452H91.6452V34.7057C91.506 34.9435 91.2827 35.1465 90.9753 35.3147C90.6679 35.4829 90.3025 35.567 89.8791 35.567ZM89.9574 34.7753C90.288 34.7753 90.5809 34.697 90.8361 34.5404C91.0971 34.378 91.3001 34.1605 91.4451 33.8879C91.5901 33.6095 91.6626 33.2992 91.6626 32.957C91.6626 32.6148 91.5901 32.3074 91.4451 32.0348C91.3001 31.7564 91.0971 31.5389 90.8361 31.3823C90.5809 31.2199 90.288 31.1387 89.9574 31.1387C89.6326 31.1387 89.3426 31.217 89.0874 31.3736C88.838 31.5302 88.6437 31.7477 88.5045 32.0261C88.3653 32.3045 88.2957 32.6148 88.2957 32.957C88.2957 33.2992 88.3653 33.6095 88.5045 33.8879C88.6437 34.1663 88.838 34.3838 89.0874 34.5404C89.3426 34.697 89.6326 34.7753 89.9574 34.7753ZM94.7572 30.4688V31.1735C94.9022 30.9415 95.0936 30.7472 95.3314 30.5906C95.575 30.4282 95.8853 30.347 96.2623 30.347C96.6277 30.347 96.9467 30.4398 97.2193 30.6254C97.4919 30.811 97.6891 31.0662 97.8109 31.391C97.9617 31.072 98.1908 30.8197 98.4982 30.6341C98.8056 30.4427 99.1652 30.347 99.577 30.347C99.9308 30.347 100.244 30.434 100.517 30.608C100.795 30.7762 101.013 31.0169 101.169 31.3301C101.326 31.6433 101.404 32.0058 101.404 32.4176V35.4452H100.508V32.5655C100.508 32.1189 100.406 31.768 100.203 31.5128C100 31.2576 99.722 31.13 99.3682 31.13C99.1246 31.13 98.9042 31.2025 98.707 31.3475C98.5098 31.4925 98.3561 31.6897 98.2459 31.9391C98.1357 32.1885 98.0806 32.464 98.0806 32.7656V35.4452H97.1845V32.6003C97.1845 32.1363 97.083 31.7767 96.88 31.5215C96.677 31.2605 96.3986 31.13 96.0448 31.13C95.8012 31.13 95.5808 31.2025 95.3836 31.3475C95.1922 31.4925 95.0385 31.6897 94.9225 31.9391C94.8123 32.1885 94.7572 32.4611 94.7572 32.7569V35.4452H93.8611V30.4688H94.7572ZM104.794 35.567C104.33 35.567 103.91 35.4539 103.533 35.2277C103.161 35.0015 102.869 34.6883 102.654 34.2881C102.439 33.8879 102.332 33.4442 102.332 32.957C102.332 32.4698 102.439 32.0261 102.654 31.6259C102.869 31.2257 103.161 30.9125 103.533 30.6863C103.91 30.4601 104.33 30.347 104.794 30.347C105.218 30.347 105.583 30.4311 105.89 30.5993C106.198 30.7675 106.421 30.9705 106.56 31.2083V30.4688H107.456V35.4452H106.56V34.7057C106.421 34.9435 106.198 35.1465 105.89 35.3147C105.583 35.4829 105.218 35.567 104.794 35.567ZM104.872 34.7753C105.203 34.7753 105.496 34.697 105.751 34.5404C106.012 34.378 106.215 34.1605 106.36 33.8879C106.505 33.6095 106.578 33.2992 106.578 32.957C106.578 32.6148 106.505 32.3074 106.36 32.0348C106.215 31.7564 106.012 31.5389 105.751 31.3823C105.496 31.2199 105.203 31.1387 104.872 31.1387C104.548 31.1387 104.258 31.217 104.002 31.3736C103.753 31.5302 103.559 31.7477 103.42 32.0261C103.28 32.3045 103.211 32.6148 103.211 32.957C103.211 33.2992 103.28 33.6095 103.42 33.8879C103.559 34.1663 103.753 34.3838 104.002 34.5404C104.258 34.697 104.548 34.7753 104.872 34.7753ZM111.971 28.4765L114.66 33.2093L117.348 28.4765H118.148V35.4452H117.235V30.3035L114.99 34.2707H114.329L112.085 30.3035V35.4452H111.171V28.4765H111.971ZM121.704 35.567C121.24 35.567 120.819 35.4539 120.442 35.2277C120.071 35.0015 119.778 34.6883 119.564 34.2881C119.349 33.8879 119.242 33.4442 119.242 32.957C119.242 32.4698 119.349 32.0261 119.564 31.6259C119.778 31.2257 120.071 30.9125 120.442 30.6863C120.819 30.4601 121.24 30.347 121.704 30.347C122.127 30.347 122.493 30.4311 122.8 30.5993C123.107 30.7675 123.331 30.9705 123.47 31.2083V30.4688H124.366V35.4452H123.47V34.7057C123.331 34.9435 123.107 35.1465 122.8 35.3147C122.493 35.4829 122.127 35.567 121.704 35.567ZM121.782 34.7753C122.113 34.7753 122.406 34.697 122.661 34.5404C122.922 34.378 123.125 34.1605 123.27 33.8879C123.415 33.6095 123.487 33.2992 123.487 32.957C123.487 32.6148 123.415 32.3074 123.27 32.0348C123.125 31.7564 122.922 31.5389 122.661 31.3823C122.406 31.2199 122.113 31.1387 121.782 31.1387C121.457 31.1387 121.167 31.217 120.912 31.3736C120.663 31.5302 120.468 31.7477 120.329 32.0261C120.19 32.3045 120.12 32.6148 120.12 32.957C120.12 33.2992 120.19 33.6095 120.329 33.8879C120.468 34.1663 120.663 34.3838 120.912 34.5404C121.167 34.697 121.457 34.7753 121.782 34.7753ZM126.582 30.4688V31.2257C126.709 30.9995 126.918 30.7965 127.208 30.6167C127.504 30.4369 127.858 30.347 128.27 30.347C128.658 30.347 129.003 30.4369 129.305 30.6167C129.612 30.7965 129.85 31.0517 130.018 31.3823C130.187 31.7071 130.271 32.0899 130.271 32.5307V35.4452H129.375V32.6873C129.375 32.1885 129.259 31.8057 129.027 31.5389C128.8 31.2663 128.484 31.13 128.078 31.13C127.794 31.13 127.539 31.2112 127.313 31.3736C127.086 31.5302 126.907 31.7419 126.773 32.0087C126.646 32.2755 126.582 32.5626 126.582 32.87V35.4452H125.686V30.4688H126.582ZM133.654 35.567C133.19 35.567 132.769 35.4539 132.392 35.2277C132.021 35.0015 131.728 34.6883 131.513 34.2881C131.299 33.8879 131.192 33.4442 131.192 32.957C131.192 32.4698 131.299 32.0261 131.513 31.6259C131.728 31.2257 132.021 30.9125 132.392 30.6863C132.769 30.4601 133.19 30.347 133.654 30.347C134.077 30.347 134.442 30.4311 134.75 30.5993C135.057 30.7675 135.281 30.9705 135.42 31.2083V30.4688H136.316V35.4452H135.42V34.7057C135.281 34.9435 135.057 35.1465 134.75 35.3147C134.442 35.4829 134.077 35.567 133.654 35.567ZM133.732 34.7753C134.063 34.7753 134.355 34.697 134.611 34.5404C134.872 34.378 135.075 34.1605 135.22 33.8879C135.365 33.6095 135.437 33.2992 135.437 32.957C135.437 32.6148 135.365 32.3074 135.22 32.0348C135.075 31.7564 134.872 31.5389 134.611 31.3823C134.355 31.2199 134.063 31.1387 133.732 31.1387C133.407 31.1387 133.117 31.217 132.862 31.3736C132.613 31.5302 132.418 31.7477 132.279 32.0261C132.14 32.3045 132.07 32.6148 132.07 32.957C132.07 33.2992 132.14 33.6095 132.279 33.8879C132.418 34.1663 132.613 34.3838 132.862 34.5404C133.117 34.697 133.407 34.7753 133.732 34.7753ZM140.072 37.6811C139.399 37.6811 138.86 37.5129 138.454 37.1765C138.053 36.8459 137.807 36.4254 137.714 35.915H138.628C138.686 36.205 138.833 36.4428 139.071 36.6284C139.315 36.814 139.648 36.9068 140.072 36.9068C140.53 36.9068 140.898 36.7618 141.177 36.4718C141.461 36.1876 141.603 35.8048 141.603 35.3234V34.6361C141.464 34.8739 141.24 35.0769 140.933 35.2451C140.626 35.4133 140.26 35.4974 139.837 35.4974C139.373 35.4974 138.952 35.3843 138.575 35.1581C138.204 34.9377 137.911 34.6332 137.697 34.2446C137.482 33.8502 137.375 33.4123 137.375 32.9309C137.375 32.4495 137.482 32.0116 137.697 31.6172C137.911 31.2228 138.204 30.9125 138.575 30.6863C138.952 30.4601 139.373 30.347 139.837 30.347C140.26 30.347 140.626 30.4311 140.933 30.5993C141.24 30.7675 141.464 30.9705 141.603 31.2083V30.4688H142.499V35.3321C142.499 35.7845 142.395 36.1876 142.186 36.5414C141.983 36.901 141.696 37.1794 141.325 37.3766C140.959 37.5796 140.542 37.6811 140.072 37.6811ZM139.915 34.7231C140.246 34.7231 140.539 34.6448 140.794 34.4882C141.055 34.3316 141.258 34.117 141.403 33.8444C141.548 33.5718 141.62 33.2673 141.62 32.9309C141.62 32.5945 141.548 32.29 141.403 32.0174C141.258 31.7448 141.055 31.5302 140.794 31.3736C140.539 31.217 140.246 31.1387 139.915 31.1387C139.59 31.1387 139.3 31.217 139.045 31.3736C138.796 31.5302 138.601 31.7448 138.462 32.0174C138.323 32.29 138.253 32.5945 138.253 32.9309C138.253 33.2673 138.323 33.5718 138.462 33.8444C138.601 34.117 138.796 34.3316 139.045 34.4882C139.3 34.6448 139.59 34.7231 139.915 34.7231ZM146.055 35.567C145.579 35.567 145.15 35.4539 144.767 35.2277C144.39 35.0015 144.094 34.6912 143.88 34.2968C143.665 33.8966 143.558 33.45 143.558 32.957C143.558 32.464 143.665 32.0203 143.88 31.6259C144.094 31.2257 144.39 30.9125 144.767 30.6863C145.15 30.4601 145.579 30.347 146.055 30.347C146.53 30.347 146.957 30.4601 147.334 30.6863C147.716 30.9125 148.012 31.2257 148.221 31.6259C148.436 32.0203 148.543 32.464 148.543 32.957C148.543 33.1194 148.537 33.2412 148.526 33.3224H144.454C144.5 33.7574 144.669 34.1141 144.959 34.3925C145.254 34.6709 145.62 34.8101 146.055 34.8101C146.385 34.8101 146.675 34.7434 146.925 34.61C147.18 34.4708 147.354 34.2968 147.447 34.088H148.36C148.221 34.523 147.943 34.8768 147.525 35.1494C147.107 35.4278 146.617 35.567 146.055 35.567ZM147.664 32.5916C147.612 32.1508 147.441 31.7941 147.151 31.5215C146.861 31.2431 146.496 31.1039 146.055 31.1039C145.614 31.1039 145.249 31.2431 144.959 31.5215C144.669 31.7941 144.5 32.1508 144.454 32.5916H147.664ZM150.49 30.4688V31.1735C150.635 30.9415 150.827 30.7472 151.064 30.5906C151.308 30.4282 151.618 30.347 151.995 30.347C152.361 30.347 152.68 30.4398 152.952 30.6254C153.225 30.811 153.422 31.0662 153.544 31.391C153.695 31.072 153.924 30.8197 154.231 30.6341C154.539 30.4427 154.898 30.347 155.31 30.347C155.664 30.347 155.977 30.434 156.25 30.608C156.528 30.7762 156.746 31.0169 156.902 31.3301C157.059 31.6433 157.137 32.0058 157.137 32.4176V35.4452H156.241V32.5655C156.241 32.1189 156.139 31.768 155.936 31.5128C155.733 31.2576 155.455 31.13 155.101 31.13C154.858 31.13 154.637 31.2025 154.44 31.3475C154.243 31.4925 154.089 31.6897 153.979 31.9391C153.869 32.1885 153.814 32.464 153.814 32.7656V35.4452H152.918V32.6003C152.918 32.1363 152.816 31.7767 152.613 31.5215C152.41 31.2605 152.132 31.13 151.778 31.13C151.534 31.13 151.314 31.2025 151.117 31.3475C150.925 31.4925 150.772 31.6897 150.656 31.9391C150.545 32.1885 150.49 32.4611 150.49 32.7569V35.4452H149.594V30.4688H150.49ZM160.562 35.567C160.086 35.567 159.657 35.4539 159.274 35.2277C158.897 35.0015 158.602 34.6912 158.387 34.2968C158.172 33.8966 158.065 33.45 158.065 32.957C158.065 32.464 158.172 32.0203 158.387 31.6259C158.602 31.2257 158.897 30.9125 159.274 30.6863C159.657 30.4601 160.086 30.347 160.562 30.347C161.038 30.347 161.464 30.4601 161.841 30.6863C162.224 30.9125 162.519 31.2257 162.728 31.6259C162.943 32.0203 163.05 32.464 163.05 32.957C163.05 33.1194 163.044 33.2412 163.033 33.3224H158.961C159.008 33.7574 159.176 34.1141 159.466 34.3925C159.762 34.6709 160.127 34.8101 160.562 34.8101C160.893 34.8101 161.183 34.7434 161.432 34.61C161.687 34.4708 161.861 34.2968 161.954 34.088H162.867C162.728 34.523 162.45 34.8768 162.032 35.1494C161.615 35.4278 161.125 35.567 160.562 35.567ZM162.171 32.5916C162.119 32.1508 161.948 31.7941 161.658 31.5215C161.368 31.2431 161.003 31.1039 160.562 31.1039C160.121 31.1039 159.756 31.2431 159.466 31.5215C159.176 31.7941 159.008 32.1508 158.961 32.5916H162.171ZM164.997 30.4688V31.2257C165.125 30.9995 165.334 30.7965 165.624 30.6167C165.92 30.4369 166.273 30.347 166.685 30.347C167.074 30.347 167.419 30.4369 167.721 30.6167C168.028 30.7965 168.266 31.0517 168.434 31.3823C168.602 31.7071 168.686 32.0899 168.686 32.5307V35.4452H167.79V32.6873C167.79 32.1885 167.674 31.8057 167.442 31.5389C167.216 31.2663 166.9 31.13 166.494 31.13C166.21 31.13 165.954 31.2112 165.728 31.3736C165.502 31.5302 165.322 31.7419 165.189 32.0087C165.061 32.2755 164.997 32.5626 164.997 32.87V35.4452H164.101V30.4688H164.997ZM172.402 31.2605H171.297V35.4452H170.401V31.2605H169.296V30.4688H170.401V28.955H171.297V30.4688H172.402V31.2605ZM178.2 28.3112C178.705 28.3112 179.16 28.4011 179.566 28.5809C179.972 28.7549 180.297 29.0014 180.541 29.3204C180.784 29.6394 180.921 29.999 180.95 30.3992H180.01C179.958 30.0164 179.766 29.7032 179.436 29.4596C179.111 29.216 178.685 29.0942 178.157 29.0942C177.623 29.0942 177.203 29.1957 176.895 29.3987C176.594 29.5959 176.443 29.854 176.443 30.173C176.443 30.4108 176.516 30.6109 176.661 30.7733C176.806 30.9299 177.029 31.0662 177.33 31.1822C177.638 31.2982 178.053 31.4113 178.575 31.5215C179.416 31.7013 180.025 31.9594 180.402 32.2958C180.784 32.6264 180.976 33.0556 180.976 33.5834C180.976 33.9894 180.854 34.3461 180.61 34.6535C180.367 34.9551 180.033 35.1871 179.61 35.3495C179.186 35.5177 178.717 35.6018 178.2 35.6018C177.661 35.6018 177.177 35.509 176.748 35.3234C176.324 35.1378 175.985 34.8768 175.73 34.5404C175.474 34.204 175.332 33.8125 175.303 33.3659H176.243C176.289 33.7951 176.492 34.1431 176.852 34.4099C177.217 34.6767 177.687 34.8101 178.261 34.8101C178.604 34.8101 178.911 34.7608 179.184 34.6622C179.456 34.5636 179.668 34.4244 179.819 34.2446C179.969 34.0648 180.045 33.8618 180.045 33.6356C180.045 33.3804 179.972 33.1687 179.827 33.0005C179.682 32.8323 179.456 32.6902 179.149 32.5742C178.847 32.4524 178.43 32.3364 177.896 32.2262C177.084 32.058 176.484 31.8144 176.095 31.4954C175.712 31.1764 175.521 30.7356 175.521 30.173C175.521 29.796 175.634 29.4683 175.86 29.1899C176.092 28.9057 176.411 28.6882 176.817 28.5374C177.223 28.3866 177.684 28.3112 178.2 28.3112ZM186.649 30.4688L183.543 37.5593H182.638L183.621 35.3408L181.49 30.4688H182.473L184.074 34.3838L185.718 30.4688H186.649ZM189.243 30.347C189.643 30.347 190.006 30.4108 190.331 30.5384C190.655 30.6602 190.913 30.8313 191.105 31.0517C191.302 31.2663 191.406 31.5128 191.418 31.7912H190.539C190.522 31.5824 190.389 31.4113 190.139 31.2779C189.89 31.1445 189.582 31.0778 189.217 31.0778C188.857 31.0778 188.559 31.1416 188.321 31.2692C188.089 31.3968 187.973 31.5534 187.973 31.739C187.973 31.9536 188.08 32.1247 188.295 32.2523C188.515 32.3799 188.918 32.4843 189.504 32.5655C190.229 32.6641 190.748 32.8323 191.061 33.0701C191.375 33.3079 191.531 33.6269 191.531 34.0271C191.531 34.3403 191.43 34.6129 191.227 34.8449C191.029 35.0769 190.76 35.2538 190.418 35.3756C190.075 35.5032 189.695 35.567 189.278 35.567C188.843 35.567 188.46 35.5003 188.129 35.3669C187.799 35.2393 187.538 35.0595 187.346 34.8275C187.161 34.6013 187.056 34.3432 187.033 34.0532H187.912C187.941 34.2678 188.074 34.4534 188.312 34.61C188.556 34.7608 188.886 34.8362 189.304 34.8362C189.693 34.8362 190.014 34.7666 190.27 34.6274C190.525 34.4824 190.652 34.2997 190.652 34.0793C190.652 33.8705 190.534 33.7052 190.296 33.5834C190.064 33.4558 189.658 33.3543 189.078 33.2789C188.393 33.1861 187.892 33.0237 187.573 32.7917C187.254 32.5539 187.094 32.2204 187.094 31.7912C187.094 31.507 187.187 31.2547 187.373 31.0343C187.564 30.8139 187.822 30.6457 188.147 30.5297C188.472 30.4079 188.837 30.347 189.243 30.347ZM195.136 31.2605H194.031V35.4452H193.135V31.2605H192.03V30.4688H193.135V28.955H194.031V30.4688H195.136V31.2605ZM198.047 35.567C197.572 35.567 197.143 35.4539 196.76 35.2277C196.383 35.0015 196.087 34.6912 195.872 34.2968C195.658 33.8966 195.551 33.45 195.551 32.957C195.551 32.464 195.658 32.0203 195.872 31.6259C196.087 31.2257 196.383 30.9125 196.76 30.6863C197.143 30.4601 197.572 30.347 198.047 30.347C198.523 30.347 198.949 30.4601 199.326 30.6863C199.709 30.9125 200.005 31.2257 200.214 31.6259C200.428 32.0203 200.536 32.464 200.536 32.957C200.536 33.1194 200.53 33.2412 200.518 33.3224H196.447C196.493 33.7574 196.661 34.1141 196.951 34.3925C197.247 34.6709 197.612 34.8101 198.047 34.8101C198.378 34.8101 198.668 34.7434 198.917 34.61C199.173 34.4708 199.347 34.2968 199.439 34.088H200.353C200.214 34.523 199.935 34.8768 199.518 35.1494C199.1 35.4278 198.61 35.567 198.047 35.567ZM199.657 32.5916C199.605 32.1508 199.434 31.7941 199.144 31.5215C198.854 31.2431 198.488 31.1039 198.047 31.1039C197.607 31.1039 197.241 31.2431 196.951 31.5215C196.661 31.7941 196.493 32.1508 196.447 32.5916H199.657ZM202.483 30.4688V31.1735C202.628 30.9415 202.819 30.7472 203.057 30.5906C203.301 30.4282 203.611 30.347 203.988 30.347C204.353 30.347 204.672 30.4398 204.945 30.6254C205.218 30.811 205.415 31.0662 205.537 31.391C205.687 31.072 205.917 30.8197 206.224 30.6341C206.531 30.4427 206.891 30.347 207.303 30.347C207.657 30.347 207.97 30.434 208.242 30.608C208.521 30.7762 208.738 31.0169 208.895 31.3301C209.051 31.6433 209.13 32.0058 209.13 32.4176V35.4452H208.234V32.5655C208.234 32.1189 208.132 31.768 207.929 31.5128C207.726 31.2576 207.448 31.13 207.094 31.13C206.85 31.13 206.63 31.2025 206.433 31.3475C206.236 31.4925 206.082 31.6897 205.972 31.9391C205.861 32.1885 205.806 32.464 205.806 32.7656V35.4452H204.91V32.6003C204.91 32.1363 204.809 31.7767 204.606 31.5215C204.403 31.2605 204.124 31.13 203.771 31.13C203.527 31.13 203.307 31.2025 203.109 31.3475C202.918 31.4925 202.764 31.6897 202.648 31.9391C202.538 32.1885 202.483 32.4611 202.483 32.7569V35.4452H201.587V30.4688H202.483Z" fill="#EBEFF7" fill-opacity="0.7"/>
<g clip-path="url(#clip0_2_2331)">
<g clip-path="url(#clip1_2_2331)">
<path d="M0 21C0 5.3 5.3 0 21 0C36.7 0 42 5.3 42 21C42 36.7 36.7 42 21 42C5.3 42 0 36.8 0 21Z" fill="url(#paint0_linear_2_2331)"/>
</g>
<g clip-path="url(#clip2_2_2331)">
<path d="M37.6632 16.5998C37.6632 16.2998 37.6632 15.9998 37.6632 15.7998V15.4998L38.6912 14.5998L37.6632 12.8998L36.3268 13.2998L36.1212 13.0998C35.9155 12.8998 35.6071 12.7998 35.2987 12.6998L34.9903 12.5998L34.6819 11.2998H32.523L32.2146 12.5998L31.9062 12.6998C31.8034 12.7998 31.5978 12.7998 31.495 12.8998C31.3922 12.9998 31.1866 13.0998 31.0838 13.0998L30.8782 13.2998L29.5417 12.8998L28.5137 14.5998L29.5417 15.4998V15.7998C29.5417 16.0998 29.5417 16.3998 29.5417 16.5998V16.8998L28.5137 17.7998L29.5417 19.4998L30.8782 19.0998L31.0838 19.2998C31.1866 19.3998 31.3922 19.4998 31.495 19.4998C31.5978 19.5998 31.8034 19.5998 31.9062 19.6998L32.2146 19.7998L32.523 21.0998H34.6819L34.9903 19.7998L35.2987 19.6998C35.6071 19.5998 35.8127 19.3998 36.1212 19.2998L36.3268 19.0998L37.6632 19.4998L38.6912 17.7998L37.6632 16.8998V16.5998ZM33.5511 17.8998C32.523 17.8998 31.7006 17.0998 31.7006 16.1998C31.7006 15.1998 32.523 14.4998 33.5511 14.4998C34.5791 14.4998 35.4015 15.2998 35.4015 16.1998C35.4015 17.0998 34.5791 17.8998 33.5511 17.8998Z" fill="white" stroke="white" stroke-width="0.5" stroke-miterlimit="10" stroke-linecap="round" stroke-linejoin="round"/>
<path d="M34.0653 23.9998V31.2998C25.2241 28.1998 15.6634 28.1998 6.82227 31.2998V11.7998C12.8877 13.8998 19.3643 14.5998 25.6354 13.7998" stroke="white" stroke-width="1.5" stroke-miterlimit="10" stroke-linecap="round" stroke-linejoin="round"/>
<path d="M15.9717 15V15.8" stroke="white" stroke-linecap="round" stroke-linejoin="round"/>
<path d="M15.9717 18.6001V25.8001" stroke="white" stroke-linecap="round" stroke-linejoin="round" stroke-dasharray="1.44 1.44"/>
<path d="M15.9717 27.2002V28.0002" stroke="white" stroke-linecap="round" stroke-linejoin="round"/>
<path d="M24.813 15V15.8" stroke="white" stroke-linecap="round" stroke-linejoin="round"/>
<path d="M24.813 18.6001V25.8001" stroke="white" stroke-linecap="round" stroke-linejoin="round" stroke-dasharray="1.44 1.44"/>
<path d="M24.813 27.2002V28.0002" stroke="white" stroke-linecap="round" stroke-linejoin="round"/>
</g>
</g>
<defs>
<linearGradient id="paint0_linear_2_2331" x1="3.5835" y1="2.3906" x2="38.1625" y2="39.338" gradientUnits="userSpaceOnUse">
<stop stop-color="#00C2C9"/>
<stop offset="0.2961" stop-color="#2163E5"/>
<stop offset="0.972" stop-color="#FC2740"/>
</linearGradient>
<clipPath id="clip0_2_2331">
<rect width="42" height="42" fill="white"/>
</clipPath>
<clipPath id="clip1_2_2331">
<rect width="42" height="42" fill="white"/>
</clipPath>
<clipPath id="clip2_2_2331">
<rect width="33" height="21" fill="white" transform="translate(6 11)"/>
</clipPath>
</defs>
</svg>
