<svg width="337" height="143" viewBox="0 0 337 143" fill="none" xmlns="http://www.w3.org/2000/svg">
<g filter="url(#filter0_d_10341_53436)">
<path d="M65.7303 71.441C65.6993 66.14 65.6993 51.632 65.7303 46.3C67.1563 46.114 69.9773 46.114 71.0313 46.3C71.1243 50.609 71.0933 63.412 71.0313 66.605C73.8833 66.543 78.6883 66.543 80.9203 66.605C81.0443 68.031 81.0443 70.201 80.9203 71.441C78.6883 71.534 68.1483 71.534 65.7303 71.441ZM91.8299 71.906C84.8239 71.906 80.8559 67.969 80.8559 58.917C80.8559 49.865 84.9479 45.928 91.9229 45.928C95.2709 45.928 97.8129 46.734 100.107 49.245C99.3939 50.609 98.1849 52.004 97.0999 52.841C95.9219 51.601 94.1549 50.888 91.9229 50.888C88.3269 50.888 86.1259 52.996 86.1259 58.917C86.1259 64.807 88.2339 66.915 91.8299 66.915C93.7209 66.915 95.3019 66.295 96.0149 65.675C96.0149 64.28 96.0149 63.381 96.0459 61.8C94.8369 61.862 93.4729 61.862 92.3569 61.8C92.2329 60.715 92.2329 58.111 92.3569 57.026C95.3329 56.933 98.3709 56.933 101.068 57.026C101.099 59.754 101.13 64.342 101.068 67.473C99.1149 70.325 95.8909 71.906 91.8299 71.906ZM127.746 63.288C125.204 63.412 106.976 63.381 103.969 63.288C103.783 59.723 103.814 49.121 103.969 45.618C106.945 45.463 123.964 45.525 127.126 45.618C127.25 46.92 127.25 48.873 127.126 50.175C125.049 50.237 111.564 50.237 109.301 50.175C109.301 50.516 109.301 51.26 109.27 52.19C113.238 52.159 124.088 52.19 126.196 52.19C126.351 53.492 126.289 55.445 126.196 56.747C124.212 56.809 113.238 56.778 109.27 56.747C109.301 57.708 109.301 58.483 109.301 58.793C111.719 58.793 125.483 58.762 127.746 58.793C127.839 60.126 127.839 62.203 127.746 63.288ZM129.079 67.69C129.203 68.961 129.203 70.728 129.079 72.154C126.537 72.371 105.891 72.309 102.295 72.154C102.171 70.945 102.171 69.054 102.295 67.69C109.146 67.566 126.227 67.628 129.079 67.69ZM139.524 56.84C133.355 56.84 130.627 54.763 130.627 50.764C130.627 46.827 133.355 44.657 139.524 44.657C145.662 44.657 148.39 46.827 148.39 50.764C148.39 54.763 145.662 56.84 139.524 56.84ZM155.768 65.303C154.714 65.427 151.831 65.365 150.653 65.303C150.591 61.831 150.591 47.974 150.653 44.843C151.552 44.657 154.59 44.657 155.768 44.843C155.892 48.656 155.892 61.645 155.768 65.303ZM139.524 48.966C136.393 48.966 135.463 49.617 135.463 50.764C135.463 51.911 136.393 52.531 139.524 52.531C142.562 52.531 143.585 51.911 143.585 50.764C143.585 49.617 142.562 48.966 139.524 48.966ZM137.323 64.435C137.292 63.784 137.261 62.916 137.261 61.986C134.254 61.955 131.464 61.924 129.945 61.893C129.759 60.622 129.759 58.824 129.945 57.553C132.27 57.46 146.654 57.522 149.196 57.553C149.351 59.01 149.351 60.746 149.196 61.955C148.297 61.986 145.631 62.017 142.469 61.986C142.469 62.916 142.469 63.846 142.438 64.435C141.074 64.559 138.687 64.559 137.323 64.435ZM156.326 68.527C156.45 69.891 156.45 71.72 156.326 72.991C154.001 73.146 134.75 73.146 131.96 72.991C131.805 70.294 131.867 66.884 131.96 65.396C133.014 65.303 135.866 65.303 137.106 65.396C137.137 66.14 137.137 67.473 137.106 68.527C144.67 68.496 154.187 68.465 156.326 68.527ZM161.686 63.66C160.942 63.133 158.865 60.932 158.307 59.878C160.663 57.77 164.848 54.143 168.072 51.291C168.041 48.842 168.072 47.106 168.134 45.68C169.033 45.587 172.412 45.556 173.59 45.68C173.652 47.323 173.683 49.09 173.652 51.353C176.969 54.112 181.185 57.584 183.572 59.599C183.014 60.653 180.999 62.916 180.317 63.505C178.829 62.296 174.458 58.824 170.924 55.693C167.452 58.886 163.205 62.482 161.686 63.66ZM184.254 67.69C184.378 68.961 184.378 70.728 184.254 72.154C181.712 72.371 161.066 72.309 157.47 72.154C157.346 70.945 157.346 69.054 157.47 67.69C164.321 67.566 181.402 67.628 184.254 67.69ZM209.95 49.524C202.355 49.555 194.853 49.617 192.621 49.524C192.497 48.222 192.497 46.362 192.621 45.06C195.039 44.874 212.492 44.936 215.127 45.06C215.282 47.726 215.313 52.128 215.127 53.523C214.135 53.616 210.942 53.616 209.95 53.523C209.919 51.911 209.919 51.167 209.95 49.524ZM217.421 54.763C217.545 55.972 217.545 57.863 217.421 59.196C216.491 59.289 211.903 59.32 206.726 59.32C206.726 60.343 206.726 61.335 206.695 61.769C205.424 61.924 202.541 61.893 201.425 61.769C201.394 61.335 201.363 60.374 201.363 59.32C196.434 59.289 191.939 59.258 190.637 59.196C190.513 58.018 190.513 56.034 190.637 54.763C197.023 54.639 215.034 54.701 217.421 54.763ZM206.757 62.823C206.788 63.753 206.819 64.683 206.819 65.551C210.415 66.729 214.569 68.062 217.111 68.961C216.925 70.17 215.902 72.371 215.437 73.084C213.546 72.557 208.245 70.79 204.091 69.24C199.906 70.883 194.636 72.774 192.776 73.27C192.249 72.557 191.195 70.17 191.071 69.085C193.613 68.186 197.674 66.791 201.239 65.551C201.239 64.559 201.27 63.598 201.301 62.823C202.231 62.73 205.548 62.699 206.757 62.823ZM219.495 60.374C221.789 58.886 225.571 56.53 228.857 54.484C228.826 52.903 228.826 51.601 228.826 50.454C224.641 50.454 220.983 50.454 220.208 50.392C220.084 49.028 220.084 47.137 220.208 45.928C222.285 45.866 237.444 45.773 243.055 45.928C243.148 47.23 243.148 49.183 243.055 50.392C241.939 50.423 238.374 50.454 234.406 50.454C234.406 51.632 234.406 52.934 234.375 54.484C237.723 56.406 241.567 58.669 243.861 60.033C243.427 61.18 241.97 63.35 241.133 64.032C239.614 63.226 235.336 60.839 231.647 58.576C228.02 60.963 223.928 63.443 222.347 64.28C221.572 63.66 219.898 61.459 219.495 60.374ZM245.008 67.69C245.132 68.961 245.132 70.728 245.008 72.154C242.466 72.371 221.82 72.309 218.224 72.154C218.1 70.945 218.1 69.054 218.224 67.69C225.075 67.566 242.156 67.628 245.008 67.69ZM269.34 67.07L272.285 69.891C272.037 70.48 271.727 70.852 271.169 71.007L268.348 68.279C266.302 70.48 263.729 71.906 260.071 71.906C255.483 71.906 252.228 69.147 252.228 65.024C252.228 61.211 254.615 59.568 257.591 57.956C255.793 56.189 254.119 54.298 254.119 51.539C254.119 47.912 256.754 45.959 260.722 45.959C264.442 45.959 266.767 47.912 266.767 51.26C266.767 53.988 264.969 55.755 260.195 58.328L268.224 65.985C269.061 64.869 269.836 63.598 270.642 62.234C271.107 62.296 271.51 62.513 271.975 62.947C271.169 64.435 270.301 65.83 269.34 67.07ZM255.793 51.539C255.793 53.771 257.095 55.321 259.048 57.212C261.342 55.848 265.093 54.515 265.093 51.353C265.093 48.966 263.388 47.416 260.722 47.447C257.653 47.478 255.793 48.935 255.793 51.539ZM260.195 70.418C263.202 70.418 265.372 69.178 267.201 67.194L258.8 59.103C255.948 60.622 253.902 61.769 253.902 64.962C253.902 68 256.289 70.418 260.195 70.418ZM4.74241 96.033C4.09141 95.351 2.41741 92.84 2.07641 91.724C4.46341 90.236 8.36941 87.88 11.8104 85.803C11.7794 84.222 11.8104 82.238 11.8724 81.153C12.7714 81.06 16.1504 81.029 17.3284 81.153C17.3904 82.238 17.4214 84.222 17.3904 85.803C20.8934 87.756 24.8614 89.988 27.2484 91.383C26.9074 92.53 25.2954 95.103 24.7374 95.816C23.0944 94.948 18.5684 92.499 14.6624 90.143C10.8184 92.592 6.38541 95.134 4.74241 96.033ZM27.9924 97.428C28.1164 98.699 28.1164 100.435 27.9924 101.892C27.3724 101.923 25.7294 101.954 23.5284 101.985C23.5284 104.31 23.5594 107.689 23.4974 108.96C22.3814 109.022 19.5914 109.022 18.2274 108.96C18.1654 107.906 18.1344 104.465 18.1964 102.016C15.8404 102.016 13.3604 102.016 11.0354 101.985C11.0354 104.341 11.0664 107.689 11.0044 108.96C9.88841 109.022 7.09841 109.022 5.73441 108.96C5.67241 107.906 5.64141 104.403 5.70341 101.954C3.62641 101.954 2.01441 101.923 1.20841 101.892C1.08441 100.683 1.08441 98.761 1.20841 97.428C8.05941 97.304 25.1404 97.366 27.9924 97.428ZM55.022 80.843C55.084 84.718 55.084 105.085 55.022 108.867C54.123 108.991 51.302 108.898 50.124 108.867C50.062 105.116 50.093 84.005 50.124 80.843C51.023 80.657 54.03 80.657 55.022 80.843ZM43.676 80.998C44.575 80.812 47.582 80.843 48.605 80.998C48.698 84.935 48.636 104.868 48.605 108.588C47.675 108.681 44.854 108.681 43.676 108.588C43.614 106.852 43.583 101.489 43.583 95.94C42.653 95.94 41.785 95.909 41.258 95.878C41.165 94.917 41.165 91.879 41.258 91.135C41.754 91.104 42.622 91.104 43.614 91.104C43.614 86.392 43.645 82.269 43.676 80.998ZM29.044 81.68C31.648 81.556 37.259 81.525 40.049 81.68C40.266 85.245 40.328 103.132 40.142 106.79C39.274 106.945 36.143 106.914 34.903 106.79V97.459C32.64 97.49 30.284 97.459 29.168 97.428C29.044 96.033 29.044 93.925 29.168 92.654C30.036 92.623 32.33 92.561 34.903 92.561V86.392C33.26 86.454 30.78 86.454 29.044 86.392C28.92 85.028 28.92 82.951 29.044 81.68ZM82.2686 80.843C82.3926 85.152 82.4236 105.178 82.2686 108.867C81.2146 108.991 78.3006 108.96 77.1226 108.867C77.0606 107.224 77.0296 101.923 77.0296 96.312C76.1926 96.312 75.3556 96.312 74.5806 96.281C74.4566 94.979 74.4566 92.592 74.5806 91.259C75.4176 91.228 76.2236 91.228 77.0606 91.228C77.0606 86.454 77.0916 82.269 77.1226 80.843C78.0216 80.657 81.0906 80.688 82.2686 80.843ZM65.1566 80.967C71.2946 80.967 73.7436 83.943 73.7436 94.266C73.7436 104.589 71.2946 107.565 65.1566 107.565C59.0186 107.565 56.5386 104.589 56.5386 94.266C56.5386 83.943 59.0186 80.967 65.1566 80.967ZM65.1566 102.76C67.8226 102.76 68.4736 101.21 68.4736 94.266C68.4736 87.322 67.8226 85.772 65.1566 85.772C62.4596 85.772 61.8086 87.322 61.8086 94.266C61.8086 101.21 62.4596 102.76 65.1566 102.76ZM102.385 93.584C102.509 94.421 102.509 95.196 102.385 96.064C100.866 96.095 98.2001 96.126 95.3481 96.126C95.3481 99.474 95.3481 102.605 95.3171 103.659C94.4491 103.783 93.4571 103.783 92.5891 103.659C92.5581 102.605 92.5581 99.474 92.5581 96.126C89.7061 96.126 87.0091 96.095 85.4901 96.064C85.3971 95.227 85.3971 94.421 85.4901 93.584C87.0091 93.553 89.7061 93.522 92.5581 93.522C92.5581 90.267 92.5581 87.26 92.5891 86.237C93.4261 86.113 94.4181 86.113 95.3171 86.237C95.3481 87.291 95.3481 90.267 95.3481 93.522C98.2001 93.522 100.866 93.553 102.385 93.584ZM108.281 96.033C107.63 95.351 105.956 92.84 105.615 91.724C108.002 90.236 111.908 87.88 115.349 85.803C115.318 84.222 115.349 82.238 115.411 81.153C116.31 81.06 119.689 81.029 120.867 81.153C120.929 82.238 120.96 84.222 120.929 85.803C124.432 87.756 128.4 89.988 130.787 91.383C130.446 92.53 128.834 95.103 128.276 95.816C126.633 94.948 122.107 92.499 118.201 90.143C114.357 92.592 109.924 95.134 108.281 96.033ZM131.531 97.428C131.655 98.699 131.655 100.435 131.531 101.892C130.911 101.923 129.268 101.954 127.067 101.985C127.067 104.31 127.098 107.689 127.036 108.96C125.92 109.022 123.13 109.022 121.766 108.96C121.704 107.906 121.673 104.465 121.735 102.016C119.379 102.016 116.899 102.016 114.574 101.985C114.574 104.341 114.605 107.689 114.543 108.96C113.427 109.022 110.637 109.022 109.273 108.96C109.211 107.906 109.18 104.403 109.242 101.954C107.165 101.954 105.553 101.923 104.747 101.892C104.623 100.683 104.623 98.761 104.747 97.428C111.598 97.304 128.679 97.366 131.531 97.428ZM158.561 80.843C158.623 84.718 158.623 105.085 158.561 108.867C157.662 108.991 154.841 108.898 153.663 108.867C153.601 105.116 153.632 84.005 153.663 80.843C154.562 80.657 157.569 80.657 158.561 80.843ZM147.215 80.998C148.114 80.812 151.121 80.843 152.144 80.998C152.237 84.935 152.175 104.868 152.144 108.588C151.214 108.681 148.393 108.681 147.215 108.588C147.153 106.852 147.122 101.489 147.122 95.94C146.192 95.94 145.324 95.909 144.797 95.878C144.704 94.917 144.704 91.879 144.797 91.135C145.293 91.104 146.161 91.104 147.153 91.104C147.153 86.392 147.184 82.269 147.215 80.998ZM132.583 81.68C135.187 81.556 140.798 81.525 143.588 81.68C143.805 85.245 143.867 103.132 143.681 106.79C142.813 106.945 139.682 106.914 138.442 106.79V97.459C136.179 97.49 133.823 97.459 132.707 97.428C132.583 96.033 132.583 93.925 132.707 92.654C133.575 92.623 135.869 92.561 138.442 92.561V86.392C136.799 86.454 134.319 86.454 132.583 86.392C132.459 85.028 132.459 82.951 132.583 81.68ZM180.661 108.867C180.537 105.302 180.568 84.408 180.661 80.843C181.56 80.657 184.629 80.688 185.807 80.843C185.931 85.152 185.962 105.178 185.807 108.867C184.753 108.991 181.839 108.96 180.661 108.867ZM168.974 107.565C162.65 107.565 160.108 104.589 160.108 94.266C160.108 83.943 162.65 80.967 168.974 80.967C175.298 80.967 177.809 83.943 177.809 94.266C177.809 104.589 175.298 107.565 168.974 107.565ZM168.974 102.76C171.888 102.76 172.57 101.21 172.57 94.266C172.57 87.322 171.888 85.772 168.974 85.772C166.06 85.772 165.347 87.322 165.347 94.266C165.347 101.21 166.06 102.76 168.974 102.76ZM191.726 99.66C190.982 99.133 188.905 96.932 188.347 95.878C190.703 93.77 194.888 90.143 198.112 87.291C198.081 84.842 198.112 83.106 198.174 81.68C199.073 81.587 202.452 81.556 203.63 81.68C203.692 83.323 203.723 85.09 203.692 87.353C207.009 90.112 211.225 93.584 213.612 95.599C213.054 96.653 211.039 98.916 210.357 99.505C208.869 98.296 204.498 94.824 200.964 91.693C197.492 94.886 193.245 98.482 191.726 99.66ZM214.294 103.69C214.418 104.961 214.418 106.728 214.294 108.154C211.752 108.371 191.106 108.309 187.51 108.154C187.386 106.945 187.386 105.054 187.51 103.69C194.361 103.566 211.442 103.628 214.294 103.69ZM246.902 80.843C246.964 84.718 246.964 105.085 246.902 108.867C246.003 108.991 243.182 108.898 242.004 108.867C241.973 107.1 241.973 101.489 241.973 95.723H240.578C240.578 101.365 240.547 106.821 240.547 108.588C239.648 108.681 236.827 108.681 235.649 108.588C235.525 104.806 235.556 84.16 235.649 80.998C236.548 80.812 239.555 80.843 240.547 80.998C240.578 82.517 240.609 86.485 240.609 90.949H241.973C241.973 86.237 242.004 82.114 242.004 80.843C242.903 80.657 245.91 80.657 246.902 80.843ZM226.163 102.233C227.868 102.171 233.293 102.14 234.564 102.202C234.688 103.535 234.688 105.519 234.564 106.821C232.642 106.914 223.218 106.945 221.203 106.821C220.986 103.163 220.986 95.506 221.203 91.972C223.156 91.91 226.504 91.941 228.333 91.972C228.333 90.298 228.333 87.756 228.364 86.268C222.009 86.33 227.651 86.33 221.327 86.268C221.203 84.966 221.203 82.982 221.327 81.68C223.218 81.587 231.743 81.556 233.324 81.68C233.541 85.307 233.51 92.964 233.324 96.529C232.053 96.622 227.682 96.56 226.194 96.529C226.194 98.203 226.194 100.745 226.163 102.233ZM273.684 90.794C269.933 90.918 253.007 90.918 249.659 90.794C249.566 89.368 249.566 88.159 249.659 86.826C250.341 86.795 251.674 86.795 253.348 86.764V85.09C251.829 85.059 250.651 85.059 249.969 85.028C249.876 83.664 249.876 82.331 249.969 81.06C255.084 80.967 270.894 80.905 273.374 81.06C273.436 82.331 273.436 83.509 273.374 85.028C272.63 85.059 271.452 85.059 269.964 85.09V86.764C271.607 86.764 272.94 86.795 273.684 86.826C273.777 88.159 273.777 89.182 273.684 90.794ZM258.401 85.121V86.733C260.509 86.733 262.772 86.733 264.911 86.733V85.121C262.772 85.121 260.509 85.121 258.401 85.121ZM275.048 91.662C275.172 92.871 275.172 94.328 275.048 95.661C272.94 95.878 251.395 95.785 248.264 95.661C248.14 94.514 248.14 92.933 248.264 91.662C254.65 91.538 272.661 91.6 275.048 91.662ZM255.146 104.589V105.209H273.994C274.149 106.325 274.056 107.875 273.994 108.991C271.979 109.146 253.937 109.177 249.938 108.991C249.814 107.255 249.752 104 249.938 100.993H268.073V100.373H250C249.876 99.226 249.876 97.335 250 96.56C259.641 96.467 269.592 96.467 273.281 96.56C273.467 97.738 273.467 103.225 273.281 104.589H255.146ZM294.822 97.366C285.243 97.366 282.422 94.855 282.422 89.43C282.422 84.005 285.243 81.494 294.822 81.494C304.401 81.494 307.222 84.005 307.222 89.43C307.222 94.855 304.401 97.366 294.822 97.366ZM294.822 86.082C289.49 86.082 287.754 86.733 287.754 89.43C287.754 92.127 289.49 92.778 294.822 92.778C300.154 92.778 301.921 92.127 301.921 89.43C301.921 86.733 300.154 86.082 294.822 86.082ZM308.214 103.69C308.338 104.961 308.338 106.728 308.214 108.154C305.672 108.371 285.026 108.309 281.43 108.154C281.306 106.945 281.306 105.054 281.43 103.69C284.003 103.628 288.002 103.628 292.156 103.628C292.156 101.768 292.187 99.815 292.218 98.854C293.21 98.668 296.217 98.699 297.488 98.854C297.519 100.001 297.519 101.892 297.519 103.628C302.51 103.628 306.881 103.659 308.214 103.69ZM334.438 92.592C330.687 92.716 313.761 92.716 310.413 92.592C310.32 91.197 310.32 89.802 310.413 88.438C311.126 88.407 312.428 88.407 314.133 88.376C314.102 87.477 314.102 86.33 314.102 85.245C312.583 85.245 311.405 85.214 310.723 85.183C310.63 83.85 310.63 82.331 310.723 81.06C315.838 80.967 331.648 80.905 334.128 81.06C334.19 82.331 334.19 83.664 334.128 85.183C333.384 85.214 332.206 85.245 330.718 85.245C330.718 86.299 330.718 87.477 330.687 88.376C332.361 88.407 333.694 88.407 334.438 88.438C334.531 89.802 334.531 91.011 334.438 92.592ZM319.155 85.307C319.155 86.33 319.155 87.477 319.124 88.376C321.263 88.345 323.557 88.345 325.696 88.345C325.665 87.477 325.665 86.33 325.665 85.307H319.155ZM335.802 94.018C335.926 95.227 335.926 96.963 335.802 98.296C333.694 98.513 312.149 98.451 309.018 98.296C308.894 97.149 308.894 95.289 309.018 94.018C315.404 93.894 333.415 93.956 335.802 94.018ZM315.962 104.496C323.309 104.465 332.547 104.434 334.748 104.496C334.872 105.736 334.872 107.72 334.748 108.991C332.392 109.146 313.513 109.146 310.692 108.991C310.537 106.666 310.599 101.489 310.692 99.66C311.746 99.567 314.722 99.598 315.962 99.691C316.024 101.21 316.024 103.163 315.962 104.496Z" fill="url(#paint0_linear_10341_53436)"/>
</g>
<g filter="url(#filter1_d_10341_53436)">
<path d="M51.8443 31.776C51.8123 31.36 51.8123 30.992 51.8443 30.576C53.6523 28.784 55.5083 26.72 56.4843 25.552C57.5723 24.256 57.9723 23.472 57.9723 22.16C57.9723 20.864 57.0923 19.904 55.6363 19.904C54.2123 19.904 53.5403 20.56 52.9963 21.6C52.5483 21.472 52.1163 21.232 51.7643 20.928C52.5643 19.392 53.7803 18.608 55.6363 18.608C58.0683 18.608 59.3803 20.16 59.3803 22.096C59.3803 23.712 58.8203 24.912 57.5403 26.416C56.6603 27.488 55.0763 29.232 53.7803 30.528C55.1723 30.496 58.4523 30.496 59.6043 30.528C59.6523 30.928 59.6523 31.408 59.6043 31.776C58.4363 31.84 54.0843 31.84 51.8443 31.776ZM65.1683 32.016C62.3523 32.016 60.8643 30.288 60.8643 25.312C60.8643 20.32 62.3523 18.608 65.1683 18.608C67.8883 18.608 69.4563 20.224 69.4563 25.312C69.4563 30.352 67.9363 32.016 65.1683 32.016ZM65.1683 30.72C67.1363 30.72 68.0483 29.44 68.0483 25.312C68.0483 21.136 67.0563 19.904 65.1683 19.904C63.2323 19.904 62.2883 21.216 62.2883 25.312C62.2883 29.424 63.2003 30.72 65.1683 30.72ZM70.4937 31.776C70.4617 31.36 70.4617 30.992 70.4937 30.576C72.3017 28.784 74.1577 26.72 75.1337 25.552C76.2217 24.256 76.6217 23.472 76.6217 22.16C76.6217 20.864 75.7417 19.904 74.2857 19.904C72.8617 19.904 72.1897 20.56 71.6457 21.6C71.1977 21.472 70.7657 21.232 70.4137 20.928C71.2137 19.392 72.4297 18.608 74.2857 18.608C76.7177 18.608 78.0297 20.16 78.0297 22.096C78.0297 23.712 77.4697 24.912 76.1897 26.416C75.3097 27.488 73.7257 29.232 72.4297 30.528C73.8217 30.496 77.1017 30.496 78.2537 30.528C78.3017 30.928 78.3017 31.408 78.2537 31.776C77.0857 31.84 72.7337 31.84 70.4937 31.776ZM83.1297 32.016C80.6817 32.016 79.6417 30.992 79.0657 29.424C79.4817 29.2 79.8977 29.072 80.3777 28.976C80.7937 30.08 81.5937 30.72 83.1297 30.72C84.8257 30.72 85.7537 29.696 85.7537 28.144C85.7537 26.448 84.7457 25.504 83.3857 25.504H82.1697C82.1217 25.184 82.1217 24.624 82.1697 24.288H83.3857C84.4577 24.288 85.3697 23.488 85.3697 22.08C85.3697 20.768 84.5377 19.872 83.0977 19.872C81.9777 19.872 81.1457 20.4 80.8417 21.28C80.3937 21.216 79.8817 21.024 79.5297 20.8C80.0097 19.552 81.0977 18.608 83.0977 18.608C85.4657 18.608 86.7617 20.048 86.7617 22.016C86.7617 23.392 86.1537 24.448 85.0337 24.896C86.3617 25.296 87.1457 26.416 87.1457 28.224C87.1457 30.64 85.4817 32.016 83.1297 32.016ZM94.0888 25.04C95.5128 26.48 98.5048 29.664 99.9928 31.264C99.7528 31.6 99.3688 31.952 98.9848 32.144C97.3368 30.432 94.8408 27.744 93.0328 25.728V31.776C92.5528 31.856 92.0888 31.856 91.6728 31.776C91.6088 29.936 91.6248 20.864 91.6728 18.8C92.0408 18.72 92.6168 18.72 93.0328 18.8V24.352C94.8248 22.368 97.2728 19.696 98.4088 18.544C98.7608 18.72 99.1768 19.088 99.4168 19.408C98.1048 20.864 95.4008 23.76 94.0888 25.04ZM107.147 25.12C108.715 25.472 109.707 26.512 109.707 28.24C109.707 30.48 108.267 31.68 105.883 31.776C104.795 31.824 102.491 31.824 101.115 31.776C101.067 29.216 101.083 21.584 101.115 18.8C102.363 18.752 104.619 18.736 105.691 18.8C107.291 18.896 109.035 19.792 109.035 22.112C109.035 23.664 108.347 24.688 107.147 25.12ZM105.243 20.048C104.507 20.016 103.099 20.032 102.475 20.064C102.491 21.072 102.491 22.8 102.491 24.592C103.339 24.608 104.219 24.608 105.451 24.576C106.795 24.56 107.643 23.664 107.643 22.272C107.643 20.864 106.779 20.128 105.243 20.048ZM105.659 30.496C107.435 30.432 108.315 29.68 108.315 28.112C108.315 26.784 107.387 25.888 105.659 25.84C104.427 25.808 103.371 25.824 102.491 25.84C102.491 27.744 102.491 29.536 102.475 30.496C103.147 30.528 104.907 30.528 105.659 30.496ZM115.807 32C112.415 32 110.559 29.968 110.559 25.312C110.559 20.672 112.399 18.624 115.807 18.624C119.215 18.624 121.055 20.672 121.055 25.312C121.055 30 119.167 32 115.807 32ZM115.807 30.752C118.319 30.752 119.679 29.216 119.679 25.312C119.679 21.536 118.415 19.872 115.807 19.872C113.263 19.872 111.935 21.456 111.935 25.312C111.935 29.2 113.279 30.752 115.807 30.752ZM133.843 20.688C132.611 20.72 125.603 20.72 124.515 20.688C124.467 20.352 124.467 19.856 124.515 19.536C124.979 19.52 126.723 19.504 128.595 19.504C128.579 18.944 128.595 18.224 128.627 17.824C128.931 17.76 129.635 17.76 130.019 17.824C130.035 18.208 130.051 18.928 130.035 19.504C131.715 19.504 133.267 19.52 133.843 19.536C133.891 19.84 133.891 20.368 133.843 20.688ZM138.675 22.96C138.707 23.296 138.707 23.808 138.675 24.176C138.387 24.208 137.667 24.208 137.027 24.192C137.027 26.256 137.027 28.24 137.011 29.2C136.707 29.248 136.019 29.248 135.651 29.2C135.635 27.2 135.635 20.064 135.651 18.192C135.971 18.128 136.675 18.112 137.011 18.192C137.027 19.104 137.027 20.976 137.027 22.944C137.651 22.928 138.355 22.944 138.675 22.96ZM133.571 24.464C133.571 26.688 132.275 27.44 129.315 27.44C126.355 27.44 125.059 26.688 125.059 24.464C125.059 22.24 126.355 21.488 129.315 21.488C132.275 21.488 133.571 22.24 133.571 24.464ZM126.355 24.464C126.355 25.744 127.139 26.32 129.315 26.32C131.491 26.32 132.275 25.744 132.275 24.464C132.275 23.184 131.491 22.608 129.315 22.608C127.139 22.608 126.355 23.184 126.355 24.464ZM127.219 31.136C129.827 31.12 135.699 31.104 137.267 31.136C137.315 31.488 137.315 31.984 137.267 32.32C135.667 32.4 128.323 32.4 125.875 32.32C125.811 31.28 125.843 29.216 125.875 28.368C126.179 28.32 126.883 28.32 127.219 28.368C127.235 29.136 127.235 30.32 127.219 31.136ZM149.825 19.6C147.841 19.616 141.473 19.648 140.081 19.6C140.033 19.248 140.033 18.768 140.081 18.416C141.505 18.352 149.377 18.352 151.185 18.416C151.265 19.76 151.249 21.728 151.185 22.72C150.913 22.768 150.097 22.768 149.825 22.72C149.809 21.712 149.809 20.288 149.825 19.6ZM152.481 23.84C152.545 24.176 152.545 24.672 152.481 25.024C151.281 25.04 148.913 25.056 146.417 25.056C146.433 25.728 146.433 26.496 146.417 27.168C148.609 27.168 150.705 27.184 151.505 27.216C151.601 28.544 151.553 31.344 151.505 32.368C151.185 32.4 150.465 32.4 150.145 32.368C150.113 31.312 150.145 29.344 150.145 28.384C148.177 28.384 141.329 28.432 139.873 28.384C139.825 28.032 139.825 27.568 139.873 27.216C140.561 27.184 142.705 27.168 145.009 27.168C144.993 26.512 144.993 25.728 145.009 25.056C142.609 25.056 140.273 25.04 138.945 25.024C138.881 24.688 138.881 24.176 138.945 23.84C142.401 23.792 149.889 23.808 152.481 23.84ZM166.144 18.192C166.208 20.256 166.192 30.464 166.144 32.368C165.84 32.432 165.168 32.416 164.8 32.368C164.736 30.464 164.752 20.144 164.8 18.192C165.104 18.112 165.808 18.112 166.144 18.192ZM158.448 18.56C158.48 19.664 158.496 22.464 158.464 24.272C159.776 26.224 161.744 29.12 162.672 30.56C162.464 30.816 161.904 31.2 161.584 31.296C160.752 30.144 158.976 27.472 157.744 25.552C156.672 27.584 155.152 30.32 154.4 31.52C154.096 31.472 153.472 31.168 153.232 30.912C154.064 29.408 155.824 26.272 157.04 24.16C157.008 22.32 157.024 19.584 157.056 18.56C157.36 18.496 158.096 18.48 158.448 18.56ZM179.039 32.368C178.975 30.464 178.991 20.144 179.039 18.192C179.343 18.112 180.047 18.112 180.383 18.192C180.447 20.256 180.431 30.464 180.383 32.368C180.079 32.432 179.407 32.416 179.039 32.368ZM168.079 31.2C167.999 29.36 168.015 26.24 168.079 24.368C169.807 24.336 173.375 24.352 174.239 24.368C174.239 23.312 174.239 20.912 174.255 19.952C173.103 19.968 169.391 19.984 168.143 19.952C168.079 19.6 168.079 19.088 168.143 18.736C169.407 18.672 173.839 18.672 175.599 18.736C175.679 20.56 175.663 23.712 175.599 25.568C174.063 25.632 170.719 25.6 169.439 25.6C169.439 26.624 169.439 29.008 169.423 29.984C170.831 29.952 175.375 29.968 176.719 30C176.767 30.336 176.767 30.848 176.719 31.2C175.487 31.248 170.063 31.264 168.079 31.2ZM183.022 27.648C182.766 27.456 182.382 26.928 182.27 26.608C183.678 25.696 185.998 24.224 187.71 23.12C187.694 22.144 187.694 20.944 187.71 20.064C185.678 20.064 183.758 20.048 182.798 20.032C182.75 19.664 182.75 19.2 182.798 18.864C184.958 18.832 191.39 18.816 194.078 18.864C194.126 19.216 194.126 19.696 194.078 20.032C193.07 20.048 191.15 20.064 189.15 20.064C189.15 20.944 189.15 22.128 189.134 23.088C190.878 24.144 193.262 25.584 194.654 26.464C194.542 26.816 194.19 27.328 193.918 27.536C192.67 26.784 190.254 25.328 188.462 24.192C186.686 25.376 184.286 26.88 183.022 27.648ZM195.198 30.704C195.262 31.04 195.262 31.504 195.198 31.888C193.566 31.952 183.71 31.936 181.662 31.888C181.598 31.504 181.598 31.056 181.662 30.704C184.19 30.64 193.534 30.672 195.198 30.704ZM212.428 25.264C212.492 25.824 212.492 26.576 212.428 27.2C211.052 27.296 200.556 27.264 198.668 27.2C198.604 26.656 198.604 25.856 198.668 25.264C199.964 25.232 202.092 25.232 204.3 25.232V24.576C202.236 24.56 200.348 24.544 199.708 24.528C199.612 23.296 199.628 19.232 199.708 18.032C201.26 17.952 209.628 17.984 211.228 18.032C211.292 18.64 211.292 19.248 211.228 19.856C210.108 19.888 203.356 19.888 202.156 19.856V20.416C204.444 20.4 209.516 20.416 210.748 20.416C210.812 21.024 210.796 21.552 210.748 22.16C209.564 22.192 204.444 22.176 202.156 22.16V22.72C203.42 22.72 210.204 22.736 211.388 22.752C211.436 23.376 211.436 24.048 211.388 24.56C210.828 24.592 208.924 24.592 206.796 24.592V25.232C209.404 25.232 211.724 25.248 212.428 25.264ZM205.548 27.808C210.332 27.808 211.836 28.48 211.836 30.288C211.836 32.096 210.572 32.784 205.548 32.784C200.524 32.784 199.26 32.096 199.26 30.288C199.26 28.48 200.764 27.808 205.548 27.808ZM205.548 30.864C208.972 30.864 209.404 30.688 209.404 30.288C209.404 29.888 208.972 29.728 205.548 29.728C202.124 29.728 201.692 29.888 201.692 30.288C201.692 30.688 202.124 30.864 205.548 30.864ZM222.17 20.8C220.778 20.832 213.77 20.832 212.826 20.8C212.762 20.192 212.762 19.376 212.826 18.784C213.146 18.768 214.618 18.752 216.346 18.752C216.346 18.432 216.362 18.112 216.378 17.84C216.81 17.744 218.25 17.744 218.89 17.84C218.906 18.112 218.906 18.432 218.906 18.752C220.282 18.752 221.53 18.768 222.17 18.784C222.202 19.344 222.218 20.256 222.17 20.8ZM227.034 21.088C227.082 21.696 227.082 22.64 227.034 23.248C226.778 23.28 226.298 23.296 225.658 23.296C225.658 24.592 225.642 25.76 225.626 26.384C225.13 26.448 223.802 26.432 223.242 26.384C223.194 25.008 223.194 19.296 223.242 18.08C223.674 18.016 225.066 18 225.626 18.08C225.642 18.736 225.642 19.84 225.658 21.056C226.218 21.056 226.698 21.072 227.034 21.088ZM217.626 26.352C214.362 26.352 213.162 25.648 213.162 23.776C213.162 21.84 214.506 21.2 217.626 21.2C220.89 21.2 222.09 21.904 222.09 23.776C222.09 25.712 220.746 26.352 217.626 26.352ZM217.626 23.088C215.866 23.088 215.402 23.36 215.402 23.776C215.402 24.208 215.93 24.48 217.626 24.48C219.386 24.48 219.85 24.208 219.85 23.776C219.85 23.36 219.322 23.088 217.626 23.088ZM223.274 27.84V27.088C224.106 27.056 225.034 27.056 225.626 27.088C225.674 28.816 225.69 30.672 225.626 32.528C224.554 32.624 214.986 32.64 213.738 32.528C213.658 30.784 213.658 28.24 213.738 27.088C214.17 27.024 215.722 27.056 216.09 27.088V27.84C218.09 27.824 221.242 27.824 223.274 27.84ZM216.09 29.824V30.528C217.578 30.56 222.106 30.56 223.274 30.528V29.824C221.13 29.84 218.074 29.84 216.09 29.824ZM234.025 25.92C229.129 25.92 227.673 24.704 227.673 22.112C227.673 19.52 229.129 18.304 234.025 18.304C238.921 18.304 240.377 19.52 240.377 22.112C240.377 24.704 238.921 25.92 234.025 25.92ZM234.025 20.448C230.905 20.448 230.153 20.848 230.153 22.112C230.153 23.376 230.905 23.776 234.025 23.776C237.145 23.776 237.897 23.376 237.897 22.112C237.897 20.848 237.145 20.448 234.025 20.448ZM240.905 27.136C240.969 27.728 240.969 28.544 240.905 29.216C240.297 29.264 237.913 29.28 235.273 29.28C235.273 30.416 235.273 31.92 235.257 32.56C234.729 32.592 233.449 32.592 232.809 32.56C232.777 32 232.777 30.464 232.777 29.28C230.265 29.264 227.945 29.248 227.145 29.216C227.081 28.64 227.081 27.76 227.145 27.136C230.473 27.072 239.401 27.104 240.905 27.136ZM242.648 23.712C242.328 23.312 241.864 22.256 241.784 21.744C243.064 21.264 245.144 20.48 246.968 19.808C246.952 19.2 246.968 18.576 247 18.08C247.432 18.032 248.968 18.016 249.528 18.08C249.56 18.592 249.576 19.216 249.56 19.824C251.384 20.464 253.48 21.2 254.792 21.68C254.696 22.24 254.312 23.2 253.96 23.664C252.936 23.36 250.376 22.448 248.296 21.632C246.2 22.48 243.624 23.424 242.648 23.712ZM255.144 24.272C255.208 24.832 255.208 25.648 255.144 26.272C253.768 26.368 243.272 26.336 241.384 26.272C241.32 25.728 241.32 24.864 241.384 24.272C244.712 24.208 253.64 24.24 255.144 24.272ZM248.264 27.04C253.288 27.04 254.584 27.952 254.584 29.872C254.584 31.808 253.288 32.72 248.264 32.72C243.24 32.72 241.944 31.808 241.944 29.872C241.944 27.952 243.24 27.04 248.264 27.04ZM248.264 30.624C251.656 30.624 252.04 30.32 252.04 29.872C252.04 29.44 251.656 29.136 248.264 29.136C244.872 29.136 244.488 29.44 244.488 29.872C244.488 30.32 244.872 30.624 248.264 30.624ZM269.382 32.48C269.318 30.624 269.334 19.936 269.382 18.08C269.814 17.984 271.222 18 271.782 18.08C271.846 20.272 271.846 30.576 271.782 32.48C271.286 32.544 269.942 32.528 269.382 32.48ZM264.246 31.408C264.246 30.224 264.262 21.888 264.246 20.72C263.254 20.752 259.926 20.752 258.71 20.72C258.646 20.096 258.646 19.12 258.71 18.528C259.99 18.464 265.222 18.448 266.63 18.528C266.742 20.384 266.774 29.552 266.678 31.408C266.262 31.488 264.822 31.472 264.246 31.408ZM279.525 21.408C279.973 21.392 282.165 21.392 283.605 21.392V20.8C282.181 20.8 280.005 20.8 279.525 20.768C279.477 20.16 279.477 19.44 279.525 18.832C279.973 18.816 282.181 18.816 283.621 18.816C283.621 18.512 283.637 18.256 283.637 18.08C284.069 18.016 285.461 18 286.021 18.08C286.053 19.808 286.069 24.528 286.021 26.112C285.525 26.176 284.197 26.16 283.637 26.112C283.621 25.6 283.605 24.56 283.605 23.376C282.181 23.376 280.005 23.376 279.525 23.344C279.477 22.736 279.477 22.016 279.525 21.408ZM281.813 25.872C280.533 25.92 274.629 25.936 273.173 25.872C273.093 24.352 273.093 19.6 273.173 18.352C273.669 18.288 274.981 18.304 275.557 18.352C275.589 19.472 275.573 23.008 275.557 23.888C276.693 23.856 280.613 23.856 281.813 23.888C281.877 24.496 281.877 25.264 281.813 25.872ZM286.021 26.832C286.085 28.096 286.085 31.328 286.021 32.528C284.949 32.624 275.381 32.64 274.133 32.528C274.053 30.784 274.085 28.448 274.133 26.832C275.125 26.768 285.589 26.784 286.021 26.832ZM283.669 30.528C283.701 30.064 283.701 29.424 283.669 28.848C282.773 28.8 277.541 28.816 276.485 28.848C276.453 29.344 276.437 29.888 276.485 30.528C277.221 30.576 282.997 30.56 283.669 30.528Z" fill="#FFDD9F"/>
</g>
<path d="M29.0039 25H46.0039" stroke="#FFDD9F" stroke-width="0.998291"/>
<path d="M292.004 25H309.004" stroke="#FFDD9F" stroke-width="0.998291"/>
<rect x="7" y="134" width="324" height="9" fill="#D3364F"/>
<path d="M11.9483 138.443C11.9223 138.105 11.9223 137.806 11.9483 137.468C13.4173 136.012 14.9253 134.335 15.7183 133.386C16.6023 132.333 16.9273 131.696 16.9273 130.63C16.9273 129.577 16.2123 128.797 15.0293 128.797C13.8723 128.797 13.3263 129.33 12.8843 130.175C12.5203 130.071 12.1693 129.876 11.8833 129.629C12.5333 128.381 13.5213 127.744 15.0293 127.744C17.0053 127.744 18.0713 129.005 18.0713 130.578C18.0713 131.891 17.6163 132.866 16.5763 134.088C15.8613 134.959 14.5743 136.376 13.5213 137.429C14.6523 137.403 17.3173 137.403 18.2533 137.429C18.2923 137.754 18.2923 138.144 18.2533 138.443C17.3043 138.495 13.7683 138.495 11.9483 138.443ZM22.501 138.768C22.124 138.703 21.773 138.547 21.487 138.313C22.059 137.299 23.346 135.011 23.866 134.01C23.359 134.387 22.839 134.517 22.202 134.517C20.46 134.517 19.212 133.191 19.212 131.241C19.212 129.07 20.356 127.744 22.514 127.744C24.698 127.744 25.803 129.148 25.803 131.241C25.803 132.502 25.335 133.542 24.763 134.686C24.347 135.531 23.021 137.897 22.501 138.768ZM22.501 133.568C23.775 133.568 24.685 132.749 24.685 131.267C24.685 129.72 23.983 128.784 22.514 128.784C21.045 128.784 20.343 129.642 20.343 131.267C20.343 132.814 21.201 133.568 22.501 133.568ZM31.9603 130.799C32.5973 130.786 34.6903 130.786 35.8993 130.799V129.486C34.7163 129.512 32.5973 129.499 31.9603 129.473C31.9343 129.187 31.9343 128.81 31.9603 128.55C32.5973 128.537 34.7033 128.537 35.9123 128.55V127.406C36.1723 127.354 36.7443 127.341 37.0173 127.406C37.0433 128.979 37.0433 134.114 37.0173 135.7C36.7703 135.739 36.2113 135.739 35.9123 135.7C35.9123 134.972 35.8993 133.36 35.8993 131.735C34.7163 131.761 32.5973 131.748 31.9603 131.722C31.9343 131.436 31.9343 131.059 31.9603 130.799ZM33.7153 133.893C32.6623 133.932 28.1773 133.945 26.9163 133.893C26.8513 132.528 26.8513 128.693 26.9163 127.627C27.1373 127.575 27.7353 127.588 27.9953 127.627C28.0213 128.667 28.0083 132.216 27.9953 132.957C28.7103 132.931 32.7143 132.931 33.7153 132.957C33.7543 133.23 33.7543 133.607 33.7153 133.893ZM37.2383 137.923C37.2643 138.196 37.2643 138.612 37.2383 138.885C35.9123 138.95 29.8933 138.95 27.8913 138.885C27.8263 137.949 27.8523 135.882 27.8913 135.102C28.1383 135.063 28.6973 135.063 28.9703 135.102C28.9963 135.83 28.9963 137.143 28.9703 137.923C31.1153 137.91 35.9383 137.897 37.2383 137.923ZM49.4052 130.63C49.4312 130.903 49.4312 131.319 49.4052 131.618C49.1712 131.644 48.5862 131.644 48.0662 131.631C48.0662 133.282 48.0662 134.933 48.0532 135.713C47.8062 135.765 47.2472 135.752 46.9482 135.713C46.9352 134.179 46.9352 128.836 46.9482 127.406C47.2082 127.354 47.7802 127.341 48.0532 127.406C48.0662 128.043 48.0662 129.278 48.0662 130.617C48.5732 130.604 49.1452 130.617 49.4052 130.63ZM44.6472 133.503C43.6462 133.555 39.4992 133.568 38.3552 133.503C38.3032 132.112 38.3032 129.005 38.3552 127.705C39.3172 127.653 43.5292 127.653 44.6472 127.705C44.7122 129.096 44.7122 132.281 44.6472 133.503ZM39.4212 128.654C39.3952 129.369 39.3952 131.839 39.4212 132.554C40.3962 132.58 42.6062 132.593 43.5942 132.554C43.6202 131.865 43.6202 129.369 43.5942 128.654C42.6322 128.628 40.5782 128.641 39.4212 128.654ZM40.0972 137.923C42.2162 137.91 46.9872 137.897 48.2612 137.923C48.3002 138.209 48.3002 138.612 48.2612 138.885C46.9612 138.95 40.9942 138.95 39.0052 138.885C38.9532 137.897 38.9792 135.57 39.0052 134.764C39.2522 134.725 39.8242 134.725 40.0972 134.764C40.1102 135.531 40.1102 137.117 40.0972 137.923ZM58.9592 138.924C58.9072 137.377 58.9072 128.992 58.9592 127.406C59.2062 127.341 59.7912 127.341 60.0642 127.406C60.1032 129.07 60.0902 137.377 60.0642 138.924C59.8172 138.976 59.2582 138.963 58.9592 138.924ZM53.8502 134.452C51.2762 134.452 50.2362 133.191 50.2362 130.955C50.2362 128.706 51.2762 127.458 53.8502 127.458C56.4242 127.458 57.4642 128.706 57.4642 130.955C57.4642 133.191 56.4242 134.452 53.8502 134.452ZM53.8502 133.464C55.6962 133.464 56.3332 132.567 56.3332 130.955C56.3332 129.33 55.6962 128.433 53.8502 128.433C52.0042 128.433 51.3672 129.33 51.3672 130.955C51.3672 132.567 52.0042 133.464 53.8502 133.464ZM49.6382 137.91C49.5732 137.611 49.5732 137.221 49.6382 136.948C51.0812 136.896 56.7232 136.896 58.0492 136.948C58.1012 137.26 58.1012 137.611 58.0492 137.91C56.8662 137.949 51.3802 137.949 49.6382 137.91ZM74.9347 132.047C74.9737 132.32 74.9737 132.762 74.9347 133.061C74.5707 133.074 74.0897 133.087 73.5567 133.087C73.5567 135.609 73.5437 138.131 73.5307 138.924C73.2837 138.976 72.7247 138.963 72.4257 138.924C72.3867 137.377 72.3867 128.992 72.4257 127.406C72.6857 127.341 73.2577 127.341 73.5307 127.406C73.5437 128.108 73.5567 129.98 73.5567 132.034C74.0767 132.034 74.5447 132.034 74.9347 132.047ZM69.7997 128.784C69.8127 129.577 69.8127 130.695 69.7997 131.566C70.3977 133.594 70.9567 135.674 71.4897 137.767C71.3077 137.871 70.8527 138.014 70.5667 138.04C70.1117 136.415 69.6827 134.764 69.2537 133.126C68.8507 134.725 68.4347 136.298 67.9797 137.884C67.6937 137.936 67.2127 137.936 66.9137 137.884C66.4717 136.311 66.0427 134.725 65.6397 133.126C65.2107 134.803 64.7687 136.506 64.3267 138.17C64.0407 138.157 63.6247 138.04 63.3907 137.923C63.9237 135.791 64.4957 133.646 65.0807 131.579V128.784C64.4697 128.784 63.8977 128.771 63.6377 128.758C63.6117 128.498 63.6117 128.121 63.6377 127.861C64.2617 127.822 66.5627 127.822 67.1607 127.861C67.1867 128.095 67.1867 128.498 67.1607 128.758C66.9657 128.771 66.5887 128.784 66.1597 128.784C66.1727 129.525 66.1727 130.552 66.1597 131.397C66.6277 133.23 67.0957 135.011 67.4467 136.558C67.8107 135.011 68.2527 133.256 68.7207 131.449V128.784C68.2527 128.784 67.8497 128.771 67.6287 128.758C67.6027 128.498 67.6027 128.121 67.6287 127.861C68.2527 127.822 70.6187 127.822 71.2297 127.861C71.2557 128.095 71.2557 128.498 71.2297 128.758C70.9697 128.771 70.4107 128.784 69.7997 128.784ZM85.6327 134.92C85.3857 134.959 84.8267 134.959 84.5277 134.92C84.5147 133.49 84.5147 128.732 84.5277 127.406C84.7877 127.354 85.3597 127.341 85.6327 127.406C85.6587 128.862 85.6587 133.438 85.6327 134.92ZM82.6817 133.373C81.6937 133.412 77.8327 133.438 75.5317 133.373C75.4797 132.684 75.4797 130.721 75.5317 130.11C76.7277 130.097 79.9517 130.097 80.7057 130.11V128.628C79.6657 128.641 76.7407 128.641 75.5837 128.628C75.5447 128.355 75.5447 127.991 75.5837 127.705C76.6497 127.679 80.2377 127.692 81.7457 127.705C81.7977 128.381 81.7847 130.305 81.7457 130.981C80.5107 131.007 77.4947 131.007 76.5977 130.981V132.45H82.6817C82.7207 132.71 82.7207 133.1 82.6817 133.373ZM86.0877 138.001C86.0357 138.274 85.8407 138.742 85.6977 138.937C84.6317 138.573 82.5387 137.754 81.0307 137.143C79.5487 137.78 77.4427 138.638 76.3897 139.015C76.2597 138.82 76.0387 138.378 75.9867 138.105C77.1047 137.637 79.0157 136.87 80.4457 136.298C80.4327 135.713 80.4327 135.011 80.4587 134.335C80.7187 134.283 81.2907 134.283 81.5767 134.335C81.6027 134.998 81.6157 135.7 81.6027 136.285C83.0457 136.831 84.9697 137.546 86.0877 138.001ZM94.0947 129.434C93.0937 129.46 87.3997 129.46 86.5157 129.434C86.4767 129.161 86.4767 128.758 86.5157 128.498C86.8927 128.485 88.3097 128.472 89.8307 128.472C89.8177 128.017 89.8307 127.432 89.8567 127.107C90.1037 127.055 90.6757 127.055 90.9877 127.107C91.0007 127.419 91.0137 128.004 91.0007 128.472C92.3657 128.472 93.6267 128.485 94.0947 128.498C94.1337 128.745 94.1337 129.174 94.0947 129.434ZM98.0207 131.28C98.0467 131.553 98.0467 131.969 98.0207 132.268C97.7867 132.294 97.2017 132.294 96.6817 132.281C96.6817 133.958 96.6817 135.57 96.6687 136.35C96.4217 136.389 95.8627 136.389 95.5637 136.35C95.5507 134.725 95.5507 128.927 95.5637 127.406C95.8237 127.354 96.3957 127.341 96.6687 127.406C96.6817 128.147 96.6817 129.668 96.6817 131.267C97.1887 131.254 97.7607 131.267 98.0207 131.28ZM93.8737 132.502C93.8737 134.309 92.8207 134.92 90.4157 134.92C88.0107 134.92 86.9577 134.309 86.9577 132.502C86.9577 130.695 88.0107 130.084 90.4157 130.084C92.8207 130.084 93.8737 130.695 93.8737 132.502ZM88.0107 132.502C88.0107 133.542 88.6477 134.01 90.4157 134.01C92.1837 134.01 92.8207 133.542 92.8207 132.502C92.8207 131.462 92.1837 130.994 90.4157 130.994C88.6477 130.994 88.0107 131.462 88.0107 132.502ZM88.7127 137.923C90.8317 137.91 95.6027 137.897 96.8767 137.923C96.9157 138.209 96.9157 138.612 96.8767 138.885C95.5767 138.95 89.6097 138.95 87.6207 138.885C87.5687 138.04 87.5947 136.363 87.6207 135.674C87.8677 135.635 88.4397 135.635 88.7127 135.674C88.7257 136.298 88.7257 137.26 88.7127 137.923ZM106.079 133.516C102.27 133.516 101.087 132.541 101.087 130.591C101.087 128.641 102.27 127.666 106.079 127.666C109.888 127.666 111.071 128.641 111.071 130.591C111.071 132.541 109.888 133.516 106.079 133.516ZM106.079 128.667C103.063 128.667 102.231 129.265 102.231 130.591C102.231 131.917 103.063 132.515 106.079 132.515C109.095 132.515 109.927 131.917 109.927 130.591C109.927 129.265 109.095 128.667 106.079 128.667ZM111.578 134.79C111.63 135.076 111.63 135.44 111.578 135.752C110.954 135.778 108.861 135.791 106.638 135.791C106.651 136.844 106.664 138.495 106.638 139.08C106.352 139.106 105.845 139.119 105.52 139.08C105.494 138.521 105.494 136.857 105.507 135.791C103.375 135.791 101.334 135.778 100.58 135.752C100.528 135.453 100.528 135.089 100.58 134.79C102.634 134.751 110.226 134.764 111.578 134.79ZM113.02 131.696C112.838 131.501 112.63 131.059 112.578 130.786C113.722 130.318 115.62 129.564 117.063 129.018C117.05 128.459 117.063 127.783 117.076 127.315C117.336 127.263 117.921 127.263 118.22 127.315C118.233 127.783 118.246 128.446 118.233 129.005C119.676 129.538 121.6 130.253 122.77 130.708C122.718 130.994 122.523 131.41 122.341 131.631C121.262 131.254 119.195 130.461 117.687 129.863C116.166 130.5 114.086 131.306 113.02 131.696ZM123.147 132.736C123.199 132.996 123.199 133.386 123.147 133.672C121.067 133.711 114.567 133.724 112.149 133.672C112.097 133.412 112.097 133.009 112.149 132.736C114.957 132.697 121.041 132.697 123.147 132.736ZM117.648 134.673C121.561 134.673 122.588 135.427 122.588 136.87C122.588 138.326 121.561 139.093 117.648 139.093C113.735 139.093 112.708 138.326 112.708 136.87C112.708 135.427 113.735 134.673 117.648 134.673ZM117.648 138.118C120.924 138.118 121.457 137.624 121.457 136.87C121.457 136.129 120.924 135.648 117.648 135.648C114.372 135.648 113.839 136.129 113.839 136.87C113.839 137.624 114.372 138.118 117.648 138.118ZM129.217 131.072C125.265 131.072 124.355 130.435 124.355 129.174C124.355 127.926 125.265 127.302 129.217 127.302C133.169 127.302 134.079 127.926 134.079 129.174C134.079 130.435 133.169 131.072 129.217 131.072ZM129.217 130.136C132.389 130.136 132.935 129.772 132.935 129.174C132.935 128.589 132.389 128.238 129.217 128.238C126.045 128.238 125.499 128.589 125.499 129.174C125.499 129.772 126.045 130.136 129.217 130.136ZM123.718 132.957C123.666 132.684 123.666 132.333 123.718 132.06C126.526 132.021 132.61 132.021 134.716 132.06C134.768 132.32 134.768 132.671 134.716 132.957C132.636 132.996 126.136 132.996 123.718 132.957ZM124.511 138.924C124.472 138.222 124.446 137 124.511 136.051H132.805V134.972H124.537C124.485 134.712 124.485 134.257 124.537 134.075C127.28 134.036 132.09 134.036 133.884 134.075C133.936 134.621 133.936 136.376 133.884 136.948H125.59V138.04H134.183C134.222 138.313 134.209 138.664 134.183 138.924C133.364 138.989 126.123 139.002 124.511 138.924ZM147.065 138.924C147.013 137.377 147.026 128.992 147.065 127.406C147.312 127.341 147.884 127.341 148.157 127.406C148.209 129.083 148.196 137.377 148.157 138.924C147.91 138.976 147.364 138.963 147.065 138.924ZM142.892 138.053C142.892 136.831 142.905 129.798 142.892 128.849C142.047 128.875 138.836 128.875 137.796 128.849C137.744 128.563 137.744 128.121 137.796 127.848C138.862 127.796 142.593 127.783 143.971 127.848C144.062 129.382 144.088 136.636 144.01 138.053C143.776 138.118 143.165 138.105 142.892 138.053ZM154.526 130.279C155.176 130.266 157.373 130.266 158.608 130.279V129.213C157.399 129.239 155.189 129.226 154.526 129.2C154.487 128.914 154.487 128.55 154.526 128.277C155.176 128.264 157.373 128.264 158.621 128.277V127.406C158.881 127.354 159.453 127.341 159.726 127.406C159.752 128.706 159.752 132.45 159.726 133.763C159.479 133.802 158.92 133.802 158.621 133.763C158.621 133.243 158.608 132.268 158.608 131.215C157.399 131.228 155.189 131.228 154.526 131.202C154.487 130.903 154.487 130.552 154.526 130.279ZM156.645 133.23C155.592 133.269 150.886 133.282 149.625 133.23C149.56 131.969 149.56 128.615 149.625 127.627C149.846 127.575 150.444 127.588 150.704 127.627C150.73 128.576 150.717 131.631 150.704 132.307C151.419 132.281 155.592 132.281 156.645 132.307C156.671 132.593 156.671 132.957 156.645 133.23ZM159.726 134.426C159.778 135.726 159.778 137.611 159.726 138.885C158.244 138.963 151.939 138.963 150.405 138.885C150.34 137.468 150.366 135.83 150.405 134.426C151.861 134.387 158.413 134.387 159.726 134.426ZM158.634 137.936C158.66 137.273 158.66 136.09 158.634 135.375C157.659 135.336 152.511 135.349 151.497 135.375C151.471 136.064 151.458 137.221 151.497 137.936C152.42 137.975 157.724 137.975 158.634 137.936ZM165.185 128.693C166.563 128.693 167.837 128.706 168.305 128.719C168.344 128.966 168.344 129.421 168.305 129.681C167.317 129.707 161.532 129.707 160.674 129.681C160.635 129.408 160.635 128.979 160.674 128.719C161.051 128.706 162.481 128.693 164.028 128.693C164.015 128.16 164.015 127.419 164.041 127.042C164.301 126.99 164.886 126.99 165.172 127.042C165.198 127.419 165.198 128.147 165.185 128.693ZM172.166 132.307C172.205 132.58 172.205 133.022 172.166 133.321C171.802 133.334 171.321 133.347 170.788 133.347C170.788 135.778 170.775 138.17 170.762 138.924C170.515 138.976 169.956 138.963 169.657 138.924C169.618 137.377 169.618 128.992 169.657 127.406C169.917 127.341 170.489 127.341 170.762 127.406C170.775 128.134 170.788 130.149 170.788 132.294C171.308 132.294 171.776 132.294 172.166 132.307ZM164.626 130.721C167.122 130.721 168.084 131.852 168.084 134.608C168.084 137.364 167.122 138.495 164.626 138.495C162.13 138.495 161.168 137.364 161.168 134.608C161.168 131.852 162.13 130.721 164.626 130.721ZM164.626 137.546C166.355 137.546 166.992 136.779 166.992 134.608C166.992 132.437 166.355 131.67 164.626 131.67C162.897 131.67 162.26 132.437 162.26 134.608C162.26 136.779 162.897 137.546 164.626 137.546ZM173.257 131.358C173.205 130.279 173.218 128.368 173.257 127.51C173.517 127.471 174.102 127.471 174.362 127.51C174.401 128.329 174.388 129.72 174.375 130.409C175.324 130.37 181.421 130.383 182.487 130.422C182.526 130.695 182.526 131.072 182.487 131.358C181.408 131.41 174.57 131.41 173.257 131.358ZM172.334 133.841C172.282 133.568 172.282 133.152 172.334 132.879C175.142 132.84 181.226 132.853 183.332 132.879C183.384 133.152 183.384 133.555 183.332 133.841C181.252 133.88 174.752 133.88 172.334 133.841ZM173.127 138.924C173.062 137.923 173.088 135.856 173.127 135.024C173.374 134.985 173.972 134.985 174.232 135.024C174.258 135.817 174.258 137.325 174.232 137.975C176.247 137.962 181.616 137.949 182.799 137.975C182.851 138.235 182.851 138.651 182.799 138.924C181.59 138.989 174.297 138.989 173.127 138.924ZM186.736 138.443C186.723 136.233 186.723 129.98 186.736 127.9C187.074 127.835 187.555 127.835 187.854 127.9C187.893 129.85 187.88 135.908 187.854 137.429C188.634 137.403 191.468 137.403 192.521 137.429C192.56 137.741 192.56 138.131 192.521 138.443C191.455 138.482 187.88 138.482 186.736 138.443ZM197.166 138.638C194.527 138.638 192.889 136.987 192.889 133.191C192.889 129.395 194.54 127.744 197.179 127.744C198.453 127.744 199.428 128.03 200.312 128.927C200.143 129.226 199.883 129.499 199.61 129.681C198.986 129.083 198.193 128.797 197.179 128.797C195.307 128.797 194.033 130.019 194.033 133.191C194.033 136.363 195.268 137.572 197.166 137.572C198.323 137.572 199.207 137.26 199.623 136.883C199.623 136.142 199.61 134.556 199.623 133.893C199.116 133.919 198.18 133.919 197.387 133.893C197.335 133.62 197.335 133.191 197.387 132.905C198.414 132.866 199.584 132.866 200.715 132.905C200.728 134.127 200.741 136.129 200.715 137.299C199.961 138.157 198.778 138.638 197.166 138.638ZM211.933 134.816C210.893 134.855 203.704 134.855 202.378 134.816C202.3 133.191 202.313 129.421 202.378 127.822C203.691 127.757 210.49 127.783 211.673 127.822C211.725 128.108 211.725 128.524 211.673 128.797C210.62 128.823 204.562 128.823 203.496 128.797C203.496 129.226 203.483 130.006 203.483 130.838C205.485 130.825 209.58 130.825 211.283 130.838C211.322 131.098 211.322 131.54 211.283 131.813C209.593 131.826 205.485 131.826 203.483 131.813C203.483 132.658 203.496 133.425 203.496 133.841C204.575 133.841 210.919 133.828 211.933 133.841C211.972 134.127 211.972 134.582 211.933 134.816ZM212.583 137.572C212.635 137.845 212.635 138.222 212.583 138.534C211.257 138.586 203.249 138.573 201.585 138.534C201.533 138.222 201.533 137.858 201.585 137.572C203.639 137.52 211.231 137.546 212.583 137.572ZM223.684 135.986C223.437 136.025 222.878 136.012 222.579 135.986C222.566 134.27 222.566 129.005 222.579 127.406C222.839 127.341 223.411 127.341 223.684 127.406C223.71 129.096 223.71 134.244 223.684 135.986ZM217.288 132.099C214.818 132.099 213.791 131.332 213.791 129.772C213.791 128.225 214.818 127.445 217.288 127.445C219.771 127.445 220.798 128.225 220.798 129.772C220.798 131.332 219.771 132.099 217.288 132.099ZM217.288 128.407C215.39 128.407 214.87 128.914 214.87 129.772C214.87 130.63 215.39 131.137 217.288 131.137C219.186 131.137 219.719 130.63 219.719 129.772C219.719 128.914 219.186 128.407 217.288 128.407ZM216.885 135.622C216.872 135.167 216.859 134.504 216.859 133.893C215.338 133.893 213.869 133.88 213.154 133.867C213.102 133.568 213.102 133.204 213.154 132.918C214.571 132.879 220.2 132.879 221.513 132.918C221.552 133.243 221.552 133.581 221.513 133.867C220.941 133.88 219.524 133.893 218.003 133.893C218.003 134.504 218.003 135.18 217.99 135.622C217.678 135.674 217.197 135.674 216.885 135.622ZM223.892 137.923C223.931 138.196 223.931 138.625 223.892 138.885C222.579 138.95 215.585 138.95 214.35 138.885C214.285 137.975 214.311 136.441 214.35 135.791C214.597 135.752 215.143 135.752 215.429 135.791C215.442 136.337 215.442 137.429 215.429 137.923C217.08 137.91 222.605 137.897 223.892 137.923ZM225.867 134.959C225.659 134.816 225.269 134.413 225.165 134.153C226.309 133.165 228.259 131.514 229.637 130.344C229.624 129.33 229.624 128.212 229.65 127.64C229.923 127.588 230.495 127.601 230.794 127.64C230.82 128.238 230.807 129.33 230.807 130.305C232.185 131.449 234.174 133.061 235.344 134.049C235.24 134.309 234.863 134.725 234.655 134.868C233.628 134.049 231.665 132.45 230.248 131.241C228.857 132.489 226.894 134.14 225.867 134.959ZM235.721 137.572C235.773 137.845 235.773 138.222 235.721 138.534C234.395 138.586 226.387 138.573 224.723 138.534C224.671 138.222 224.671 137.858 224.723 137.572C226.777 137.52 234.369 137.546 235.721 137.572ZM248.707 132.385C247.563 132.437 240.881 132.424 239.555 132.385C239.477 131.306 239.49 128.524 239.555 127.458C240.868 127.393 247.407 127.419 248.577 127.458C248.629 127.744 248.629 128.069 248.577 128.355C247.537 128.381 241.583 128.381 240.634 128.355V129.486C242.61 129.473 246.549 129.486 248.187 129.486C248.239 129.759 248.226 130.097 248.187 130.37C246.562 130.383 242.61 130.383 240.634 130.37V131.501C241.635 131.501 247.602 131.488 248.707 131.501C248.746 131.787 248.746 132.151 248.707 132.385ZM249.63 133.529C249.682 133.789 249.682 134.166 249.63 134.452C247.55 134.491 241.05 134.504 238.632 134.452C238.58 134.192 238.58 133.802 238.632 133.529C241.44 133.49 247.524 133.49 249.63 133.529ZM239.386 135.596C240.582 135.544 247.355 135.531 248.837 135.596C248.915 136.532 248.876 138.209 248.837 138.924C248.577 138.95 247.992 138.95 247.732 138.924C247.706 138.222 247.732 137.182 247.732 136.545C246.133 136.545 240.569 136.571 239.386 136.545C239.347 136.259 239.347 135.882 239.386 135.596ZM257.532 130.942C257.935 130.929 258.897 130.929 259.612 130.942V129.421C258.897 129.434 257.948 129.434 257.532 129.408C257.506 129.109 257.506 128.693 257.532 128.42C257.935 128.407 258.897 128.407 259.612 128.42C259.625 127.991 259.625 127.64 259.625 127.406C259.885 127.354 260.457 127.341 260.73 127.406C260.756 128.654 260.756 131.956 260.73 133.204C260.483 133.243 259.924 133.243 259.625 133.204C259.625 132.905 259.625 132.463 259.612 131.943C258.91 131.956 257.948 131.956 257.532 131.93C257.506 131.631 257.506 131.215 257.532 130.942ZM256.869 132.606C255.842 132.658 251.786 132.671 250.629 132.606C250.603 131.696 250.603 128.524 250.629 127.588C250.928 127.536 251.461 127.549 251.721 127.588V129.161C252.813 129.148 254.711 129.148 255.803 129.161V127.588C256.089 127.549 256.583 127.549 256.869 127.588C256.908 128.589 256.908 131.852 256.869 132.606ZM251.721 130.084V131.67C252.618 131.696 254.997 131.696 255.803 131.67V130.084C254.711 130.097 252.8 130.097 251.721 130.084ZM252.488 137.988H260.938C260.977 138.235 260.964 138.651 260.938 138.885C259.677 138.937 253.021 138.95 251.409 138.885C251.357 138.274 251.331 136.883 251.409 135.869H259.638V134.673H251.435C251.383 134.426 251.383 133.997 251.435 133.776C253.931 133.737 259.001 133.724 260.717 133.763C260.769 134.322 260.769 136.142 260.717 136.74H252.488V137.988ZM274.782 127.393C274.808 129.031 274.808 137.377 274.782 138.937C274.548 138.976 274.015 138.976 273.716 138.937C273.69 138.144 273.69 135.583 273.69 133.048C273.17 133.061 272.546 133.061 271.948 133.048C271.935 135.531 271.935 138.04 271.922 138.807C271.688 138.846 271.155 138.846 270.856 138.807C270.817 137.26 270.817 128.992 270.856 127.458C271.116 127.393 271.662 127.406 271.922 127.458C271.935 128.147 271.948 130.006 271.948 132.047C272.533 132.034 273.144 132.034 273.69 132.047C273.69 129.954 273.703 128.056 273.716 127.393C273.976 127.328 274.522 127.328 274.782 127.393ZM265.461 136.987C266.215 136.961 268.984 136.974 269.699 137C269.751 137.273 269.751 137.689 269.699 137.975C268.906 138.014 265.656 138.027 264.421 137.975C264.343 136.48 264.356 133.945 264.421 132.424C265.565 132.398 267.58 132.411 268.126 132.424C268.126 131.566 268.126 129.616 268.139 128.836C266.891 128.849 265.825 128.862 264.473 128.836C264.421 128.55 264.421 128.134 264.473 127.848C265.305 127.809 268.061 127.796 269.192 127.848C269.27 129.33 269.257 131.891 269.192 133.399C268.243 133.451 266.111 133.425 265.474 133.425C265.474 134.257 265.474 136.194 265.461 136.987ZM286.104 131.15C284.011 131.189 278.317 131.189 276.263 131.15C276.224 130.851 276.224 130.552 276.263 130.266C276.77 130.253 277.498 130.253 278.343 130.24C278.33 129.707 278.33 129.031 278.343 128.498C277.55 128.485 276.874 128.485 276.393 128.472C276.354 128.186 276.354 127.861 276.393 127.588C278.603 127.549 284.089 127.549 285.974 127.588C286 127.861 286 128.16 285.974 128.472C285.493 128.485 284.804 128.485 284.011 128.498C284.024 129.031 284.024 129.707 284.011 130.24C284.856 130.253 285.597 130.253 286.104 130.266C286.143 130.552 286.143 130.838 286.104 131.15ZM279.422 128.498C279.435 129.031 279.435 129.707 279.422 130.24H282.932C282.919 129.707 282.919 129.031 282.932 128.498H279.422ZM286.676 132.203C286.728 132.463 286.728 132.814 286.676 133.1C284.596 133.139 278.096 133.152 275.678 133.1C275.626 132.84 275.626 132.476 275.678 132.203C278.486 132.151 284.57 132.164 286.676 132.203ZM277.55 137.013V138.04H286.143C286.182 138.313 286.169 138.664 286.143 138.924C285.324 138.989 278.083 139.002 276.471 138.924C276.432 138.222 276.406 137.052 276.471 136.116H284.765V135.102H276.497C276.445 134.842 276.445 134.387 276.497 134.205C279.24 134.166 284.05 134.166 285.844 134.205C285.896 134.751 285.896 136.454 285.844 137.013H277.55ZM299.024 138.924C298.972 137.377 298.985 128.992 299.024 127.406C299.271 127.341 299.843 127.341 300.116 127.406C300.168 129.083 300.155 137.377 300.116 138.924C299.869 138.976 299.323 138.963 299.024 138.924ZM293.265 138.287C290.847 138.287 289.755 137.039 289.755 132.918C289.755 128.797 290.847 127.549 293.265 127.549C295.683 127.549 296.762 128.797 296.762 132.918C296.762 137.039 295.683 138.287 293.265 138.287ZM293.265 137.26C294.968 137.26 295.631 136.35 295.631 132.918C295.631 129.486 294.968 128.576 293.265 128.576C291.601 128.576 290.886 129.486 290.886 132.918C290.886 136.35 291.601 137.26 293.265 137.26ZM311.828 135.895C311.594 135.934 311.061 135.934 310.762 135.895C310.736 134.725 310.736 128.472 310.762 127.393C311.022 127.341 311.568 127.341 311.828 127.393C311.854 128.563 311.854 134.738 311.828 135.895ZM306.381 133.672C305.51 133.724 302.442 133.737 301.454 133.672C301.428 132.645 301.428 128.81 301.454 127.77C301.753 127.718 302.247 127.731 302.507 127.77V129.72C303.313 129.707 304.535 129.707 305.341 129.72V127.77C305.64 127.731 306.095 127.731 306.381 127.77C306.394 128.225 306.407 129.187 306.407 130.201C306.992 130.188 307.603 130.188 308.175 130.201C308.175 128.927 308.188 127.848 308.201 127.458C308.461 127.406 309.007 127.406 309.254 127.458C309.293 128.615 309.28 134.686 309.254 135.804C309.033 135.843 308.5 135.843 308.201 135.804C308.175 135.193 308.175 133.113 308.175 131.176C307.603 131.189 306.992 131.189 306.407 131.176C306.407 132.268 306.394 133.282 306.381 133.672ZM302.507 130.656V132.749C303.222 132.775 304.717 132.775 305.341 132.749V130.656C304.522 130.669 303.3 130.669 302.507 130.656ZM312.049 137.923C312.075 138.209 312.075 138.612 312.049 138.885C310.697 138.95 304.496 138.95 302.442 138.885C302.39 137.91 302.416 135.687 302.442 134.894C302.689 134.855 303.261 134.855 303.534 134.894C303.547 135.635 303.547 137.13 303.534 137.923C305.705 137.91 310.723 137.897 312.049 137.923ZM323.072 134.816C322.032 134.855 314.843 134.855 313.517 134.816C313.439 133.191 313.452 129.421 313.517 127.822C314.83 127.757 321.629 127.783 322.812 127.822C322.864 128.108 322.864 128.524 322.812 128.797C321.759 128.823 315.701 128.823 314.635 128.797C314.635 129.226 314.622 130.006 314.622 130.838C316.624 130.825 320.719 130.825 322.422 130.838C322.461 131.098 322.461 131.54 322.422 131.813C320.732 131.826 316.624 131.826 314.622 131.813C314.622 132.658 314.635 133.425 314.635 133.841C315.714 133.841 322.058 133.828 323.072 133.841C323.111 134.127 323.111 134.582 323.072 134.816ZM323.722 137.572C323.774 137.845 323.774 138.222 323.722 138.534C322.396 138.586 314.388 138.573 312.724 138.534C312.672 138.222 312.672 137.858 312.724 137.572C314.778 137.52 322.37 137.546 323.722 137.572ZM325.203 135.557C325.151 134.452 325.112 128.992 325.099 127.783C325.606 127.731 325.918 127.731 326.399 127.783C326.399 128.992 326.334 134.465 326.282 135.557C325.97 135.596 325.554 135.596 325.203 135.557ZM325.112 138.482C325.086 138.001 325.086 137.611 325.112 137.143C325.606 137.117 325.931 137.117 326.399 137.143C326.425 137.624 326.425 138.001 326.399 138.469C325.918 138.508 325.58 138.508 325.112 138.482Z" fill="white"/>
<path d="M137.004 0L138.351 4.1459H142.71L139.184 6.7082L140.531 10.8541L137.004 8.2918L133.477 10.8541L134.824 6.7082L131.298 4.1459H135.657L137.004 0Z" fill="#FADC8D"/>
<path d="M153.004 0L154.351 4.1459H158.71L155.184 6.7082L156.531 10.8541L153.004 8.2918L149.477 10.8541L150.824 6.7082L147.298 4.1459H151.657L153.004 0Z" fill="#FADC8D"/>
<path d="M185.004 0L186.351 4.1459H190.71L187.184 6.7082L188.531 10.8541L185.004 8.2918L181.477 10.8541L182.824 6.7082L179.298 4.1459H183.657L185.004 0Z" fill="#FADC8D"/>
<path d="M201.004 0L202.351 4.1459H206.71L203.184 6.7082L204.531 10.8541L201.004 8.2918L197.477 10.8541L198.824 6.7082L195.298 4.1459H199.657L201.004 0Z" fill="#FADC8D"/>
<g clip-path="url(#clip0_10341_53436)">
<path d="M172.756 9.54776C174.641 7.55307 174.49 4.34537 172.42 2.38316C170.35 0.420959 167.144 0.4473 165.26 2.442C163.375 4.43669 163.526 7.64439 165.596 9.60659C167.666 11.5688 170.872 11.5425 172.756 9.54776Z" fill="white"/>
<path d="M168.81 0.93158C170.093 0.93158 171.393 1.41451 172.417 2.38703C174.489 4.34873 174.638 7.55606 172.753 9.55106C171.802 10.5602 170.512 11.0631 169.202 11.0631C167.892 11.0631 166.618 10.5802 165.594 9.60768C163.523 7.64932 163.373 4.43866 165.259 2.44698C166.21 1.43782 167.5 0.93491 168.81 0.93491M168.81 0.002354C167.184 0.002354 165.681 0.641821 164.58 1.80752C163.493 2.95323 162.934 4.47529 163.011 6.08395C163.087 7.67929 163.776 9.17138 164.953 10.2871C166.116 11.3895 167.626 11.999 169.202 11.999C170.778 11.999 172.331 11.3596 173.431 10.1939C175.666 7.82917 175.5 4.02234 173.059 1.7076C171.895 0.605185 170.386 -0.000976562 168.81 -0.000976562V0.002354Z" fill="white"/>
<path d="M172.76 9.55753C174.645 7.56283 174.494 4.35513 172.424 2.39293C170.354 0.430725 167.148 0.457066 165.264 2.45176C163.379 4.44646 163.53 7.65416 165.6 9.61636C167.67 11.5786 170.876 11.5522 172.76 9.55753Z" fill="white"/>
<path d="M168.904 11.2876C168.811 11.2876 168.721 11.231 168.684 11.1377C168.066 9.51241 168.402 7.74388 169.559 6.51823C170.716 5.29259 172.461 4.85962 174.117 5.38918C174.24 5.42914 174.307 5.55903 174.267 5.68226C174.227 5.80549 174.097 5.87211 173.974 5.83214C172.491 5.3592 170.932 5.74221 169.898 6.83797C168.864 7.93039 168.568 9.51574 169.12 10.9712C169.166 11.0911 169.106 11.2276 168.983 11.2709C168.957 11.2809 168.927 11.2876 168.9 11.2876H168.904Z" fill="#B41E23"/>
<path d="M165.31 6.82871C164.844 6.82871 164.369 6.75543 163.903 6.60556C163.78 6.56559 163.714 6.4357 163.754 6.31247C163.794 6.18924 163.923 6.12263 164.046 6.16259C165.529 6.63553 167.089 6.25252 168.123 5.15677C169.157 4.06434 169.453 2.479 168.901 1.02354C168.854 0.903644 168.914 0.767091 169.037 0.723794C169.157 0.677166 169.293 0.737116 169.336 0.860347C169.955 2.48566 169.619 4.25418 168.462 5.47983C167.631 6.3591 166.497 6.82871 165.31 6.82871Z" fill="#B41E23"/>
<path d="M169.202 11.3258C167.852 11.3258 166.486 10.8195 165.412 9.80036C163.24 7.74207 163.084 4.36156 165.066 2.26331C166.027 1.24749 167.34 0.67796 168.767 0.667969C168.78 0.667969 168.797 0.667969 168.81 0.667969C170.216 0.667969 171.56 1.21085 172.6 2.19669C173.651 3.19253 174.266 4.52475 174.333 5.9469C174.399 7.37238 173.907 8.71793 172.946 9.73375C171.945 10.7962 170.582 11.3258 169.202 11.3258ZM168.81 1.19753C168.81 1.19753 168.783 1.19753 168.77 1.19753C167.49 1.20752 166.309 1.71709 165.448 2.62634C163.666 4.51143 163.812 7.55889 165.774 9.41734C167.736 11.2758 170.782 11.2558 172.561 9.37072C173.422 8.45814 173.864 7.25248 173.804 5.97022C173.744 4.68462 173.186 3.48229 172.235 2.57971C171.294 1.68712 170.077 1.19753 168.807 1.19753H168.81Z" fill="#1D1E1C"/>
</g>
<defs>
<filter id="filter0_d_10341_53436" x="1.08594" y="44.6572" width="335.838" height="65.5178" filterUnits="userSpaceOnUse" color-interpolation-filters="sRGB">
<feFlood flood-opacity="0" result="BackgroundImageFix"/>
<feColorMatrix in="SourceAlpha" type="matrix" values="0 0 0 0 0 0 0 0 0 0 0 0 0 0 0 0 0 0 127 0" result="hardAlpha"/>
<feOffset dx="0.998291" dy="0.998291"/>
<feComposite in2="hardAlpha" operator="out"/>
<feColorMatrix type="matrix" values="0 0 0 0 0.504675 0 0 0 0 0.0747232 0 0 0 0 0.141605 0 0 0 0.5 0"/>
<feBlend mode="normal" in2="BackgroundImageFix" result="effect1_dropShadow_10341_53436"/>
<feBlend mode="normal" in="SourceGraphic" in2="effect1_dropShadow_10341_53436" result="shape"/>
</filter>
<filter id="filter1_d_10341_53436" x="51.7656" y="17.7441" width="235.319" height="16.0383" filterUnits="userSpaceOnUse" color-interpolation-filters="sRGB">
<feFlood flood-opacity="0" result="BackgroundImageFix"/>
<feColorMatrix in="SourceAlpha" type="matrix" values="0 0 0 0 0 0 0 0 0 0 0 0 0 0 0 0 0 0 127 0" result="hardAlpha"/>
<feOffset dx="0.998291" dy="0.998291"/>
<feComposite in2="hardAlpha" operator="out"/>
<feColorMatrix type="matrix" values="0 0 0 0 0.504675 0 0 0 0 0.0747232 0 0 0 0 0.141605 0 0 0 0.5 0"/>
<feBlend mode="normal" in2="BackgroundImageFix" result="effect1_dropShadow_10341_53436"/>
<feBlend mode="normal" in="SourceGraphic" in2="effect1_dropShadow_10341_53436" result="shape"/>
</filter>
<linearGradient id="paint0_linear_10341_53436" x1="0.00390442" y1="57.4572" x2="356.273" y2="76.3038" gradientUnits="userSpaceOnUse">
<stop stop-color="#FFEFB8"/>
<stop offset="0.244372" stop-color="#F6CF72"/>
<stop offset="0.421875" stop-color="#FFEFB8"/>
<stop offset="0.583333" stop-color="#FCE39D"/>
<stop offset="0.738694" stop-color="#F6CF72"/>
<stop offset="0.984375" stop-color="#FFE3B5"/>
<stop offset="1" stop-color="#FFE3B5"/>
</linearGradient>
<clipPath id="clip0_10341_53436">
<rect width="12" height="12" fill="white" transform="translate(163.004)"/>
</clipPath>
</defs>
</svg>
