<?xml version="1.0" encoding="UTF-8"?>
<svg id="_레이어_2" data-name="레이어 2" xmlns="http://www.w3.org/2000/svg" viewBox="0 0 126.45 78.17">
  <defs>
    <style>
      .cls-1 {
        fill: #4c2800;
      }

      .cls-2 {
        fill: #fff;
      }

      .cls-3 {
        fill: #ff9d3b;
      }

      .cls-4 {
        fill: #204229;
      }

      .cls-5 {
        fill: #7c5332;
      }

      .cls-6 {
        fill: #40803b;
      }

      .cls-7 {
        fill: #41823b;
      }

      .cls-8 {
        fill: #c96912;
      }
    </style>
  </defs>
  <g id="_레이어_1-2" data-name="레이어 1">
    <g>
      <g>
        <path class="cls-2" d="M18.34,21.82c-.74,1.23-2.96,26.23-3.08,26.6s-.25,7.39,0,8.5,12.44,10.84,12.44,10.84c0,0,11.08,4.19,17.73,4.19s24.75-.49,31.77-1.85,23.52-6.77,31.15-9.6c7.63-2.83,8.74-.62,8.37-7.14-.37-6.53-2.34-6.16-7.14-11.82-4.8-5.66,2.59-10.22-10.34-15.15-12.93-4.93-11.08-7.39-28.2-6.65s-23.64-.99-33.12,1.23-19.58.86-19.58.86Z"/>
        <g>
          <path class="cls-2" d="M23.59,67.36c-1.57,0-3.25-.29-4.99-.87-5.7-2.01-9.69-8.25-9.36-12.29.17-2.01,1.39-3.56,3.16-4.1.69-.32,1.39-.48,2.11-.48,3.47,0,5.09,3.46,6.27,5.98.28.61.71,1.52,1.05,2.07,1.58-.24,2.28-.8,3.49-1.76,1.08-.86,2.42-1.94,4.56-2.86,1.23-.53,2.32-.78,3.33-.78,2.04,0,3.71,1.07,4.45,2.86.77,1.86.39,4.21-.88,5.48-.22.22-.87.87-7.06,4.78-.8.65-2.8,1.95-6.15,1.95Z"/>
          <path class="cls-2" d="M13.49,53c-3.13.54.25,8.51,6.08,10.57,5.76,1.92,8.33-.64,8.33-.64,0,0,6.08-3.84,6.72-4.48s.96-4.48-3.52-2.56c-4.48,1.92-4.64,4.64-10.09,4.96-2.87-.37-3.8-9.94-7.53-7.85Z"/>
          <path class="cls-2" d="M21.15,56.9c-2.15,0-3.83-1.05-4.38-2.73-.15-.39-.99-2.02-1.98-3.89-1.82,1.18-3.93,2.48-4.98,2.9-.63.26-1.37.39-2.19.39h0c-2.18,0-4.95-.91-5.6-3.49-.57-2.26.74-4.27,3.91-5.98,2.75-1.48,6.16-4.19,8.61-6.35-4.86-1.44-7.15-3.04-7.78-5.34-.31-1.12-.31-2.82,1.44-4.58.82-.83,1.99-1.29,3.28-1.29.95,0,1.74.23,2.25.43,4.43,1.73,6.74,2.07,8.43,2.31,1.63.23,3.16.46,4.92,1.79,1.98,1.51,2.24,3.31,2.22,4.24-.05,2.33-1.77,3.93-2.53,4.53-.66.66-2.4,2.41-3.76,3.64,2.03,3.18,3.87,7.64,3.29,9.98-.51,2.06-2.58,3.44-5.15,3.44Z"/>
          <path class="cls-2" d="M8.66,50.32c1.58-.64,7.25-4.48,7.25-4.48,0,0,3.47,6.4,3.78,7.37s3.31.8,3.63-.48-1.73-6.56-4.26-9.45c0,0-.32-.32.95-1.28s4.73-4.48,4.73-4.48c0,0,3-2.08.47-4-2.45-1.87-3.86-.26-12.6-3.68-.69-.27-1.7-.37-2.22.16-.87.87-2.52,2.88,6.78,5.28,0,0,3.15.32,3.15.96s-7.57,7.69-12.93,10.57c-5.36,2.88-.32,4.16,1.26,3.52Z"/>
          <path class="cls-2" d="M30.89,54.2c-1.07,0-2.07-.45-2.82-1.26-.94-1.02-1.48-2.78-1.61-5.25-.52.07-1.05.11-1.57.11-1.83,0-3.24-.53-4.19-1.58-.78-.87-1.17-2.01-1.08-3.25.11-4.04,4.84-4.88,7.25-5.28v-6.74c0-4.23,1.9-5.18,3.26-5.31.48-.12.94-.18,1.4-.18,1.33,0,2.56.52,3.46,1.46,2.13,2.21,1.99,6.08,1.86,9.82-.02.68-.05,1.33-.05,1.92,0,.09,0,.17-.01.25-.19,2.18.02,5.19.18,7.39.08,1.1.14,1.98.14,2.59,0,2.45-1.63,5.32-6.23,5.32Z"/>
          <path class="cls-2" d="M30.57,28.71s-.63-.32-.63,2.24v7.69c0,.64,0,1.6-1.58,1.92s-5.68.64-5.68,2.56c-.29,2.96,6.07.99,6.94.64,0,0-.63,7.37,1.26,7.37s3.15-.64,3.15-2.24-.63-6.72-.32-10.25c.03-4.22.98-11.29-3.15-9.93Z"/>
          <path class="cls-2" d="M44.89,62.37c-1.4,0-2.66-.54-3.54-1.53-.7-.78-1.49-2.22-1.22-4.61.09-.8.16-1.53.22-2.18-1.14.16-1.99.17-2.02.17-3.11,0-4.54-1.33-5.19-2.45-.65-1.11-1.09-3,.44-5.7.56-.98,1.59-1.55,2.67-1.55.22,0,.44.02.67.07,1.1,0,3.58-.84,5.57-1.51,3.22-1.08,6.54-2.2,9.35-2.2.33,0,.66.02.97.05,0,0,0-.01,0-.02-.04-.18-.06-.35-.07-.53-.07-.2-.23-.56-.34-.81-.62-1.39-1.55-3.48-.39-5.47.49-.84,1.51-1.89,3.56-2.08.08,0,.15-.01.23-.01.02,0,.1,0,.13,0,5.14,0,6.45,5.96,7.08,8.83.07.33.14.64.21.91.01.05.02.09.03.14.12.63.35,1.66.57,2.69.51,2.37.68,3.16.73,3.59,1.14,4.96-2.68,6.34-3.46,6.56-.63.18-1.2.27-1.75.27-.79,0-1.78-.19-2.66-.9-.46.22-.96.46-1.36.65-2.36,1.15-3.65,1.73-4.68,1.93.11,1.68-.29,3.71-2.58,4.87-1.07.54-2.13.82-3.15.82Z"/>
          <path class="cls-2" d="M49.81,53.69c1.26,0,7.25-3.52,7.88-3.2s.32,1.92,2.52,1.28c2.21-.64,1.26-2.88,1.26-3.2s-.95-4.48-1.26-6.08c-.58-2.35-1.26-7.47-4.36-7.4-3.01.29.04,3.66-.05,5.16,2.11,9.3,2.28,5.44-7.57,10.25-.61.09-1.04.34-1.3.66-.06-2.81.21-2.08,4.77-3.54,1.89-.64,4.73-1.6,2.21-3.2-3.8-2.08-14.32,4.01-17.66,3.2-3.24,5.68,6.91,3.03,7.25,2.24.32,0,0,3.84-.32,6.72-.32,2.88,1.58,3.2,3.47,2.24,1.89-.96.32-3.79.32-4.8,0-.4,0-.77,0-1.11.47.57,1.42.96,2.84.79Z"/>
          <path class="cls-2" d="M54.77,67.98c-4.91,0-8.15-4.42-8.67-11.84,0-.07,0-.14,0-.21,0-2.54,1.93-4.38,4.59-4.38.43,0,.76.05.89.07,2.88.42,4.4,1.72,4.45,3.87.03.2.12.63.24,1.16.95-.62,1.69-1.48,2.46-2.39.84-.98,1.71-1.99,2.91-2.8,1.35-.92,2.85-1.42,4.21-1.42s2.61.53,3.42,1.49c.81.96,1.14,2.24.91,3.62-.55,3.34-5.6,8.34-8.91,10.39-2.32,1.64-4.45,2.44-6.51,2.44,0,0,0,0,0,0Z"/>
          <path class="cls-2" d="M59.58,62.97c3.15-1.92,7.25-6.4,7.57-8.33.32-1.92-1.89-1.92-3.78-.64-1.89,1.28-3,3.68-5.52,5.28-2.52,1.6-2.84,2.56-4.1,0,0,0-.79-3.04-.79-3.68s-.79-.8-1.89-.96c0,0-1.89-.32-1.89,1.28.4,5.84,3.07,12.27,10.41,7.04Z"/>
          <path class="cls-2" d="M66.71,49.13c-.36,0-.73-.04-1.12-.12-1.28-.26-2.31-.99-2.9-2.05-1.05-1.89-.3-3.9.25-5.37l.07-.19c.9-2.44,2.7-4.61,3.89-6.04.31-.37.58-.69.78-.96,1.37-1.85,2.51-2.82,5.27-3.29.34-.06.65-.09.96-.09,1.46,0,2.67.67,3.34,1.83,1.03,1.8.11,3.62-.19,4.14-.03.05-.06.09-.09.14-.16.24-.32.48-.47.71.7.35,1.52.81,2.46,1.43.17.12.33.25.48.4,1.39,1.41,1.48,3.72.98,5.27-.59,1.84-2.06,3.13-3.91,3.44-.24.04-.5.06-.75.06-1.36,0-3.13-.85-4.67-2.03-1.17,1.64-2.35,2.71-4.36,2.71,0,0,0,0,0,0Z"/>
          <path class="cls-2" d="M70.62,41.52c0,.32,3.47,4.16,5.36,3.84,1.89-.32,1.89-2.88,1.26-3.52-4.92-3.29-6.31-1.17-2.84-6.4,0,0,.95-1.6-.95-1.28s-2.36.8-3.31,2.08-3.31,3.68-4.26,6.24c-.56,1.53-1.26,3.2.32,3.52s1.89-.64,4.41-4.48Z"/>
          <path class="cls-2" d="M79.95,49.21c-.55,0-1.13-.06-1.74-.19-1.18-.23-2.59-1.12-2.8-3.97-.15-1.97.08-5.44.56-8.63.79-5.29,1.86-7.52,3.92-8.22.12-.04.25-.07.37-.1.64-.13,1.22-.19,1.77-.19,1.06,0,1.88.25,2.5.58.89-1.27,2.5-2.12,4.33-2.12.84,0,1.67.19,2.39.56,2.77,1.41,2.66,5.11,1.75,13.21l-.08.76c-.17,1.55-.69,6.26-6.21,6.26-.73,0-1.41-.19-2-.54-.81,1.45-2.24,2.6-4.75,2.6Z"/>
          <path class="cls-2" d="M89.85,29.67c-1.26-.64-3,.16-3,1.12-.01,5.48-.4,3.88-4.1,5.44,0,0,.95-4.48.63-4.8s-.95-.64-2.52-.32c-1.83.62-3.1,14.7-2.05,14.89,5.23,1.11,3.37-5.13,4.1-7.05.32,0,3.15-1.28,3.15-.64s-1.26,5.76.63,5.76,2.84-.64,3.15-3.52,1.26-10.25,0-10.89Z"/>
          <path class="cls-2" d="M95.4,56.3c-.18,0-.36,0-.52-.02-3.26-.03-5.48-.95-6.58-2.71-.84-1.35-.88-3.03-.1-4.6.53-1.08,1.34-1.87,2.34-2.33-.08-.2-.13-.39-.17-.58-.59-2.64,1.47-4.52,4.07-6.91.82-.76,1.72-1.57,2.58-2.45-.2.01-.4.02-.6.02h0c-1.47,0-2.69-.35-3.64-1.03-2.29-1.66-2.56-3.92-2.05-5.48.68-2.09,2.83-3.61,5.12-3.61,1.15,0,1.95-.05,2.31-.1.04-.01.08-.03.11-.04,3.74-1.34,6.56-2.3,8.8-2.3,2.7,0,3.92,1.43,4.41,2.29,1.02,1.78.8,4.02-.82,7.4,1.81.99,3.43,2.06,3.46,2.08.34.23.63.48.88.75.72-.36,1.54-.64,2.44-.64.61,0,1.21.18,1.72.53,1.88,1.27,2.65,3.36,2.01,5.44-2.04,6.67-21.49,14.29-25.77,14.29Z"/>
          <path class="cls-2" d="M95.84,29.67c-1.58,0-3.47,1.92-1.26,3.52,2.21,1.6,9.46-1.6,9.46-1.6-2.7,8.38-14.48,13.15-9.46,14.73,2.84.96,7.25-4.16,7.25-4.16,0,0,1.58-3.84,2.21-3.52.63.32,5.05,2.56,5.68,3.52s-3.47,3.2-3.78,2.88-.16-3.36-.79-3.68c-.63-.32-3.15-.32-3.15,1.92s.63,3.2-.63,4.16-5.36,2.24-6.31,2.24-3.15-1.28-4.1.64c-.95,1.92.95,2.88,4.1,2.88,3.85.58,28.15-10.19,22.39-14.09-1.26,0-3.15,1.92-3.47,1.6s-.63-1.6-1.58-2.24c-.95-.64-5.36-3.2-5.99-3.2,6.18-10.51.43-8.63-7.09-5.92-.22.23-1.89.32-3.47.32Z"/>
          <path class="cls-2" d="M106.57,63.31c-.89,0-1.8-.05-2.84-.16-4.26-.35-7.55-4.92-7.5-8.62.04-2.8,1.9-4.83,4.67-5.16.29-.07.59-.11.9-.11,1.7,0,3,1.14,3.48,1.62.24.24.44.52.58.83.65,1.36,1.11,1.8,1.26,1.91.29-.05.93-.33,1.37-.53.41-.18.82-.37,1.23-.52,1.73-.66,3.06-1.93,3.29-2.44.57-2.66,3.4-4.25,5.84-4.25,2.15,0,3.91,1.15,4.73,3.09,2.35,5.56-3.86,9.61-6.2,11.14-3.3,2.15-6.84,3.2-10.82,3.2h0Z"/>
          <path class="cls-2" d="M116.02,50.8c-.32,1.6-2.68,3.68-5.2,4.64-2.52.96-5.05,3.2-7.73-2.4,0,0-.95-.96-1.58-.64-4.45.23-1.45,7.36,2.52,7.69,3.15.32,7.25.32,11.67-2.56s5.99-5.12,5.05-7.37-4.41-.96-4.73.64Z"/>
          <path class="cls-2" d="M46.17,46.89c-1.01,0-2.09-.14-3.28-.43-4.99-.81-7.76-5.64-7.56-9.9.2-4.13,2.95-7.03,6.85-7.23.48-.04.97-.06,1.45-.06,6.2,0,11.25,3.12,12,7.33,1.1,3.19-.43,5.1-2.38,7.08-1.47,1.5-3.61,3.22-7.09,3.22h0Z"/>
          <path class="cls-2" d="M51.07,41.52c1.89-1.92,2.21-2.56,1.58-4.16-.3-2.86-4.88-5.42-10.25-4.96-5.96.27-4.96,10.19,1.1,11.05,3.78.96,5.68,0,7.57-1.92ZM42.4,38.8c-1.33-3.27,2.6-4.66,5.05-3.2,1.85,1.59,2.64,4.09-1.26,4.8-2.21.32-3.15-.64-3.78-1.6Z"/>
          <path class="cls-2" d="M78.03,68.05c-4.44,0-8.21-1.77-10.33-4.85-1.53-2.22-2.87-6.11-.63-12.07.87-3.02,3.41-6.53,10.5-6.53,1.88,0,3.73.22,5.37.41.55.06,1.07.13,1.55.18.06,0,.11.01.17.02,6.31.99,8.08,8.34,7.62,12.06,0,.05-.01.11-.02.16-1.24,6.97-8.09,10.62-14.22,10.62h0Z"/>
          <path class="cls-2" d="M89.22,56.89c.31-2.56-.95-8.01-5.05-8.65-4.7-.47-12.56-2.15-14.19,3.84-6.16,16.1,17.17,16.42,19.24,4.8Z"/>
          <path class="cls-2" d="M60.51,31.86c-19.36,0-33.92-3.49-42.72-6.42-2.2-.73-3.56-2.85-3.32-5.15s2.02-4.09,4.32-4.35c7.6-.85,11.64-4.34,13.77-7.48-.62-2.66-.33-5.04.84-6.68.81-1.14,2-1.79,3.26-1.79,1.56,0,2.93,1,3.5,2.56.11.18.66.61,1.17.89,6.78,2.05,14.14,3.09,21.87,3.09,6.76,0,13.65-.79,20.49-2.36.17-.05.37-.11.59-.17.24-.07.66-.18.97-.29.8-1.31,2.27-2.17,3.85-2.17,1.18,0,2.29.51,3.04,1.4.61.73,1.27,2.04.92,4.15-.26,1.54-.69,2.68-1.14,3.51,1.66,3.74,7.2,5.4,11.79,6.13,2.33.38,4.01,2.28,4.11,4.63.1,2.34-1.43,4.38-3.71,4.94-14.8,3.68-29.47,5.55-43.58,5.55,0,0,0,0,0,0Z"/>
          <path class="cls-2" d="M18.76,22.52c14,4.66,43.65,10.99,84.59.8,1.91-.48,1.8-3.23-.15-3.55-6.46-1.04-13.46-3.63-14.69-9.74,0,0,1.04-.73,1.5-3.45s-1.87-2.15-2.25-1.05c-.33.97-2.53,1.36-3.26,1.61-14.46,3.33-30.16,3.52-44.35-.84,0,0-2.31-1.1-2.89-2.7-.58-1.6-3.05.45-1.38,5.32-2.18,3.84-6.89,8.96-16.75,10.07-1.93.22-2.21,2.91-.37,3.52Z"/>
          <path class="cls-2" d="M53.88,78.17c-12.68,0-31.82-1.81-50.98-10.44-1.54-.69-2.52-2.23-2.54-3.89l-.25-1.33c-.25-1.3-.04-2.66.6-3.83.77-1.4,2.24-2.27,3.84-2.27.62,0,1.23.13,1.8.39,7.25,3.26,15.1,5.75,23.39,7.41l2.88-2.74c.53-.5,1.21-.79,1.9-.84.49-.47.99-.91,1.51-1.31.22-.17.46-.32.72-.43.49-.2.99-.31,1.48-.31.96,0,1.85.38,2.51,1.07.47.49.75,1.04.9,1.63.87.13,1.68.57,2.26,1.25.69.81.99,1.88.81,2.94-.03.21-.06.48-.04.79,3.3.26,6.61.38,9.87.38.58,0,1.17,0,1.76-.02l3.18-3.76c.47-.56,1.11-.91,1.8-1.04.43-.52.89-1.01,1.36-1.47.2-.2.43-.37.67-.5.59-.32,1.2-.49,1.82-.49,1.86,0,2.78,1.1,3.26,2.33.97.02,1.9.43,2.57,1.14.68.72,1.04,1.7.99,2.69,0,.01,0,.03,0,.04,4.69-.53,9.66-1.25,14.83-2.15-.04-.37-.11-.68-.18-.93-.34-1.14-.12-2.34.59-3.3.58-.78,1.45-1.3,2.4-1.46.05-.85.29-1.65.89-2.37.67-.8,1.67-1.26,2.73-1.26.36,0,.73.05,1.1.15.27.07.53.19.77.33.72.43,1.42.91,2.11,1.43.12-.01.25-.02.37-.02.64,0,1.28.2,1.82.6l4.53,3.33c8.26-1.91,14.62-3.69,17.06-4.39.39-.11.79-.17,1.19-.17,1.19,0,2.34.51,3.15,1.39.81.88,1.22,2.07,1.12,3.26l-.2,2.43c-.17,2.03-1.32,3.55-3.09,4.06-6.61,1.94-41.03,11.63-69.26,11.63Z"/>
          <path class="cls-2" d="M121.83,58.51c-3.01.87-9.83,2.76-18.6,4.74l-5.67-4.17c.13.45.25.99.3,1.61-1.11-1.11-2.58-2.37-4.38-3.46-1.63-.45-.42,2.74-.3,4.98-.79-.48-1.71-.97-2.74-1.4-.52-.22-1.06.26-.9.8.27.93.49,2.27.2,3.86-.04.2-.04.37,0,.53-6.44,1.18-13.32,2.22-20.17,2.9-.02-.11-.05-.23-.1-.36-.55-1.24-.63-2.38-.59-3.19.03-.47-.51-.76-.89-.48-.76.55-1.41,1.13-1.97,1.67-.34-1.85.03-4.7-1.22-4.01-1.26,1.24-2.21,2.56-2.9,3.68-.08-.52-.09-.98-.07-1.37l-4.08,4.82c-1.08.03-2.15.05-3.22.05-3.72,0-8.01-.16-12.69-.62.15-.24.19-.53.07-.89-.41-1.29-.37-2.44-.24-3.24.08-.47-.43-.81-.84-.58-.82.47-1.53.97-2.14,1.45-.13-1.88.54-4.67-.77-4.12-1.39,1.1-2.48,2.3-3.28,3.34-.02-.52.02-.99.08-1.37l-4.03,3.83c-8.1-1.51-16.84-3.97-25.59-7.91h-.03c-.62-.29-1.36-.05-1.69.55-.3.54-.39,1.16-.28,1.76l.32,1.68c-.08.55.21,1.08.71,1.31,18.67,8.4,37.34,10.17,49.72,10.17,28.03,0,62.73-9.84,68.39-11.51.48-.14.82-.56.89-1.37l.2-2.43c.07-.85-.72-1.5-1.54-1.27Z"/>
        </g>
        <g>
          <g>
            <path class="cls-7" d="M34.73,63.71c-.13.8-.17,1.95.24,3.24.79,2.48-5.74,1.99-5.74,1.99"/>
            <path class="cls-7" d="M35.95,68.67s1.61-2.39,4.89-4.27c.41-.24.91.11.84.58-.13.8-.17,1.95.24,3.24.79,2.48-5.74,1.99-5.74,1.99l-.23-1.54Z"/>
            <path class="cls-7" d="M32.96,67.65s1.65-3.29,4.98-5.92c1.6-.67.25,3.64,1.01,5.19.74,3.37-5.79,2.82-5.79,2.82l-.2-2.09Z"/>
          </g>
          <g>
            <path class="cls-7" d="M61.83,64.86c-.04.81.04,1.95.59,3.19,1.05,2.38-5.49,2.6-5.49,2.6"/>
            <path class="cls-7" d="M63.58,69.67s1.34-2.55,4.4-4.77c.38-.28.92,0,.89.48-.04.81.04,1.95.59,3.19,1.05,2.38-5.49,2.6-5.49,2.6l-.39-1.5Z"/>
            <path class="cls-7" d="M60.49,68.98s1.29-3.45,4.3-6.42c1.52-.84.64,3.59,1.56,5.05,1.1,3.27-5.45,3.44-5.45,3.44l-.42-2.06Z"/>
          </g>
          <g>
            <path class="cls-7" d="M97.56,59.09c.27.93.49,2.27.2,3.86-.56,3.05,7.08,1.49,7.08,1.49"/>
            <path class="cls-7" d="M96.86,65.14s-2.25-2.58-6.41-4.31c-.52-.22-1.06.26-.9.8.27.93.49,2.27.2,3.86-.56,3.05,7.08,1.49,7.08,1.49l.04-1.85Z"/>
            <path class="cls-7" d="M100.25,63.48s-2.44-3.64-6.76-6.25c-1.99-.55.25,4.34-.42,6.28-.37,4.09,7.26,2.47,7.26,2.47l-.08-2.5Z"/>
          </g>
          <path class="cls-4" d="M13.49,53c-3.13.54.25,8.51,6.08,10.57,5.76,1.92,8.33-.64,8.33-.64,0,0,6.08-3.84,6.72-4.48s.96-4.48-3.52-2.56c-4.48,1.92-4.64,4.64-10.09,4.96-2.87-.37-3.8-9.94-7.53-7.85Z"/>
          <path class="cls-4" d="M24.74,37.51s3-2.08.47-4-3.86-.26-12.6-3.68c-.69-.27-1.7-.37-2.22.16-.87.87-2.52,2.88,6.78,5.28,0,0,3.15.32,3.15.96s-7.57,7.69-12.93,10.57c-5.36,2.88-.32,4.16,1.26,3.52s7.25-4.48,7.25-4.48c0,0,3.47,6.4,3.78,7.37s3.31.8,3.63-.48-1.73-6.56-4.26-9.45c0,0-.32-.32.95-1.28s4.73-4.48,4.73-4.48Z"/>
          <path class="cls-4" d="M30.57,28.71s-.63-.32-.63,2.24v7.69c0,.64,0,1.6-1.58,1.92s-5.68.64-5.68,2.56c-.29,2.96,6.07.99,6.94.64,0,0-.63,7.37,1.26,7.37s3.15-.64,3.15-2.24-.63-6.72-.32-10.25c.03-4.22.98-11.29-3.15-9.93Z"/>
          <path class="cls-4" d="M36.25,47.6c3.34.81,13.86-5.29,17.66-3.2,2.52,1.6-.32,2.56-2.21,3.2-5.7,1.83-4.7.22-4.73,6.4,0,1.01,1.58,3.84-.32,4.8s-3.78.64-3.47-2.24.63-6.72.32-6.72c-.34.79-10.49,3.44-7.25-2.24Z"/>
          <path class="cls-4" d="M55.85,35.08c-3.01.29.04,3.66-.05,5.16,2.11,9.3,2.28,5.44-7.57,10.25-2.62.39-2.06,3.65,1.58,3.2,1.26,0,7.25-3.52,7.88-3.2s.32,1.92,2.52,1.28,1.26-2.88,1.26-3.2-.95-4.48-1.26-6.08c-.58-2.35-1.26-7.47-4.36-7.4Z"/>
          <path class="cls-4" d="M51.07,54.65s-1.89-.32-1.89,1.28c.4,5.84,3.07,12.27,10.41,7.04,3.15-1.92,7.25-6.4,7.57-8.33s-1.89-1.92-3.78-.64-3,3.68-5.52,5.28-2.84,2.56-4.1,0c0,0-.79-3.04-.79-3.68s-.79-.8-1.89-.96Z"/>
          <path class="cls-5" d="M74.4,35.43s.95-1.6-.95-1.28-2.36.8-3.31,2.08-3.31,3.68-4.26,6.24c-.56,1.53-1.26,3.2.32,3.52s1.89-.64,4.41-4.48c0,.32,3.47,4.16,5.36,3.84s1.89-2.88,1.26-3.52c-4.92-3.29-6.31-1.17-2.84-6.4Z"/>
          <path class="cls-5" d="M80.86,31.11c-1.83.62-3.1,14.7-2.05,14.89,5.23,1.11,3.37-5.13,4.1-7.05.32,0,3.15-1.28,3.15-.64s-1.26,5.76.63,5.76,2.84-.64,3.15-3.52,1.26-10.25,0-10.89-3,.16-3,1.12c-.01,5.48-.4,3.88-4.1,5.44,0,0,.95-4.48.63-4.8s-.95-.64-2.52-.32Z"/>
          <path class="cls-5" d="M99.31,29.35c-.22.23-1.89.32-3.47.32s-3.47,1.92-1.26,3.52,9.46-1.6,9.46-1.6c-2.7,8.38-14.48,13.15-9.46,14.73,2.84.96,7.25-4.16,7.25-4.16,0,0,1.58-3.84,2.21-3.52s5.05,2.56,5.68,3.52-3.47,3.2-3.78,2.88-.16-3.36-.79-3.68-3.15-.32-3.15,1.92.63,3.2-.63,4.16-5.36,2.24-6.31,2.24-3.15-1.28-4.1.64.95,2.88,4.1,2.88c3.85.58,28.15-10.19,22.39-14.09-1.26,0-3.15,1.92-3.47,1.6s-.63-1.6-1.58-2.24-5.36-3.2-5.99-3.2c6.18-10.51.43-8.63-7.09-5.92Z"/>
          <path class="cls-5" d="M103.09,53.05s-.95-.96-1.58-.64c-4.45.23-1.45,7.36,2.52,7.69,3.15.32,7.25.32,11.67-2.56,4.41-2.88,5.99-5.12,5.05-7.37s-4.41-.96-4.73.64-2.68,3.68-5.2,4.64-5.05,3.2-7.73-2.4Z"/>
          <path class="cls-4" d="M52.64,37.35c-.3-2.86-4.88-5.42-10.25-4.96-5.96.27-4.96,10.19,1.1,11.05,3.78.96,5.68,0,7.57-1.92s2.21-2.56,1.58-4.16ZM46.18,40.4c-2.21.32-3.15-.64-3.78-1.6-1.33-3.27,2.6-4.66,5.05-3.2,1.85,1.59,2.64,4.09-1.26,4.8Z"/>
          <path class="cls-5" d="M84.18,48.24c-4.7-.47-12.56-2.15-14.19,3.84-6.16,16.1,17.17,16.42,19.24,4.8.31-2.56-.95-8.01-5.05-8.65Z"/>
          <path class="cls-1" d="M72.68,50.87l-.11.05s-.07.05-.09.08c-.03.03-.05.07-.06.11-.01.04-.01.08,0,.12,0,.04.01.08.04.12l.05.06s.09.07.14.08h.08c.06.01.11,0,.16-.03l.11-.05s.07-.05.09-.08c.03-.03.05-.07.06-.11.01-.04.01-.08,0-.12,0-.04-.01-.08-.04-.12l-.05-.06s-.09-.07-.14-.08h-.08c-.06-.01-.11,0-.16.03h0Z"/>
          <path class="cls-1" d="M75.24,53.92l.32-.27s.05-.06.06-.1c.02-.04.03-.08.03-.12,0-.04,0-.08-.03-.12-.01-.04-.03-.07-.06-.1-.06-.05-.14-.1-.22-.09h-.08c-.05.03-.1.05-.14.09l-.32.27s-.05.06-.06.1c-.02.04-.03.08-.03.12,0,.04,0,.08.03.12.01.04.03.07.06.1.06.05.14.1.22.09h.08c.05-.03.1-.05.14-.09h0Z"/>
          <path class="cls-1" d="M72.75,57.5l.27.64s.03.08.06.11c.02.03.05.06.09.08.07.04.17.06.24.03s.15-.07.19-.14.06-.17.03-.24l-.27-.64s-.03-.08-.06-.11c-.02-.03-.05-.06-.09-.08-.07-.04-.17-.06-.24-.03s-.15.07-.19.14-.06.17-.03.24h0Z"/>
          <path class="cls-1" d="M77.04,58.06v.37c0,.08.03.16.09.22.03.03.06.05.1.06.04.02.08.03.12.03.08,0,.16-.03.22-.09s.09-.14.09-.22v-.37c0-.08-.03-.16-.09-.22-.03-.03-.06-.05-.1-.06-.04-.02-.08-.03-.12-.03-.08,0-.16.03-.22.09s-.09.14-.09.22h0Z"/>
          <path class="cls-1" d="M79.02,54.68l.11.37c.02.08.08.15.14.19.04.02.07.04.12.04.04,0,.08,0,.12,0,.08-.02.15-.07.19-.14s.05-.16.03-.24l-.11-.37c-.02-.08-.08-.15-.14-.19-.04-.02-.07-.04-.12-.04-.04,0-.08,0-.12,0-.08.02-.15.07-.19.14s-.05.16-.03.24h0Z"/>
          <path class="cls-1" d="M80.15,50.27c.49.13,1.01.19,1.52.18.16,0,.32-.14.31-.31s-.14-.32-.31-.31c-.24,0-.47,0-.71-.03-.03,0-.05,0-.08,0,.07.01,0,0-.03,0-.06,0-.13-.02-.19-.03-.12-.02-.23-.05-.35-.08-.16-.04-.35.05-.38.22s.05.34.22.38h0Z"/>
          <path class="cls-1" d="M83.98,54.26l.05.16s.03.08.06.11c.02.03.05.06.09.08.04.02.07.04.12.04.04,0,.08,0,.12,0l.07-.03s.08-.07.11-.11l.03-.07c.01-.06.01-.11,0-.17l-.05-.16s-.03-.08-.06-.11c-.02-.03-.05-.06-.09-.08-.04-.02-.07-.04-.12-.04-.04,0-.08,0-.12,0l-.07.03s-.08.07-.11.11l-.03.07c-.01.06-.01.11,0,.17h0Z"/>
          <path class="cls-1" d="M83.24,60.69c-.61.44-1.32.71-2.05.76-.17.01-.31.13-.31.31,0,.16.14.33.31.31.85-.06,1.67-.35,2.36-.85.14-.1.2-.27.11-.43-.08-.14-.29-.21-.43-.11h0Z"/>
          <path class="cls-1" d="M75.71,62.1h.16s.08,0,.12-.03c.04-.01.07-.03.1-.06.03-.03.05-.06.06-.1.02-.04.03-.08.03-.12v-.08c-.03-.05-.05-.1-.09-.14l-.06-.05s-.1-.04-.16-.04h-.16s-.08,0-.12.03c-.04.01-.07.03-.1.06-.03.03-.05.06-.06.1-.02.04-.03.08-.03.12v.08c.03.05.05.1.09.14l.06.05s.1.04.16.04h0Z"/>
          <g>
            <path class="cls-3" d="M88.51,10.03s1.04-.73,1.5-3.45-1.87-2.15-2.25-1.05c-.33.97-2.53,1.36-3.26,1.61-14.46,3.33-30.16,3.52-44.35-.84,0,0-2.31-1.1-2.89-2.7-.58-1.6-3.05.45-1.38,5.32,0,0,9.14,2.51,23.83,2.61,14.68.09,24.54-.42,28.8-1.5Z"/>
            <path class="cls-3" d="M103.2,19.78c-6.46-1.04-13.46-3.63-14.69-9.74-4.26,1.08-14.12,1.6-28.8,1.5-14.68-.09-23.83-2.61-23.83-2.61-2.18,3.84-6.89,8.96-16.75,10.07-1.93.22-2.21,2.91-.37,3.52,14,4.66,43.65,10.99,84.59.8,1.91-.48,1.8-3.23-.15-3.55Z"/>
          </g>
          <path class="cls-6" d="M53.88,75.09c-12.38,0-31.05-1.76-49.72-10.17h0c-.5-.23-.79-.76-.71-1.31l-.32-1.68c-.12-.6-.02-1.23.28-1.76h0c.33-.6,1.06-.84,1.69-.56h.03c18.55,8.36,37.12,10.11,49.42,10.11,26.71,0,59.54-8.98,67.29-11.22.82-.24,1.61.42,1.54,1.27l-.2,2.43c-.07.81-.41,1.23-.89,1.37-5.66,1.66-40.37,11.51-68.39,11.51Z"/>
        </g>
      </g>
      <path class="cls-8" d="M40.33,13.02c-.9,3.17-2.6,6.06-4.93,8.39-.66.66.36,1.68,1.02,1.02,2.5-2.5,4.33-5.62,5.3-9.02.26-.9-1.14-1.28-1.4-.38h0Z"/>
      <path class="cls-8" d="M49.39,15.1c-.55,2.7-.84,5.45-.86,8.2,0,.93,1.44.93,1.45,0,.01-2.63.28-5.24.81-7.81.19-.91-1.21-1.3-1.4-.38h0Z"/>
      <path class="cls-8" d="M57.43,15.05c-.34,3.02.08,6.11,1.19,8.94.14.36.48.62.89.51.35-.1.65-.52.51-.89-1.08-2.73-1.47-5.64-1.14-8.55.04-.39-.36-.72-.72-.72-.43,0-.68.33-.72.72h0Z"/>
      <path class="cls-8" d="M66.88,15.36c.51,3.4,2.28,6.57,4.88,8.81.7.6,1.73-.42,1.02-1.02-2.44-2.1-4.03-4.99-4.51-8.17-.06-.39-.55-.6-.89-.51-.41.11-.56.5-.51.89h0Z"/>
      <path class="cls-8" d="M76.86,14.62c.37,1.02,1.02,1.84,1.76,2.62s1.52,1.52,2.34,2.22c1.65,1.39,3.45,2.6,5.36,3.6.82.43,1.56-.82.73-1.25-1.76-.92-3.43-2-4.95-3.27-.74-.62-1.46-1.28-2.13-1.98s-1.38-1.41-1.71-2.32-1.71-.49-1.4.38h0Z"/>
    </g>
  </g>
</svg>