<svg width="20" height="20" viewBox="0 0 20 20" fill="none" xmlns="http://www.w3.org/2000/svg">
<g clip-path="url(#clip0_2038_4285)">
<path d="M10.2393 1.42215C3.49645 1.45921 0.76411 5.1652 0.711339 9.77298C0.682022 12.3486 2.25927 14.5722 4.67499 15.9311C5.85353 16.8082 4.43796 18.7035 3.31219 19.4386C3.31219 19.4386 7.48605 19.7015 8.70205 17.2037C9.30598 17.2964 9.61195 17.3332 10.2511 17.3332C15.5105 17.3332 19.7615 14.3869 19.7615 9.77298C19.7615 5.15902 17.0467 1.38509 10.2393 1.42215Z" fill="#58C572"/>
<path d="M9.99715 0.492458C3.25426 0.529518 0.521922 4.23551 0.469152 8.84329C0.439835 11.419 2.01709 13.6425 4.4328 15.0014C5.61134 15.8785 4.20999 18.7568 3.08422 19.4918C3.08422 19.4918 7.05373 19.2077 8.14432 16.2615C8.74825 16.3541 9.36977 16.4035 10.0089 16.4035C15.2683 16.4035 19.5193 13.4573 19.5193 8.84329C19.5193 4.22933 16.8045 0.455398 9.99715 0.492458Z" fill="#7ADA91"/>
<path d="M5.09462 7.32031C5.79236 7.32031 6.36111 7.91945 6.36111 8.65447C6.36111 9.38949 5.79236 9.98863 5.09462 9.98863C4.39687 9.98863 3.82812 9.38949 3.82812 8.65447C3.82812 7.91945 4.39687 7.32031 5.09462 7.32031Z" fill="#FDFDFD"/>
<path d="M10.1493 9.98081C10.8488 9.98081 11.4158 9.38349 11.4158 8.64666C11.4158 7.90982 10.8488 7.3125 10.1493 7.3125C9.44984 7.3125 8.88281 7.90982 8.88281 8.64666C8.88281 9.38349 9.44984 9.98081 10.1493 9.98081Z" fill="#FDFDFD"/>
<path d="M15.0165 9.98081C15.716 9.98081 16.283 9.38349 16.283 8.64666C16.283 7.90982 15.716 7.3125 15.0165 7.3125C14.317 7.3125 13.75 7.90982 13.75 8.64666C13.75 9.38349 14.317 9.98081 15.0165 9.98081Z" fill="#FDFDFD"/>
</g>
<defs>
<clipPath id="clip0_2038_4285">
<rect width="20" height="20" fill="white"/>
</clipPath>
</defs>
</svg>
