<svg width="21" height="20" viewBox="0 0 21 20" fill="none" xmlns="http://www.w3.org/2000/svg">
<g clip-path="url(#clip0_2038_4202)">
<path d="M18.3186 1.42969H3.80646C3.4727 1.42969 3.20312 1.69926 3.20312 2.03302V12.0009C3.20312 12.3347 3.4727 12.6043 3.80646 12.6043H18.3186C18.6524 12.6043 18.922 12.3347 18.922 12.0009V2.03302C18.922 1.69926 18.6524 1.42969 18.3186 1.42969Z" fill="#B7D5E5"/>
<mask id="mask0_2038_4202" style="mask-type:luminance" maskUnits="userSpaceOnUse" x="4" y="2" width="15" height="10">
<path d="M18.0978 11.5436H4.01562L4.1825 2.5H17.9309L18.0978 11.5436Z" fill="white"/>
</mask>
<g mask="url(#mask0_2038_4202)">
<path d="M18.0913 2.5H4.01562V11.5436H18.0913V2.5Z" fill="#424242"/>
<path d="M19.9489 0.652255H2.17609L-4.71094 -2.17188C-4.71094 5.65225 1.1363 11.9873 8.35066 11.9873C15.565 11.9873 21.4123 5.65225 21.4123 -2.17188L19.9489 0.652255Z" fill="#424242"/>
<path d="M19.9502 0.652255H2.17745L-4.52344 -2.17188C-4.52344 5.53672 1.24036 11.7883 8.35203 11.7883C15.4637 11.7883 21.2275 5.53672 21.2275 -2.17188L19.9502 0.652255Z" fill="#424343"/>
<path d="M19.9502 0.652255H2.17742L-4.34375 -2.17188C-4.34375 5.4276 1.3366 11.5893 8.34558 11.5893C15.3546 11.5893 21.0413 5.4276 21.0413 -2.17188L19.9438 0.652255H19.9502Z" fill="#414444"/>
<path d="M19.9516 0.652255H2.17879L-4.15625 -2.17188C-4.15625 5.31849 1.44708 11.3904 8.35336 11.3904C15.2596 11.3904 20.863 5.31849 20.863 -2.17188L19.9516 0.652255Z" fill="#414445"/>
<path d="M19.9451 0.652255H2.17234L-3.97656 -2.17188C-3.97656 5.20937 1.54333 11.1914 8.34691 11.1914C15.1505 11.1914 20.6704 5.20937 20.6704 -2.17188L19.9451 0.652255Z" fill="#414546"/>
<path d="M19.9529 0.652255H2.18012L-3.78906 -2.17188C-3.78906 5.10026 1.64739 10.9924 8.34828 10.9924C15.0492 10.9924 20.492 5.10026 20.492 -2.17188L19.9465 0.652255H19.9529Z" fill="#414647"/>
<path d="M19.9464 0.652255H2.17367L-3.60938 -2.17188C-3.60938 4.99115 1.74364 10.7935 8.34825 10.7935C14.9529 10.7935 20.3059 4.99115 20.3059 -2.17188L19.9464 0.652255Z" fill="#404748"/>
<path d="M19.9478 0.652255H2.17504L-3.42188 -2.17188C-3.42188 4.87561 1.8477 10.5945 8.34961 10.5945C14.8515 10.5945 20.1211 4.87561 20.1211 -2.17188L19.9478 0.652255Z" fill="#404749"/>
<path d="M19.9349 0.652256H2.17501L-3.24219 -2.17188C-3.24219 4.7665 1.94394 10.3955 8.34958 10.3955C14.7552 10.3955 19.9349 4.7665 19.9349 -2.17188V0.652256Z" fill="#40484A"/>
<path d="M19.7566 0.652255H2.17637L-3.05469 -2.17188C-3.05469 4.65739 2.05442 10.1965 8.35095 10.1965C14.6475 10.1965 19.7566 4.65739 19.7566 -2.17188V0.652255Z" fill="#40494B"/>
<path d="M19.5718 0.652255H2.17774L-2.86719 -2.17188C-2.86719 4.54827 2.15848 9.99756 8.35231 9.99756C14.5461 9.99756 19.5718 4.54827 19.5718 -2.17188V0.652255Z" fill="#3F4A4C"/>
<path d="M19.3856 0.652255H2.17771L-2.6875 -2.17188C-2.6875 4.43916 2.25473 9.79859 8.35228 9.79859C14.4498 9.79859 19.3856 4.43916 19.3856 -2.17188V0.652255Z" fill="#3F4A4D"/>
<path d="M19.1995 0.652255H2.17126L-2.50781 -2.17188C-2.50781 4.33004 2.35097 9.59319 8.34583 9.59319C14.3407 9.59319 19.1995 4.33004 19.1995 -2.17188V0.652255Z" fill="#3F4B4E"/>
<path d="M19.0225 0.652256H2.18043L-2.3125 -2.17188C-2.3125 4.21451 2.46285 9.39422 8.35501 9.39422C14.2472 9.39422 19.0225 4.21451 19.0225 -2.17188V0.652256Z" fill="#3E4C4F"/>
<path d="M18.8285 0.652255H2.17259L-2.14062 -2.17188C-2.14062 4.1054 2.55128 9.19525 8.34717 9.19525C14.1431 9.19525 18.8285 4.1054 18.8285 -2.17188V0.652255Z" fill="#3E4D50"/>
<path d="M18.6502 0.652255H2.17396L-1.95312 -2.17188C-1.95312 3.99628 2.66176 8.99628 8.34853 8.99628C14.0353 8.99628 18.6502 3.99628 18.6502 -2.17188V0.652255Z" fill="#3E4E51"/>
<path d="M18.4654 0.652255H2.17532L-1.76562 -2.17188C-1.76562 3.88717 2.76582 8.7973 8.3499 8.7973C13.934 8.7973 18.4654 3.88717 18.4654 -2.17188V0.652255Z" fill="#3E4E52"/>
<path d="M18.2793 0.652255H2.17529L-1.58594 -2.17188C-1.58594 3.77805 2.86207 8.59833 8.34987 8.59833C13.8377 8.59833 18.2857 3.77805 18.2857 -2.17188V0.652255H18.2793Z" fill="#3D4F53"/>
<path d="M18.1009 0.652255H2.17665L-1.39844 -2.17188C-1.39844 3.66894 2.96613 8.39936 8.35123 8.39936C13.7363 8.39936 18.1009 3.66894 18.1009 -2.17188V0.652255Z" fill="#3D5054"/>
<path d="M17.9161 0.652255H2.17802L-1.21094 -2.17188C-1.21094 3.55341 3.07019 8.20039 8.3526 8.20039C13.635 8.20039 17.9161 3.55983 17.9161 -2.17188V0.652255Z" fill="#3D5155"/>
<path d="M17.73 0.652255H2.17799L-1.03125 -2.17188C-1.03125 3.44429 3.16644 8.00141 8.35256 8.00141C13.5387 8.00141 17.7364 3.44429 17.7364 -2.17188V0.652255H17.73Z" fill="#3D5156"/>
<path d="M17.5516 0.652255H2.17935L-0.84375 -2.17188C-0.84375 3.33518 3.27691 7.80244 8.35393 7.80244C13.4309 7.80244 17.5516 3.33518 17.5516 -2.17188V0.652255Z" fill="#3C5257"/>
<path d="M17.3654 0.652255H2.17932L-0.664062 -2.17188C-0.664062 3.22606 3.37316 7.60347 8.34748 7.60347C13.3218 7.60347 17.359 3.22606 17.359 -2.17188V0.652255H17.3654Z" fill="#3C5358"/>
<path d="M17.1729 0.652255H2.17287L-0.484375 -2.17188C-0.484375 3.11695 3.46941 7.40449 8.34745 7.40449C13.2255 7.40449 17.1793 3.11695 17.1793 -2.17188V0.652255H17.1729Z" fill="#3C5459"/>
<path d="M16.9945 0.652255H2.17424L-0.296875 -2.17188C-0.296875 3.00784 3.57347 7.20552 8.34881 7.20552C13.1242 7.20552 16.9945 3.00784 16.9945 -2.17188V0.652255Z" fill="#3B555A"/>
<path d="M16.8083 0.652255H2.17421L-0.117188 -2.17188C-0.117188 2.8923 3.66971 7.00013 8.34237 7.00013C13.015 7.00013 16.8019 2.8923 16.8019 -2.17188V0.652255H16.8083Z" fill="#3B555B"/>
<path d="M16.6236 0.652255H2.17557L0.0703125 -2.17188C0.0703125 2.78319 3.77377 6.80116 8.35015 6.80116C12.9265 6.80116 16.63 2.78319 16.63 -2.17188V0.652255H16.6236Z" fill="#3B565C"/>
<path d="M16.4452 0.652255H2.17694L0.257812 -2.17188C0.257812 2.67408 3.88425 6.60218 8.35151 6.60218C12.8188 6.60218 16.4452 2.67408 16.4452 -2.17188V0.652255Z" fill="#3B575D"/>
<path d="M16.259 0.652255H2.17691L0.4375 -2.17188C0.4375 2.56496 3.9805 6.40321 8.34506 6.40321C12.7096 6.40321 16.2526 2.56496 16.2526 -2.17188V0.652255H16.259Z" fill="#3A585E"/>
<path d="M16.0743 0.652255H2.17827L0.625 -2.17188C0.625 2.45585 4.08456 6.20424 8.35285 6.20424C12.6211 6.20424 16.0807 2.45585 16.0807 -2.17188V0.652255H16.0743Z" fill="#3A585F"/>
<path d="M15.8959 0.652255H2.17964L0.8125 -2.17188C0.8125 2.34673 4.18862 6.00527 8.35421 6.00527C12.5198 6.00527 15.8959 2.34673 15.8959 -2.17188V0.652255Z" fill="#3A5960"/>
<path d="M15.7033 0.652255H2.17319L0.992188 -2.17188C0.992188 2.2312 4.28487 5.80629 8.34776 5.80629C12.4107 5.80629 15.7033 2.2312 15.7033 -2.17188V0.652255Z" fill="#3A5A61"/>
<path d="M15.525 0.652255H2.18097L1.17969 -2.17188C1.17969 2.12209 4.38893 5.60732 8.35555 5.60732C12.3222 5.60732 15.525 2.12209 15.525 -2.17188V0.652255Z" fill="#395B62"/>
<path d="M15.3388 0.652255H2.17452L1.35938 -2.17188C1.35938 2.01297 4.49159 5.40835 8.3491 5.40835C12.2066 5.40835 15.3388 2.01297 15.3388 -2.17188V0.652255Z" fill="#395B63"/>
<path d="M15.154 0.652255H2.17589L1.54688 -2.17188C1.54688 1.90386 4.59565 5.20937 8.35046 5.20937C12.1053 5.20937 15.154 1.90386 15.154 -2.17188V0.652255Z" fill="#395C64"/>
<path d="M14.9743 0.652255H2.17586L1.72656 -2.17188C1.72656 1.79474 4.6919 5.0104 8.35043 5.0104C12.009 5.0104 14.9743 1.79474 14.9743 -2.17188V0.652255Z" fill="#395D66"/>
<path d="M14.7895 0.652255H2.17722L1.91406 -2.17188C1.91406 1.68563 4.79596 4.81143 8.3518 4.81143C11.9076 4.81143 14.7895 1.68563 14.7895 -2.17188V0.652255Z" fill="#385E67"/>
<path d="M14.5969 0.652255H2.17077L2.09375 -2.17188C2.09375 1.57652 4.89221 4.61246 8.34535 4.61246C11.7985 4.61246 14.5969 1.57652 14.5969 -2.17188V0.652255Z" fill="#385F68"/>
<path d="M14.425 0.652255H2.28125V-2.17188C2.28125 1.46098 4.99627 4.40706 8.35313 4.40706C11.71 4.40706 14.425 1.46098 14.425 -2.17188V0.652255Z" fill="#385F69"/>
<path d="M14.2324 0.652255H2.46094V-2.17188C2.46094 1.35187 5.09893 4.20809 8.34668 4.20809C11.5944 4.20809 14.2324 1.35187 14.2324 -2.17188V0.652255Z" fill="#37606A"/>
<path d="M14.0541 0.652256H2.64844V-2.17188C2.64844 1.24276 5.20299 4.00912 8.34805 4.00912C11.4931 4.00912 14.0541 1.24276 14.0541 -2.17188V0.652256Z" fill="#37616B"/>
<path d="M13.8679 0.652255H2.82812V-2.17188C2.82812 1.13364 5.29924 3.81015 8.34802 3.81015C11.3968 3.81015 13.8679 1.13364 13.8679 -2.17188V0.652255Z" fill="#37626C"/>
<path d="M13.6831 0.652256H3.01562V-2.17188C3.01562 1.02453 5.4033 3.61117 8.34938 3.61117C11.2955 3.61117 13.6831 1.02453 13.6831 -2.17188V0.652256Z" fill="#37626D"/>
<path d="M13.497 0.652255H3.19531V-2.17188C3.19531 0.915413 5.49955 3.4122 8.34293 3.4122C11.1863 3.4122 13.497 0.915413 13.497 -2.17188V0.652255Z" fill="#36636E"/>
<path d="M13.3186 0.652255H3.38281V-2.17188C3.38281 0.79988 5.60361 3.21323 8.35071 3.21323C11.0978 3.21323 13.3186 0.79988 13.3186 -2.17188V0.652255Z" fill="#36646F"/>
<path d="M13.126 0.652255H3.5625V-2.17188C3.5625 0.690766 5.70627 3.01426 8.34427 3.01426C10.9823 3.01426 13.126 0.690766 13.126 -2.17188V0.652255Z" fill="#366570"/>
<path d="M12.9477 0.652255H3.75V-2.17188C3.75 0.581652 5.81033 2.81528 8.34563 2.81528C10.8809 2.81528 12.9413 0.581652 12.9413 -2.17188V0.652255H12.9477Z" fill="#366571"/>
<path d="M12.7693 0.652255H3.9375V-2.17188C3.9375 0.472538 5.91439 2.61631 8.35341 2.61631C10.7924 2.61631 12.7693 0.472538 12.7693 -2.17188V0.652255Z" fill="#356672"/>
</g>
<path d="M20.9328 18.5728H1.28588C1.20886 18.5728 1.14467 18.5728 1.08049 18.5599C0.579845 18.4829 0.348779 17.8346 0.650448 17.3918L0.721051 17.2891H21.4206L21.4912 17.3918C21.8122 17.8731 21.5105 18.5599 20.9649 18.5728C20.9585 18.5728 20.9521 18.5728 20.9393 18.5728H20.9328Z" fill="#AAC3C9"/>
<path d="M18.4641 12.7969H3.54115C3.32292 12.7969 3.10469 12.9317 2.97632 13.1435L0.556554 17.553C0.453858 17.707 0.556554 17.9188 0.729853 17.9188H21.4038C21.5771 17.9188 21.6798 17.707 21.5771 17.553L19.0289 13.1178C18.907 12.9317 18.6888 12.7969 18.4705 12.7969H18.4641Z" fill="#EEEEEE"/>
<path d="M14.9195 17.13H7.21094L7.70516 15.75H14.4638L14.9195 17.13Z" fill="#B7D5E5"/>
<g opacity="0.57">
<path d="M12.5593 13.5584L12.5144 13.1797H11.9174L11.9431 13.5584H12.5657H12.5593ZM11.5965 13.5584L11.5708 13.1797H10.9739V13.5584H11.5965ZM16.1793 13.5584L16.0381 13.1797H15.4733L15.5888 13.5584H16.1729H16.1793ZM15.2679 13.5584L15.1524 13.1797H14.5747L14.671 13.5584H15.2679ZM14.3693 13.5584L14.273 13.1797H13.6889L13.7595 13.5584H14.3629H14.3693ZM17.6427 13.5584L17.4758 13.1797H16.3141L16.4553 13.5584H17.6363H17.6427ZM13.4001 13.5584L13.3295 13.1797H12.739L12.7904 13.5584H13.4001ZM5.81347 13.5584L5.929 13.1797H5.36418L5.22297 13.5584H5.80705H5.81347ZM8.71462 13.5584L8.75955 13.1797H8.16905L8.09845 13.5584H8.7082H8.71462ZM6.78266 13.5584L6.87894 13.1797H6.30127L6.18574 13.5584H6.78266ZM4.8507 13.5584L4.9919 13.1797H4.43992L4.27304 13.5584H4.8507ZM7.75185 13.5584L7.82245 13.1797H7.23837L7.14209 13.5584H7.74543H7.75185ZM9.68381 13.5584L9.70949 13.1797H9.11257L9.06764 13.5584H9.68381ZM10.6466 13.5584V13.1797H10.0497L10.024 13.5584H10.6466ZM14.4784 15.0988H7.65557L7.5272 15.4775H14.6389L14.4784 15.0988ZM17.6556 15.4775L17.4438 15.0988H18.5734L18.7403 15.4775H17.6556ZM14.9919 15.4775L14.8507 15.0988H15.9418L16.1087 15.4775H14.9983H14.9919ZM16.4874 15.4775L16.3205 15.0988H17.0651L17.2576 15.4775H16.4874ZM4.42066 15.4775L4.63247 15.0988H3.50282L3.33594 15.4775H4.42066ZM7.08433 15.4775L7.22554 15.0988H6.13439L5.96751 15.4775H7.07791H7.08433ZM5.58882 15.4775L5.7557 15.0988H5.01116L4.81861 15.4775H5.58882ZM5.12027 14.1938L5.26148 13.8151H4.10615L3.93927 14.1938H5.11386H5.12027ZM16.9303 14.1938L16.7891 13.8151H17.9444L18.1113 14.1938H16.9367H16.9303ZM16.635 14.1938L16.4681 13.8151H15.8006L15.9418 14.1938H16.635ZM14.902 14.1938L14.7865 13.8151H15.454L15.5888 14.1938H14.902ZM13.8558 14.1938L13.7724 13.8151H14.4399L14.5426 14.1938H13.8558ZM12.8096 14.1938L12.7583 13.8151H13.4258L13.5028 14.1938H12.8096ZM11.7634 14.1938L11.7441 13.8151H12.4117L12.4502 14.1938H11.7634ZM10.7172 14.1938L10.73 13.8151H11.3975L11.4104 14.1938H10.7236H10.7172ZM9.67098 14.1938L9.7159 13.8151H10.3834L10.3642 14.1938H9.67098ZM8.62476 14.1938L8.69537 13.8151H9.36289L9.31154 14.1938H8.62476ZM7.57855 14.1938L7.68125 13.8151H8.34877L8.26533 14.1938H7.57855ZM6.53234 14.1938L6.66713 13.8151H7.33465L7.22554 14.1938H6.53234ZM5.48613 14.1938L5.65301 13.8151H6.32053L6.17932 14.1938H5.49255H5.48613ZM5.10744 14.8357L5.24864 14.457H3.73388L3.567 14.8357H5.10744ZM16.558 14.8357L16.4232 14.457H15.7043L15.8135 14.8357H16.558ZM14.6646 14.8357L14.5811 14.457H15.3L15.4091 14.8357H14.6646ZM13.5156 14.8357L13.4579 14.457H14.1767L14.2538 14.8357H13.5092H13.5156ZM12.3667 14.8357L12.3346 14.457H13.0535L13.1049 14.8357H12.3603H12.3667ZM11.2178 14.8357V14.457H11.9367L11.9624 14.8357H11.2178ZM10.0689 14.8357L10.0946 14.457H10.8135V14.8357H10.0689ZM8.92001 14.8357L8.97136 14.457H9.69023L9.65814 14.8357H8.91359H8.92001ZM7.77111 14.8357L7.84813 14.457H8.567L8.50923 14.8357H7.76469H7.77111ZM6.6222 14.8357L6.72489 14.457H7.44376L7.36032 14.8357H6.61578H6.6222ZM5.47329 14.8357L5.60808 14.457H6.32695L6.21783 14.8357H5.47329ZM16.8404 14.8357L16.6992 14.457H18.214L18.3809 14.8357H16.8468H16.8404Z" fill="#69A1BA"/>
</g>
<path d="M21.5614 17.5429L19.0775 13.1334C18.9555 12.9473 18.7373 12.8125 18.5127 12.8125C18.5127 12.8125 18.7245 13.0051 18.7887 13.0949L20.9645 17.1771C21.0608 17.3568 20.9324 17.5686 20.7335 17.5686H1.34966C1.15068 17.5686 1.02231 17.3568 1.11859 17.1835L3.18534 13.1719C3.24311 13.0692 3.51268 12.8253 3.51268 12.8253H3.43566C3.21743 12.8253 2.99921 12.9601 2.87084 13.1719L0.540929 17.5429C0.438233 17.697 0.540929 17.9088 0.714228 17.9088H21.3881C21.5614 17.9088 21.6641 17.697 21.5614 17.5429Z" fill="#B7D5E5"/>
<path d="M6.75266 2.24785H4.46768C4.32647 2.24785 4.21094 2.13232 4.21094 1.99111C4.21094 1.84991 4.32647 1.73438 4.46768 1.73438H6.75266C6.89386 1.73438 7.00939 1.84991 7.00939 1.99111C7.00939 2.13232 6.89386 2.24785 6.75266 2.24785Z" fill="#EEEEEE"/>
<path d="M18.9041 2.35595C18.9041 2.17624 18.7308 2.1634 18.7308 2.37521V12.035C18.7308 12.2661 18.5447 12.4586 18.3072 12.4586H3.79505C3.56398 12.4586 3.37143 12.2725 3.37143 12.035V2.37521C3.37143 2.1634 3.19813 2.17624 3.19813 2.35595L3.03125 12.035C3.03125 12.4522 3.24306 12.7924 3.78863 12.7924H18.3008C18.7758 12.7924 19.0582 12.4522 19.0582 12.035L18.8913 2.35595H18.9041Z" fill="#75A7BC"/>
</g>
<defs>
<clipPath id="clip0_2038_4202">
<rect width="20" height="20" fill="white" transform="translate(0.5)"/>
</clipPath>
</defs>
</svg>
