<svg width="456" height="70" viewBox="0 0 456 70" fill="none" xmlns="http://www.w3.org/2000/svg">
<path d="M8.35746 13.51C3.13746 13.51 0.257464 11.29 0.257464 7.78C0.257464 4.27 3.13746 2.05 8.35746 2.05C13.5775 2.05 16.4575 4.27 16.4575 7.78C16.4575 11.29 13.5775 13.51 8.35746 13.51ZM18.0775 13.42C17.9275 11.95 17.9275 3.79 18.0775 2.29C19.0975 2.11 22.0075 2.11 23.0275 2.29C23.2375 3.79 23.2375 11.95 23.0275 13.42C22.1575 13.54 19.2475 13.54 18.0775 13.42ZM8.35746 9.43C10.6375 9.43 11.5375 8.74 11.5375 7.78C11.5375 6.82 10.6375 6.13 8.35746 6.13C6.07746 6.13 5.17746 6.82 5.17746 7.78C5.17746 8.74 6.07746 9.43 8.35746 9.43ZM1.54746 28.12C1.36746 26.2 1.36746 21.16 1.54746 19.33C4.51746 19.27 15.2875 19.3 18.0175 19.33V18.34C15.2575 18.4 4.42746 18.4 1.42746 18.34C1.27746 16.99 1.27746 15.79 1.42746 14.44C3.25746 14.32 21.1975 14.32 23.0275 14.44C23.2675 16.18 23.2375 21.79 23.0275 22.87C20.3875 22.96 8.95746 22.9 6.67746 22.87V23.86C8.80746 23.8 20.6875 23.8 23.6275 23.86C23.8075 24.94 23.8075 27.04 23.6275 28.12C21.0475 28.3 4.12746 28.3 1.54746 28.12ZM50.1184 7.03C50.2684 7.69 50.2684 10.87 50.1184 11.5C49.6084 11.56 48.5884 11.62 47.5384 11.62C47.5084 13.72 47.4784 15.52 47.3884 16.06C46.5184 16.18 43.6084 16.18 42.4384 16.06C42.2884 14.59 42.2884 3.79 42.4384 2.29C43.4584 2.11 46.3684 2.11 47.3884 2.29C47.4784 2.86 47.5084 4.72 47.5384 6.91C48.5884 6.91 49.6084 6.97 50.1184 7.03ZM32.8984 7.93C31.5184 11.29 29.6284 15.34 29.1484 16.15C28.2484 15.94 25.6684 14.74 24.8284 14.08C25.2484 12.7 29.3884 3.82 30.0784 2.59C31.3384 2.47 34.0684 2.47 35.2984 2.59C36.0484 3.61 40.5784 11.92 41.2084 13.27C40.4884 13.93 37.8184 15.4 36.8584 15.67C36.3184 14.83 34.4584 11.2 32.8984 7.93ZM37.2184 16.51C45.0184 16.51 48.1384 18.61 48.1384 22.51C48.1384 26.41 45.0184 28.51 37.2184 28.51C29.4184 28.51 26.2984 26.41 26.2984 22.51C26.2984 18.61 29.4184 16.51 37.2184 16.51ZM37.2184 24.22C41.7184 24.22 42.9184 23.62 42.9184 22.51C42.9184 21.4 41.7184 20.8 37.2184 20.8C32.7184 20.8 31.5184 21.4 31.5184 22.51C31.5184 23.62 32.7184 24.22 37.2184 24.22ZM78.3653 2.29C78.5453 3.79 78.5453 26.23 78.3653 27.7C77.4653 27.91 74.6153 27.91 73.4453 27.7C73.3553 26.23 73.3553 3.79 73.4453 2.29C74.4653 2.11 77.3453 2.11 78.3653 2.29ZM67.0853 2.41C68.1053 2.23 70.8953 2.23 71.9153 2.41C72.0353 3.94 72.0353 25.81 71.9153 27.31C71.0153 27.49 68.2253 27.49 67.0853 27.31C67.0253 26.62 66.9953 21.76 66.9953 16.48H65.5253C65.1953 24.28 62.6453 26.89 58.3853 26.89C53.5253 26.89 51.1853 23.56 51.1853 14.77C51.1853 5.65 53.7953 2.65 58.3853 2.65C62.5853 2.65 64.9253 5.23 65.4353 11.8C65.9453 11.8 66.4553 11.77 66.9953 11.8C66.9953 7.09 67.0253 3.04 67.0853 2.41ZM58.3853 22.09C59.7653 22.09 60.5753 20.59 60.5753 14.77C60.5753 8.77 59.6453 7.45 58.3853 7.45C57.0053 7.45 56.1953 8.95 56.1953 14.77C56.1953 20.8 57.0953 22.09 58.3853 22.09ZM106.286 2.29C106.496 3.79 106.496 26.23 106.286 27.7C105.416 27.91 102.476 27.91 101.306 27.7C101.216 26.95 101.156 20.5 101.186 14.29C99.3557 14.32 96.9257 14.29 96.1457 14.2C95.9957 13.54 95.9957 10.27 96.1457 9.61C96.9257 9.52 99.3557 9.49 101.186 9.52C101.216 5.77 101.246 2.8 101.306 2.29C102.326 2.11 105.266 2.11 106.286 2.29ZM86.5457 3.01C87.5057 2.86 90.4157 2.86 91.3757 3.01C92.7557 7.15 97.7057 23.77 98.0057 25.12C97.1957 25.6 94.3757 26.53 93.1757 26.65C92.8157 25.87 90.8057 18.52 89.0357 11.8C87.3257 18.7 85.3157 26.08 84.9557 26.89C83.8457 26.8 80.9957 25.93 80.1257 25.42C80.3057 24.1 85.1657 7.21 86.5457 3.01ZM137.54 16.93C136.67 17.02 133.76 17.02 132.59 16.93C132.44 15.46 132.44 3.94 132.59 2.29C133.61 2.11 136.52 2.11 137.54 2.29C137.75 3.79 137.75 15.43 137.54 16.93ZM117.86 11.5C116.87 10.87 115.07 9.16 114.41 8.32C115.43 7.18 118.37 4.33 120.26 2.62C121.58 2.47 123.68 2.47 125 2.62C126.89 4.33 129.83 7.18 130.85 8.32C130.19 9.16 128.39 10.87 127.4 11.5C126.08 10.42 123.65 7.93 122.63 6.88C121.61 7.93 119.18 10.42 117.86 11.5ZM121.28 18.1C121.25 17.32 121.22 16.66 121.22 16C117.83 16 114.77 15.97 114.11 15.94C113.96 14.65 113.96 13.24 114.11 12.01C115.64 11.92 129.47 11.92 131.33 12.01C131.45 13.27 131.48 14.71 131.33 15.94C130.73 15.97 128.81 16 126.47 16C126.47 16.63 126.44 17.32 126.41 18.1C125.39 18.19 122.36 18.19 121.28 18.1ZM132.59 17.92C133.67 17.8 136.58 17.8 137.54 17.92C137.69 19.33 137.72 26.5 137.54 28.3C136.1 28.48 117.17 28.51 115.46 28.3C115.28 25.99 115.34 19.36 115.46 17.92C116.33 17.8 119.45 17.8 120.47 17.92C120.47 18.34 120.5 18.88 120.5 19.45C123.32 19.45 129.77 19.42 132.56 19.45C132.56 18.88 132.59 18.34 132.59 17.92ZM120.47 24.43C121.13 24.49 131.93 24.49 132.59 24.43C132.59 24.1 132.56 23.62 132.56 23.05C129.77 23.08 123.32 23.08 120.5 23.05C120.5 23.62 120.47 24.1 120.47 24.43ZM163.416 2.29C163.596 3.79 163.596 26.23 163.416 27.7C162.516 27.91 159.666 27.91 158.496 27.7C158.406 26.23 158.406 3.79 158.496 2.29C159.516 2.11 162.396 2.11 163.416 2.29ZM151.896 2.41C152.916 2.23 155.706 2.23 156.726 2.41C156.846 3.91 156.846 25.81 156.726 27.31C155.826 27.49 153.036 27.49 151.896 27.31C151.836 26.62 151.806 21.52 151.806 16.12H149.616C149.616 21.28 149.556 26.14 149.496 26.71C148.296 26.8 145.716 26.8 144.486 26.71C144.426 24.7 144.426 9.88 144.486 7.87C143.256 7.93 141.126 7.93 139.776 7.87C139.656 7 139.656 3.91 139.776 3.04C141.276 2.89 147.996 2.89 149.496 3.04C149.556 3.52 149.586 7.18 149.616 11.47C150.276 11.47 151.056 11.44 151.806 11.47C151.806 6.91 151.836 3.01 151.896 2.41ZM179.031 10.39C177.771 12.94 176.001 16.33 175.371 17.08C174.381 16.78 171.921 15.37 171.261 14.68C171.621 13.78 173.181 10.93 174.441 8.65C172.971 8.65 171.861 8.62 171.471 8.59C171.321 7.96 171.321 4.84 171.471 4.18C172.101 4.12 174.051 4.06 176.361 4.06C176.361 3.1 176.391 2.08 176.451 1.42C177.471 1.27 180.651 1.27 181.701 1.42C181.761 2.08 181.791 3.1 181.791 4.06C184.101 4.06 186.021 4.12 186.591 4.18C186.741 4.78 186.741 7.84 186.591 8.59C186.141 8.62 185.031 8.62 183.621 8.65C184.881 10.9 186.441 13.78 186.801 14.68C186.141 15.37 183.681 16.78 182.691 17.08C182.061 16.33 180.291 12.94 179.031 10.39ZM195.561 7.66C195.711 8.32 195.711 11.5 195.561 12.13C195.051 12.19 194.031 12.25 192.981 12.25C192.951 14.56 192.921 16.51 192.831 17.05C191.961 17.17 189.051 17.17 187.881 17.05C187.731 15.58 187.731 3.79 187.881 2.29C188.901 2.11 191.811 2.11 192.831 2.29C192.921 2.89 192.951 5.05 192.981 7.54C194.031 7.54 195.051 7.6 195.561 7.66ZM172.551 18.1C174.141 17.92 191.241 17.92 192.831 18.1C193.041 19.57 193.041 26.56 192.831 28C191.391 28.15 173.991 28.15 172.551 28C172.341 26.56 172.341 19.57 172.551 18.1ZM187.821 23.92C187.881 23.38 187.881 22.75 187.821 22.21C186.681 22.15 178.671 22.12 177.591 22.21C177.531 22.75 177.531 23.38 177.591 23.92C178.701 24.01 186.711 24.01 187.821 23.92ZM221.415 2.29C221.595 3.79 221.595 26.23 221.415 27.7C220.515 27.91 217.605 27.91 216.435 27.7C216.375 27.28 216.345 25.27 216.315 22.51C215.145 22.51 213.975 22.48 213.435 22.42C213.255 21.76 213.255 18.61 213.435 17.95C213.975 17.89 215.145 17.86 216.315 17.86C216.285 15.64 216.285 13.3 216.315 11.14C215.145 11.14 213.975 11.08 213.435 11.02C213.255 10.39 213.255 7.21 213.435 6.58C214.005 6.49 215.175 6.46 216.345 6.46C216.345 4.24 216.405 2.65 216.435 2.29C217.485 2.11 220.395 2.11 221.415 2.29ZM204.885 2.65C210.075 2.65 212.925 6.13 212.925 14.77C212.925 23.41 210.075 26.89 204.885 26.89C199.695 26.89 196.845 23.41 196.845 14.77C196.845 6.13 199.695 2.65 204.885 2.65ZM204.885 22.15C206.595 22.15 207.735 20.08 207.735 14.77C207.735 9.46 206.595 7.39 204.885 7.39C203.175 7.39 202.035 9.46 202.035 14.77C202.035 20.08 203.175 22.15 204.885 22.15ZM237.843 6.88C236.013 6.94 225.483 6.94 223.803 6.88C223.593 6.28 223.593 3.79 223.803 3.19C224.433 3.16 226.263 3.16 228.393 3.16C228.393 2.59 228.423 2.02 228.453 1.48C229.503 1.33 232.503 1.33 233.523 1.48C233.583 2.02 233.613 2.59 233.613 3.16C235.563 3.16 237.213 3.16 237.843 3.19C238.023 3.7 238.023 6.19 237.843 6.88ZM246.663 7.63C246.813 8.26 246.813 11.44 246.663 12.1C246.153 12.16 245.133 12.19 244.053 12.19C244.053 13.81 243.993 15.13 243.933 15.58C243.063 15.7 240.153 15.7 238.983 15.58C238.833 14.11 238.833 3.91 238.983 2.29C240.003 2.11 242.913 2.11 243.933 2.29C244.023 2.92 244.083 5.08 244.083 7.51C245.133 7.51 246.153 7.57 246.663 7.63ZM231.003 15.82C226.173 15.82 224.043 14.17 224.043 11.62C224.043 9.1 226.173 7.48 231.003 7.48C235.833 7.48 237.963 9.1 237.963 11.62C237.963 14.17 235.833 15.82 231.003 15.82ZM231.003 10.84C229.053 10.84 228.483 11.14 228.483 11.62C228.483 12.16 229.053 12.46 231.003 12.46C232.953 12.46 233.523 12.16 233.523 11.62C233.523 11.14 232.953 10.84 231.003 10.84ZM230.283 23.68V24.55C231.813 24.49 241.593 24.49 244.533 24.55C244.713 25.42 244.713 27.25 244.533 28.15C241.953 28.3 227.733 28.3 225.153 28.15C224.973 26.53 224.973 22.15 225.153 20.65C228.123 20.59 236.193 20.62 238.923 20.65V19.78C236.163 19.84 228.033 19.84 225.033 19.78C224.883 18.67 224.883 17.59 225.033 16.48C226.863 16.36 242.103 16.36 243.933 16.48C244.173 17.92 244.143 22.78 243.933 23.68C241.293 23.74 231.963 23.71 230.283 23.68ZM257.55 15.16C256.35 14.68 254.16 13.12 253.41 12.22C255.39 9.37 258.75 4.72 260.67 2.41C261.69 2.29 264.39 2.29 265.41 2.41C267.33 4.72 270.66 9.37 272.67 12.19C271.92 13.09 269.73 14.68 268.53 15.16C267.45 13.96 264.24 9.31 263.04 7.48C261.84 9.31 258.63 13.96 257.55 15.16ZM272.76 15.97C272.97 17.17 273 19.45 272.76 20.53C272.16 20.59 269.13 20.62 265.62 20.62C265.65 23.17 265.62 26.8 265.53 27.85C264.63 28.03 261.69 28.03 260.52 27.85C260.43 26.8 260.4 23.17 260.43 20.62C256.89 20.62 253.8 20.59 253.29 20.53C253.08 19.36 253.08 17.11 253.29 15.97C254.52 15.82 271.26 15.85 272.76 15.97ZM299.402 16.06C299.252 14.59 299.252 3.79 299.402 2.29C300.422 2.11 303.332 2.11 304.352 2.29C304.562 3.79 304.562 14.56 304.352 16.06C303.482 16.18 300.572 16.18 299.402 16.06ZM288.932 16.15C283.532 16.15 280.082 13.66 280.082 9.16C280.082 4.66 283.532 2.17 288.932 2.17C294.332 2.17 297.782 4.66 297.782 9.16C297.782 13.66 294.332 16.15 288.932 16.15ZM288.932 11.89C291.512 11.89 292.892 10.9 292.892 9.16C292.892 7.42 291.512 6.43 288.932 6.43C286.352 6.43 284.972 7.42 284.972 9.16C284.972 10.9 286.262 11.89 288.932 11.89ZM284.042 28.57C283.022 28.27 280.712 26.89 280.052 26.14C280.802 24.7 283.982 19.69 285.572 17.41C286.562 17.26 288.782 17.26 289.772 17.41C290.762 18.82 292.052 20.74 293.012 22.27C293.972 20.74 295.262 18.82 296.252 17.41C297.242 17.26 299.462 17.26 300.452 17.41C302.042 19.69 305.222 24.7 305.972 26.14C305.312 26.89 303.002 28.27 301.982 28.57C301.232 27.4 299.582 24.82 298.322 22.72C297.062 24.79 295.622 26.59 294.512 27.97C293.882 28.03 292.232 28.03 291.512 27.97C290.402 26.59 288.962 24.79 287.702 22.72C286.442 24.82 284.792 27.4 284.042 28.57ZM307.708 12.4C307.468 11.14 307.468 3.85 307.708 2.59C308.908 2.44 311.548 2.44 312.808 2.59C312.868 3.58 312.868 6.94 312.808 7.93C314.188 7.87 318.838 7.87 320.188 7.93C320.338 8.8 320.338 11.53 320.188 12.4C318.658 12.52 309.208 12.52 307.708 12.4ZM306.778 18.64C306.598 16.99 306.598 15.37 306.778 13.87C308.218 13.78 319.168 13.78 320.938 13.87C321.118 15.31 321.088 16.96 320.938 18.64C319.168 18.73 308.218 18.73 306.778 18.64ZM307.408 27.94C307.198 26.68 307.198 21.37 307.408 20.11C308.638 19.99 311.278 19.99 312.508 20.11C312.568 21.13 312.568 22.27 312.508 23.29C313.888 23.23 319.258 23.23 320.608 23.29C320.728 24.13 320.728 27.07 320.608 27.94C319.108 28.06 308.908 28.06 307.408 27.94ZM341.529 22.15C341.619 23.17 341.619 26.08 341.529 27.04C339.849 27.19 331.149 27.19 328.899 27.04C328.719 24.04 328.719 6.43 328.899 3.43C331.539 3.25 339.069 3.28 341.139 3.46C341.229 4.42 341.229 7.6 341.139 8.26C340.059 8.29 335.259 8.32 334.089 8.26V12.49C336.819 12.49 340.209 12.55 340.719 12.61C340.839 13.6 340.839 16.45 340.719 17.44C339.939 17.5 336.519 17.5 334.089 17.5V22.15C335.259 22.09 340.449 22.12 341.529 22.15ZM347.29 16.87C344.71 15.04 343.27 12.94 343.27 10C343.27 6.58 345.58 3.76 350.2 3.43C351.37 3.34 352.06 3.34 352.84 3.46C352.99 5.14 352.99 6.58 352.84 8.11C352.24 8.11 351.79 8.11 350.95 8.14C349.42 8.23 348.55 9.16 348.55 10.21C348.55 10.9 348.91 11.65 349.72 12.22C353.35 14.83 354.28 16.84 354.28 20.95C354.28 24.01 352.06 26.77 347.41 27.07C345.94 27.16 344.41 27.16 343.45 27.04C343.3 25.36 343.3 23.89 343.45 22.39C344.17 22.33 344.92 22.36 346.12 22.33C348.01 22.27 349.12 21.16 349.12 19.81C349.12 18.85 348.55 17.77 347.29 16.87ZM369.411 27.19C361.371 27.46 355.821 23.83 355.821 15.25C355.821 6.67 361.371 2.83 369.561 3.25C369.711 4.39 369.711 7 369.561 8.2C364.041 7.75 361.011 10.39 361.011 15.25C361.011 19.36 363.171 21.91 367.101 22.33V16.63C366.531 16.69 365.721 16.66 364.641 16.63C364.581 15.97 364.581 13.09 364.641 12.13C365.811 11.95 369.351 11.92 371.901 12.1C372.051 14.08 372.081 25.33 371.901 26.98C371.361 27.1 370.371 27.16 369.411 27.19ZM394.74 5.98C392.88 6.04 382.05 6.04 380.01 5.98C379.8 5.5 379.8 3.07 380.01 2.38C380.76 2.35 382.65 2.35 384.84 2.35C384.84 1.9 384.87 1.48 384.93 1.12C385.95 0.969998 388.95 0.969998 390 1.12C390.06 1.48 390.09 1.9 390.09 2.35C392.25 2.35 394.08 2.35 394.74 2.38C394.95 2.98 394.95 5.47 394.74 5.98ZM404.1 7.63C404.25 8.29 404.25 11.47 404.1 12.1C403.59 12.16 402.57 12.22 401.52 12.22C401.49 14.77 401.46 16.96 401.37 17.53C400.5 17.65 397.59 17.65 396.42 17.53C396.27 16.09 396.27 3.79 396.42 2.29C397.44 2.11 400.35 2.11 401.37 2.29C401.46 2.86 401.49 5.02 401.52 7.51C402.57 7.51 403.59 7.57 404.1 7.63ZM395.28 17.56C393.48 17.62 381.18 17.56 379.74 17.56C379.56 16.69 379.56 15.25 379.74 14.29C380.28 14.26 382.35 14.23 384.81 14.23V13.66C381.84 13.21 380.25 11.98 380.25 10.09C380.25 7.72 382.83 6.4 387.45 6.4C392.07 6.4 394.65 7.72 394.65 10.09C394.65 11.98 393.06 13.21 390.12 13.66V14.23C392.55 14.26 394.62 14.26 395.28 14.29C395.37 15.28 395.4 16.72 395.28 17.56ZM387.45 9.49C385.86 9.49 385.02 9.7 385.02 10.09C385.02 10.51 385.86 10.75 387.45 10.75C389.04 10.75 389.88 10.51 389.88 10.09C389.88 9.7 389.04 9.49 387.45 9.49ZM386.22 24.7V25.51C388.35 25.48 399.03 25.45 401.97 25.51C402.15 26.44 402.15 27.91 401.97 28.84C399.39 28.99 383.67 28.99 381.09 28.84C380.91 27.16 380.91 23.77 381.09 22.18C384.06 22.12 394.08 22.15 396.36 22.18V21.34C394.05 21.37 383.97 21.37 380.97 21.34C380.82 20.2 380.82 19.48 380.97 18.31C382.8 18.25 399.54 18.25 401.37 18.31C401.61 19.81 401.58 23.8 401.37 24.7C398.73 24.79 388.5 24.73 386.22 24.7ZM426.384 13.48C426.504 15.04 426.534 16.66 426.384 17.95C424.524 18.01 406.824 18.01 405.294 17.95C405.144 16.6 405.144 15.01 405.294 13.48C405.924 13.45 409.314 13.42 413.214 13.42V12.31C409.884 12.28 406.974 12.25 406.194 12.19C405.984 9.55 405.984 5.2 406.194 2.56C407.634 2.35 423.144 2.35 425.184 2.56C425.334 3.34 425.334 5.8 425.184 6.82C423.804 6.85 412.404 6.85 411.414 6.82V8.05C412.884 7.99 424.194 7.99 425.484 8.05C425.604 8.83 425.604 11.2 425.484 12.19C424.794 12.25 421.854 12.28 418.464 12.31V13.42C422.274 13.42 425.634 13.45 426.384 13.48ZM415.824 18.73C423.474 18.73 426.174 20.56 426.174 23.77C426.174 26.98 423.474 28.81 415.824 28.81C408.174 28.81 405.474 26.98 405.474 23.77C405.474 20.56 408.174 18.73 415.824 18.73ZM415.824 24.85C420.204 24.85 421.014 24.4 421.014 23.77C421.014 23.14 420.204 22.69 415.824 22.69C411.444 22.69 410.634 23.14 410.634 23.77C410.634 24.4 411.444 24.85 415.824 24.85ZM455.212 2.29C455.392 3.79 455.392 26.23 455.212 27.7C454.312 27.91 451.462 27.91 450.292 27.7C450.202 26.23 450.202 3.79 450.292 2.29C451.312 2.11 454.192 2.11 455.212 2.29ZM443.932 2.41C444.952 2.23 447.742 2.23 448.762 2.41C448.882 3.94 448.882 25.81 448.762 27.31C447.862 27.49 445.072 27.49 443.932 27.31C443.872 26.62 443.842 21.76 443.842 16.48H442.372C442.042 24.28 439.492 26.89 435.232 26.89C430.372 26.89 428.032 23.56 428.032 14.77C428.032 5.65 430.642 2.65 435.232 2.65C439.432 2.65 441.772 5.23 442.282 11.8C442.792 11.8 443.302 11.77 443.842 11.8C443.842 7.09 443.872 3.04 443.932 2.41ZM435.232 22.09C436.612 22.09 437.422 20.59 437.422 14.77C437.422 8.77 436.492 7.45 435.232 7.45C433.852 7.45 433.042 8.95 433.042 14.77C433.042 20.8 433.942 22.09 435.232 22.09ZM49.0444 43.29C49.2244 44.79 49.2244 67.23 49.0444 68.7C48.1444 68.91 45.2944 68.91 44.1244 68.7C44.0944 68.01 44.0644 62.7 44.0644 57.12H42.1444C42.1444 62.52 42.1144 67.62 42.0544 68.31C41.1544 68.49 38.3644 68.49 37.2244 68.31C37.1044 66.81 37.1044 44.91 37.2244 43.41C38.3044 43.26 41.0644 43.26 42.0544 43.41C42.1144 44.01 42.1444 47.91 42.1444 52.47C42.7744 52.44 43.4044 52.44 44.0644 52.47C44.0644 47.85 44.0944 43.89 44.1244 43.29C45.1444 43.11 48.0244 43.11 49.0444 43.29ZM29.3044 62.67C30.6844 62.64 34.1644 62.64 35.5144 62.67C35.6044 63.54 35.6044 66.69 35.5144 67.56C33.9844 67.68 25.7044 67.68 24.2044 67.56C24.0544 66.3 24.0544 45.3 24.2044 44.07C25.4044 43.98 28.0444 43.98 29.3044 44.07C29.3344 46.05 29.3344 60.69 29.3044 62.67ZM70.7006 53.04C70.8506 53.7 70.8506 57.09 70.7006 57.75C70.1906 57.81 69.1706 57.84 68.1206 57.84C68.1206 63.15 68.0606 68.04 67.9706 68.7C67.1006 68.91 64.1606 68.91 62.9906 68.7C62.8106 67.23 62.8106 44.79 62.9906 43.29C64.0106 43.11 66.9506 43.11 67.9706 43.29C68.0606 43.92 68.1206 48.12 68.1206 52.92C69.1706 52.92 70.1906 52.98 70.7006 53.04ZM51.3506 43.98C52.8506 43.83 59.5106 43.83 61.0106 43.98C61.1606 45.81 61.1606 66.21 61.0106 67.74C59.8106 67.89 57.2006 67.89 56.0006 67.74C55.9406 66.33 55.9406 50.34 56.0006 48.87C54.2906 48.93 52.7306 48.96 51.3506 48.87C51.2006 48 51.2006 44.85 51.3506 43.98ZM104.955 52.56C105.105 53.28 105.105 56.73 104.955 57.45C104.445 57.51 103.425 57.54 102.375 57.54C102.375 62.97 102.315 68.04 102.225 68.7C101.355 68.91 98.4145 68.91 97.2445 68.7C97.0645 67.23 97.0645 44.79 97.2445 43.29C98.2645 43.11 101.205 43.11 102.225 43.29C102.315 43.89 102.345 47.82 102.375 52.44C103.425 52.44 104.445 52.5 104.955 52.56ZM86.5645 43.65C92.3545 43.65 95.8045 47.58 95.8045 55.77C95.8045 64.29 92.0845 67.89 86.5645 67.89C80.8045 67.89 77.3245 63.99 77.3245 55.77C77.3245 47.25 81.0445 43.65 86.5645 43.65ZM86.5645 63.18C89.0545 63.18 90.6145 60.78 90.6145 55.77C90.6145 50.58 88.9045 48.36 86.5645 48.36C84.0745 48.36 82.5145 50.73 82.5145 55.77C82.5145 60.99 84.2245 63.18 86.5645 63.18ZM124.309 68.7C124.129 67.23 124.129 44.79 124.309 43.29C125.329 43.11 128.269 43.11 129.289 43.29C129.499 44.79 129.499 67.23 129.289 68.7C128.419 68.91 125.479 68.91 124.309 68.7ZM108.259 67.77C108.199 65.76 108.199 50.79 108.259 48.78C107.479 48.81 106.729 48.84 105.979 48.78C105.859 47.91 105.859 44.85 105.979 43.98C107.179 43.83 111.829 43.83 113.329 43.98C113.479 45.21 113.479 66.54 113.329 67.77C112.129 67.86 109.489 67.86 108.259 67.77ZM117.109 67.77C117.049 65.76 117.049 50.79 117.109 48.78C116.149 48.81 115.249 48.84 114.499 48.78C114.379 47.91 114.379 44.85 114.499 43.98C115.699 43.83 120.679 43.83 122.179 43.98C122.329 45.21 122.329 66.54 122.179 67.77C120.979 67.86 118.339 67.86 117.109 67.77ZM132.643 53.4C132.403 52.14 132.403 44.85 132.643 43.59C133.843 43.44 136.483 43.44 137.743 43.59C137.803 44.58 137.803 47.94 137.743 48.93C139.123 48.87 143.773 48.87 145.123 48.93C145.273 49.8 145.273 52.53 145.123 53.4C143.593 53.52 134.143 53.52 132.643 53.4ZM131.713 59.64C131.533 57.99 131.533 56.37 131.713 54.87C133.153 54.78 144.103 54.78 145.873 54.87C146.053 56.31 146.023 57.96 145.873 59.64C144.103 59.73 133.153 59.73 131.713 59.64ZM132.343 68.94C132.133 67.68 132.133 62.37 132.343 61.11C133.573 60.99 136.213 60.99 137.443 61.11C137.503 62.13 137.503 63.27 137.443 64.29C138.823 64.23 144.193 64.23 145.543 64.29C145.663 65.13 145.663 68.07 145.543 68.94C144.043 69.06 133.843 69.06 132.343 68.94ZM157.914 61.38C156.744 61.14 153.834 60.09 153.204 59.4C154.614 55.71 159.084 45.96 160.404 43.41C161.274 43.32 163.824 43.32 164.694 43.41C166.014 45.96 170.484 55.71 171.894 59.4C171.294 60.09 168.354 61.14 167.214 61.38C166.584 60.15 163.044 51.87 162.564 50.43C162.054 51.87 158.544 60.15 157.914 61.38ZM153.114 68.64C152.904 67.47 152.904 65.16 153.114 64.02C154.344 63.87 170.484 63.9 171.984 64.02C172.194 65.22 172.224 67.56 171.984 68.64C170.484 68.76 154.344 68.76 153.114 68.64ZM187.214 68.7C187.034 67.23 187.034 44.79 187.214 43.29C188.264 43.11 191.174 43.11 192.194 43.29C192.374 44.79 192.374 67.23 192.194 68.7C191.294 68.91 188.384 68.91 187.214 68.7ZM174.614 67.62C174.464 66.36 174.464 45.24 174.614 44.01C175.814 43.92 178.454 43.92 179.714 44.01C179.744 45.99 179.744 60.75 179.714 62.73C181.094 62.7 184.274 62.7 185.624 62.73C185.714 63.6 185.714 66.75 185.624 67.62C184.094 67.74 176.114 67.74 174.614 67.62ZM215.013 43.29C215.223 44.79 215.223 67.23 215.013 68.7C214.143 68.91 211.203 68.91 210.033 68.7C209.943 68.01 209.913 62.73 209.913 57.18C208.923 57.18 207.753 57.18 206.823 57.15C206.823 62.34 206.793 67.2 206.733 67.77C205.503 67.86 202.863 67.86 201.633 67.77C201.603 66.87 201.603 63.24 201.603 59.37C199.053 59.4 196.023 59.37 195.093 59.28C194.913 58.65 194.913 55.35 195.093 54.69C196.023 54.63 199.053 54.6 201.603 54.63C201.603 51.75 201.603 49.38 201.633 48.66C200.253 48.69 196.863 48.69 195.513 48.66C195.393 47.79 195.393 44.88 195.513 44.01C197.013 43.89 205.203 43.92 206.733 44.01C206.793 44.49 206.823 48.12 206.823 52.41C207.753 52.38 208.923 52.38 209.913 52.41C209.913 47.82 209.973 43.89 210.033 43.29C211.053 43.11 213.993 43.11 215.013 43.29ZM222.301 60.78C221.251 60.48 218.521 58.98 217.771 58.29C218.131 57.42 220.921 52.41 222.961 48.78C220.501 48.78 218.611 48.75 218.161 48.72C218.011 48.06 218.011 44.67 218.161 44.04C219.901 43.8 236.191 43.8 237.721 44.04C237.871 44.61 237.871 47.94 237.721 48.72C237.181 48.75 235.321 48.78 232.951 48.78C234.991 52.41 237.781 57.42 238.141 58.29C237.391 58.98 234.661 60.48 233.611 60.78C232.981 59.85 229.831 54.03 227.971 50.4C226.081 54.03 222.931 59.85 222.301 60.78ZM238.441 64.02C238.651 65.22 238.681 67.56 238.441 68.64C236.941 68.76 218.701 68.76 217.471 68.64C217.261 67.47 217.261 65.16 217.471 64.02C218.701 63.87 236.941 63.9 238.441 64.02ZM241.26 54C241.08 52.98 241.08 48.51 241.26 47.4C242.64 47.37 249.66 47.37 250.95 47.4V46.68C249.75 46.71 242.49 46.71 241.08 46.68C240.93 45.87 240.93 44.13 241.08 43.35C242.4 43.23 254.61 43.23 255.9 43.35C256.02 44.4 256.02 49.08 255.9 50.19H246.36V50.88H256.38C256.5 51.57 256.53 53.37 256.38 54C254.34 54.09 243.3 54.09 241.26 54ZM240.3 58.26C240.15 57.51 240.15 55.47 240.3 54.69C241.77 54.63 255.42 54.63 257.19 54.69C257.34 55.41 257.31 57.48 257.19 58.26C255.42 58.35 241.77 58.35 240.3 58.26ZM241.05 69.54C240.87 68.1 240.87 64.32 241.05 62.82C244.02 62.79 248.61 62.82 251.34 62.82V62.13C248.58 62.16 243.93 62.16 240.93 62.13C240.78 61.05 240.78 60.03 240.93 58.98C242.76 58.89 254.49 58.89 256.32 58.98C256.56 60.42 256.53 64.56 256.32 65.46C253.68 65.55 248.37 65.49 246.09 65.46V66.18C248.22 66.15 254.01 66.15 256.95 66.18C257.13 67.02 257.13 68.67 256.95 69.54C254.37 69.69 243.63 69.69 241.05 69.54ZM290.227 53.04C290.377 53.7 290.377 57.09 290.227 57.75C289.717 57.81 288.697 57.84 287.647 57.84C287.647 63.15 287.587 68.04 287.497 68.7C286.627 68.91 283.687 68.91 282.517 68.7C282.337 67.23 282.337 44.79 282.517 43.29C283.537 43.11 286.477 43.11 287.497 43.29C287.587 43.92 287.647 48.12 287.647 52.92C288.697 52.92 289.717 52.98 290.227 53.04ZM280.387 48.66C279.907 48.69 278.647 48.69 277.057 48.72C278.467 54.3 281.227 65.34 281.407 66.51C280.597 66.93 277.777 67.65 276.607 67.71C276.217 66.72 273.787 56.31 272.527 50.52C271.357 56.46 269.167 66.9 268.777 67.98C267.697 67.98 264.847 67.35 263.947 66.87C264.037 65.76 266.557 54.51 267.937 48.72C266.407 48.72 265.207 48.69 264.817 48.66C264.667 48 264.667 44.67 264.817 44.04C266.557 43.8 278.857 43.8 280.387 44.04C280.537 44.61 280.537 47.88 280.387 48.66ZM316.075 48.48C316.225 49.14 316.225 52.32 316.075 52.95C315.565 53.01 314.545 53.07 313.495 53.07C313.465 55.5 313.435 57.57 313.345 58.2C312.475 58.32 309.565 58.32 308.395 58.2C308.245 56.61 308.245 44.79 308.395 43.29C309.415 43.11 312.325 43.11 313.345 43.29C313.435 43.86 313.465 45.93 313.495 48.36C314.545 48.36 315.565 48.42 316.075 48.48ZM306.925 57.69C304.885 57.87 294.295 57.87 292.225 57.69C292.015 56.13 292.015 50.7 292.225 48.69C293.605 48.63 298.615 48.63 300.355 48.69V47.55C298.645 47.58 293.515 47.58 292.105 47.55C291.955 46.47 291.955 44.7 292.105 43.5C293.425 43.38 303.985 43.38 305.275 43.5C305.425 45 305.425 50.55 305.275 52.35C303.985 52.41 298.375 52.41 297.355 52.35V53.55C298.405 53.52 305.605 53.55 306.925 53.55C307.075 54.42 307.075 56.76 306.925 57.69ZM303.175 58.65C311.125 58.65 314.095 60.57 314.095 64.08C314.095 67.59 311.125 69.51 303.175 69.51C295.225 69.51 292.255 67.59 292.255 64.08C292.255 60.57 295.225 58.65 303.175 58.65ZM303.175 65.31C307.975 65.31 308.875 64.86 308.875 64.08C308.875 63.3 307.975 62.85 303.175 62.85C298.375 62.85 297.475 63.3 297.475 64.08C297.475 64.86 298.375 65.31 303.175 65.31ZM333.492 49.65C331.542 49.74 319.182 49.74 317.412 49.65C317.202 48.93 317.202 45.81 317.412 45.12C318.102 45.06 320.352 45.06 322.962 45.03C322.962 44.25 322.992 43.41 323.052 42.63C324.132 42.48 327.282 42.48 328.362 42.63C328.422 43.41 328.452 44.25 328.452 45.03C330.792 45.06 332.802 45.09 333.492 45.12C333.672 45.72 333.672 48.84 333.492 49.65ZM346.422 43.29C346.602 44.79 346.602 67.23 346.422 68.7C345.522 68.91 342.672 68.91 341.502 68.7C341.472 68.01 341.442 62.7 341.442 57.12H339.642C339.642 62.52 339.612 67.62 339.552 68.31C338.652 68.49 335.862 68.49 334.722 68.31C334.602 66.81 334.602 44.91 334.722 43.41C335.742 43.23 338.532 43.23 339.552 43.41C339.612 44.01 339.642 47.91 339.642 52.47C340.212 52.44 340.842 52.44 341.442 52.47C341.442 47.85 341.472 43.89 341.502 43.29C342.522 43.11 345.402 43.11 346.422 43.29ZM325.692 50.49C330.822 50.49 333.642 53.79 333.642 59.34C333.642 65.46 330.492 68.19 325.692 68.19C320.322 68.19 317.742 64.86 317.742 59.34C317.742 53.22 321.072 50.49 325.692 50.49ZM325.722 63.9C327.552 63.9 328.782 62.46 328.782 59.34C328.782 56.16 327.462 54.75 325.722 54.75C323.892 54.75 322.602 56.25 322.602 59.34C322.602 62.55 324.012 63.9 325.722 63.9ZM356.799 56.73C356.019 56.04 354.399 53.64 354.099 52.71C354.699 52.2 357.729 50.34 360.519 48.6C357.759 48.6 355.539 48.57 355.029 48.54C354.879 47.88 354.879 44.58 355.029 43.95C356.769 43.71 372.909 43.71 374.439 43.95C374.589 44.52 374.589 47.76 374.439 48.54C373.839 48.57 371.649 48.6 368.949 48.6C371.739 50.31 374.769 52.2 375.369 52.71C375.069 53.64 373.449 56.04 372.669 56.73C371.769 56.28 367.749 53.76 364.749 51.75C361.719 53.76 357.699 56.28 356.799 56.73ZM375.219 57.54C375.429 58.74 375.459 61.02 375.219 62.1C374.619 62.16 371.229 62.19 367.329 62.19C367.359 64.68 367.329 67.86 367.239 68.85C366.339 69.03 363.399 69.03 362.229 68.85C362.139 67.86 362.109 64.68 362.139 62.19C358.209 62.19 354.789 62.16 354.249 62.1C354.039 60.93 354.039 58.68 354.249 57.54C355.479 57.39 373.719 57.42 375.219 57.54ZM404.738 43.29C404.918 44.79 404.918 67.23 404.738 68.7C403.838 68.91 400.988 68.91 399.818 68.7C399.728 67.23 399.728 44.79 399.818 43.29C400.838 43.11 403.718 43.11 404.738 43.29ZM393.368 43.41C394.388 43.23 397.178 43.23 398.198 43.41C398.318 44.91 398.318 66.81 398.198 68.31C397.298 68.49 394.508 68.49 393.368 68.31C393.308 67.59 393.278 62.04 393.278 56.37C392.168 56.37 391.148 56.34 390.458 56.31C390.308 55.68 390.308 52.41 390.458 51.75C391.148 51.72 392.168 51.72 393.278 51.72C393.308 47.49 393.308 43.98 393.368 43.41ZM381.698 44.01C382.658 43.86 385.688 43.86 386.618 44.01C387.788 48.21 391.658 65.1 391.838 66.45C390.998 66.84 388.208 67.5 387.008 67.5C386.738 66.72 384.818 57.96 384.248 53.4C383.528 57.66 381.488 66.96 381.188 67.77C380.108 67.77 377.258 67.08 376.388 66.63C376.478 65.31 380.528 48.21 381.698 44.01ZM415.453 59.61C410.683 59.61 407.233 56.76 407.233 51.36C407.233 45.96 410.683 43.11 415.453 43.11C420.223 43.11 423.673 45.96 423.673 51.36C423.673 56.76 420.223 59.61 415.453 59.61ZM415.453 47.7C413.623 47.7 412.303 49.05 412.303 51.36C412.303 53.67 413.623 55.02 415.453 55.02C417.283 55.02 418.603 53.67 418.603 51.36C418.603 49.05 417.283 47.7 415.453 47.7ZM423.643 64.14C423.853 65.34 423.883 67.56 423.643 68.64C422.113 68.79 408.433 68.79 407.173 68.64C406.963 67.47 406.963 65.28 407.173 64.14C407.413 64.11 408.163 64.08 409.213 64.08C409.183 62.67 409.213 61.26 409.243 60.51C410.263 60.33 413.113 60.33 414.193 60.51C414.253 61.26 414.253 62.67 414.253 64.05H416.683C416.653 62.67 416.683 61.26 416.713 60.51C417.733 60.33 420.583 60.33 421.663 60.51C421.723 61.26 421.723 62.7 421.723 64.08C422.683 64.11 423.373 64.11 423.643 64.14ZM431.49 60.81C430.35 60.9 427.59 60.9 426.51 60.81C426.3 56.76 426.24 46.8 426.36 44.01C427.38 43.86 430.86 43.86 431.64 44.01C431.67 47.31 431.73 56.43 431.49 60.81ZM429 68.85C427.32 68.85 425.97 67.53 425.97 65.85C425.97 64.17 427.32 62.85 429 62.85C430.68 62.85 432.03 64.17 432.03 65.85C432.03 67.53 430.68 68.85 429 68.85Z" fill="#00A76F"/>
</svg>
