<svg width="183" height="30" viewBox="0 0 183 30" fill="none" xmlns="http://www.w3.org/2000/svg">
<path d="M0 20C0 8.9543 8.9543 0 20 0H168C176.284 0 183 6.71573 183 15C183 23.2843 176.284 30 168 30H0V20Z" fill="white"/>
<path d="M17.6304 17.512C14.8144 17.512 12.8944 15.72 12.8944 13.176C12.8944 10.632 14.8144 8.84 17.6304 8.84C20.4464 8.84 22.3664 10.632 22.3664 13.176C22.3664 15.72 20.4464 17.512 17.6304 17.512ZM17.6304 10.824C16.1584 10.824 15.0864 11.704 15.0864 13.176C15.0864 14.648 16.1584 15.528 17.6304 15.528C19.1024 15.528 20.1744 14.648 20.1744 13.176C20.1744 11.704 19.1024 10.824 17.6304 10.824ZM22.4464 20.328C22.5584 20.84 22.5584 21.8 22.4464 22.28C21.7744 22.328 13.3424 22.328 12.7984 22.28C12.7024 21.768 12.7024 20.808 12.7984 20.328C13.0224 20.296 14.6704 20.28 16.5424 20.28C16.5264 19.544 16.5424 18.648 16.5584 18.168C17.0384 18.088 18.2864 18.088 18.7504 18.168C18.7664 18.648 18.7664 19.544 18.7664 20.28C20.5744 20.28 22.1744 20.296 22.4464 20.328ZM25.6961 22.376C24.9441 22.376 24.3201 21.784 24.3201 21.032C24.3201 20.264 24.9441 19.672 25.6961 19.672C26.4481 19.672 27.0721 20.264 27.0721 21.032C27.0721 21.784 26.4481 22.376 25.6961 22.376ZM35.9056 19.976C35.9536 20.408 35.9536 21.64 35.9056 22.04C35.0416 22.12 30.5936 22.12 29.4256 22.04C29.3296 20.44 29.3296 11.144 29.4256 9.544C30.7856 9.464 34.6416 9.48 35.6976 9.56C35.7456 9.976 35.7456 11.304 35.6976 11.592C35.0736 11.592 32.3216 11.608 31.6336 11.592V14.6C33.1536 14.6 35.1856 14.616 35.4736 14.664C35.5376 15.08 35.5376 16.28 35.4736 16.696C35.0416 16.728 32.9296 16.728 31.6336 16.712V19.976C32.3056 19.944 35.2816 19.96 35.9056 19.976ZM39.1555 22.376C38.4035 22.376 37.7795 21.784 37.7795 21.032C37.7795 20.264 38.4035 19.672 39.1555 19.672C39.9075 19.672 40.5315 20.264 40.5315 21.032C40.5315 21.784 39.9075 22.376 39.1555 22.376ZM51.973 17.896C51.029 17.928 43.141 17.928 42.373 17.896C42.293 17.416 42.293 16.488 42.373 16.008C42.693 15.976 44.277 15.96 46.069 15.96V15.048C43.925 14.776 42.725 13.704 42.725 11.96C42.725 9.944 44.357 8.808 47.189 8.808C50.021 8.808 51.669 9.928 51.669 11.96C51.669 13.72 50.437 14.792 48.277 15.048V15.96C50.037 15.96 51.589 15.976 51.973 16.008C52.037 16.504 52.053 17.432 51.973 17.896ZM56.581 12.84C56.661 13.128 56.661 14.472 56.581 14.744C56.261 14.776 55.621 14.792 54.997 14.792C54.981 16.84 54.965 18.728 54.933 19.08C54.549 19.144 53.317 19.144 52.805 19.08C52.757 18.296 52.757 9.688 52.805 8.888C53.237 8.792 54.485 8.792 54.933 8.888C54.965 9.224 54.981 10.888 54.997 12.792C55.621 12.792 56.261 12.808 56.581 12.84ZM44.885 11.96C44.885 12.808 45.605 13.336 47.189 13.336C48.789 13.336 49.509 12.824 49.509 11.96C49.509 11.128 48.789 10.6 47.189 10.6C45.605 10.6 44.885 11.128 44.885 11.96ZM45.397 20.584C46.357 20.552 54.453 20.552 55.157 20.584C55.253 21.016 55.253 22.088 55.157 22.52C54.069 22.568 44.197 22.568 43.221 22.52C43.173 21.496 43.157 19.72 43.221 18.696C43.669 18.6 44.917 18.6 45.397 18.696C45.413 19.288 45.429 20.024 45.397 20.584ZM64.4497 22.056C64.0017 21.304 61.4737 14.68 61.2017 13.8C61.5857 13.56 62.8177 13.16 63.2657 13.08C63.5857 13.816 64.9937 17.56 65.6977 19.624C66.4497 17.48 67.5697 14.024 67.8417 13.368C68.3697 13.32 69.1537 13.32 69.6657 13.368C69.9377 14.024 71.0577 17.48 71.8097 19.64C72.5137 17.56 73.9377 13.816 74.2417 13.08C74.6897 13.176 75.9217 13.56 76.3057 13.8C76.0337 14.68 73.5057 21.304 73.0577 22.056C72.4497 22.152 71.1537 22.152 70.5777 22.04C70.3217 21.448 69.3937 18.856 68.7537 16.936C68.1137 18.856 67.1857 21.448 66.9297 22.04C66.3537 22.152 65.0577 22.152 64.4497 22.056ZM79.3414 12.024C78.5734 12.024 77.9494 11.4 77.9494 10.632C77.9494 9.848 78.5734 9.24 79.3414 9.24C80.1254 9.24 80.7494 9.848 80.7494 10.632C80.7494 11.4 80.1254 12.024 79.3414 12.024ZM78.2854 22.04C78.2054 21.32 78.2054 13.912 78.2854 13.176C78.7494 13.096 79.9334 13.096 80.4134 13.176C80.4934 13.912 80.4934 21.32 80.4134 22.04C79.8854 22.152 78.7174 22.152 78.2854 22.04ZM87.9673 20.152C88.0473 20.52 88.0473 21.752 87.9673 22.12C87.6953 22.152 87.4393 22.168 87.0553 22.152C84.8633 22.056 83.7593 20.872 83.7593 18.392V15.064C83.0233 15.064 82.4473 15.064 82.3513 15.048C82.2553 14.888 82.2553 13.432 82.3513 13.16C82.3993 13.144 82.9913 13.128 83.7753 13.128C83.7913 11.896 83.7913 11 83.7913 10.776C84.2553 10.68 85.4873 10.68 85.9513 10.76C85.9513 11.08 85.9673 12.008 85.9673 13.128C86.8953 13.128 87.7113 13.144 87.9673 13.16C88.0313 13.368 88.0313 14.744 87.9673 15.032C87.7273 15.048 86.9113 15.064 85.9833 15.064V18.472C85.9833 19.64 86.3513 20.088 87.1673 20.152C87.4393 20.168 87.7113 20.168 87.9673 20.152ZM97.415 17.192C97.431 18.952 97.415 20.92 97.383 22.04C97.031 22.168 95.671 22.168 95.223 22.04C95.207 21.384 95.223 18.264 95.223 17.352C95.223 15.816 94.855 14.984 93.799 14.984C92.807 14.984 92.247 15.944 92.263 17.496C92.263 19.816 92.247 21.784 92.215 22.04C91.799 22.136 90.647 22.136 90.103 22.04C90.023 21.4 90.023 9.944 90.103 9.304C90.583 9.208 91.751 9.208 92.215 9.304C92.247 9.56 92.263 11.544 92.263 13.864C92.791 13.352 93.463 13.096 94.215 13.096C96.183 13.096 97.415 14.312 97.415 17.192ZM115.581 14.328C115.645 14.616 115.645 16.04 115.581 16.328C115.261 16.36 114.621 16.376 113.997 16.376C113.997 19.32 113.981 22.072 113.933 22.44C113.565 22.552 112.301 22.552 111.805 22.44C111.725 21.656 111.725 9.688 111.805 8.888C112.237 8.792 113.501 8.792 113.933 8.888C113.981 9.224 113.997 11.608 113.997 14.28C114.621 14.28 115.261 14.296 115.581 14.328ZM103.389 9.352C104.237 9.208 109.357 9.208 110.205 9.352C110.301 10.168 110.301 21.016 110.205 21.88C109.421 21.944 104.157 21.944 103.389 21.88C103.277 21.048 103.277 10.184 103.389 9.352ZM108.093 19.928C108.141 18.84 108.141 12.36 108.093 11.288C107.789 11.224 105.821 11.224 105.501 11.288C105.453 12.36 105.453 18.84 105.501 19.928C105.821 19.976 107.789 19.976 108.093 19.928ZM127.858 22.44C127.778 21.656 127.778 9.688 127.858 8.888C128.322 8.808 129.522 8.808 129.986 8.888C130.082 9.688 130.082 21.656 129.986 22.44C129.586 22.536 128.386 22.536 127.858 22.44ZM121.762 21.96C118.85 21.96 116.962 19.96 116.962 15.544C116.962 11.016 118.946 9.128 121.762 9.128C124.69 9.128 126.562 11.144 126.562 15.544C126.562 20.072 124.594 21.96 121.762 21.96ZM121.762 19.944C123.314 19.944 124.354 18.568 124.354 15.544C124.354 12.456 123.25 11.144 121.762 11.144C120.226 11.144 119.186 12.504 119.186 15.544C119.186 18.648 120.29 19.944 121.762 19.944ZM137.702 18.408C137.19 18.296 135.99 17.864 135.718 17.56C136.438 15.784 138.934 10.568 139.766 9C140.134 8.952 141.206 8.952 141.59 9C142.422 10.568 144.918 15.784 145.622 17.56C145.366 17.864 144.15 18.296 143.654 18.408C143.222 17.576 141.078 12.904 140.678 11.928C140.262 12.904 138.134 17.576 137.702 18.408ZM135.686 22.28C135.59 21.768 135.59 20.808 135.686 20.312C136.23 20.248 144.982 20.264 145.654 20.312C145.766 20.824 145.766 21.8 145.654 22.28C144.982 22.328 136.23 22.328 135.686 22.28ZM154.816 22.44C154.752 21.656 154.752 9.688 154.816 8.888C155.296 8.808 156.496 8.808 156.944 8.888C157.024 9.688 157.024 21.656 156.944 22.44C156.544 22.536 155.344 22.536 154.816 22.44ZM147.888 21.768C147.792 21.096 147.792 9.976 147.888 9.32C148.384 9.272 149.504 9.272 150.048 9.32C150.064 10.376 150.064 18.664 150.048 19.704C150.784 19.704 152.896 19.704 153.616 19.72C153.664 20.104 153.664 21.384 153.616 21.768C152.8 21.832 148.688 21.832 147.888 21.768ZM169.754 8.888C169.85 9.688 169.85 21.656 169.754 22.44C169.37 22.536 168.17 22.536 167.642 22.44C167.61 22.056 167.578 19.112 167.578 16.056H165.466C165.466 18.856 165.45 21.544 165.434 21.88C164.906 21.944 163.802 21.944 163.258 21.88C163.242 21.416 163.242 19.368 163.242 17.192C161.818 17.208 159.898 17.192 159.354 17.144C159.258 16.856 159.258 15.496 159.354 15.208C159.898 15.176 161.818 15.16 163.242 15.176C163.242 13.336 163.242 11.736 163.258 11.32C162.282 11.336 160.298 11.336 159.578 11.32C159.514 10.952 159.514 9.736 159.578 9.352C160.458 9.288 164.698 9.304 165.434 9.352C165.45 9.656 165.466 11.688 165.466 14.024C166.074 14.008 166.922 14.008 167.578 14.024C167.594 11.448 167.61 9.224 167.642 8.888C168.09 8.808 169.306 8.808 169.754 8.888Z" fill="#568EFF"/>
</svg>
