<svg width="554" height="83" viewBox="0 0 554 83" fill="none" xmlns="http://www.w3.org/2000/svg">
<path d="M27.473 55.238C12.118 55.238 2.407 45.527 2.407 32.413C2.407 19.299 12.118 9.588 27.473 9.588C42.828 9.588 52.539 19.299 52.539 32.413C52.539 45.527 42.828 55.238 27.473 55.238ZM27.473 22.37C20.999 22.37 16.6 26.105 16.6 32.413C16.6 38.721 20.999 42.456 27.473 42.456C33.947 42.456 38.346 38.721 38.346 32.413C38.346 26.105 33.947 22.37 27.473 22.37ZM52.705 67.605C53.286 70.925 53.369 77.316 52.705 80.304C48.555 80.636 5.561 80.636 2.158 80.304C1.577 77.067 1.577 70.759 2.158 67.605C3.486 67.439 11.288 67.356 20.335 67.356C20.252 64.202 20.335 60.799 20.418 58.309C23.406 57.894 31.706 57.894 34.611 58.309C34.694 60.799 34.777 64.202 34.694 67.356C43.492 67.356 51.045 67.439 52.705 67.605ZM67.2723 79.308C63.5539 79.308 60.5659 76.3864 60.5659 72.668C60.5659 68.9496 63.5539 66.028 67.2723 66.028C70.9907 66.028 73.9787 68.9496 73.9787 72.668C73.9787 76.3864 70.9907 79.308 67.2723 79.308ZM117.859 65.115C118.108 67.937 118.108 75.988 117.859 78.644C113.211 79.059 89.1407 79.059 82.9157 78.644C82.4177 70.344 82.4177 21.623 82.9157 13.323C90.2197 12.825 111.053 12.908 116.78 13.406C117.029 16.062 117.029 24.86 116.78 26.686C113.792 26.769 100.512 26.852 97.2747 26.686V38.389C104.828 38.389 114.207 38.555 115.618 38.721C115.95 41.46 115.95 49.345 115.618 52.084C113.46 52.25 103.998 52.25 97.2747 52.25V65.115C100.512 64.949 114.871 65.032 117.859 65.115ZM132.421 79.308C128.702 79.308 125.714 76.3864 125.714 72.668C125.714 68.9496 128.702 66.028 132.421 66.028C136.139 66.028 139.127 68.9496 139.127 72.668C139.127 76.3864 136.139 79.308 132.421 79.308ZM193.514 58.44C188.874 58.68 149.754 58.68 145.914 58.44C145.434 55.56 145.434 49.64 145.914 46.68C147.434 46.52 154.714 46.44 163.114 46.44V43.56C153.194 41.96 147.434 36.76 147.434 27.88C147.434 17.08 155.914 11.72 170.074 11.72C184.234 11.72 192.794 17 192.794 27.88C192.794 36.84 186.954 42.04 176.874 43.56V46.44C184.874 46.44 191.754 46.52 193.514 46.68C193.914 49.8 193.994 55.64 193.514 58.44ZM217.274 31.16C217.674 32.92 217.674 41.4 217.274 43.08C215.914 43.24 213.194 43.4 210.394 43.4C210.394 53.08 210.234 61.72 209.994 63.4C207.674 63.72 199.834 63.72 196.714 63.4C196.394 59.48 196.394 16.44 196.714 12.44C199.434 11.96 207.274 11.96 209.994 12.44C210.234 14.04 210.314 21.8 210.394 30.84C213.194 30.84 215.914 31 217.274 31.16ZM160.874 27.88C160.874 31.32 163.754 33.08 170.074 33.08C176.474 33.08 179.354 31.4 179.354 27.88C179.354 24.44 176.474 22.68 170.074 22.68C163.754 22.68 160.874 24.44 160.874 27.88ZM163.114 68.92C166.794 68.76 207.274 68.76 210.794 68.92C211.274 71.56 211.274 78.44 210.794 81C205.354 81.32 155.274 81.32 149.514 81C149.194 75.8 149.114 67 149.514 61.48C152.234 61 160.314 61 163.114 61.48C163.194 64.04 163.274 66.84 163.114 68.92Z" fill="#568EFF"/>
<path d="M246.519 70.5402C245.119 68.1902 237.219 47.4902 236.369 44.7402C237.569 43.9902 241.419 42.7402 242.819 42.4902C243.819 44.7902 248.219 56.4902 250.419 62.9402C252.769 56.2402 256.269 45.4402 257.119 43.3902C258.769 43.2402 261.219 43.2402 262.819 43.3902C263.669 45.4402 267.169 56.2402 269.519 62.9902C271.719 56.4902 276.169 44.7902 277.119 42.4902C278.519 42.7902 282.369 43.9902 283.569 44.7402C282.719 47.4902 274.819 68.1902 273.419 70.5402C271.519 70.8402 267.469 70.8402 265.669 70.4902C264.869 68.6402 261.969 60.5402 259.969 54.5402C257.969 60.5402 255.069 68.6402 254.269 70.4902C252.469 70.8402 248.419 70.8402 246.519 70.5402ZM290.555 39.1902C288.155 39.1902 286.205 37.2402 286.205 34.8402C286.205 32.3902 288.155 30.4902 290.555 30.4902C293.005 30.4902 294.955 32.3902 294.955 34.8402C294.955 37.2402 293.005 39.1902 290.555 39.1902ZM287.255 70.4902C287.005 68.2402 287.005 45.0902 287.255 42.7902C288.705 42.5402 292.405 42.5402 293.905 42.7902C294.155 45.0902 294.155 68.2402 293.905 70.4902C292.255 70.8402 288.605 70.8402 287.255 70.4902ZM315.011 64.5902C315.261 65.7402 315.261 69.5902 315.011 70.7402C314.161 70.8402 313.361 70.8902 312.161 70.8402C305.311 70.5402 301.861 66.8402 301.861 59.0902V48.6902C299.561 48.6902 297.761 48.6902 297.461 48.6402C297.161 48.1402 297.161 43.5902 297.461 42.7402C297.611 42.6902 299.461 42.6402 301.911 42.6402C301.961 38.7902 301.961 35.9902 301.961 35.2902C303.411 34.9902 307.261 34.9902 308.711 35.2402C308.711 36.2402 308.761 39.1402 308.761 42.6402C311.661 42.6402 314.211 42.6902 315.011 42.7402C315.211 43.3902 315.211 47.6902 315.011 48.5902C314.261 48.6402 311.711 48.6902 308.811 48.6902V59.3402C308.811 62.9902 309.961 64.3902 312.511 64.5902C313.361 64.6402 314.211 64.6402 315.011 64.5902ZM342.035 55.3402C342.085 60.8402 342.035 66.9902 341.935 70.4902C340.835 70.8902 336.585 70.8902 335.185 70.4902C335.135 68.4402 335.185 58.6902 335.185 55.8402C335.185 51.0402 334.035 48.4402 330.735 48.4402C327.635 48.4402 325.885 51.4402 325.935 56.2902C325.935 63.5402 325.885 69.6902 325.785 70.4902C324.485 70.7902 320.885 70.7902 319.185 70.4902C318.935 68.4902 318.935 32.6902 319.185 30.6902C320.685 30.3902 324.335 30.3902 325.785 30.6902C325.885 31.4902 325.935 37.6902 325.935 44.9402C327.585 43.3402 329.685 42.5402 332.035 42.5402C338.185 42.5402 342.035 46.3402 342.035 55.3402ZM393.805 46.3902C394.005 47.2902 394.005 51.7402 393.805 52.6402C392.805 52.7402 390.805 52.7902 388.855 52.7902C388.855 61.9902 388.805 70.5902 388.655 71.7402C387.505 72.0902 383.555 72.0902 382.005 71.7402C381.755 69.2902 381.755 31.8902 382.005 29.3902C383.355 29.0902 387.305 29.0902 388.655 29.3902C388.805 30.4402 388.855 37.8902 388.855 46.2402C390.805 46.2402 392.805 46.2902 393.805 46.3902ZM355.705 30.8402C358.355 30.3902 374.355 30.3902 377.005 30.8402C377.305 33.3902 377.305 67.2902 377.005 69.9902C374.555 70.1902 358.105 70.1902 355.705 69.9902C355.355 67.3902 355.355 33.4402 355.705 30.8402ZM370.405 63.8902C370.555 60.4902 370.555 40.2402 370.405 36.8902C369.455 36.6902 363.305 36.6902 362.305 36.8902C362.155 40.2402 362.155 60.4902 362.305 63.8902C363.305 64.0402 369.455 64.0402 370.405 63.8902ZM429.668 71.7402C429.418 69.2902 429.418 31.8902 429.668 29.3902C431.118 29.1402 434.868 29.1402 436.318 29.3902C436.618 31.8902 436.618 69.2902 436.318 71.7402C435.068 72.0402 431.318 72.0402 429.668 71.7402ZM410.618 70.2402C401.518 70.2402 395.618 63.9902 395.618 50.1902C395.618 36.0402 401.818 30.1402 410.618 30.1402C419.768 30.1402 425.618 36.4402 425.618 50.1902C425.618 64.3402 419.468 70.2402 410.618 70.2402ZM410.618 63.9402C415.468 63.9402 418.718 59.6402 418.718 50.1902C418.718 40.5402 415.268 36.4402 410.618 36.4402C405.818 36.4402 402.568 40.6902 402.568 50.1902C402.568 59.8902 406.018 63.9402 410.618 63.9402ZM455.432 59.1402C453.832 58.7902 450.082 57.4402 449.232 56.4902C451.482 50.9402 459.282 34.6402 461.882 29.7402C463.032 29.5902 466.382 29.5902 467.582 29.7402C470.182 34.6402 477.982 50.9402 480.182 56.4902C479.382 57.4402 475.582 58.7902 474.032 59.1402C472.682 56.5402 465.982 41.9402 464.732 38.8902C463.432 41.9402 456.782 56.5402 455.432 59.1402ZM449.132 71.2402C448.832 69.6402 448.832 66.6402 449.132 65.0902C450.832 64.8902 478.182 64.9402 480.282 65.0902C480.632 66.6902 480.632 69.7402 480.282 71.2402C478.182 71.3902 450.832 71.3902 449.132 71.2402ZM506.414 71.7402C506.214 69.2902 506.214 31.8902 506.414 29.3902C507.914 29.1402 511.664 29.1402 513.064 29.3902C513.314 31.8902 513.314 69.2902 513.064 71.7402C511.814 72.0402 508.064 72.0402 506.414 71.7402ZM484.764 69.6402C484.464 67.5402 484.464 32.7902 484.764 30.7402C486.314 30.5902 489.814 30.5902 491.514 30.7402C491.564 34.0402 491.564 59.9402 491.514 63.1902C493.814 63.1902 500.414 63.1902 502.664 63.2402C502.814 64.4402 502.814 68.4402 502.664 69.6402C500.114 69.8402 487.264 69.8402 484.764 69.6402ZM550.596 29.3902C550.896 31.8902 550.896 69.2902 550.596 71.7402C549.396 72.0402 545.646 72.0402 543.996 71.7402C543.896 70.5402 543.796 61.3402 543.796 51.7902H537.196C537.196 60.5402 537.146 68.9402 537.096 69.9902C535.446 70.1902 531.996 70.1902 530.296 69.9902C530.246 68.5402 530.246 62.1402 530.246 55.3402C525.796 55.3902 519.796 55.3402 518.096 55.1902C517.796 54.2902 517.796 50.0402 518.096 49.1402C519.796 49.0402 525.796 48.9902 530.246 49.0402C530.246 43.2902 530.246 38.2902 530.296 36.9902C527.246 37.0402 521.046 37.0402 518.796 36.9902C518.596 35.8402 518.596 32.0402 518.796 30.8402C521.546 30.6402 534.796 30.6902 537.096 30.8402C537.146 31.7902 537.196 38.1402 537.196 45.4402C539.096 45.3902 541.746 45.3902 543.796 45.4402C543.846 37.3902 543.896 30.4402 543.996 29.3902C545.396 29.1402 549.196 29.1402 550.596 29.3902Z" fill="#00A76F"/>
</svg>
