<svg width="97" height="68" viewBox="0 0 97 68" fill="none" xmlns="http://www.w3.org/2000/svg">
<g clip-path="url(#clip0_9581_15748)">
<path d="M88.0922 53.4285L88.0663 53.4277C88.0947 53.3217 88.1227 53.2171 88.1496 53.1168C88.1668 53.0524 88.1841 52.9879 88.2018 52.922C88.7748 50.7834 86.279 49.2549 82.5007 46.9421C81.9859 46.6261 81.4482 46.2978 80.8939 45.9512C75.7742 42.7585 65.4749 36.5967 63.0248 35.1326C62.7751 31.6988 58.4872 25.769 55.8186 22.3841C51.3672 16.7375 46.3339 11.6904 42.9947 9.52904C41.7229 8.70466 39.8717 7.70811 38.4936 8.56555C37.1214 9.41841 36.8055 11.4924 37.5273 14.9083C37.7425 15.924 38.0127 16.8946 38.2461 17.6587C36.2135 17.6545 33.595 18.0813 30.3626 18.9347C28.7844 19.3516 27.2687 19.816 25.9557 20.2472C24.7231 18.4906 24.8656 16.4731 25.0042 14.5159C25.1493 12.4714 25.2991 10.3575 23.4634 9.19934C22.952 8.87653 22.3863 8.71574 21.7945 8.72144C21.8205 6.01404 20.421 2.50552 17.775 1.58315C16.376 1.0962 14.9289 1.59738 14.1728 2.83026C13.4136 4.06848 13.4076 6.04737 15.1065 7.67555C15.8758 8.4129 16.1793 9.13904 16.0332 9.89669C15.9986 10.0717 15.9434 10.2319 15.8831 10.3708C15.8699 10.3857 15.8577 10.4024 15.8445 10.4173C10.7427 17.3008 9.5161 24.9249 9.36067 26.0271C8.55799 26.9803 7.84937 28.2137 7.24168 29.7243C6.47546 31.6315 6.12331 33.3703 6.03962 33.8146C3.97101 34.3979 2.23915 36.048 1.63502 38.3026C0.730738 41.6774 2.68599 45.143 5.99193 46.0288L13.3711 48.006C14.1987 48.2278 15.0762 48.0223 15.7176 47.4587L16.6604 46.6305L16.9976 47.7357C17.2577 48.5838 17.9234 49.2258 18.7797 49.4552L36.6676 54.2483C36.6676 54.2483 36.6734 54.2498 36.6762 54.2506C40.7696 55.3474 50.1833 57.8668 50.3454 57.9102C50.7169 58.0097 51.114 57.9043 51.3869 57.6319L51.9592 57.0622L52.1774 57.8253C52.2836 58.1977 52.5781 58.487 52.9584 58.5766C59.1403 60.0887 64.6432 60.9905 69.3171 61.2572C69.7136 61.2806 70.0911 61.0823 70.2988 60.7434L70.5508 60.3304L70.8151 60.7958C71.0055 61.1293 71.3586 61.3375 71.7431 61.3423C87.2796 61.4982 88.0694 53.7602 88.0947 53.4307L88.0922 53.4285ZM39.6372 14.4635C39.0237 11.5555 39.4115 10.5556 39.6241 10.3991C39.7079 10.3847 40.7393 10.2758 43.8792 12.8658C45.0726 13.8503 46.402 15.0909 47.7787 16.493C45.8792 17.0019 43.971 17.8985 42.4024 18.7616C41.9304 18.3773 41.3286 18.0932 40.5923 17.9097C40.3486 17.1842 39.9326 15.8568 39.6372 14.4635ZM30.9149 21.0156C35.4394 19.8206 38.0023 19.6814 39.4495 19.8742C39.5516 19.9061 39.659 19.9242 39.7681 19.9242C39.9494 19.959 40.1112 19.9977 40.252 20.0401C39.3894 20.5919 38.8393 20.9926 38.7682 21.0457C38.288 21.3976 38.1858 22.0718 38.5398 22.552C38.6909 22.7568 38.9004 22.8928 39.1285 22.9539C39.434 23.0358 39.7723 22.9836 40.0465 22.7807C40.1001 22.7414 45.2674 18.9751 49.5208 18.3216C50.6144 19.5066 51.7162 20.7645 52.7798 22.0504C51.0329 22.5173 49.2781 23.3521 47.8565 24.1426C46.8298 23.1383 45.8776 22.1938 45.0563 21.375C44.3466 21.7175 43.67 22.0797 43.0617 22.428C43.8841 23.2486 44.8691 24.2311 45.9489 25.2896C45.27 25.7295 44.8406 26.0412 44.7812 26.0852C44.301 26.4371 44.1988 27.1113 44.5513 27.5911C44.7025 27.7959 44.912 27.9319 45.14 27.993C45.4455 28.0748 45.7838 28.0227 46.0595 27.8202C46.1054 27.7864 50.5946 24.5201 54.2903 23.9229C54.6261 24.3506 54.9553 24.7797 55.2775 25.2068C55.9132 26.0527 56.4846 26.846 56.9971 27.5898C55.6581 27.9572 54.3187 28.5671 53.1796 29.1753C52.3049 28.3836 51.4174 27.5594 50.5469 26.735C49.8241 27.0802 49.1423 27.4503 48.5398 27.8001C49.4237 28.6433 50.3302 29.4942 51.2328 30.3195C50.5776 30.7396 50.1594 31.0436 50.1059 31.083C49.6257 31.4349 49.5231 32.1105 49.8775 32.5893C50.0286 32.7941 50.2377 32.9315 50.4658 32.9926C50.7713 33.0745 51.1114 33.0213 51.3852 32.8198C51.4239 32.7903 55.1308 30.0912 58.2633 29.5073C59.9 32.1137 60.6621 33.9223 60.8397 34.9632C60.2405 34.7443 58.892 34.0283 56.1012 31.7191C55.352 32.0312 54.6281 32.3976 53.9851 32.755C58.8798 36.9252 60.5971 37.3546 61.6105 37.181C61.7637 37.1544 61.9074 37.1116 62.043 37.0527C64.6971 38.639 74.731 44.6438 79.753 47.7765C80.3131 48.1246 80.8553 48.4587 81.3759 48.7763C82.9672 49.7508 84.3406 50.5917 85.2264 51.3188C86.1158 52.0499 86.1208 52.3583 86.12 52.3612C86.1008 52.4328 86.082 52.503 86.0636 52.5717C85.8843 53.2637 85.8146 53.4722 85.4382 53.6723C84.7387 54.0453 83.2494 54.2281 80.8817 54.2293C80.7218 54.2294 80.5446 54.231 80.3508 54.2313C77.8857 54.2463 72.757 54.2769 65.6129 52.6789C63.5823 52.2254 61.5472 51.6739 59.5093 51.0296L47.8681 37.5011C46.4815 35.8891 44.4678 34.8905 42.3425 34.7617L32.9823 34.1942C30.0404 30.7161 26.5623 26.6061 23.7513 23.2936C25.3007 22.7262 28.0269 21.777 30.9167 21.0146L30.9149 21.0156ZM39.916 41.9245C39.8868 41.9013 39.8559 41.8792 39.8213 41.8592L39.0499 41.3762C38.602 40.8447 37.0145 38.967 34.9042 36.4701L42.2119 36.9129C43.7579 37.0063 45.2218 37.7332 46.231 38.9064L55.4528 49.6233C50.2587 47.6604 45.0621 45.0874 39.9145 41.9241L39.916 41.9245ZM28.8314 34.9872C28.8211 34.9799 28.8086 34.975 28.7978 34.969C24.7604 30.6002 20.89 27.145 19.6678 26.1359C16.9292 23.8729 14.3923 23.1517 12.1271 23.9925C12.0691 24.0138 12.0114 24.0398 11.9527 24.064C12.4717 21.9032 13.5076 18.5192 15.4405 15.0346C15.6323 16.3096 16.1135 17.6806 17.1416 18.8634C18.7999 20.7693 27.5842 31.1511 33.068 37.6377L28.831 34.9887L28.8314 34.9872ZM22.3119 11.0187C23.0219 11.4669 22.9824 12.5264 22.8538 14.3603C22.713 16.343 22.5456 18.7347 23.8561 20.9635C23.1935 21.1989 22.6507 21.4004 22.2676 21.545C20.592 19.5715 19.3074 18.0666 18.7691 17.448C18.0969 16.6752 17.7566 15.7535 17.6013 14.8644C18.4945 13.4011 20.2025 11.238 21.5329 10.9082C21.8341 10.8339 22.0745 10.866 22.3123 11.0172L22.3119 11.0187ZM16.5987 6.1225C15.7659 5.32363 15.7038 4.45952 16.0121 3.95719C16.1457 3.73967 16.4585 3.40434 17.0654 3.61763C18.9468 4.27221 19.944 7.65296 19.5667 9.48015C19.0187 9.83844 18.5002 10.2936 18.029 10.7784C18.0643 10.6697 18.0957 10.5583 18.1228 10.4397C18.3653 9.36857 18.298 7.74925 16.5991 6.12107L16.5987 6.1225ZM12.8789 26.0117C14.3689 25.4591 16.1911 26.0594 18.2931 27.7956C20.0841 29.275 25.1877 33.9679 29.5303 39.0281C31.2034 40.9763 32.4991 42.6638 33.5003 44.125L9.41661 33.8443C9.36977 33.8241 9.32177 33.8082 9.27157 33.7947C8.94169 33.7063 8.61131 33.6485 8.28158 33.617C8.78693 31.3466 10.2549 26.9867 12.8785 26.0132L12.8789 26.0117ZM35.3672 51.6722L19.338 47.3772C19.2075 47.3422 19.1012 47.24 19.0608 47.1094L18.6334 45.7099C18.4383 45.0727 17.9379 44.5824 17.2966 44.3998C16.6567 44.2176 15.9713 44.3717 15.4707 44.8118L14.2932 45.8442C14.1941 45.9328 14.0582 45.964 13.9291 45.9294L6.5499 43.9521C4.39279 43.3741 3.12281 41.0917 3.71926 38.8657C4.31572 36.6397 6.5073 35.3278 8.64322 35.8587L35.4069 47.2842C36.6429 49.7049 36.774 51.1663 36.6189 52.0091C35.9004 51.8166 35.4414 51.6936 35.3726 51.6751L35.3639 51.6728L35.3672 51.6722ZM72.3798 59.19L72.0393 58.5906C71.7393 58.0635 71.1965 57.743 70.5905 57.7326C69.9828 57.7233 69.4325 58.0272 69.1156 58.5441L68.7954 59.0679C64.548 58.7757 59.6037 57.9575 54.08 56.634L53.9372 56.1398C53.7469 55.4732 53.2345 54.9705 52.5661 54.7914L52.5518 54.7875C51.8761 54.6126 51.1772 54.8 50.6825 55.2923L50.3028 55.6711C48.4125 55.1646 42.5015 53.5823 38.7061 52.5668C39.1124 50.7351 38.5316 48.4393 36.9262 45.5557C36.0615 44.0037 34.8989 42.2843 33.4524 40.4198L37.6908 43.0693C37.7199 43.0924 37.7477 43.1152 37.7794 43.1345C45.8285 48.2052 54.0147 51.8694 62.154 54.0504C63.1508 54.3175 64.1458 54.5626 65.1408 54.7847C72.5233 56.4343 77.818 56.4037 80.3631 56.3886C80.554 56.3875 80.7265 56.3862 80.8832 56.3867C82.1163 56.3855 83.1262 56.3398 83.9627 56.2416C81.0624 58.6148 76.1894 59.1714 72.3784 59.1896L72.3798 59.19Z" fill="white"/>
</g>
<defs>
<clipPath id="clip0_9581_15748">
<rect width="87.4736" height="45.9913" fill="white" transform="translate(11.8984) rotate(15)"/>
</clipPath>
</defs>
</svg>
