<svg width="573" height="88" viewBox="0 0 573 88" fill="none" xmlns="http://www.w3.org/2000/svg">
<path d="M73.3986 33.72C73.2386 32.36 73.1586 18.4 73.2786 8.64C71.7186 8.72 70.4786 8.68 69.0386 8.64C68.9586 7.32 68.9186 4 69.0386 2.28C70.4386 2.04 78.7986 2.04 80.1586 2.28C80.3986 4.28 80.3986 31.76 80.1586 33.72C78.9586 33.96 74.9586 33.96 73.3986 33.72ZM103.623 16.76C103.423 15.56 103.423 12.36 103.623 11.16C104.303 11.12 105.783 11.08 107.303 11.08V8.52C105.783 8.52 104.303 8.48 103.623 8.44C103.423 7.24 103.423 4.04 103.623 2.84C104.343 2.8 105.823 2.76 107.343 2.76C107.383 1.8 107.383 1.08 107.423 0.719999C108.783 0.48 112.623 0.48 113.983 0.719999C114.263 2.72 114.263 17.08 113.983 19.08C112.823 19.24 108.983 19.24 107.423 19.08C107.383 18.72 107.383 17.92 107.343 16.84C105.823 16.84 104.343 16.8 103.623 16.76ZM101.943 18.08C100.023 18.28 86.343 18.28 84.423 18.08C84.143 16.16 84.143 3.2 84.423 1.24C86.543 0.999998 99.823 0.999998 101.943 1.24C102.223 3.2 102.223 16.16 101.943 18.08ZM90.983 6.88C90.863 8.12 90.863 11.2 90.983 12.48C92.543 12.56 93.983 12.56 95.423 12.48C95.543 11.2 95.543 8.12 95.423 6.88C93.943 6.84 92.383 6.8 90.983 6.88ZM99.623 19.68C110.423 19.68 114.583 22.48 114.583 27.68C114.583 32.88 110.423 35.68 99.623 35.68C88.823 35.68 84.663 32.88 84.663 27.68C84.663 22.48 88.823 19.68 99.623 19.68ZM99.623 29.96C106.023 29.96 107.623 29.16 107.623 27.68C107.623 26.2 106.023 25.4 99.623 25.4C93.223 25.4 91.623 26.2 91.623 27.68C91.623 29.16 93.223 29.96 99.623 29.96ZM143.384 34.6C143.144 32.68 143.144 2.72 143.384 0.719999C144.784 0.48 148.704 0.48 150.064 0.719999C150.344 2.72 150.344 32.64 150.064 34.6C148.864 34.88 144.944 34.88 143.384 34.6ZM129.184 23.68C121.984 23.68 117.104 19.2 117.104 12.24C117.104 5.28 121.984 0.799998 129.184 0.799998C136.344 0.799998 141.264 5.24 141.264 12.24C141.264 19.2 136.384 23.68 129.184 23.68ZM129.184 17.56C132.384 17.56 134.544 15.64 134.544 12.24C134.544 8.8 132.384 6.92 129.184 6.92C125.984 6.92 123.824 8.8 123.824 12.24C123.824 15.64 125.984 17.56 129.184 17.56ZM116.824 33.32C116.584 31.76 116.584 28.68 116.824 27.16C118.744 26.96 139.504 27 141.824 27.16C142.024 28.76 142.064 31.88 141.824 33.32C139.504 33.44 118.744 33.44 116.824 33.32ZM173.915 18.52C164.755 18.52 160.235 15.08 160.235 9.48C160.235 3.88 164.755 0.439998 173.915 0.439998C183.075 0.439998 187.595 3.88 187.595 9.48C187.595 15.08 183.075 18.52 173.915 18.52ZM173.915 6.28C168.995 6.28 167.115 7.56 167.115 9.48C167.115 11.4 168.995 12.68 173.915 12.68C178.835 12.68 180.715 11.4 180.715 9.48C180.715 7.56 178.835 6.28 173.915 6.28ZM188.115 20.16C188.395 21.76 188.435 24.8 188.115 26.24C187.315 26.32 182.675 26.36 177.395 26.36C177.395 29.56 177.395 33.52 177.275 34.8C176.075 35.04 172.155 35.04 170.595 34.8C170.475 33.52 170.475 29.56 170.475 26.36C165.115 26.36 160.475 26.32 159.755 26.24C159.475 24.68 159.475 21.68 159.755 20.16C161.395 19.96 186.115 20 188.115 20.16ZM195.904 17.88C194.304 17.24 191.384 15.16 190.384 13.96C193.024 10.16 197.504 3.96 200.064 0.879999C201.424 0.719999 205.024 0.719999 206.384 0.879999C208.944 3.96 213.384 10.16 216.064 13.92C215.064 15.12 212.144 17.24 210.544 17.88C209.104 16.28 204.824 10.08 203.224 7.64C201.624 10.08 197.344 16.28 195.904 17.88ZM216.184 18.96C216.464 20.56 216.504 23.6 216.184 25.04C215.384 25.12 211.344 25.16 206.664 25.16C206.704 28.56 206.664 33.4 206.544 34.8C205.344 35.04 201.424 35.04 199.864 34.8C199.744 33.4 199.704 28.56 199.744 25.16C195.024 25.16 190.904 25.12 190.224 25.04C189.944 23.48 189.944 20.48 190.224 18.96C191.864 18.76 214.184 18.8 216.184 18.96ZM256.346 0.719999C256.586 2.72 256.586 32.64 256.346 34.6C255.146 34.88 251.346 34.88 249.786 34.6C249.666 32.64 249.666 2.72 249.786 0.719999C251.146 0.48 254.986 0.48 256.346 0.719999ZM240.986 0.879999C242.346 0.639997 246.066 0.639997 247.426 0.879999C247.586 2.88 247.586 32.08 247.426 34.08C246.226 34.32 242.506 34.32 240.986 34.08C240.906 33.16 240.866 26.36 240.866 19.16H237.946C237.946 26.04 237.866 32.52 237.786 33.28C236.186 33.4 232.746 33.4 231.106 33.28C231.026 30.6 231.026 10.84 231.106 8.16C229.466 8.24 226.626 8.24 224.826 8.16C224.666 7 224.666 2.88 224.826 1.72C226.826 1.52 235.786 1.52 237.786 1.72C237.866 2.36 237.906 7.24 237.946 12.96C238.826 12.96 239.866 12.92 240.866 12.96C240.866 6.88 240.906 1.68 240.986 0.879999ZM282.929 34.6C282.689 32.64 282.689 2.72 282.929 0.719999C284.289 0.48 288.209 0.48 289.569 0.719999C289.849 2.72 289.849 32.64 289.569 34.6C288.409 34.88 284.489 34.88 282.929 34.6ZM264.609 33.52C263.129 33.4 259.329 32.24 258.169 31.56C258.409 29.8 264.889 7.28 266.729 1.68C268.009 1.48 271.889 1.48 273.169 1.68C275.009 7.2 281.609 29.36 282.009 31.16C280.929 31.8 277.169 33.04 275.569 33.2C275.089 32.16 272.409 22.36 270.049 13.4C267.769 22.6 265.089 32.44 264.609 33.52ZM306.89 9.6C306.89 8.84 306.85 7.84 306.89 6.64C305.09 6.76 295.49 6.76 293.69 6.64C293.53 5.64 293.53 2.52 293.69 1.24C295.73 0.919999 311.77 0.919999 313.53 1.24C313.69 2.92 313.69 8.72 313.53 9.6C311.89 9.8 308.57 9.8 306.89 9.6ZM292.41 16.36C292.21 14.56 292.21 12.4 292.41 10.76C294.45 10.64 312.45 10.64 314.93 10.76C315.09 12.48 315.13 14.64 314.93 16.36C312.45 16.52 294.45 16.52 292.41 16.36ZM293.41 35.6C293.17 33.16 293.17 26.6 293.41 24.2C297.37 24.16 303.49 24.2 307.13 24.2V22.92C303.45 22.96 297.25 22.96 293.25 22.92C293.05 21.04 293.05 19.6 293.25 17.84C295.69 17.72 311.37 17.72 313.81 17.84C314.13 20.12 314.09 27.24 313.81 28.72C310.29 28.8 303.29 28.72 300.25 28.72V30.04C303.09 30 310.69 30 314.61 30.04C314.85 31.44 314.85 34.16 314.61 35.6C311.17 35.8 296.85 35.8 293.41 35.6ZM350.579 12.48C348.099 12.52 344.699 12.48 343.659 12.4C343.499 11.56 343.499 7.24 343.659 6.36C344.699 6.2 348.139 6.16 350.619 6.24C350.619 3.44 350.659 1.28 350.699 0.719999C352.059 0.48 355.979 0.48 357.339 0.719999C357.619 2.72 357.619 23.56 357.339 25.56C356.179 25.72 352.259 25.72 350.699 25.56C350.619 24.56 350.579 18.44 350.579 12.48ZM333.979 10.2C332.179 15.04 329.739 20.76 329.179 21.84C327.779 21.6 324.059 20.16 322.939 19.36C323.419 17.48 329.539 3.16 330.499 1.24C331.819 1.16 335.739 1.16 337.059 1.24C338.059 3.12 345.059 17.72 345.659 19.6C344.579 20.44 340.979 22.08 339.579 22.36C338.819 21.32 335.979 14.96 333.979 10.2ZM357.739 28.28C357.979 29.64 357.979 33.24 357.739 34.56C355.019 34.72 328.379 34.72 325.499 34.56C325.339 31.84 325.299 25.76 325.499 23.36C326.859 23.12 330.899 23.12 332.299 23.36C332.339 24.68 332.379 27.2 332.299 28.28C334.139 28.2 355.979 28.2 357.739 28.28ZM386.304 13.96C384.664 13.96 382.864 13.92 381.624 13.88C381.424 12.16 381.464 9.52 381.624 8.12C382.824 8.04 384.624 8 386.264 8.04C386.304 4.6 386.344 1.56 386.424 0.719999C387.784 0.48 391.664 0.48 393.024 0.719999C393.304 2.72 393.304 17.48 393.024 19.48C391.864 19.64 387.984 19.64 386.424 19.48C386.344 18.8 386.304 16.6 386.304 13.96ZM366.704 19.76C365.304 19.6 361.664 18.08 360.624 17.36C360.984 15.96 363.064 10.96 364.664 7.48C362.744 7.48 361.344 7.44 360.824 7.4C360.624 6.52 360.624 2.12 360.824 1.28C363.144 0.959998 379.184 0.959998 381.224 1.28C381.424 2.04 381.424 6.36 381.224 7.4C380.624 7.44 379.144 7.44 377.264 7.48C379.064 10.68 381.264 14.96 381.704 16.32C380.744 17.24 377.264 19 375.824 19.32C374.944 18.04 372.464 13 370.904 9.56C369.584 13.08 367.504 18.4 366.704 19.76ZM377.464 20.08C389.464 20.08 393.624 22.88 393.624 27.88C393.624 32.88 389.464 35.68 377.464 35.68C365.464 35.68 361.304 32.88 361.304 27.88C361.304 22.88 365.464 20.08 377.464 20.08ZM377.464 29.96C385.064 29.96 386.664 29.16 386.664 27.88C386.664 26.6 385.064 25.8 377.464 25.8C369.864 25.8 368.264 26.6 368.264 27.88C368.264 29.16 369.864 29.96 377.464 29.96ZM430.328 13.72C430.528 14.6 430.528 19.12 430.328 20C429.648 20.08 428.288 20.12 426.888 20.12C426.888 27.2 426.808 33.72 426.688 34.6C425.528 34.88 421.608 34.88 420.048 34.6C419.808 32.64 419.808 2.72 420.048 0.719999C421.408 0.48 425.328 0.48 426.688 0.719999C426.808 1.56 426.888 7.16 426.888 13.56C428.288 13.56 429.648 13.64 430.328 13.72ZM417.208 7.88C416.568 7.92 414.888 7.92 412.768 7.96C414.648 15.4 418.328 30.12 418.568 31.68C417.488 32.24 413.728 33.2 412.168 33.28C411.648 31.96 408.408 18.08 406.728 10.36C405.168 18.28 402.248 32.2 401.728 33.64C400.288 33.64 396.488 32.8 395.288 32.16C395.408 30.68 398.768 15.68 400.608 7.96C398.568 7.96 396.968 7.92 396.448 7.88C396.248 7 396.248 2.56 396.448 1.72C398.768 1.4 415.168 1.4 417.208 1.72C417.408 2.48 417.408 6.84 417.208 7.88ZM467.592 0.719999C467.832 2.72 467.832 32.64 467.592 34.6C466.392 34.88 462.592 34.88 461.032 34.6C460.912 32.64 460.912 2.72 461.032 0.719999C462.392 0.48 466.232 0.48 467.592 0.719999ZM452.552 0.879999C453.912 0.639997 457.632 0.639997 458.992 0.879999C459.152 2.92 459.152 32.08 458.992 34.08C457.792 34.32 454.072 34.32 452.552 34.08C452.472 33.16 452.432 26.68 452.432 19.64H450.472C450.032 30.04 446.632 33.52 440.952 33.52C434.472 33.52 431.352 29.08 431.352 17.36C431.352 5.2 434.832 1.2 440.952 1.2C446.552 1.2 449.672 4.64 450.352 13.4C451.032 13.4 451.712 13.36 452.432 13.4C452.432 7.12 452.472 1.72 452.552 0.879999ZM440.952 27.12C442.792 27.12 443.872 25.12 443.872 17.36C443.872 9.36 442.632 7.6 440.952 7.6C439.112 7.6 438.032 9.6 438.032 17.36C438.032 25.4 439.232 27.12 440.952 27.12ZM501.619 24.84C500.339 25 496.579 25 495.139 24.84C495.099 22.92 495.099 2.48 495.139 0.719999C496.499 0.48 500.259 0.48 501.619 0.719999C501.899 2.48 501.899 22.92 501.619 24.84ZM477.219 7.88C475.579 7.96 472.339 7.96 470.539 7.88C470.379 6.72 470.379 2.76 470.539 1.6C472.339 1.4 481.699 1.4 483.699 1.6C483.779 2.2 483.819 4.6 483.859 7.48C484.819 7.48 485.859 7.48 486.779 7.52C486.819 4.12 486.859 1.44 486.899 0.879999C488.259 0.679999 491.859 0.679999 493.219 0.879999C493.339 2.56 493.339 22.76 493.219 24.68C492.059 24.92 488.459 24.92 486.899 24.68C486.819 23.76 486.779 18.76 486.779 13.56C485.859 13.6 484.819 13.6 483.819 13.6C483.819 16.44 483.779 18.8 483.699 19.4C482.099 19.52 478.859 19.52 477.219 19.4C477.139 16.72 477.139 10.56 477.219 7.88ZM502.019 28.28C502.259 29.64 502.259 33.24 502.019 34.56C499.299 34.72 475.059 34.72 472.179 34.56C472.019 31.84 471.979 24.2 472.179 21.8C473.539 21.56 477.579 21.56 478.979 21.8C479.019 23.12 479.059 27.2 478.979 28.28C480.819 28.2 500.259 28.2 502.019 28.28ZM7.22281 54.28C7.34281 55.4 7.34281 67.84 7.34281 79.28C8.90281 79.2 14.7828 79.24 16.2228 79.28C16.3828 80.84 16.3828 83.8 16.2228 85.72C13.4628 86 3.90281 85.96 0.382813 85.72C0.182813 82.68 0.142813 56.48 0.382813 54.28C1.94281 54 6.02281 54 7.22281 54.28ZM34.8094 85.92C24.0894 86.28 16.6894 81.44 16.6894 70C16.6894 58.56 24.0894 53.44 35.0094 54C35.2094 55.52 35.2094 59 35.0094 60.6C27.6494 60 23.6094 63.52 23.6094 70C23.6094 75.48 26.4894 78.88 31.7294 79.44V71.84C30.9694 71.92 29.8894 71.88 28.4494 71.84C28.3694 70.96 28.3694 67.12 28.4494 65.84C30.0094 65.6 34.7294 65.56 38.1294 65.8C38.3294 68.44 38.3694 83.44 38.1294 85.64C37.4094 85.8 36.0894 85.88 34.8094 85.92ZM47.4244 76.84C45.8644 76.52 41.9844 75.12 41.1444 74.2C43.0244 69.28 48.9844 56.28 50.7444 52.88C51.9044 52.76 55.3044 52.76 56.4644 52.88C58.2244 56.28 64.1844 69.28 66.0644 74.2C65.2644 75.12 61.3444 76.52 59.8244 76.84C58.9844 75.2 54.2644 64.16 53.6244 62.24C52.9444 64.16 48.2644 75.2 47.4244 76.84ZM41.0244 86.52C40.7444 84.96 40.7444 81.88 41.0244 80.36C42.6644 80.16 64.1844 80.2 66.1844 80.36C66.4644 81.96 66.5044 85.08 66.1844 86.52C64.1844 86.68 42.6644 86.68 41.0244 86.52ZM98.33 65.72C98.53 66.6 98.53 71.12 98.33 72C97.65 72.08 96.29 72.12 94.89 72.12C94.89 79.2 94.81 85.72 94.69 86.6C93.53 86.88 89.61 86.88 88.05 86.6C87.81 84.64 87.81 54.72 88.05 52.72C89.41 52.48 93.33 52.48 94.69 52.72C94.81 53.56 94.89 59.16 94.89 65.56C96.29 65.56 97.65 65.64 98.33 65.72ZM76.09 78.96C78.05 78.88 84.45 78.88 86.17 78.96C86.33 80 86.33 84 86.17 85.36C83.85 85.64 71.73 85.64 69.09 85.36C68.81 81.76 68.81 57.16 69.09 53.56C71.01 53.32 82.37 53.32 85.09 53.56C85.21 54.6 85.21 58.48 85.09 59.88C83.25 59.92 77.41 59.92 76.09 59.88C76.05 60.48 76.01 63.68 76.01 67.28C78.85 67.24 83.25 67.28 85.09 67.36C85.29 68.12 85.29 72.44 85.09 73.44C83.25 73.52 78.85 73.56 76.01 73.52C76.01 76.28 76.05 78.48 76.09 78.96ZM110.419 67.68C103.459 67.68 99.6191 64.72 99.6191 60.04C99.6191 55.36 103.459 52.4 110.419 52.4C117.379 52.4 121.219 55.36 121.219 60.04C121.219 64.72 117.379 67.68 110.419 67.68ZM123.379 67.56C123.179 65.6 123.179 54.72 123.379 52.72C124.739 52.48 128.619 52.48 129.979 52.72C130.259 54.72 130.259 65.6 129.979 67.56C128.819 67.72 124.939 67.72 123.379 67.56ZM110.419 62.24C113.459 62.24 114.659 61.32 114.659 60.04C114.659 58.76 113.459 57.84 110.419 57.84C107.379 57.84 106.179 58.76 106.179 60.04C106.179 61.32 107.379 62.24 110.419 62.24ZM101.339 87.16C101.099 84.6 101.099 77.88 101.339 75.44C105.299 75.36 119.659 75.4 123.299 75.44V74.12C119.619 74.2 105.179 74.2 101.179 74.12C100.979 72.32 100.979 70.72 101.179 68.92C103.619 68.76 127.539 68.76 129.979 68.92C130.299 71.24 130.259 78.72 129.979 80.16C126.459 80.28 111.219 80.2 108.179 80.16V81.48C111.019 81.4 126.859 81.4 130.779 81.48C131.019 82.92 131.019 85.72 130.779 87.16C127.339 87.4 104.779 87.4 101.339 87.16ZM161.66 52.72C161.94 54.72 161.94 84.64 161.66 86.6C160.5 86.88 156.58 86.88 155.02 86.6C154.9 85.64 154.86 78.12 154.86 70.4C153.1 70.4 151.26 70.36 150.42 70.28C150.18 69.4 150.18 65.04 150.42 64.16C151.26 64.04 153.14 64 154.86 64C154.86 58.28 154.94 53.48 155.02 52.72C156.38 52.48 160.3 52.48 161.66 52.72ZM140.58 79C142.38 78.88 148.98 78.88 150.74 79C150.94 80.32 150.94 84 150.74 85.32C147.98 85.52 136.42 85.52 133.7 85.32C133.46 83.12 133.46 67.72 133.7 65.52C135.5 65.4 140.02 65.4 141.9 65.52C142.02 64.2 142.02 61.04 141.9 59.84C140.02 59.92 135.26 59.92 133.38 59.84C133.18 58.08 133.18 55.16 133.38 53.52C135.14 53.4 146.94 53.4 148.7 53.52C148.86 55.72 148.86 69.48 148.7 71.68C146.94 71.8 142.86 71.8 140.58 71.68C140.5 73.04 140.5 77.6 140.58 79ZM183.537 74.44C176.137 74.44 171.457 69.76 171.457 63.44C171.457 57.12 176.137 52.44 183.537 52.44C190.937 52.44 195.617 57.12 195.617 63.44C195.617 69.76 190.937 74.44 183.537 74.44ZM183.537 58.6C180.417 58.6 178.297 60.4 178.297 63.44C178.297 66.48 180.417 68.28 183.537 68.28C186.657 68.28 188.777 66.48 188.777 63.44C188.777 60.4 186.657 58.6 183.537 58.6ZM195.697 80.4C195.977 82 196.017 85.08 195.697 86.52C193.697 86.68 172.977 86.68 171.337 86.52C171.057 84.96 171.057 81.92 171.337 80.4C171.977 80.32 175.737 80.28 180.097 80.28C180.057 78.76 180.097 77.12 180.137 75.92C181.577 75.72 185.577 75.72 186.977 75.92C187.017 77.12 187.057 78.76 187.017 80.28C191.257 80.28 194.897 80.32 195.697 80.4ZM223.581 75.28C221.661 75.48 201.101 75.52 198.821 75.28C198.581 71.96 198.621 56.96 198.821 53.32C199.981 53.12 204.101 53.12 205.461 53.32C205.501 54.56 205.501 56.4 205.501 58.48C208.381 58.4 214.021 58.4 216.901 58.44C216.901 56.4 216.901 54.52 216.941 53.32C218.381 53.12 222.301 53.12 223.581 53.32C223.781 56.92 223.781 72.68 223.581 75.28ZM216.901 64.48C214.021 64.52 208.381 64.52 205.501 64.48C205.501 66.88 205.461 68.8 205.461 69.24C206.341 69.32 216.061 69.32 216.941 69.24C216.941 68.8 216.901 66.88 216.901 64.48ZM224.581 80.4C224.861 82 224.901 85.08 224.581 86.52C222.581 86.68 199.461 86.68 197.821 86.52C197.541 84.96 197.541 81.92 197.821 80.4C199.461 80.2 222.581 80.24 224.581 80.4ZM263.528 52.72C263.768 54.72 263.768 84.64 263.528 86.6C262.328 86.88 258.528 86.88 256.968 86.6C256.848 84.64 256.848 54.72 256.968 52.72C258.328 52.48 262.168 52.48 263.528 52.72ZM248.528 52.88C249.888 52.64 253.608 52.64 254.968 52.88C255.128 54.92 255.128 84.08 254.968 86.08C253.768 86.32 250.048 86.32 248.528 86.08C248.448 85.12 248.408 77.88 248.408 70.36C246.888 70.36 245.408 70.32 244.528 70.28C244.328 69.44 244.328 64.72 244.528 63.84C245.408 63.8 246.888 63.8 248.408 63.8C248.448 58.24 248.448 53.64 248.528 52.88ZM245.768 59.88C245.168 59.92 243.888 59.92 242.248 59.96C243.128 67.32 244.808 83.28 244.728 84.8C243.488 85.28 239.728 85.6 238.288 85.4C238.008 83.96 236.728 69.88 236.088 61.96C235.488 69.88 234.248 84.04 233.888 85.52C232.488 85.68 228.688 85.36 227.488 84.84C227.408 83.28 229.088 67.28 230.008 59.96C228.488 59.96 227.368 59.92 226.928 59.88C226.728 59 226.728 54.56 226.928 53.72C229.248 53.4 243.728 53.4 245.768 53.72C245.968 54.48 245.968 58.84 245.768 59.88ZM274.576 65.6C271.776 65.64 268.336 65.6 267.016 65.48C266.816 64.12 266.816 61.76 267.016 60.44C268.336 60.4 271.776 60.36 274.576 60.4C274.576 59.84 274.616 59.32 274.616 58.8C272.776 58.84 269.296 58.84 267.496 58.8C267.296 57.24 267.296 54.76 267.496 53.24C269.496 53 279.176 53.04 281.176 53.24C281.256 53.92 281.336 55.68 281.336 57.72C282.576 57.72 284.016 57.68 285.256 57.72C285.256 55.48 285.296 53.52 285.376 52.72C286.736 52.48 290.616 52.48 291.976 52.72C292.256 54.72 292.256 65.4 291.976 67.68C290.816 67.84 286.936 67.84 285.376 67.68C285.296 66.96 285.256 65.48 285.256 63.68H281.336C281.296 65.36 281.256 66.8 281.176 67.4C279.576 67.6 276.256 67.6 274.616 67.4C274.616 66.8 274.576 66.2 274.576 65.6ZM292.776 81.72C293.016 83.08 293.016 85.8 292.776 87.16C289.336 87.4 271.576 87.4 268.136 87.16C267.896 84.68 267.896 77.84 268.136 75.52C272.096 75.44 281.656 75.48 285.296 75.52V74.04C281.616 74.12 271.976 74.12 267.976 74.04C267.776 72.28 267.776 70.76 267.976 69.04C270.416 68.84 289.536 68.84 291.976 69.04C292.296 71.24 292.256 78.76 291.976 80.2C288.456 80.32 276.416 80.24 274.976 80.2V81.72C276.216 81.64 288.856 81.64 292.776 81.72ZM328.893 73.24C327.613 73.4 323.853 73.4 322.413 73.24C322.373 71.32 322.373 54.48 322.413 52.72C323.773 52.48 327.533 52.48 328.893 52.72C329.133 54.52 329.133 71.36 328.893 73.24ZM314.293 64.72C313.133 64.72 312.053 64.68 311.173 64.64C311.013 62.96 311.013 59.96 311.173 58.72C312.053 58.68 313.173 58.64 314.293 58.64C314.333 55.76 314.372 53.44 314.413 52.88C315.773 52.68 319.373 52.68 320.733 52.88C320.853 54.56 320.853 71.16 320.733 73.08C319.573 73.32 315.973 73.32 314.413 73.08C314.333 72.24 314.293 68.68 314.293 64.72ZM312.053 72.56C309.533 72.76 298.413 72.76 295.853 72.56C295.573 70.6 295.573 63.04 295.853 60.48C297.573 60.4 301.253 60.4 303.413 60.48V58.64C301.293 58.68 297.453 58.68 295.733 58.64C295.533 57.2 295.533 54.76 295.733 53.36C297.333 53.16 307.893 53.16 309.493 53.36C309.693 55.24 309.693 63 309.493 65.28C307.893 65.36 303.293 65.36 302.213 65.28V67.16C303.333 67.12 310.413 67.12 312.053 67.16C312.253 68.28 312.253 71.4 312.053 72.56ZM296.213 74.68C298.253 74.48 326.893 74.48 328.893 74.68C329.093 76.36 329.093 85.4 328.893 87.04C327.293 87.16 323.693 87.16 322.013 87.04C321.973 85.84 322.013 82.24 322.013 80.72C320.173 80.8 298.013 80.8 296.213 80.72C296.093 79.76 296.093 75.84 296.213 74.68ZM357.368 61.6C355.368 61.64 352.968 61.6 352.008 61.52C351.848 60.68 351.848 56.44 352.008 55.56C352.968 55.44 355.408 55.4 357.408 55.44C357.448 54.04 357.448 53.08 357.488 52.72C358.848 52.48 362.768 52.48 364.128 52.72C364.408 54.72 364.408 75.56 364.128 77.56C362.968 77.72 359.048 77.72 357.488 77.56C357.448 76.88 357.408 73.76 357.368 70C355.448 70 353.168 69.96 352.208 69.92C352.048 69.08 352.048 64.84 352.208 63.96C353.168 63.84 355.448 63.8 357.368 63.84V61.6ZM341.128 62.16C339.568 67 337.648 72.76 337.088 73.84C335.768 73.6 332.007 72.16 330.928 71.36C331.368 69.48 336.728 54.92 337.648 53C338.928 52.92 342.968 52.92 344.208 53C345.088 54.92 351.288 69.8 351.888 71.72C350.848 72.52 347.208 74.12 345.888 74.4C345.128 73.36 342.728 66.92 341.128 62.16ZM364.528 80.28C364.768 81.64 364.768 85.24 364.528 86.56C361.808 86.72 336.368 86.72 333.488 86.56C333.327 83.84 333.288 77.76 333.488 75.36C334.848 75.12 338.888 75.12 340.288 75.36C340.328 76.68 340.368 79.2 340.288 80.28C342.128 80.2 362.768 80.16 364.528 80.28ZM379.518 70.12C378.038 69.16 375.558 66.64 374.678 65.2C377.958 61.6 384.118 55.52 386.798 52.88C388.158 52.76 391.838 52.76 393.198 52.88C395.878 55.52 402.038 61.6 405.318 65.2C404.438 66.64 401.958 69.16 400.478 70.12C398.758 68.72 391.638 61.48 389.998 59.6C388.358 61.48 381.238 68.72 379.518 70.12ZM406.158 71.52C406.438 73.12 406.478 76.16 406.158 77.6C405.638 77.64 403.358 77.68 400.238 77.68C400.318 80.76 400.278 85.32 400.118 86.8C398.998 87.04 395.278 87.04 393.798 86.8C393.678 85.36 393.638 80.76 393.718 77.72H386.238C386.318 80.76 386.278 85.36 386.158 86.8C385.038 87.04 381.318 87.04 379.838 86.8C379.678 85.32 379.638 80.76 379.718 77.68C376.558 77.68 374.238 77.64 373.798 77.6C373.518 76.04 373.518 73.04 373.798 71.52C375.438 71.32 404.158 71.36 406.158 71.52ZM441.13 52.72C441.37 54.72 441.37 84.64 441.13 86.6C439.93 86.88 436.13 86.88 434.57 86.6C434.45 84.64 434.45 54.72 434.57 52.72C435.93 52.48 439.77 52.48 441.13 52.72ZM426.05 52.88C427.41 52.64 431.13 52.64 432.49 52.88C432.65 54.88 432.65 84.08 432.49 86.08C431.29 86.32 427.57 86.32 426.05 86.08C425.97 85.16 425.93 78.6 425.93 71.56H422.25C422.25 78.32 422.17 84.6 422.09 85.36C420.49 85.48 416.97 85.48 415.33 85.36C415.29 84.16 415.29 79.64 415.29 74.72C412.81 74.76 409.73 74.72 408.45 74.6C408.21 73.76 408.21 69.48 408.45 68.6C409.73 68.52 412.81 68.48 415.29 68.52C415.29 64.48 415.29 61.04 415.33 60.04C413.49 60.12 410.61 60.12 408.81 60.04C408.65 58.88 408.65 54.8 408.81 53.64C410.81 53.44 420.09 53.44 422.09 53.64C422.17 54.32 422.21 59.4 422.25 65.36C423.41 65.32 424.65 65.32 425.93 65.36C425.93 59.12 425.97 53.72 426.05 52.88ZM470.514 86.6C470.274 84.64 470.274 54.72 470.514 52.72C471.874 52.48 475.794 52.48 477.154 52.72C477.434 54.72 477.434 84.64 477.154 86.6C475.994 86.88 472.074 86.88 470.514 86.6ZM456.274 85.52C448.594 85.52 443.954 80.32 443.954 69.36C443.954 58 448.914 53.2 456.274 53.2C463.994 53.2 468.594 58.44 468.594 69.36C468.594 80.72 463.634 85.52 456.274 85.52ZM456.274 79.24C459.594 79.24 461.674 76.04 461.674 69.36C461.674 62.44 459.394 59.48 456.274 59.48C452.954 59.48 450.874 62.64 450.874 69.36C450.874 76.32 453.154 79.24 456.274 79.24ZM486.448 76.84C484.888 76.52 481.008 75.12 480.168 74.2C482.048 69.28 488.008 56.28 489.768 52.88C490.928 52.76 494.328 52.76 495.488 52.88C497.248 56.28 503.208 69.28 505.088 74.2C504.288 75.12 500.368 76.52 498.848 76.84C498.008 75.2 493.288 64.16 492.648 62.24C491.968 64.16 487.288 75.2 486.448 76.84ZM480.048 86.52C479.768 84.96 479.768 81.88 480.048 80.36C481.688 80.16 503.208 80.2 505.208 80.36C505.488 81.96 505.528 85.08 505.208 86.52C503.208 86.68 481.688 86.68 480.048 86.52ZM540.95 64.48C538.47 64.52 535.07 64.48 534.03 64.4C533.87 63.56 533.87 59.24 534.03 58.36C535.07 58.2 538.51 58.16 540.99 58.24C540.99 55.44 541.03 53.28 541.07 52.72C542.43 52.48 546.35 52.48 547.71 52.72C547.99 54.72 547.99 75.56 547.71 77.56C546.55 77.72 542.63 77.72 541.07 77.56C540.99 76.56 540.95 70.44 540.95 64.48ZM524.35 62.2C522.55 67.04 520.11 72.76 519.55 73.84C518.15 73.6 514.43 72.16 513.31 71.36C513.79 69.48 519.91 55.16 520.87 53.24C522.19 53.16 526.11 53.16 527.43 53.24C528.43 55.12 535.43 69.72 536.03 71.6C534.95 72.44 531.35 74.08 529.95 74.36C529.19 73.32 526.35 66.96 524.35 62.2ZM548.11 80.28C548.35 81.64 548.35 85.24 548.11 86.56C545.39 86.72 518.75 86.72 515.87 86.56C515.71 83.84 515.67 77.76 515.87 75.36C517.23 75.12 521.27 75.12 522.67 75.36C522.71 76.68 522.75 79.2 522.67 80.28C524.51 80.2 546.35 80.2 548.11 80.28ZM571.555 64.12C569.675 64.24 553.555 64.24 551.675 64.12C551.395 62.12 551.395 54.88 551.675 52.92C553.715 52.68 569.515 52.68 571.555 52.92C571.835 54.88 571.835 62.12 571.555 64.12ZM558.155 57.76V59.24C559.595 59.36 563.675 59.36 565.075 59.24V57.76C563.635 57.64 559.555 57.64 558.155 57.76ZM572.675 70.56C571.755 70.6 568.675 70.64 565.115 70.64V71.8C568.115 71.8 570.675 71.84 571.555 71.88C571.875 74 571.835 80 571.555 81.36C568.035 81.44 561.435 81.36 558.395 81.36V82.52C561.235 82.48 568.435 82.48 572.355 82.52C572.595 83.76 572.595 86.32 572.355 87.6C568.915 87.8 554.995 87.8 551.555 87.6C551.315 85.44 551.315 79.8 551.555 77.56C555.515 77.52 561.315 77.56 564.875 77.56V76.48C561.195 76.52 555.395 76.52 551.395 76.48C551.195 74.88 551.195 73.48 551.395 71.88C552.315 71.84 554.995 71.8 558.115 71.8V70.64C554.435 70.64 551.355 70.6 550.555 70.56C550.355 68.84 550.355 66.92 550.555 65.36C552.595 65.24 570.195 65.24 572.675 65.36C572.835 66.96 572.875 68.92 572.675 70.56Z" fill="#00A76F"/>
</svg>
