<svg width="118" height="70" viewBox="0 0 118 70" fill="none" xmlns="http://www.w3.org/2000/svg">
<path d="M13.7214 40.9482C13.7214 40.9326 13.7214 40.9169 13.7214 40.9013C13.7214 27.8859 22.8175 17.0038 34.9946 14.2449C37.8129 6.52201 45.2011 0.998047 53.8999 0.998047C62.5987 0.998047 69.4677 6.12475 72.4987 13.4097C73.0085 13.3816 73.5215 13.3628 74.0407 13.3628C83.7687 13.3628 92.3048 18.4301 97.1782 26.0623C107.916 27.0695 116.321 36.0999 116.321 47.104C116.321 58.7806 106.856 68.2458 95.1794 68.2458C91.6261 68.2458 88.2792 67.3575 85.3389 65.8091C81.8919 67.37 78.0664 68.2458 74.0376 68.2458C67.8411 68.2458 62.1264 66.1908 57.5314 62.725C52.949 66.1876 47.2467 68.2458 41.0597 68.2458C34.8726 68.2458 29.7177 66.3753 25.2541 63.2067C22.7486 66.2784 18.9325 68.2458 14.6566 68.2458C7.10577 68.2458 0.984375 62.1244 0.984375 54.5736C0.984375 47.0227 6.6053 41.4362 13.7151 40.9513L13.7214 40.9482Z" fill="#568EFF"/>
<path d="M95.1835 69.2371C91.7709 69.2371 88.3708 68.4333 85.3117 66.9068C81.7396 68.452 77.9516 69.2371 74.0417 69.2371C68.0642 69.2371 62.3744 67.4136 57.5386 63.9572C52.7153 67.4136 47.035 69.2371 41.0668 69.2371C35.4647 69.2371 30.0784 67.6106 25.4302 64.5265C22.6557 67.5293 18.7802 69.2371 14.667 69.2371C6.5812 69.2371 0 62.6591 0 54.5702C0 47.2039 5.52709 40.9949 12.7433 40.044C12.9309 33.8788 15.1424 27.8919 19.0211 23.0999C22.9028 18.2985 28.2986 14.8671 34.2542 13.3939C37.4228 5.35818 45.2489 0 53.9008 0C62.5527 0 69.7063 4.83581 73.1377 12.3835C73.4505 12.3742 73.7477 12.3679 74.0417 12.3679C83.6351 12.3679 92.4622 17.1255 97.7547 25.1206C108.94 26.4093 117.317 35.7775 117.317 47.1006C117.317 59.3059 107.386 69.2371 95.1804 69.2371H95.1835ZM85.3774 64.6954L85.809 64.9237C88.7305 66.4658 91.8866 67.2446 95.1835 67.2446C106.291 67.2446 115.331 58.208 115.331 47.0975C115.331 36.6439 107.489 28.0233 97.0884 27.0474L96.6036 27.0005L96.3408 26.5907C91.4487 18.9272 83.1127 14.351 74.0417 14.351C73.5756 14.351 73.0908 14.3667 72.5559 14.3948L71.8521 14.4324L71.58 13.7817C68.599 6.61561 61.6581 1.98312 53.9008 1.98312C46.1435 1.98312 38.6802 7.04414 35.9307 14.5762L35.7462 15.0861L35.2176 15.205C23.1468 17.9419 14.7201 28.505 14.7201 40.8917V40.9386V41.8676L13.7911 41.9302C7.17239 42.3806 1.98625 47.9296 1.98625 54.5608C1.98625 61.5487 7.67286 67.2353 14.6607 67.2353C18.483 67.2353 22.0646 65.5336 24.4856 62.5652L25.0736 61.8427L25.8337 62.3807C30.3067 65.5556 35.5742 67.2353 41.0637 67.2353C46.8442 67.2353 52.3337 65.396 56.9349 61.9177L57.5355 61.4642L58.1361 61.9177C62.7498 65.396 68.2518 67.2384 74.0417 67.2384C77.8265 67.2384 81.4925 66.447 84.9332 64.8893L85.3774 64.6891V64.6954Z" fill="white"/>
<path d="M44.7606 28.4771C47.5319 28.4771 47.535 24.1699 44.7606 24.1699C41.9861 24.1699 41.9861 28.4771 44.7606 28.4771Z" fill="white"/>
<path d="M57.8465 27.7486C60.6179 27.7486 60.621 23.4414 57.8465 23.4414C55.072 23.4414 55.072 27.7486 57.8465 27.7486Z" fill="white"/>
<path d="M42.0207 40.7598C50.3066 51.1446 66.0058 47.8947 70.388 35.7082C71.3264 33.0963 67.1694 31.9703 66.2373 34.5634C62.8278 44.041 51.1324 45.3172 45.0673 37.7163C43.3407 35.5518 40.3097 38.614 42.0238 40.7598H42.0207Z" fill="white"/>
<path d="M14.936 0.00228641L13.2656 10.5004C12.6582 9.526 11.6062 8.8802 10.409 8.8802C8.52734 8.8802 7 10.4751 7 12.4401C7 14.405 8.52514 16 10.409 16C12.1938 16 13.6551 14.5682 13.8026 12.7435L14.8414 7.15197L18.4991 10.2752L20 4.01723L14.9338 0L14.936 0.00228641Z" fill="white"/>
</svg>
