<svg width="154" height="37" viewBox="0 0 154 37" fill="none" xmlns="http://www.w3.org/2000/svg">
<path d="M10.69 12.52C9.01 15.92 6.65 20.44 5.81 21.44C4.49 21.04 1.21 19.16 0.33 18.24C0.81 17.04 2.89 13.24 4.57 10.2C2.61 10.2 1.13 10.16 0.61 10.12C0.41 9.28 0.41 5.12 0.61 4.24C1.45 4.16 4.05 4.08 7.13 4.08C7.13 2.8 7.17 1.44 7.25 0.559999C8.61 0.36 12.85 0.36 14.25 0.559999C14.33 1.44 14.37 2.8 14.37 4.08C17.45 4.08 20.01 4.16 20.77 4.24C20.97 5.04 20.97 9.12 20.77 10.12C20.17 10.16 18.69 10.16 16.81 10.2C18.49 13.2 20.57 17.04 21.05 18.24C20.17 19.16 16.89 21.04 15.57 21.44C14.73 20.44 12.37 15.92 10.69 12.52ZM32.73 8.88C32.93 9.76 32.93 14 32.73 14.84C32.05 14.92 30.69 15 29.29 15C29.25 18.08 29.21 20.68 29.09 21.4C27.93 21.56 24.05 21.56 22.49 21.4C22.29 19.44 22.29 3.72 22.49 1.72C23.85 1.48 27.73 1.48 29.09 1.72C29.21 2.52 29.25 5.4 29.29 8.72C30.69 8.72 32.05 8.8 32.73 8.88ZM2.05 22.8C4.17 22.56 26.97 22.56 29.09 22.8C29.37 24.76 29.37 34.08 29.09 36C27.17 36.2 3.97 36.2 2.05 36C1.77 34.08 1.77 24.76 2.05 22.8ZM22.41 30.56C22.49 29.84 22.49 29 22.41 28.28C20.89 28.2 10.21 28.16 8.77 28.28C8.69 29 8.69 29.84 8.77 30.56C10.25 30.68 20.93 30.68 22.41 30.56ZM68.8019 1.72C69.0419 3.72 69.0419 33.64 68.8019 35.6C67.6019 35.88 63.7219 35.88 62.1619 35.6C62.0819 35.04 62.0419 32.36 62.0019 28.68C60.4419 28.68 58.8819 28.64 58.1619 28.56C57.9219 27.68 57.9219 23.48 58.1619 22.6C58.8819 22.52 60.4419 22.48 62.0019 22.48C61.9619 19.52 61.9619 16.4 62.0019 13.52C60.4419 13.52 58.8819 13.44 58.1619 13.36C57.9219 12.52 57.9219 8.28 58.1619 7.44C58.9219 7.32 60.4819 7.28 62.0419 7.28C62.0419 4.32 62.1219 2.2 62.1619 1.72C63.5619 1.48 67.4419 1.48 68.8019 1.72ZM46.7619 2.2C53.6819 2.2 57.4819 6.84 57.4819 18.36C57.4819 29.88 53.6819 34.52 46.7619 34.52C39.8419 34.52 36.0419 29.88 36.0419 18.36C36.0419 6.84 39.8419 2.2 46.7619 2.2ZM46.7619 28.2C49.0419 28.2 50.5619 25.44 50.5619 18.36C50.5619 11.28 49.0419 8.52 46.7619 8.52C44.4819 8.52 42.9619 11.28 42.9619 18.36C42.9619 25.44 44.4819 28.2 46.7619 28.2ZM115.663 8.04C115.863 8.92 115.863 13.16 115.663 14C114.983 14.08 113.623 14.16 112.223 14.16C112.183 16.96 112.143 19.36 112.023 20.08C110.863 20.24 106.983 20.24 105.423 20.08C105.223 18.12 105.223 3.72 105.423 1.72C106.783 1.48 110.663 1.48 112.023 1.72C112.143 2.48 112.183 4.96 112.223 7.88C113.623 7.88 114.983 7.96 115.663 8.04ZM102.743 19.08C100.823 19.28 85.5428 19.32 83.2628 19.08C82.9828 15.88 83.0228 4.52 83.2628 2.16C84.4228 1.96 88.3828 1.96 89.7428 2.16C89.7828 2.8 89.7828 3.96 89.7828 5.32C91.6628 5.28 94.4628 5.28 96.2628 5.32C96.2628 3.96 96.2628 2.8 96.3028 2.16C97.7428 1.96 101.463 1.96 102.743 2.16C102.983 4.48 102.983 16.6 102.743 19.08ZM89.7828 10.64C89.7828 12 89.7428 13.12 89.7428 13.56C90.6228 13.64 95.4228 13.64 96.3028 13.56C96.3028 13.12 96.2628 12 96.2628 10.6C94.4628 10.64 91.6628 10.64 89.7828 10.64ZM98.2628 20.68C108.863 20.68 113.023 23.48 113.023 28.68C113.023 33.88 108.863 36.68 98.2628 36.68C87.6628 36.68 83.5028 33.88 83.5028 28.68C83.5028 23.48 87.6628 20.68 98.2628 20.68ZM98.2628 30.96C104.463 30.96 106.063 30.24 106.063 28.68C106.063 27.12 104.463 26.4 98.2628 26.4C92.0628 26.4 90.4628 27.12 90.4628 28.68C90.4628 30.24 92.0628 30.96 98.2628 30.96ZM140.835 18.48C138.915 18.68 122.035 18.72 119.755 18.48C119.475 15.28 119.515 4.28 119.755 2.16C120.915 1.96 124.835 1.96 126.195 2.16C126.235 2.72 126.235 3.76 126.235 5C128.515 4.96 132.235 4.96 134.395 5C134.395 3.76 134.395 2.72 134.435 2.16C135.875 1.96 139.555 1.96 140.835 2.16C140.915 2.84 140.955 4.64 140.995 6.8C142.555 6.76 144.515 6.76 146.195 6.76C146.195 4.4 146.235 2.44 146.315 1.72C147.675 1.48 151.555 1.48 152.915 1.72C153.195 3.88 153.195 17.12 152.915 19.12C151.755 19.28 147.875 19.28 146.315 19.12C146.235 18.36 146.195 15.84 146.155 12.92C144.515 12.92 142.555 12.92 140.995 12.88C140.995 15.4 140.915 17.56 140.835 18.48ZM126.235 10.24C126.235 11.56 126.195 12.6 126.195 13.04C127.075 13.12 133.555 13.12 134.435 13.04C134.435 12.6 134.395 11.56 134.395 10.24C132.235 10.28 128.515 10.28 126.235 10.24ZM146.355 20.68C147.795 20.52 151.635 20.52 152.915 20.68C153.075 22.68 153.115 33.4 152.915 36C150.995 36.2 122.955 36.24 120.675 36C120.435 32.68 120.515 22.72 120.675 20.68C121.835 20.52 125.955 20.52 127.315 20.68C127.315 21.28 127.355 22.12 127.355 23.04C131.595 23 142.195 22.96 146.315 23.04C146.315 22.08 146.355 21.28 146.355 20.68ZM127.315 30.4C128.195 30.48 145.475 30.48 146.355 30.4C146.355 30.12 146.315 29.28 146.315 28.16C142.195 28.2 131.595 28.2 127.355 28.16C127.355 29.28 127.315 30.12 127.315 30.4Z" fill="#D5FB4E"/>
</svg>
