<svg width="32" height="32" viewBox="0 0 32 32" fill="none" xmlns="http://www.w3.org/2000/svg">
<rect width="32" height="32" rx="16" fill="#E4E8EF"/>
<path d="M23.4532 24H7.60833C7.18296 24 6.91711 23.5734 7.02345 23.2L7.39564 22.0267C7.71467 21.0134 8.67174 20.3734 9.68198 20.3734H21.2732C22.3366 20.3734 23.2405 21.0667 23.5595 22.0267L23.9317 23.2C24.1444 23.5734 23.8254 24 23.4532 24Z" fill="#FAF7F5" stroke="#3B3F61" stroke-miterlimit="10" stroke-linejoin="round"/>
<path d="M21.539 20.32V14.08C21.539 10.72 18.8805 8 15.5308 8C12.181 8 9.52246 10.72 9.52246 14.08V20.32C9.52246 20.32 21.4859 20.4267 21.539 20.32Z" fill="#B1DEF8" stroke="#3B3F61" stroke-miterlimit="10" stroke-linejoin="round"/>
<path d="M19.1463 13.6C19.1463 11.9467 17.817 10.6133 16.1687 10.6133" stroke="#3B3F61" stroke-miterlimit="10" stroke-linejoin="round"/>
</svg>
