<svg width="32" height="32" viewBox="0 0 32 32" fill="none" xmlns="http://www.w3.org/2000/svg">
<rect width="32" height="32" rx="16" fill="#E4E8EF"/>
<path d="M22.5616 13.0574H19.7191C18.273 13.0574 18.1234 11.8582 18.1234 11.8582C18.1234 11.8582 19.7191 9.55995 18.273 7.8612C16.4278 5.71279 15.1811 8.26091 15.1811 8.26091L11.7402 13.1073V23C14.6825 23 18.4724 23 19.1706 23C21.1653 23 21.4645 21.651 21.4645 21.651C21.4645 21.651 23.0603 17.8038 23.7585 15.8553C24.706 13.0574 22.5616 13.0574 22.5616 13.0574Z" fill="#FAF7F5" stroke="#3B3F61" stroke-miterlimit="10" stroke-linejoin="round"/>
<path d="M8 13.0574V23C8 23 9.99473 23 11.9396 23V13.0574H8Z" fill="#B1DEF8" stroke="#3B3F61" stroke-miterlimit="10" stroke-linejoin="round"/>
</svg>
