<svg width="598" height="246" viewBox="0 0 598 246" fill="none" xmlns="http://www.w3.org/2000/svg">
<g filter="url(#filter0_d_10067_30353)">
<path d="M116.16 125.105C116.105 115.7 116.105 89.96 116.16 80.5C118.69 80.17 123.695 80.17 125.565 80.5C125.73 88.145 125.675 110.86 125.565 116.525C130.625 116.415 139.15 116.415 143.11 116.525C143.33 119.055 143.33 122.905 143.11 125.105C139.15 125.27 120.45 125.27 116.16 125.105ZM162.465 125.93C150.035 125.93 142.995 118.945 142.995 102.885C142.995 86.825 150.255 79.84 162.63 79.84C168.57 79.84 173.08 81.27 177.15 85.725C175.885 88.145 173.74 90.62 171.815 92.105C169.725 89.905 166.59 88.64 162.63 88.64C156.25 88.64 152.345 92.38 152.345 102.885C152.345 113.335 156.085 117.075 162.465 117.075C165.82 117.075 168.625 115.975 169.89 114.875C169.89 112.4 169.89 110.805 169.945 108C167.8 108.11 165.38 108.11 163.4 108C163.18 106.075 163.18 101.455 163.4 99.53C168.68 99.365 174.07 99.365 178.855 99.53C178.91 104.37 178.965 112.51 178.855 118.065C175.39 123.125 169.67 125.93 162.465 125.93ZM226.188 110.64C221.678 110.86 189.338 110.805 184.003 110.64C183.673 104.315 183.728 85.505 184.003 79.29C189.283 79.015 219.478 79.125 225.088 79.29C225.308 81.6 225.308 85.065 225.088 87.375C221.403 87.485 197.478 87.485 193.463 87.375C193.463 87.98 193.463 89.3 193.408 90.95C200.448 90.895 219.698 90.95 223.438 90.95C223.713 93.26 223.603 96.725 223.438 99.035C219.918 99.145 200.448 99.09 193.408 99.035C193.463 100.74 193.463 102.115 193.463 102.665C197.753 102.665 222.173 102.61 226.188 102.665C226.353 105.03 226.353 108.715 226.188 110.64ZM228.553 118.45C228.773 120.705 228.773 123.84 228.553 126.37C224.043 126.755 187.413 126.645 181.033 126.37C180.813 124.225 180.813 120.87 181.033 118.45C193.188 118.23 223.493 118.34 228.553 118.45ZM247.083 99.2C236.138 99.2 231.298 95.515 231.298 88.42C231.298 81.435 236.138 77.585 247.083 77.585C257.973 77.585 262.813 81.435 262.813 88.42C262.813 95.515 257.973 99.2 247.083 99.2ZM275.903 114.215C274.033 114.435 268.918 114.325 266.828 114.215C266.718 108.055 266.718 83.47 266.828 77.915C268.423 77.585 273.813 77.585 275.903 77.915C276.123 84.68 276.123 107.725 275.903 114.215ZM247.083 85.23C241.528 85.23 239.878 86.385 239.878 88.42C239.878 90.455 241.528 91.555 247.083 91.555C252.473 91.555 254.288 90.455 254.288 88.42C254.288 86.385 252.473 85.23 247.083 85.23ZM243.178 112.675C243.123 111.52 243.068 109.98 243.068 108.33C237.733 108.275 232.783 108.22 230.088 108.165C229.758 105.91 229.758 102.72 230.088 100.465C234.213 100.3 259.733 100.41 264.243 100.465C264.518 103.05 264.518 106.13 264.243 108.275C262.648 108.33 257.918 108.385 252.308 108.33C252.308 109.98 252.308 111.63 252.253 112.675C249.833 112.895 245.598 112.895 243.178 112.675ZM276.893 119.935C277.113 122.355 277.113 125.6 276.893 127.855C272.768 128.13 238.613 128.13 233.663 127.855C233.388 123.07 233.498 117.02 233.663 114.38C235.533 114.215 240.593 114.215 242.793 114.38C242.848 115.7 242.848 118.065 242.793 119.935C256.213 119.88 273.098 119.825 276.893 119.935ZM286.404 111.3C285.084 110.365 281.399 106.46 280.409 104.59C284.589 100.85 292.014 94.415 297.734 89.355C297.679 85.01 297.734 81.93 297.844 79.4C299.439 79.235 305.434 79.18 307.524 79.4C307.634 82.315 307.689 85.45 307.634 89.465C313.519 94.36 320.999 100.52 325.234 104.095C324.244 105.965 320.669 109.98 319.459 111.025C316.819 108.88 309.064 102.72 302.794 97.165C296.634 102.83 289.099 109.21 286.404 111.3ZM326.444 118.45C326.664 120.705 326.664 123.84 326.444 126.37C321.934 126.755 285.304 126.645 278.924 126.37C278.704 124.225 278.704 120.87 278.924 118.45C291.079 118.23 321.384 118.34 326.444 118.45ZM372.033 86.22C358.558 86.275 345.248 86.385 341.288 86.22C341.068 83.91 341.068 80.61 341.288 78.3C345.578 77.97 376.543 78.08 381.218 78.3C381.493 83.03 381.548 90.84 381.218 93.315C379.458 93.48 373.793 93.48 372.033 93.315C371.978 90.455 371.978 89.135 372.033 86.22ZM385.288 95.515C385.508 97.66 385.508 101.015 385.288 103.38C383.638 103.545 375.498 103.6 366.313 103.6C366.313 105.415 366.313 107.175 366.258 107.945C364.003 108.22 358.888 108.165 356.908 107.945C356.853 107.175 356.798 105.47 356.798 103.6C348.053 103.545 340.078 103.49 337.768 103.38C337.548 101.29 337.548 97.77 337.768 95.515C349.098 95.295 381.053 95.405 385.288 95.515ZM366.368 109.815C366.423 111.465 366.478 113.115 366.478 114.655C372.858 116.745 380.228 119.11 384.738 120.705C384.408 122.85 382.593 126.755 381.768 128.02C378.413 127.085 369.008 123.95 361.638 121.2C354.213 124.115 344.863 127.47 341.563 128.35C340.628 127.085 338.758 122.85 338.538 120.925C343.048 119.33 350.253 116.855 356.578 114.655C356.578 112.895 356.633 111.19 356.688 109.815C358.338 109.65 364.223 109.595 366.368 109.815ZM388.968 105.47C393.038 102.83 399.748 98.65 405.578 95.02C405.523 92.215 405.523 89.905 405.523 87.87C398.098 87.87 391.608 87.87 390.233 87.76C390.013 85.34 390.013 81.985 390.233 79.84C393.918 79.73 420.813 79.565 430.768 79.84C430.933 82.15 430.933 85.615 430.768 87.76C428.788 87.815 422.463 87.87 415.423 87.87C415.423 89.96 415.423 92.27 415.368 95.02C421.308 98.43 428.128 102.445 432.198 104.865C431.428 106.9 428.843 110.75 427.358 111.96C424.663 110.53 417.073 106.295 410.528 102.28C404.093 106.515 396.833 110.915 394.028 112.4C392.653 111.3 389.683 107.395 388.968 105.47ZM434.233 118.45C434.453 120.705 434.453 123.84 434.233 126.37C429.723 126.755 393.093 126.645 386.713 126.37C386.493 124.225 386.493 120.87 386.713 118.45C398.868 118.23 429.173 118.34 434.233 118.45ZM477.402 117.35L482.627 122.355C482.187 123.4 481.637 124.06 480.647 124.335L475.642 119.495C472.012 123.4 467.447 125.93 460.957 125.93C452.817 125.93 447.042 121.035 447.042 113.72C447.042 106.955 451.277 104.04 456.557 101.18C453.367 98.045 450.397 94.69 450.397 89.795C450.397 83.36 455.072 79.895 462.112 79.895C468.712 79.895 472.837 83.36 472.837 89.3C472.837 94.14 469.647 97.275 461.177 101.84L475.422 115.425C476.907 113.445 478.282 111.19 479.712 108.77C480.537 108.88 481.252 109.265 482.077 110.035C480.647 112.675 479.107 115.15 477.402 117.35ZM453.367 89.795C453.367 93.755 455.677 96.505 459.142 99.86C463.212 97.44 469.867 95.075 469.867 89.465C469.867 85.23 466.842 82.48 462.112 82.535C456.667 82.59 453.367 85.175 453.367 89.795ZM461.177 123.29C466.512 123.29 470.362 121.09 473.607 117.57L458.702 103.215C453.642 105.91 450.012 107.945 450.012 113.61C450.012 119 454.247 123.29 461.177 123.29ZM7.95542 167.865C6.80042 166.655 3.83042 162.2 3.22542 160.22C7.46042 157.58 14.3904 153.4 20.4954 149.715C20.4404 146.91 20.4954 143.39 20.6054 141.465C22.2004 141.3 28.1954 141.245 30.2854 141.465C30.3954 143.39 30.4504 146.91 30.3954 149.715C36.6104 153.18 43.6504 157.14 47.8854 159.615C47.2804 161.65 44.4204 166.215 43.4304 167.48C40.5154 165.94 32.4854 161.595 25.5554 157.415C18.7354 161.76 10.8704 166.27 7.95542 167.865ZM49.2054 170.34C49.4254 172.595 49.4254 175.675 49.2054 178.26C48.1054 178.315 45.1904 178.37 41.2854 178.425C41.2854 182.55 41.3404 188.545 41.2304 190.8C39.2504 190.91 34.3004 190.91 31.8804 190.8C31.7704 188.93 31.7154 182.825 31.8254 178.48C27.6454 178.48 23.2454 178.48 19.1204 178.425C19.1204 182.605 19.1754 188.545 19.0654 190.8C17.0854 190.91 12.1354 190.91 9.71542 190.8C9.60542 188.93 9.55042 182.715 9.66042 178.37C5.97542 178.37 3.11542 178.315 1.68542 178.26C1.46542 176.115 1.46542 172.705 1.68542 170.34C13.8404 170.12 44.1454 170.23 49.2054 170.34ZM97.1611 140.915C97.2711 147.79 97.2711 183.925 97.1611 190.635C95.5661 190.855 90.5611 190.69 88.4711 190.635C88.3611 183.98 88.4161 146.525 88.4711 140.915C90.0661 140.585 95.4011 140.585 97.1611 140.915ZM77.0311 141.19C78.6261 140.86 83.9611 140.915 85.7761 141.19C85.9411 148.175 85.8311 183.54 85.7761 190.14C84.1261 190.305 79.1211 190.305 77.0311 190.14C76.9211 187.06 76.8661 177.545 76.8661 167.7C75.2161 167.7 73.6761 167.645 72.7411 167.59C72.5761 165.885 72.5761 160.495 72.7411 159.175C73.6211 159.12 75.1611 159.12 76.9211 159.12C76.9211 150.76 76.9761 143.445 77.0311 141.19ZM51.0711 142.4C55.6911 142.18 65.6461 142.125 70.5961 142.4C70.9811 148.725 71.0911 180.46 70.7611 186.95C69.2211 187.225 63.6661 187.17 61.4661 186.95V170.395C57.4511 170.45 53.2711 170.395 51.2911 170.34C51.0711 167.865 51.0711 164.125 51.2911 161.87C52.8311 161.815 56.9011 161.705 61.4661 161.705V150.76C58.5511 150.87 54.1511 150.87 51.0711 150.76C50.8511 148.34 50.8511 144.655 51.0711 142.4ZM145.502 140.915C145.722 148.56 145.777 184.09 145.502 190.635C143.632 190.855 138.462 190.8 136.372 190.635C136.262 187.72 136.207 178.315 136.207 168.36C134.722 168.36 133.237 168.36 131.862 168.305C131.642 165.995 131.642 161.76 131.862 159.395C133.347 159.34 134.777 159.34 136.262 159.34C136.262 150.87 136.317 143.445 136.372 140.915C137.967 140.585 143.412 140.64 145.502 140.915ZM115.142 141.135C126.032 141.135 130.377 146.415 130.377 164.73C130.377 183.045 126.032 188.325 115.142 188.325C104.252 188.325 99.8518 183.045 99.8518 164.73C99.8518 146.415 104.252 141.135 115.142 141.135ZM115.142 179.8C119.872 179.8 121.027 177.05 121.027 164.73C121.027 152.41 119.872 149.66 115.142 149.66C110.357 149.66 109.202 152.41 109.202 164.73C109.202 177.05 110.357 179.8 115.142 179.8ZM181.193 163.52C181.413 165.005 181.413 166.38 181.193 167.92C178.498 167.975 173.768 168.03 168.708 168.03C168.708 173.97 168.708 179.525 168.653 181.395C167.113 181.615 165.353 181.615 163.813 181.395C163.758 179.525 163.758 173.97 163.758 168.03C158.698 168.03 153.913 167.975 151.218 167.92C151.053 166.435 151.053 165.005 151.218 163.52C153.913 163.465 158.698 163.41 163.758 163.41C163.758 157.635 163.758 152.3 163.813 150.485C165.298 150.265 167.058 150.265 168.653 150.485C168.708 152.355 168.708 157.635 168.708 163.41C173.768 163.41 178.498 163.465 181.193 163.52ZM191.653 167.865C190.498 166.655 187.528 162.2 186.923 160.22C191.158 157.58 198.088 153.4 204.193 149.715C204.138 146.91 204.193 143.39 204.303 141.465C205.898 141.3 211.893 141.245 213.983 141.465C214.093 143.39 214.148 146.91 214.093 149.715C220.308 153.18 227.348 157.14 231.583 159.615C230.978 161.65 228.118 166.215 227.128 167.48C224.213 165.94 216.183 161.595 209.253 157.415C202.433 161.76 194.568 166.27 191.653 167.865ZM232.903 170.34C233.123 172.595 233.123 175.675 232.903 178.26C231.803 178.315 228.888 178.37 224.983 178.425C224.983 182.55 225.038 188.545 224.928 190.8C222.948 190.91 217.998 190.91 215.578 190.8C215.468 188.93 215.413 182.825 215.523 178.48C211.343 178.48 206.943 178.48 202.818 178.425C202.818 182.605 202.873 188.545 202.763 190.8C200.783 190.91 195.833 190.91 193.413 190.8C193.303 188.93 193.248 182.715 193.358 178.37C189.673 178.37 186.813 178.315 185.383 178.26C185.163 176.115 185.163 172.705 185.383 170.34C197.538 170.12 227.843 170.23 232.903 170.34ZM280.859 140.915C280.969 147.79 280.969 183.925 280.859 190.635C279.264 190.855 274.259 190.69 272.169 190.635C272.059 183.98 272.114 146.525 272.169 140.915C273.764 140.585 279.099 140.585 280.859 140.915ZM260.729 141.19C262.324 140.86 267.659 140.915 269.474 141.19C269.639 148.175 269.529 183.54 269.474 190.14C267.824 190.305 262.819 190.305 260.729 190.14C260.619 187.06 260.564 177.545 260.564 167.7C258.914 167.7 257.374 167.645 256.439 167.59C256.274 165.885 256.274 160.495 256.439 159.175C257.319 159.12 258.859 159.12 260.619 159.12C260.619 150.76 260.674 143.445 260.729 141.19ZM234.769 142.4C239.389 142.18 249.344 142.125 254.294 142.4C254.679 148.725 254.789 180.46 254.459 186.95C252.919 187.225 247.364 187.17 245.164 186.95V170.395C241.149 170.45 236.969 170.395 234.989 170.34C234.769 167.865 234.769 164.125 234.989 161.87C236.529 161.815 240.599 161.705 245.164 161.705V150.76C242.249 150.87 237.849 150.87 234.769 150.76C234.549 148.34 234.549 144.655 234.769 142.4ZM320.07 190.635C319.85 184.31 319.905 147.24 320.07 140.915C321.665 140.585 327.11 140.64 329.2 140.915C329.42 148.56 329.475 184.09 329.2 190.635C327.33 190.855 322.16 190.8 320.07 190.635ZM299.335 188.325C288.115 188.325 283.605 183.045 283.605 164.73C283.605 146.415 288.115 141.135 299.335 141.135C310.555 141.135 315.01 146.415 315.01 164.73C315.01 183.045 310.555 188.325 299.335 188.325ZM299.335 179.8C304.505 179.8 305.715 177.05 305.715 164.73C305.715 152.41 304.505 149.66 299.335 149.66C294.165 149.66 292.9 152.41 292.9 164.73C292.9 177.05 294.165 179.8 299.335 179.8ZM339.7 174.3C338.38 173.365 334.695 169.46 333.705 167.59C337.885 163.85 345.31 157.415 351.03 152.355C350.975 148.01 351.03 144.93 351.14 142.4C352.735 142.235 358.73 142.18 360.82 142.4C360.93 145.315 360.985 148.45 360.93 152.465C366.815 157.36 374.295 163.52 378.53 167.095C377.54 168.965 373.965 172.98 372.755 174.025C370.115 171.88 362.36 165.72 356.09 160.165C349.93 165.83 342.395 172.21 339.7 174.3ZM379.74 181.45C379.96 183.705 379.96 186.84 379.74 189.37C375.23 189.755 338.6 189.645 332.22 189.37C332 187.225 332 183.87 332.22 181.45C344.375 181.23 374.68 181.34 379.74 181.45ZM437.594 140.915C437.704 147.79 437.704 183.925 437.594 190.635C435.999 190.855 430.994 190.69 428.904 190.635C428.849 187.5 428.849 177.545 428.849 167.315H426.374C426.374 177.325 426.319 187.005 426.319 190.14C424.724 190.305 419.719 190.305 417.629 190.14C417.409 183.43 417.464 146.8 417.629 141.19C419.224 140.86 424.559 140.915 426.319 141.19C426.374 143.885 426.429 150.925 426.429 158.845H428.849C428.849 150.485 428.904 143.17 428.904 140.915C430.499 140.585 435.834 140.585 437.594 140.915ZM400.799 178.865C403.824 178.755 413.449 178.7 415.704 178.81C415.924 181.175 415.924 184.695 415.704 187.005C412.294 187.17 395.574 187.225 391.999 187.005C391.614 180.515 391.614 166.93 391.999 160.66C395.464 160.55 401.404 160.605 404.649 160.66C404.649 157.69 404.649 153.18 404.704 150.54C393.429 150.65 403.439 150.65 392.219 150.54C391.999 148.23 391.999 144.71 392.219 142.4C395.574 142.235 410.699 142.18 413.504 142.4C413.889 148.835 413.834 162.42 413.504 168.745C411.249 168.91 403.494 168.8 400.854 168.745C400.854 171.715 400.854 176.225 400.799 178.865ZM485.11 158.57C478.455 158.79 448.425 158.79 442.485 158.57C442.32 156.04 442.32 153.895 442.485 151.53C443.695 151.475 446.06 151.475 449.03 151.42V148.45C446.335 148.395 444.245 148.395 443.035 148.34C442.87 145.92 442.87 143.555 443.035 141.3C452.11 141.135 480.16 141.025 484.56 141.3C484.67 143.555 484.67 145.645 484.56 148.34C483.24 148.395 481.15 148.395 478.51 148.45V151.42C481.425 151.42 483.79 151.475 485.11 151.53C485.275 153.895 485.275 155.71 485.11 158.57ZM457.995 148.505V151.365C461.735 151.365 465.75 151.365 469.545 151.365V148.505C465.75 148.505 461.735 148.505 457.995 148.505ZM487.53 160.11C487.75 162.255 487.75 164.84 487.53 167.205C483.79 167.59 445.565 167.425 440.01 167.205C439.79 165.17 439.79 162.365 440.01 160.11C451.34 159.89 483.295 160 487.53 160.11ZM452.22 183.045V184.145H485.66C485.935 186.125 485.77 188.875 485.66 190.855C482.085 191.13 450.075 191.185 442.98 190.855C442.76 187.775 442.65 182 442.98 176.665H475.155V175.565H443.09C442.87 173.53 442.87 170.175 443.09 168.8C460.195 168.635 477.85 168.635 484.395 168.8C484.725 170.89 484.725 180.625 484.395 183.045H452.22ZM522.613 170.23C505.618 170.23 500.613 165.775 500.613 156.15C500.613 146.525 505.618 142.07 522.613 142.07C539.608 142.07 544.613 146.525 544.613 156.15C544.613 165.775 539.608 170.23 522.613 170.23ZM522.613 150.21C513.153 150.21 510.073 151.365 510.073 156.15C510.073 160.935 513.153 162.09 522.613 162.09C532.073 162.09 535.208 160.935 535.208 156.15C535.208 151.365 532.073 150.21 522.613 150.21ZM546.373 181.45C546.593 183.705 546.593 186.84 546.373 189.37C541.863 189.755 505.233 189.645 498.853 189.37C498.633 187.225 498.633 183.87 498.853 181.45C503.418 181.34 510.513 181.34 517.883 181.34C517.883 178.04 517.938 174.575 517.993 172.87C519.753 172.54 525.088 172.595 527.343 172.87C527.398 174.905 527.398 178.26 527.398 181.34C536.253 181.34 544.008 181.395 546.373 181.45ZM592.899 161.76C586.244 161.98 556.214 161.98 550.274 161.76C550.109 159.285 550.109 156.81 550.274 154.39C551.539 154.335 553.849 154.335 556.874 154.28C556.819 152.685 556.819 150.65 556.819 148.725C554.124 148.725 552.034 148.67 550.824 148.615C550.659 146.25 550.659 143.555 550.824 141.3C559.899 141.135 587.949 141.025 592.349 141.3C592.459 143.555 592.459 145.92 592.349 148.615C591.029 148.67 588.939 148.725 586.299 148.725C586.299 150.595 586.299 152.685 586.244 154.28C589.214 154.335 591.579 154.335 592.899 154.39C593.064 156.81 593.064 158.955 592.899 161.76ZM565.784 148.835C565.784 150.65 565.784 152.685 565.729 154.28C569.524 154.225 573.594 154.225 577.389 154.225C577.334 152.685 577.334 150.65 577.334 148.835H565.784ZM595.319 164.29C595.539 166.435 595.539 169.515 595.319 171.88C591.579 172.265 553.354 172.155 547.799 171.88C547.579 169.845 547.579 166.545 547.799 164.29C559.129 164.07 591.084 164.18 595.319 164.29ZM560.119 182.88C573.154 182.825 589.544 182.77 593.449 182.88C593.669 185.08 593.669 188.6 593.449 190.855C589.269 191.13 555.774 191.13 550.769 190.855C550.494 186.73 550.604 177.545 550.769 174.3C552.639 174.135 557.919 174.19 560.119 174.355C560.229 177.05 560.229 180.515 560.119 182.88Z" fill="url(#paint0_linear_10067_30353)"/>
</g>
<g filter="url(#filter1_d_10067_30353)">
<path d="M78.8257 53.33C78.7657 52.55 78.7657 51.86 78.8257 51.08C82.2157 47.72 85.6957 43.85 87.5257 41.66C89.5657 39.23 90.3157 37.76 90.3157 35.3C90.3157 32.87 88.6657 31.07 85.9357 31.07C83.2657 31.07 82.0057 32.3 80.9857 34.25C80.1457 34.01 79.3357 33.56 78.6757 32.99C80.1757 30.11 82.4557 28.64 85.9357 28.64C90.4957 28.64 92.9557 31.55 92.9557 35.18C92.9557 38.21 91.9057 40.46 89.5057 43.28C87.8557 45.29 84.8857 48.56 82.4557 50.99C85.0657 50.93 91.2157 50.93 93.3757 50.99C93.4657 51.74 93.4657 52.64 93.3757 53.33C91.1857 53.45 83.0257 53.45 78.8257 53.33ZM103.808 53.78C98.5282 53.78 95.7382 50.54 95.7382 41.21C95.7382 31.85 98.5282 28.64 103.808 28.64C108.908 28.64 111.848 31.67 111.848 41.21C111.848 50.66 108.998 53.78 103.808 53.78ZM103.808 51.35C107.498 51.35 109.208 48.95 109.208 41.21C109.208 33.38 107.348 31.07 103.808 31.07C100.178 31.07 98.4082 33.53 98.4082 41.21C98.4082 48.92 100.118 51.35 103.808 51.35ZM113.793 53.33C113.733 52.55 113.733 51.86 113.793 51.08C117.183 47.72 120.663 43.85 122.493 41.66C124.533 39.23 125.283 37.76 125.283 35.3C125.283 32.87 123.633 31.07 120.903 31.07C118.233 31.07 116.973 32.3 115.953 34.25C115.113 34.01 114.303 33.56 113.643 32.99C115.143 30.11 117.423 28.64 120.903 28.64C125.463 28.64 127.923 31.55 127.923 35.18C127.923 38.21 126.873 40.46 124.473 43.28C122.823 45.29 119.853 48.56 117.423 50.99C120.033 50.93 126.183 50.93 128.343 50.99C128.433 51.74 128.433 52.64 128.343 53.33C126.153 53.45 117.993 53.45 113.793 53.33ZM137.486 53.78C132.896 53.78 130.946 51.86 129.866 48.92C130.646 48.5 131.426 48.26 132.326 48.08C133.106 50.15 134.606 51.35 137.486 51.35C140.666 51.35 142.406 49.43 142.406 46.52C142.406 43.34 140.516 41.57 137.966 41.57H135.686C135.596 40.97 135.596 39.92 135.686 39.29H137.966C139.976 39.29 141.686 37.79 141.686 35.15C141.686 32.69 140.126 31.01 137.426 31.01C135.326 31.01 133.766 32 133.196 33.65C132.356 33.53 131.396 33.17 130.736 32.75C131.636 30.41 133.676 28.64 137.426 28.64C141.866 28.64 144.296 31.34 144.296 35.03C144.296 37.61 143.156 39.59 141.056 40.43C143.546 41.18 145.016 43.28 145.016 46.67C145.016 51.2 141.896 53.78 137.486 53.78ZM158.034 40.7C160.704 43.4 166.314 49.37 169.104 52.37C168.654 53 167.934 53.66 167.214 54.02C164.124 50.81 159.444 45.77 156.054 41.99V53.33C155.154 53.48 154.284 53.48 153.504 53.33C153.384 49.88 153.414 32.87 153.504 29C154.194 28.85 155.274 28.85 156.054 29V39.41C159.414 35.69 164.004 30.68 166.134 28.52C166.794 28.85 167.574 29.54 168.024 30.14C165.564 32.87 160.494 38.3 158.034 40.7ZM182.518 40.85C185.458 41.51 187.318 43.46 187.318 46.7C187.318 50.9 184.618 53.15 180.148 53.33C178.108 53.42 173.788 53.42 171.208 53.33C171.118 48.53 171.148 34.22 171.208 29C173.548 28.91 177.778 28.88 179.788 29C182.788 29.18 186.058 30.86 186.058 35.21C186.058 38.12 184.768 40.04 182.518 40.85ZM178.948 31.34C177.568 31.28 174.928 31.31 173.758 31.37C173.788 33.26 173.788 36.5 173.788 39.86C175.378 39.89 177.028 39.89 179.338 39.83C181.858 39.8 183.448 38.12 183.448 35.51C183.448 32.87 181.828 31.49 178.948 31.34ZM179.728 50.93C183.058 50.81 184.708 49.4 184.708 46.46C184.708 43.97 182.968 42.29 179.728 42.2C177.418 42.14 175.438 42.17 173.788 42.2C173.788 45.77 173.788 49.13 173.758 50.93C175.018 50.99 178.318 50.99 179.728 50.93ZM198.755 53.75C192.395 53.75 188.915 49.94 188.915 41.21C188.915 32.51 192.365 28.67 198.755 28.67C205.145 28.67 208.595 32.51 208.595 41.21C208.595 50 205.055 53.75 198.755 53.75ZM198.755 51.41C203.465 51.41 206.015 48.53 206.015 41.21C206.015 34.13 203.645 31.01 198.755 31.01C193.985 31.01 191.495 33.98 191.495 41.21C191.495 48.5 194.015 51.41 198.755 51.41ZM232.572 32.54C230.262 32.6 217.122 32.6 215.082 32.54C214.992 31.91 214.992 30.98 215.082 30.38C215.952 30.35 219.222 30.32 222.732 30.32C222.702 29.27 222.732 27.92 222.792 27.17C223.362 27.05 224.682 27.05 225.402 27.17C225.432 27.89 225.462 29.24 225.432 30.32C228.582 30.32 231.492 30.35 232.572 30.38C232.662 30.95 232.662 31.94 232.572 32.54ZM241.632 36.8C241.692 37.43 241.692 38.39 241.632 39.08C241.092 39.14 239.742 39.14 238.542 39.11C238.542 42.98 238.542 46.7 238.512 48.5C237.942 48.59 236.652 48.59 235.962 48.5C235.932 44.75 235.932 31.37 235.962 27.86C236.562 27.74 237.882 27.71 238.512 27.86C238.542 29.57 238.542 33.08 238.542 36.77C239.712 36.74 241.032 36.77 241.632 36.8ZM232.062 39.62C232.062 43.79 229.632 45.2 224.082 45.2C218.532 45.2 216.102 43.79 216.102 39.62C216.102 35.45 218.532 34.04 224.082 34.04C229.632 34.04 232.062 35.45 232.062 39.62ZM218.532 39.62C218.532 42.02 220.002 43.1 224.082 43.1C228.162 43.1 229.632 42.02 229.632 39.62C229.632 37.22 228.162 36.14 224.082 36.14C220.002 36.14 218.532 37.22 218.532 39.62ZM220.152 52.13C225.042 52.1 236.052 52.07 238.992 52.13C239.082 52.79 239.082 53.72 238.992 54.35C235.992 54.5 222.222 54.5 217.632 54.35C217.512 52.4 217.572 48.53 217.632 46.94C218.202 46.85 219.522 46.85 220.152 46.94C220.182 48.38 220.182 50.6 220.152 52.13ZM262.54 30.5C258.82 30.53 246.88 30.59 244.27 30.5C244.18 29.84 244.18 28.94 244.27 28.28C246.94 28.16 261.7 28.16 265.09 28.28C265.24 30.8 265.21 34.49 265.09 36.35C264.58 36.44 263.05 36.44 262.54 36.35C262.51 34.46 262.51 31.79 262.54 30.5ZM267.52 38.45C267.64 39.08 267.64 40.01 267.52 40.67C265.27 40.7 260.83 40.73 256.15 40.73C256.18 41.99 256.18 43.43 256.15 44.69C260.26 44.69 264.19 44.72 265.69 44.78C265.87 47.27 265.78 52.52 265.69 54.44C265.09 54.5 263.74 54.5 263.14 54.44C263.08 52.46 263.14 48.77 263.14 46.97C259.45 46.97 246.61 47.06 243.88 46.97C243.79 46.31 243.79 45.44 243.88 44.78C245.17 44.72 249.19 44.69 253.51 44.69C253.48 43.46 253.48 41.99 253.51 40.73C249.01 40.73 244.63 40.7 242.14 40.67C242.02 40.04 242.02 39.08 242.14 38.45C248.62 38.36 262.66 38.39 267.52 38.45ZM293.138 27.86C293.258 31.73 293.228 50.87 293.138 54.44C292.568 54.56 291.308 54.53 290.618 54.44C290.498 50.87 290.528 31.52 290.618 27.86C291.188 27.71 292.508 27.71 293.138 27.86ZM278.708 28.55C278.768 30.62 278.798 35.87 278.738 39.26C281.198 42.92 284.888 48.35 286.628 51.05C286.238 51.53 285.188 52.25 284.588 52.43C283.028 50.27 279.698 45.26 277.388 41.66C275.378 45.47 272.528 50.6 271.118 52.85C270.548 52.76 269.378 52.19 268.928 51.71C270.488 48.89 273.788 43.01 276.068 39.05C276.008 35.6 276.038 30.47 276.098 28.55C276.668 28.43 278.048 28.4 278.708 28.55ZM317.315 54.44C317.195 50.87 317.225 31.52 317.315 27.86C317.885 27.71 319.205 27.71 319.835 27.86C319.955 31.73 319.925 50.87 319.835 54.44C319.265 54.56 318.005 54.53 317.315 54.44ZM296.765 52.25C296.615 48.8 296.645 42.95 296.765 39.44C300.005 39.38 306.695 39.41 308.315 39.44C308.315 37.46 308.315 32.96 308.345 31.16C306.185 31.19 299.225 31.22 296.885 31.16C296.765 30.5 296.765 29.54 296.885 28.88C299.255 28.76 307.565 28.76 310.865 28.88C311.015 32.3 310.985 38.21 310.865 41.69C307.985 41.81 301.715 41.75 299.315 41.75C299.315 43.67 299.315 48.14 299.285 49.97C301.925 49.91 310.445 49.94 312.965 50C313.055 50.63 313.055 51.59 312.965 52.25C310.655 52.34 300.485 52.37 296.765 52.25ZM324.783 45.59C324.303 45.23 323.583 44.24 323.373 43.64C326.013 41.93 330.363 39.17 333.573 37.1C333.543 35.27 333.543 33.02 333.573 31.37C329.763 31.37 326.163 31.34 324.363 31.31C324.273 30.62 324.273 29.75 324.363 29.12C328.413 29.06 340.473 29.03 345.513 29.12C345.603 29.78 345.603 30.68 345.513 31.31C343.623 31.34 340.023 31.37 336.273 31.37C336.273 33.02 336.273 35.24 336.243 37.04C339.513 39.02 343.983 41.72 346.593 43.37C346.383 44.03 345.723 44.99 345.213 45.38C342.873 43.97 338.343 41.24 334.983 39.11C331.653 41.33 327.153 44.15 324.783 45.59ZM347.613 51.32C347.733 51.95 347.733 52.82 347.613 53.54C344.553 53.66 326.073 53.63 322.233 53.54C322.113 52.82 322.113 51.98 322.233 51.32C326.973 51.2 344.493 51.26 347.613 51.32ZM379.92 41.12C380.04 42.17 380.04 43.58 379.92 44.75C377.34 44.93 357.66 44.87 354.12 44.75C354 43.73 354 42.23 354.12 41.12C356.55 41.06 360.54 41.06 364.68 41.06V39.83C360.81 39.8 357.27 39.77 356.07 39.74C355.89 37.43 355.92 29.81 356.07 27.56C358.98 27.41 374.67 27.47 377.67 27.56C377.79 28.7 377.79 29.84 377.67 30.98C375.57 31.04 362.91 31.04 360.66 30.98V32.03C364.95 32 374.46 32.03 376.77 32.03C376.89 33.17 376.86 34.16 376.77 35.3C374.55 35.36 364.95 35.33 360.66 35.3V36.35C363.03 36.35 375.75 36.38 377.97 36.41C378.06 37.58 378.06 38.84 377.97 39.8C376.92 39.86 373.35 39.86 369.36 39.86V41.06C374.25 41.06 378.6 41.09 379.92 41.12ZM367.02 45.89C375.99 45.89 378.81 47.15 378.81 50.54C378.81 53.93 376.44 55.22 367.02 55.22C357.6 55.22 355.23 53.93 355.23 50.54C355.23 47.15 358.05 45.89 367.02 45.89ZM367.02 51.62C373.44 51.62 374.25 51.29 374.25 50.54C374.25 49.79 373.44 49.49 367.02 49.49C360.6 49.49 359.79 49.79 359.79 50.54C359.79 51.29 360.6 51.62 367.02 51.62ZM398.187 32.75C395.577 32.81 382.437 32.81 380.667 32.75C380.547 31.61 380.547 30.08 380.667 28.97C381.267 28.94 384.027 28.91 387.267 28.91C387.267 28.31 387.297 27.71 387.327 27.2C388.137 27.02 390.837 27.02 392.037 27.2C392.067 27.71 392.067 28.31 392.067 28.91C394.647 28.91 396.987 28.94 398.187 28.97C398.247 30.02 398.277 31.73 398.187 32.75ZM407.307 33.29C407.397 34.43 407.397 36.2 407.307 37.34C406.827 37.4 405.927 37.43 404.727 37.43C404.727 39.86 404.697 42.05 404.667 43.22C403.737 43.34 401.247 43.31 400.197 43.22C400.107 40.64 400.107 29.93 400.197 27.65C401.007 27.53 403.617 27.5 404.667 27.65C404.697 28.88 404.697 30.95 404.727 33.23C405.777 33.23 406.677 33.26 407.307 33.29ZM389.667 43.16C383.547 43.16 381.297 41.84 381.297 38.33C381.297 34.7 383.817 33.5 389.667 33.5C395.787 33.5 398.037 34.82 398.037 38.33C398.037 41.96 395.517 43.16 389.667 43.16ZM389.667 37.04C386.367 37.04 385.497 37.55 385.497 38.33C385.497 39.14 386.487 39.65 389.667 39.65C392.967 39.65 393.837 39.14 393.837 38.33C393.837 37.55 392.847 37.04 389.667 37.04ZM400.257 45.95V44.54C401.817 44.48 403.557 44.48 404.667 44.54C404.757 47.78 404.787 51.26 404.667 54.74C402.657 54.92 384.717 54.95 382.377 54.74C382.227 51.47 382.227 46.7 382.377 44.54C383.187 44.42 386.097 44.48 386.787 44.54V45.95C390.537 45.92 396.447 45.92 400.257 45.95ZM386.787 49.67V50.99C389.577 51.05 398.067 51.05 400.257 50.99V49.67C396.237 49.7 390.507 49.7 386.787 49.67ZM420.415 42.35C411.235 42.35 408.505 40.07 408.505 35.21C408.505 30.35 411.235 28.07 420.415 28.07C429.595 28.07 432.325 30.35 432.325 35.21C432.325 40.07 429.595 42.35 420.415 42.35ZM420.415 32.09C414.565 32.09 413.155 32.84 413.155 35.21C413.155 37.58 414.565 38.33 420.415 38.33C426.265 38.33 427.675 37.58 427.675 35.21C427.675 32.84 426.265 32.09 420.415 32.09ZM433.315 44.63C433.435 45.74 433.435 47.27 433.315 48.53C432.175 48.62 427.705 48.65 422.755 48.65C422.755 50.78 422.755 53.6 422.725 54.8C421.735 54.86 419.335 54.86 418.135 54.8C418.075 53.75 418.075 50.87 418.075 48.65C413.365 48.62 409.015 48.59 407.515 48.53C407.395 47.45 407.395 45.8 407.515 44.63C413.755 44.51 430.495 44.57 433.315 44.63ZM436.583 38.21C435.983 37.46 435.113 35.48 434.963 34.52C437.363 33.62 441.263 32.15 444.683 30.89C444.653 29.75 444.683 28.58 444.743 27.65C445.553 27.56 448.433 27.53 449.483 27.65C449.543 28.61 449.573 29.78 449.543 30.92C452.963 32.12 456.893 33.5 459.353 34.4C459.173 35.45 458.453 37.25 457.793 38.12C455.873 37.55 451.073 35.84 447.173 34.31C443.243 35.9 438.413 37.67 436.583 38.21ZM460.013 39.26C460.133 40.31 460.133 41.84 460.013 43.01C457.433 43.19 437.753 43.13 434.213 43.01C434.093 41.99 434.093 40.37 434.213 39.26C440.453 39.14 457.193 39.2 460.013 39.26ZM447.113 44.45C456.533 44.45 458.963 46.16 458.963 49.76C458.963 53.39 456.533 55.1 447.113 55.1C437.693 55.1 435.263 53.39 435.263 49.76C435.263 46.16 437.693 44.45 447.113 44.45ZM447.113 51.17C453.473 51.17 454.193 50.6 454.193 49.76C454.193 48.95 453.473 48.38 447.113 48.38C440.753 48.38 440.033 48.95 440.033 49.76C440.033 50.6 440.753 51.17 447.113 51.17ZM486.709 54.65C486.589 51.17 486.619 31.13 486.709 27.65C487.519 27.47 490.159 27.5 491.209 27.65C491.329 31.76 491.329 51.08 491.209 54.65C490.279 54.77 487.759 54.74 486.709 54.65ZM477.079 52.64C477.079 50.42 477.109 34.79 477.079 32.6C475.219 32.66 468.979 32.66 466.699 32.6C466.579 31.43 466.579 29.6 466.699 28.49C469.099 28.37 478.909 28.34 481.549 28.49C481.759 31.97 481.819 49.16 481.639 52.64C480.859 52.79 478.159 52.76 477.079 52.64ZM505.727 33.89C506.567 33.86 510.677 33.86 513.377 33.86V32.75C510.707 32.75 506.627 32.75 505.727 32.69C505.637 31.55 505.637 30.2 505.727 29.06C506.567 29.03 510.707 29.03 513.407 29.03C513.407 28.46 513.437 27.98 513.437 27.65C514.247 27.53 516.857 27.5 517.907 27.65C517.967 30.89 517.997 39.74 517.907 42.71C516.977 42.83 514.487 42.8 513.437 42.71C513.407 41.75 513.377 39.8 513.377 37.58C510.707 37.58 506.627 37.58 505.727 37.52C505.637 36.38 505.637 35.03 505.727 33.89ZM510.017 42.26C507.617 42.35 496.547 42.38 493.817 42.26C493.667 39.41 493.667 30.5 493.817 28.16C494.747 28.04 497.207 28.07 498.287 28.16C498.347 30.26 498.317 36.89 498.287 38.54C500.417 38.48 507.767 38.48 510.017 38.54C510.137 39.68 510.137 41.12 510.017 42.26ZM517.907 44.06C518.027 46.43 518.027 52.49 517.907 54.74C515.897 54.92 497.957 54.95 495.617 54.74C495.467 51.47 495.527 47.09 495.617 44.06C497.477 43.94 517.097 43.97 517.907 44.06ZM513.497 50.99C513.557 50.12 513.557 48.92 513.497 47.84C511.817 47.75 502.007 47.78 500.027 47.84C499.967 48.77 499.937 49.79 500.027 50.99C501.407 51.08 512.237 51.05 513.497 50.99Z" fill="#FFDD9F"/>
</g>
<path d="M40 40.709H72.9104" stroke="#FFDD9F" stroke-width="1.82836"/>
<path d="M522.688 40.709H555.598" stroke="#FFDD9F" stroke-width="1.82836"/>
<rect x="4" y="229" width="588" height="17" fill="#D3364F"/>
<path d="M7.62805 238.664C7.58005 238.04 7.58005 237.488 7.62805 236.864C10.3401 234.176 13.1241 231.08 14.5881 229.328C16.2201 227.384 16.8201 226.208 16.8201 224.24C16.8201 222.296 15.5001 220.856 13.3161 220.856C11.1801 220.856 10.1721 221.84 9.35605 223.4C8.68405 223.208 8.03605 222.848 7.50805 222.392C8.70805 220.088 10.5321 218.912 13.3161 218.912C16.9641 218.912 18.9321 221.24 18.9321 224.144C18.9321 226.568 18.0921 228.368 16.1721 230.624C14.8521 232.232 12.4761 234.848 10.5321 236.792C12.6201 236.744 17.5401 236.744 19.2681 236.792C19.3401 237.392 19.3401 238.112 19.2681 238.664C17.5161 238.76 10.9881 238.76 7.62805 238.664ZM27.1101 239.264C26.4141 239.144 25.7661 238.856 25.2381 238.424C26.2941 236.552 28.6701 232.328 29.6301 230.48C28.6941 231.176 27.7341 231.416 26.5581 231.416C23.3421 231.416 21.0381 228.968 21.0381 225.368C21.0381 221.36 23.1501 218.912 27.1341 218.912C31.1661 218.912 33.2061 221.504 33.2061 225.368C33.2061 227.696 32.3421 229.616 31.2861 231.728C30.5181 233.288 28.0701 237.656 27.1101 239.264ZM27.1101 229.664C29.4621 229.664 31.1421 228.152 31.1421 225.416C31.1421 222.56 29.8461 220.832 27.1341 220.832C24.4221 220.832 23.1261 222.416 23.1261 225.416C23.1261 228.272 24.7101 229.664 27.1101 229.664ZM44.5732 224.552C45.7492 224.528 49.6132 224.528 51.8452 224.552V222.128C49.6612 222.176 45.7492 222.152 44.5732 222.104C44.5252 221.576 44.5252 220.88 44.5732 220.4C45.7492 220.376 49.6372 220.376 51.8692 220.4V218.288C52.3492 218.192 53.4052 218.168 53.9092 218.288C53.9572 221.192 53.9572 230.672 53.9092 233.6C53.4532 233.672 52.4212 233.672 51.8692 233.6C51.8692 232.256 51.8452 229.28 51.8452 226.28C49.6612 226.328 45.7492 226.304 44.5732 226.256C44.5252 225.728 44.5252 225.032 44.5732 224.552ZM47.8132 230.264C45.8692 230.336 37.5892 230.36 35.2612 230.264C35.1412 227.744 35.1412 220.664 35.2612 218.696C35.6692 218.6 36.7732 218.624 37.2532 218.696C37.3012 220.616 37.2772 227.168 37.2532 228.536C38.5732 228.488 45.9652 228.488 47.8132 228.536C47.8852 229.04 47.8852 229.736 47.8132 230.264ZM54.3172 237.704C54.3652 238.208 54.3652 238.976 54.3172 239.48C51.8692 239.6 40.7572 239.6 37.0612 239.48C36.9412 237.752 36.9892 233.936 37.0612 232.496C37.5172 232.424 38.5492 232.424 39.0532 232.496C39.1012 233.84 39.1012 236.264 39.0532 237.704C43.0132 237.68 51.9172 237.656 54.3172 237.704ZM76.7794 224.24C76.8274 224.744 76.8274 225.512 76.7794 226.064C76.3474 226.112 75.2674 226.112 74.3074 226.088C74.3074 229.136 74.3074 232.184 74.2834 233.624C73.8274 233.72 72.7954 233.696 72.2434 233.624C72.2194 230.792 72.2194 220.928 72.2434 218.288C72.7234 218.192 73.7794 218.168 74.2834 218.288C74.3074 219.464 74.3074 221.744 74.3074 224.216C75.2434 224.192 76.2994 224.216 76.7794 224.24ZM67.9954 229.544C66.1474 229.64 58.4914 229.664 56.3794 229.544C56.2834 226.976 56.2834 221.24 56.3794 218.84C58.1554 218.744 65.9314 218.744 67.9954 218.84C68.1154 221.408 68.1154 227.288 67.9954 229.544ZM58.3474 220.592C58.2994 221.912 58.2994 226.472 58.3474 227.792C60.1474 227.84 64.2274 227.864 66.0514 227.792C66.0994 226.52 66.0994 221.912 66.0514 220.592C64.2754 220.544 60.4834 220.568 58.3474 220.592ZM59.5954 237.704C63.5074 237.68 72.3154 237.656 74.6674 237.704C74.7394 238.232 74.7394 238.976 74.6674 239.48C72.2674 239.6 61.2514 239.6 57.5794 239.48C57.4834 237.656 57.5314 233.36 57.5794 231.872C58.0354 231.8 59.0914 231.8 59.5954 231.872C59.6194 233.288 59.6194 236.216 59.5954 237.704ZM94.4175 239.552C94.3215 236.696 94.3215 221.216 94.4175 218.288C94.8735 218.168 95.9535 218.168 96.4575 218.288C96.5295 221.36 96.5055 236.696 96.4575 239.552C96.0015 239.648 94.9695 239.624 94.4175 239.552ZM84.9855 231.296C80.2335 231.296 78.3135 228.968 78.3135 224.84C78.3135 220.688 80.2335 218.384 84.9855 218.384C89.7375 218.384 91.6575 220.688 91.6575 224.84C91.6575 228.968 89.7375 231.296 84.9855 231.296ZM84.9855 229.472C88.3935 229.472 89.5695 227.816 89.5695 224.84C89.5695 221.84 88.3935 220.184 84.9855 220.184C81.5775 220.184 80.4015 221.84 80.4015 224.84C80.4015 227.816 81.5775 229.472 84.9855 229.472ZM77.2095 237.68C77.0895 237.128 77.0895 236.408 77.2095 235.904C79.8735 235.808 90.2895 235.808 92.7375 235.904C92.8335 236.48 92.8335 237.128 92.7375 237.68C90.5535 237.752 80.4255 237.752 77.2095 237.68ZM123.911 226.856C123.983 227.36 123.983 228.176 123.911 228.728C123.239 228.752 122.351 228.776 121.367 228.776C121.367 233.432 121.343 238.088 121.319 239.552C120.863 239.648 119.831 239.624 119.279 239.552C119.207 236.696 119.207 221.216 119.279 218.288C119.759 218.168 120.815 218.168 121.319 218.288C121.343 219.584 121.367 223.04 121.367 226.832C122.327 226.832 123.191 226.832 123.911 226.856ZM114.431 220.832C114.455 222.296 114.455 224.36 114.431 225.968C115.535 229.712 116.567 233.552 117.551 237.416C117.215 237.608 116.375 237.872 115.847 237.92C115.007 234.92 114.215 231.872 113.423 228.848C112.679 231.8 111.911 234.704 111.071 237.632C110.543 237.728 109.655 237.728 109.103 237.632C108.287 234.728 107.495 231.8 106.751 228.848C105.959 231.944 105.143 235.088 104.327 238.16C103.799 238.136 103.031 237.92 102.599 237.704C103.583 233.768 104.639 229.808 105.719 225.992V220.832C104.591 220.832 103.535 220.808 103.055 220.784C103.007 220.304 103.007 219.608 103.055 219.128C104.207 219.056 108.455 219.056 109.559 219.128C109.607 219.56 109.607 220.304 109.559 220.784C109.199 220.808 108.503 220.832 107.711 220.832C107.735 222.2 107.735 224.096 107.711 225.656C108.575 229.04 109.439 232.328 110.087 235.184C110.759 232.328 111.575 229.088 112.439 225.752V220.832C111.575 220.832 110.831 220.808 110.423 220.784C110.375 220.304 110.375 219.608 110.423 219.128C111.575 219.056 115.943 219.056 117.071 219.128C117.119 219.56 117.119 220.304 117.071 220.784C116.591 220.808 115.559 220.832 114.431 220.832ZM143.661 232.16C143.205 232.232 142.173 232.232 141.621 232.16C141.597 229.52 141.597 220.736 141.621 218.288C142.101 218.192 143.157 218.168 143.661 218.288C143.709 220.976 143.709 229.424 143.661 232.16ZM138.213 229.304C136.389 229.376 129.261 229.424 125.013 229.304C124.917 228.032 124.917 224.408 125.013 223.28C127.221 223.256 133.173 223.256 134.565 223.28V220.544C132.645 220.568 127.245 220.568 125.109 220.544C125.037 220.04 125.037 219.368 125.109 218.84C127.077 218.792 133.701 218.816 136.485 218.84C136.581 220.088 136.557 223.64 136.485 224.888C134.205 224.936 128.637 224.936 126.981 224.888V227.6H138.213C138.285 228.08 138.285 228.8 138.213 229.304ZM144.501 237.848C144.405 238.352 144.045 239.216 143.781 239.576C141.813 238.904 137.949 237.392 135.165 236.264C132.429 237.44 128.541 239.024 126.597 239.72C126.357 239.36 125.949 238.544 125.853 238.04C127.917 237.176 131.445 235.76 134.085 234.704C134.061 233.624 134.061 232.328 134.109 231.08C134.589 230.984 135.645 230.984 136.173 231.08C136.221 232.304 136.245 233.6 136.221 234.68C138.885 235.688 142.437 237.008 144.501 237.848ZM159.283 222.032C157.435 222.08 146.923 222.08 145.291 222.032C145.219 221.528 145.219 220.784 145.291 220.304C145.987 220.28 148.603 220.256 151.411 220.256C151.387 219.416 151.411 218.336 151.459 217.736C151.915 217.64 152.971 217.64 153.547 217.736C153.571 218.312 153.595 219.392 153.571 220.256C156.091 220.256 158.419 220.28 159.283 220.304C159.355 220.76 159.355 221.552 159.283 222.032ZM166.531 225.44C166.579 225.944 166.579 226.712 166.531 227.264C166.099 227.312 165.019 227.312 164.059 227.288C164.059 230.384 164.059 233.36 164.035 234.8C163.579 234.872 162.547 234.872 161.995 234.8C161.971 231.8 161.971 221.096 161.995 218.288C162.475 218.192 163.531 218.168 164.035 218.288C164.059 219.656 164.059 222.464 164.059 225.416C164.995 225.392 166.051 225.416 166.531 225.44ZM158.875 227.696C158.875 231.032 156.931 232.16 152.491 232.16C148.051 232.16 146.107 231.032 146.107 227.696C146.107 224.36 148.051 223.232 152.491 223.232C156.931 223.232 158.875 224.36 158.875 227.696ZM148.051 227.696C148.051 229.616 149.227 230.48 152.491 230.48C155.755 230.48 156.931 229.616 156.931 227.696C156.931 225.776 155.755 224.912 152.491 224.912C149.227 224.912 148.051 225.776 148.051 227.696ZM149.347 237.704C153.259 237.68 162.067 237.656 164.419 237.704C164.491 238.232 164.491 238.976 164.419 239.48C162.019 239.6 151.003 239.6 147.331 239.48C147.235 237.92 147.283 234.824 147.331 233.552C147.787 233.48 148.843 233.48 149.347 233.552C149.371 234.704 149.371 236.48 149.347 237.704ZM181.408 229.568C174.376 229.568 172.192 227.768 172.192 224.168C172.192 220.568 174.376 218.768 181.408 218.768C188.44 218.768 190.624 220.568 190.624 224.168C190.624 227.768 188.44 229.568 181.408 229.568ZM181.408 220.616C175.84 220.616 174.304 221.72 174.304 224.168C174.304 226.616 175.84 227.72 181.408 227.72C186.976 227.72 188.512 226.616 188.512 224.168C188.512 221.72 186.976 220.616 181.408 220.616ZM191.56 231.92C191.656 232.448 191.656 233.12 191.56 233.696C190.408 233.744 186.544 233.768 182.44 233.768C182.464 235.712 182.488 238.76 182.44 239.84C181.912 239.888 180.976 239.912 180.376 239.84C180.328 238.808 180.328 235.736 180.352 233.768C176.416 233.768 172.648 233.744 171.256 233.696C171.16 233.144 171.16 232.472 171.256 231.92C175.048 231.848 189.064 231.872 191.56 231.92ZM194.222 226.208C193.886 225.848 193.502 225.032 193.406 224.528C195.518 223.664 199.022 222.272 201.686 221.264C201.662 220.232 201.686 218.984 201.71 218.12C202.19 218.024 203.27 218.024 203.822 218.12C203.846 218.984 203.87 220.208 203.846 221.24C206.51 222.224 210.062 223.544 212.222 224.384C212.126 224.912 211.766 225.68 211.43 226.088C209.438 225.392 205.622 223.928 202.838 222.824C200.03 224 196.19 225.488 194.222 226.208ZM212.918 228.128C213.014 228.608 213.014 229.328 212.918 229.856C209.078 229.928 197.078 229.952 192.614 229.856C192.518 229.376 192.518 228.632 192.614 228.128C197.798 228.056 209.03 228.056 212.918 228.128ZM202.766 231.704C209.99 231.704 211.886 233.096 211.886 235.76C211.886 238.448 209.99 239.864 202.766 239.864C195.542 239.864 193.646 238.448 193.646 235.76C193.646 233.096 195.542 231.704 202.766 231.704ZM202.766 238.064C208.814 238.064 209.798 237.152 209.798 235.76C209.798 234.392 208.814 233.504 202.766 233.504C196.718 233.504 195.734 234.392 195.734 235.76C195.734 237.152 196.718 238.064 202.766 238.064ZM224.124 225.056C216.828 225.056 215.148 223.88 215.148 221.552C215.148 219.248 216.828 218.096 224.124 218.096C231.42 218.096 233.1 219.248 233.1 221.552C233.1 223.88 231.42 225.056 224.124 225.056ZM224.124 223.328C229.98 223.328 230.988 222.656 230.988 221.552C230.988 220.472 229.98 219.824 224.124 219.824C218.268 219.824 217.26 220.472 217.26 221.552C217.26 222.656 218.268 223.328 224.124 223.328ZM213.972 228.536C213.876 228.032 213.876 227.384 213.972 226.88C219.156 226.808 230.388 226.808 234.276 226.88C234.372 227.36 234.372 228.008 234.276 228.536C230.436 228.608 218.436 228.608 213.972 228.536ZM215.436 239.552C215.364 238.256 215.316 236 215.436 234.248H230.748V232.256H215.484C215.388 231.776 215.388 230.936 215.484 230.6C220.548 230.528 229.428 230.528 232.74 230.6C232.836 231.608 232.836 234.848 232.74 235.904H217.428V237.92H233.292C233.364 238.424 233.34 239.072 233.292 239.552C231.78 239.672 218.412 239.696 215.436 239.552ZM257.074 239.552C256.978 236.696 257.002 221.216 257.074 218.288C257.53 218.168 258.586 218.168 259.09 218.288C259.186 221.384 259.162 236.696 259.09 239.552C258.634 239.648 257.626 239.624 257.074 239.552ZM249.37 237.944C249.37 235.688 249.394 222.704 249.37 220.952C247.81 221 241.882 221 239.962 220.952C239.866 220.424 239.866 219.608 239.962 219.104C241.93 219.008 248.818 218.984 251.362 219.104C251.53 221.936 251.578 235.328 251.434 237.944C251.002 238.064 249.874 238.04 249.37 237.944ZM270.848 223.592C272.048 223.568 276.104 223.568 278.384 223.592V221.624C276.152 221.672 272.072 221.648 270.848 221.6C270.776 221.072 270.776 220.4 270.848 219.896C272.048 219.872 276.104 219.872 278.408 219.896V218.288C278.888 218.192 279.944 218.168 280.448 218.288C280.496 220.688 280.496 227.6 280.448 230.024C279.992 230.096 278.96 230.096 278.408 230.024C278.408 229.064 278.384 227.264 278.384 225.32C276.152 225.344 272.072 225.344 270.848 225.296C270.776 224.744 270.776 224.096 270.848 223.592ZM274.76 229.04C272.816 229.112 264.128 229.136 261.8 229.04C261.68 226.712 261.68 220.52 261.8 218.696C262.208 218.6 263.312 218.624 263.792 218.696C263.84 220.448 263.816 226.088 263.792 227.336C265.112 227.288 272.816 227.288 274.76 227.336C274.808 227.864 274.808 228.536 274.76 229.04ZM280.448 231.248C280.544 233.648 280.544 237.128 280.448 239.48C277.712 239.624 266.072 239.624 263.24 239.48C263.12 236.864 263.168 233.84 263.24 231.248C265.928 231.176 278.024 231.176 280.448 231.248ZM278.432 237.728C278.48 236.504 278.48 234.32 278.432 233C276.632 232.928 267.128 232.952 265.256 233C265.208 234.272 265.184 236.408 265.256 237.728C266.96 237.8 276.752 237.8 278.432 237.728ZM290.526 220.664C293.07 220.664 295.422 220.688 296.286 220.712C296.358 221.168 296.358 222.008 296.286 222.488C294.462 222.536 283.782 222.536 282.198 222.488C282.126 221.984 282.126 221.192 282.198 220.712C282.894 220.688 285.534 220.664 288.39 220.664C288.366 219.68 288.366 218.312 288.414 217.616C288.894 217.52 289.974 217.52 290.502 217.616C290.55 218.312 290.55 219.656 290.526 220.664ZM303.414 227.336C303.486 227.84 303.486 228.656 303.414 229.208C302.742 229.232 301.854 229.256 300.87 229.256C300.87 233.744 300.846 238.16 300.822 239.552C300.366 239.648 299.334 239.624 298.782 239.552C298.71 236.696 298.71 221.216 298.782 218.288C299.262 218.168 300.318 218.168 300.822 218.288C300.846 219.632 300.87 223.352 300.87 227.312C301.83 227.312 302.694 227.312 303.414 227.336ZM289.494 224.408C294.102 224.408 295.878 226.496 295.878 231.584C295.878 236.672 294.102 238.76 289.494 238.76C284.886 238.76 283.11 236.672 283.11 231.584C283.11 226.496 284.886 224.408 289.494 224.408ZM289.494 237.008C292.686 237.008 293.862 235.592 293.862 231.584C293.862 227.576 292.686 226.16 289.494 226.16C286.302 226.16 285.126 227.576 285.126 231.584C285.126 235.592 286.302 237.008 289.494 237.008ZM305.428 225.584C305.332 223.592 305.356 220.064 305.428 218.48C305.908 218.408 306.988 218.408 307.468 218.48C307.54 219.992 307.516 222.56 307.492 223.832C309.244 223.76 320.5 223.784 322.468 223.856C322.54 224.36 322.54 225.056 322.468 225.584C320.476 225.68 307.852 225.68 305.428 225.584ZM303.724 230.168C303.628 229.664 303.628 228.896 303.724 228.392C308.908 228.32 320.14 228.344 324.028 228.392C324.124 228.896 324.124 229.64 324.028 230.168C320.188 230.24 308.188 230.24 303.724 230.168ZM305.188 239.552C305.068 237.704 305.116 233.888 305.188 232.352C305.644 232.28 306.748 232.28 307.228 232.352C307.276 233.816 307.276 236.6 307.228 237.8C310.948 237.776 320.86 237.752 323.044 237.8C323.14 238.28 323.14 239.048 323.044 239.552C320.812 239.672 307.348 239.672 305.188 239.552ZM330.313 238.664C330.289 234.584 330.289 223.04 330.313 219.2C330.937 219.08 331.825 219.08 332.377 219.2C332.449 222.8 332.425 233.984 332.377 236.792C333.817 236.744 339.049 236.744 340.993 236.792C341.065 237.368 341.065 238.088 340.993 238.664C339.025 238.736 332.425 238.736 330.313 238.664ZM349.568 239.024C344.696 239.024 341.672 235.976 341.672 228.968C341.672 221.96 344.72 218.912 349.592 218.912C351.944 218.912 353.744 219.44 355.376 221.096C355.064 221.648 354.584 222.152 354.08 222.488C352.928 221.384 351.464 220.856 349.592 220.856C346.136 220.856 343.784 223.112 343.784 228.968C343.784 234.824 346.064 237.056 349.568 237.056C351.704 237.056 353.336 236.48 354.104 235.784C354.104 234.416 354.08 231.488 354.104 230.264C353.168 230.312 351.44 230.312 349.976 230.264C349.88 229.76 349.88 228.968 349.976 228.44C351.872 228.368 354.032 228.368 356.12 228.44C356.144 230.696 356.168 234.392 356.12 236.552C354.728 238.136 352.544 239.024 349.568 239.024ZM376.831 231.968C374.911 232.04 361.639 232.04 359.191 231.968C359.047 228.968 359.071 222.008 359.191 219.056C361.615 218.936 374.167 218.984 376.351 219.056C376.447 219.584 376.447 220.352 376.351 220.856C374.407 220.904 363.223 220.904 361.255 220.856C361.255 221.648 361.231 223.088 361.231 224.624C364.927 224.6 372.487 224.6 375.631 224.624C375.703 225.104 375.703 225.92 375.631 226.424C372.511 226.448 364.927 226.448 361.231 226.424C361.231 227.984 361.255 229.4 361.255 230.168C363.247 230.168 374.959 230.144 376.831 230.168C376.903 230.696 376.903 231.536 376.831 231.968ZM378.031 237.056C378.127 237.56 378.127 238.256 378.031 238.832C375.583 238.928 360.799 238.904 357.727 238.832C357.631 238.256 357.631 237.584 357.727 237.056C361.519 236.96 375.535 237.008 378.031 237.056ZM398.525 234.128C398.069 234.2 397.037 234.176 396.485 234.128C396.461 230.96 396.461 221.24 396.485 218.288C396.965 218.168 398.021 218.168 398.525 218.288C398.573 221.408 398.573 230.912 398.525 234.128ZM386.717 226.952C382.157 226.952 380.261 225.536 380.261 222.656C380.261 219.8 382.157 218.36 386.717 218.36C391.301 218.36 393.197 219.8 393.197 222.656C393.197 225.536 391.301 226.952 386.717 226.952ZM386.717 220.136C383.213 220.136 382.253 221.072 382.253 222.656C382.253 224.24 383.213 225.176 386.717 225.176C390.221 225.176 391.205 224.24 391.205 222.656C391.205 221.072 390.221 220.136 386.717 220.136ZM385.973 233.456C385.949 232.616 385.925 231.392 385.925 230.264C383.117 230.264 380.405 230.24 379.085 230.216C378.989 229.664 378.989 228.992 379.085 228.464C381.701 228.392 392.093 228.392 394.517 228.464C394.589 229.064 394.589 229.688 394.517 230.216C393.461 230.24 390.845 230.264 388.037 230.264C388.037 231.392 388.037 232.64 388.013 233.456C387.437 233.552 386.549 233.552 385.973 233.456ZM398.909 237.704C398.981 238.208 398.981 239 398.909 239.48C396.485 239.6 383.573 239.6 381.293 239.48C381.173 237.8 381.221 234.968 381.293 233.768C381.749 233.696 382.757 233.696 383.285 233.768C383.309 234.776 383.309 236.792 383.285 237.704C386.333 237.68 396.533 237.656 398.909 237.704ZM402.555 232.232C402.171 231.968 401.451 231.224 401.259 230.744C403.371 228.92 406.971 225.872 409.515 223.712C409.491 221.84 409.491 219.776 409.539 218.72C410.043 218.624 411.099 218.648 411.651 218.72C411.699 219.824 411.675 221.84 411.675 223.64C414.219 225.752 417.891 228.728 420.051 230.552C419.859 231.032 419.163 231.8 418.779 232.064C416.883 230.552 413.259 227.6 410.643 225.368C408.075 227.672 404.451 230.72 402.555 232.232ZM420.747 237.056C420.843 237.56 420.843 238.256 420.747 238.832C418.299 238.928 403.515 238.904 400.443 238.832C400.347 238.256 400.347 237.584 400.443 237.056C404.235 236.96 418.251 237.008 420.747 237.056ZM444.72 227.48C442.608 227.576 430.272 227.552 427.824 227.48C427.68 225.488 427.704 220.352 427.824 218.384C430.248 218.264 442.32 218.312 444.48 218.384C444.576 218.912 444.576 219.512 444.48 220.04C442.56 220.088 431.568 220.088 429.816 220.04V222.128C433.464 222.104 440.736 222.128 443.76 222.128C443.856 222.632 443.832 223.256 443.76 223.76C440.76 223.784 433.464 223.784 429.816 223.76V225.848C431.664 225.848 442.68 225.824 444.72 225.848C444.792 226.376 444.792 227.048 444.72 227.48ZM446.424 229.592C446.52 230.072 446.52 230.768 446.424 231.296C442.584 231.368 430.584 231.392 426.12 231.296C426.024 230.816 426.024 230.096 426.12 229.592C431.304 229.52 442.536 229.52 446.424 229.592ZM427.512 233.408C429.72 233.312 442.224 233.288 444.96 233.408C445.104 235.136 445.032 238.232 444.96 239.552C444.48 239.6 443.4 239.6 442.92 239.552C442.872 238.256 442.92 236.336 442.92 235.16C439.968 235.16 429.696 235.208 427.512 235.16C427.44 234.632 427.44 233.936 427.512 233.408ZM461.014 224.816C461.758 224.792 463.534 224.792 464.854 224.816V222.008C463.534 222.032 461.782 222.032 461.014 221.984C460.966 221.432 460.966 220.664 461.014 220.16C461.758 220.136 463.534 220.136 464.854 220.16C464.878 219.368 464.878 218.72 464.878 218.288C465.358 218.192 466.414 218.168 466.918 218.288C466.966 220.592 466.966 226.688 466.918 228.992C466.462 229.064 465.43 229.064 464.878 228.992C464.878 228.44 464.878 227.624 464.854 226.664C463.558 226.688 461.782 226.688 461.014 226.64C460.966 226.088 460.966 225.32 461.014 224.816ZM459.79 227.888C457.894 227.984 450.406 228.008 448.27 227.888C448.222 226.208 448.222 220.352 448.27 218.624C448.822 218.528 449.806 218.552 450.286 218.624V221.528C452.302 221.504 455.806 221.504 457.822 221.528V218.624C458.35 218.552 459.262 218.552 459.79 218.624C459.862 220.472 459.862 226.496 459.79 227.888ZM450.286 223.232V226.16C451.942 226.208 456.334 226.208 457.822 226.16V223.232C455.806 223.256 452.278 223.256 450.286 223.232ZM451.702 237.824H467.302C467.374 238.28 467.35 239.048 467.302 239.48C464.974 239.576 452.686 239.6 449.71 239.48C449.614 238.352 449.566 235.784 449.71 233.912H464.902V231.704H449.758C449.662 231.248 449.662 230.456 449.758 230.048C454.366 229.976 463.726 229.952 466.894 230.024C466.99 231.056 466.99 234.416 466.894 235.52H451.702V237.824ZM492.859 218.264C492.907 221.288 492.907 236.696 492.859 239.576C492.427 239.648 491.443 239.648 490.891 239.576C490.843 238.112 490.843 233.384 490.843 228.704C489.883 228.728 488.731 228.728 487.627 228.704C487.603 233.288 487.603 237.92 487.579 239.336C487.147 239.408 486.163 239.408 485.611 239.336C485.539 236.48 485.539 221.216 485.611 218.384C486.091 218.264 487.099 218.288 487.579 218.384C487.603 219.656 487.627 223.088 487.627 226.856C488.707 226.832 489.835 226.832 490.843 226.856C490.843 222.992 490.867 219.488 490.891 218.264C491.371 218.144 492.379 218.144 492.859 218.264ZM475.651 235.976C477.043 235.928 482.155 235.952 483.475 236C483.571 236.504 483.571 237.272 483.475 237.8C482.011 237.872 476.011 237.896 473.731 237.8C473.587 235.04 473.611 230.36 473.731 227.552C475.843 227.504 479.563 227.528 480.571 227.552C480.571 225.968 480.571 222.368 480.595 220.928C478.291 220.952 476.323 220.976 473.827 220.928C473.731 220.4 473.731 219.632 473.827 219.104C475.363 219.032 480.451 219.008 482.539 219.104C482.683 221.84 482.659 226.568 482.539 229.352C480.787 229.448 476.851 229.4 475.675 229.4C475.675 230.936 475.675 234.512 475.651 235.976ZM513.762 225.2C509.898 225.272 499.386 225.272 495.594 225.2C495.522 224.648 495.522 224.096 495.594 223.568C496.53 223.544 497.874 223.544 499.434 223.52C499.41 222.536 499.41 221.288 499.434 220.304C497.97 220.28 496.722 220.28 495.834 220.256C495.762 219.728 495.762 219.128 495.834 218.624C499.914 218.552 510.042 218.552 513.522 218.624C513.57 219.128 513.57 219.68 513.522 220.256C512.634 220.28 511.362 220.28 509.898 220.304C509.922 221.288 509.922 222.536 509.898 223.52C511.458 223.544 512.826 223.544 513.762 223.568C513.834 224.096 513.834 224.624 513.762 225.2ZM501.426 220.304C501.45 221.288 501.45 222.536 501.426 223.52H507.906C507.882 222.536 507.882 221.288 507.906 220.304H501.426ZM514.818 227.144C514.914 227.624 514.914 228.272 514.818 228.8C510.978 228.872 498.978 228.896 494.514 228.8C494.418 228.32 494.418 227.648 494.514 227.144C499.698 227.048 510.93 227.072 514.818 227.144ZM497.97 236.024V237.92H513.834C513.906 238.424 513.882 239.072 513.834 239.552C512.322 239.672 498.954 239.696 495.978 239.552C495.906 238.256 495.858 236.096 495.978 234.368H511.29V232.496H496.026C495.93 232.016 495.93 231.176 496.026 230.84C501.09 230.768 509.97 230.768 513.282 230.84C513.378 231.848 513.378 234.992 513.282 236.024H497.97ZM537.615 239.552C537.519 236.696 537.543 221.216 537.615 218.288C538.071 218.168 539.127 218.168 539.631 218.288C539.727 221.384 539.703 236.696 539.631 239.552C539.175 239.648 538.167 239.624 537.615 239.552ZM526.983 238.376C522.519 238.376 520.503 236.072 520.503 228.464C520.503 220.856 522.519 218.552 526.983 218.552C531.447 218.552 533.439 220.856 533.439 228.464C533.439 236.072 531.447 238.376 526.983 238.376ZM526.983 236.48C530.127 236.48 531.351 234.8 531.351 228.464C531.351 222.128 530.127 220.448 526.983 220.448C523.911 220.448 522.591 222.128 522.591 228.464C522.591 234.8 523.911 236.48 526.983 236.48ZM561.253 233.96C560.821 234.032 559.837 234.032 559.285 233.96C559.237 231.8 559.237 220.256 559.285 218.264C559.765 218.168 560.773 218.168 561.253 218.264C561.301 220.424 561.301 231.824 561.253 233.96ZM551.197 229.856C549.589 229.952 543.925 229.976 542.101 229.856C542.053 227.96 542.053 220.88 542.101 218.96C542.653 218.864 543.565 218.888 544.045 218.96V222.56C545.533 222.536 547.789 222.536 549.277 222.56V218.96C549.829 218.888 550.669 218.888 551.197 218.96C551.221 219.8 551.245 221.576 551.245 223.448C552.325 223.424 553.453 223.424 554.509 223.448C554.509 221.096 554.533 219.104 554.557 218.384C555.037 218.288 556.045 218.288 556.501 218.384C556.573 220.52 556.549 231.728 556.501 233.792C556.093 233.864 555.109 233.864 554.557 233.792C554.509 232.664 554.509 228.824 554.509 225.248C553.453 225.272 552.325 225.272 551.245 225.248C551.245 227.264 551.221 229.136 551.197 229.856ZM544.045 224.288V228.152C545.365 228.2 548.125 228.2 549.277 228.152V224.288C547.765 224.312 545.509 224.312 544.045 224.288ZM561.661 237.704C561.709 238.232 561.709 238.976 561.661 239.48C559.165 239.6 547.717 239.6 543.925 239.48C543.829 237.68 543.877 233.576 543.925 232.112C544.381 232.04 545.437 232.04 545.941 232.112C545.965 233.48 545.965 236.24 545.941 237.704C549.949 237.68 559.213 237.656 561.661 237.704ZM582.011 231.968C580.091 232.04 566.819 232.04 564.371 231.968C564.227 228.968 564.251 222.008 564.371 219.056C566.795 218.936 579.347 218.984 581.531 219.056C581.627 219.584 581.627 220.352 581.531 220.856C579.587 220.904 568.403 220.904 566.435 220.856C566.435 221.648 566.411 223.088 566.411 224.624C570.107 224.6 577.667 224.6 580.811 224.624C580.883 225.104 580.883 225.92 580.811 226.424C577.691 226.448 570.107 226.448 566.411 226.424C566.411 227.984 566.435 229.4 566.435 230.168C568.427 230.168 580.139 230.144 582.011 230.168C582.083 230.696 582.083 231.536 582.011 231.968ZM583.211 237.056C583.307 237.56 583.307 238.256 583.211 238.832C580.763 238.928 565.979 238.904 562.907 238.832C562.811 238.256 562.811 237.584 562.907 237.056C566.699 236.96 580.715 237.008 583.211 237.056ZM585.945 233.336C585.849 231.296 585.777 221.216 585.753 218.984C586.689 218.888 587.265 218.888 588.153 218.984C588.153 221.216 588.033 231.32 587.937 233.336C587.361 233.408 586.593 233.408 585.945 233.336ZM585.777 238.736C585.729 237.848 585.729 237.128 585.777 236.264C586.689 236.216 587.289 236.216 588.153 236.264C588.201 237.152 588.201 237.848 588.153 238.712C587.265 238.784 586.641 238.784 585.777 238.736Z" fill="white"/>
<path d="M239.97 1.82812L242.433 9.40831L250.403 9.40831L243.955 14.0931L246.418 21.6733L239.97 16.9885L233.522 21.6733L235.985 14.0931L229.537 9.40831L237.507 9.40831L239.97 1.82812Z" fill="#FADC8D"/>
<path d="M269.224 1.82812L271.687 9.40831L279.657 9.40831L273.209 14.0931L275.672 21.6733L269.224 16.9885L262.776 21.6733L265.239 14.0931L258.791 9.40831L266.761 9.40831L269.224 1.82812Z" fill="#FADC8D"/>
<path d="M327.732 1.82812L330.195 9.40831L338.165 9.40831L331.717 14.0931L334.18 21.6733L327.732 16.9885L321.284 21.6733L323.747 14.0931L317.299 9.40831L325.269 9.40831L327.732 1.82812Z" fill="#FADC8D"/>
<path d="M356.986 1.82812L359.449 9.40831L367.419 9.40831L360.971 14.0931L363.434 21.6733L356.986 16.9885L350.538 21.6733L353.001 14.0931L346.553 9.40831L354.523 9.40831L356.986 1.82812Z" fill="#FADC8D"/>
<g clip-path="url(#clip0_10067_30353)">
<path d="M305.505 19.1014C309.274 15.112 308.973 8.69659 304.832 4.77218C300.692 0.847776 294.281 0.900458 290.512 4.88985C286.743 8.87924 287.044 15.2946 291.184 19.219C295.324 23.1435 301.736 23.0908 305.505 19.1014Z" fill="white"/>
<path d="M297.612 1.86414C300.178 1.86414 302.779 2.83 304.827 4.77504C308.97 8.69844 309.269 15.1131 305.498 19.1031C303.597 21.1214 301.016 22.1273 298.396 22.1273C295.776 22.1273 293.229 21.1614 291.181 19.2163C287.038 15.2996 286.739 8.87829 290.509 4.89494C292.411 2.87663 294.991 1.8708 297.612 1.8708M297.612 0.00568455C294.36 0.00568455 291.354 1.28462 289.153 3.61601C286.978 5.90743 285.861 8.95156 286.014 12.1689C286.167 15.3596 287.543 18.3437 289.897 20.5752C292.225 22.78 295.244 23.999 298.396 23.999C301.548 23.999 304.654 22.7201 306.855 20.3887C311.324 15.6593 310.991 8.04565 306.11 3.41618C303.783 1.21135 300.764 -0.000976562 297.612 -0.000976562V0.00568455Z" fill="white"/>
<path d="M305.505 19.1082C309.274 15.1188 308.973 8.70343 304.832 4.77902C300.692 0.854612 294.281 0.907294 290.512 4.89668C286.743 8.88608 287.044 15.3015 291.184 19.2259C295.324 23.1503 301.736 23.0976 305.505 19.1082Z" fill="white"/>
<path d="M297.784 22.5791C297.598 22.5791 297.418 22.4659 297.345 22.2793C296.108 19.0287 296.78 15.4917 299.094 13.0404C301.408 10.5891 304.899 9.72314 308.211 10.7823C308.457 10.8622 308.59 11.122 308.51 11.3684C308.431 11.6149 308.171 11.7481 307.925 11.6682C304.959 10.7223 301.84 11.4883 299.772 13.6798C297.704 15.8647 297.112 19.0354 298.216 21.9463C298.309 22.1861 298.19 22.4592 297.943 22.5458C297.89 22.5658 297.83 22.5791 297.777 22.5791H297.784Z" fill="#B41E23"/>
<path d="M290.6 13.6594C289.669 13.6594 288.718 13.5128 287.787 13.2131C287.541 13.1331 287.408 12.8734 287.488 12.6269C287.568 12.3804 287.827 12.2472 288.073 12.3271C291.039 13.273 294.158 12.507 296.226 10.3155C298.294 8.13064 298.886 4.95995 297.782 2.04904C297.689 1.80924 297.809 1.53614 298.055 1.44954C298.294 1.35629 298.567 1.47619 298.653 1.72265C299.89 4.97327 299.219 8.51032 296.904 10.9616C295.242 12.7201 292.974 13.6594 290.6 13.6594Z" fill="#B41E23"/>
<path d="M298.397 22.6544C295.697 22.6544 292.964 21.6419 290.816 19.6036C286.473 15.4871 286.161 8.72604 290.124 4.52954C292.046 2.4979 294.673 1.35885 297.526 1.33887C297.552 1.33887 297.585 1.33887 297.612 1.33887C300.425 1.33887 303.112 2.42463 305.193 4.39632C307.294 6.38799 308.525 9.05244 308.658 11.8967C308.791 14.7477 307.806 17.4388 305.885 19.4704C303.883 21.5953 301.156 22.6544 298.397 22.6544ZM297.612 2.39798C297.612 2.39798 297.559 2.39798 297.532 2.39798C294.972 2.41797 292.611 3.43712 290.889 5.2556C287.324 9.02579 287.617 15.1207 291.54 18.8376C295.464 22.5545 301.555 22.5146 305.113 18.7444C306.836 16.9192 307.72 14.5079 307.6 11.9434C307.481 9.37217 306.363 6.96751 304.462 5.16235C302.58 3.37717 300.146 2.39798 297.605 2.39798H297.612Z" fill="#1D1E1C"/>
</g>
<defs>
<filter id="filter0_d_10067_30353" x="1.46484" y="77.585" width="595.903" height="115.428" filterUnits="userSpaceOnUse" color-interpolation-filters="sRGB">
<feFlood flood-opacity="0" result="BackgroundImageFix"/>
<feColorMatrix in="SourceAlpha" type="matrix" values="0 0 0 0 0 0 0 0 0 0 0 0 0 0 0 0 0 0 127 0" result="hardAlpha"/>
<feOffset dx="1.82836" dy="1.82836"/>
<feComposite in2="hardAlpha" operator="out"/>
<feColorMatrix type="matrix" values="0 0 0 0 0.504675 0 0 0 0 0.0747232 0 0 0 0 0.141605 0 0 0 0.5 0"/>
<feBlend mode="normal" in2="BackgroundImageFix" result="effect1_dropShadow_10067_30353"/>
<feBlend mode="normal" in="SourceGraphic" in2="effect1_dropShadow_10067_30353" result="shape"/>
</filter>
<filter id="filter1_d_10067_30353" x="78.6758" y="27.0195" width="441.18" height="30.0286" filterUnits="userSpaceOnUse" color-interpolation-filters="sRGB">
<feFlood flood-opacity="0" result="BackgroundImageFix"/>
<feColorMatrix in="SourceAlpha" type="matrix" values="0 0 0 0 0 0 0 0 0 0 0 0 0 0 0 0 0 0 127 0" result="hardAlpha"/>
<feOffset dx="1.82836" dy="1.82836"/>
<feComposite in2="hardAlpha" operator="out"/>
<feColorMatrix type="matrix" values="0 0 0 0 0.504675 0 0 0 0 0.0747232 0 0 0 0 0.141605 0 0 0 0.5 0"/>
<feBlend mode="normal" in2="BackgroundImageFix" result="effect1_dropShadow_10067_30353"/>
<feBlend mode="normal" in="SourceGraphic" in2="effect1_dropShadow_10067_30353" result="shape"/>
</filter>
<linearGradient id="paint0_linear_10067_30353" x1="-3.23834e-06" y1="99.8001" x2="631.092" y2="133.595" gradientUnits="userSpaceOnUse">
<stop stop-color="#FFEFB8"/>
<stop offset="0.244372" stop-color="#F6CF72"/>
<stop offset="0.504989" stop-color="#FFEFB8"/>
<stop offset="0.738694" stop-color="#F6CF72"/>
<stop offset="0.984375" stop-color="#FFE3B5"/>
<stop offset="1" stop-color="#FFE3B5"/>
</linearGradient>
<clipPath id="clip0_10067_30353">
<rect width="24" height="24" fill="white" transform="translate(286)"/>
</clipPath>
</defs>
</svg>
