<svg width="20" height="20" viewBox="0 0 20 20" fill="none" xmlns="http://www.w3.org/2000/svg">
<path fill-rule="evenodd" clip-rule="evenodd" d="M7.41473 1.05765C7.99667 0.94189 8.59987 1.0013 9.14805 1.22836C9.46183 1.35834 9.74952 1.5399 10 1.76393C10.2505 1.5399 10.5382 1.35834 10.8519 1.22836C11.4001 1.0013 12.0033 0.94189 12.5853 1.05765C13.1672 1.1734 13.7018 1.45912 14.1213 1.87868C14.5409 2.29824 14.8266 2.83279 14.9424 3.41473C15.0581 3.99667 14.9987 4.59987 14.7716 5.14805C14.5446 5.69623 14.1601 6.16476 13.6667 6.49441C13.1734 6.82405 12.5933 7 12 7H8C7.40666 7 6.82664 6.82405 6.33329 6.49441C5.83994 6.16476 5.45543 5.69623 5.22836 5.14805C5.0013 4.59987 4.94189 3.99667 5.05765 3.41473C5.1734 2.83279 5.45912 2.29824 5.87868 1.87868C6.29824 1.45912 6.83279 1.1734 7.41473 1.05765ZM9 4C9 3.80222 8.94135 3.60888 8.83147 3.44443C8.72159 3.27998 8.56541 3.15181 8.38268 3.07612C8.19996 3.00043 7.99889 2.98063 7.80491 3.01922C7.61093 3.0578 7.43275 3.15304 7.29289 3.29289C7.15304 3.43275 7.0578 3.61093 7.01922 3.80491C6.98063 3.99889 7.00043 4.19996 7.07612 4.38268C7.15181 4.56541 7.27998 4.72159 7.44443 4.83147C7.60888 4.94135 7.80222 5 8 5H9V4ZM11 5V4C11 3.80222 11.0586 3.60888 11.1685 3.44443C11.2784 3.27998 11.4346 3.15181 11.6173 3.07612C11.8 3.00043 12.0011 2.98063 12.1951 3.01922C12.3891 3.0578 12.5673 3.15304 12.7071 3.29289C12.847 3.43275 12.9422 3.61093 12.9808 3.80491C13.0194 3.99889 12.9996 4.19996 12.9239 4.38268C12.8482 4.56541 12.72 4.72159 12.5556 4.83147C12.3911 4.94135 12.1978 5 12 5H11Z" fill="#888888"/>
<path fill-rule="evenodd" clip-rule="evenodd" d="M2.5 8C1.67157 8 1 8.67157 1 9.5V10.5C1 11.3284 1.67157 12 2.5 12H9C9.27614 12 9.5 11.7761 9.5 11.5V9.5C9.5 8.67157 8.82843 8 8 8H2.5ZM3.5 13C2.67157 13 2 13.6716 2 14.5V17.5C2 18.3284 2.67157 19 3.5 19H8C8.82843 19 9.5 18.3284 9.5 17.5V13.5C9.5 13.2239 9.27614 13 9 13H3.5ZM10.5 9.5C10.5 8.67157 11.1716 8 12 8H17.5C18.3284 8 19 8.67157 19 9.5V10.5C19 11.3284 18.3284 12 17.5 12H11C10.7239 12 10.5 11.7761 10.5 11.5V9.5ZM11 13C10.7239 13 10.5 13.2239 10.5 13.5V17.5C10.5 18.3284 11.1716 19 12 19H16.5C17.3284 19 18 18.3284 18 17.5V14.5C18 13.6716 17.3284 13 16.5 13H11Z" fill="#0A0A0A"/>
</svg>
