<svg width="30" height="30" viewBox="0 0 30 30" fill="none" xmlns="http://www.w3.org/2000/svg">
<mask id="path-1-inside-1_2006_158" fill="white">
<path fill-rule="evenodd" clip-rule="evenodd" d="M6.2 3.125C5.53726 3.125 5 3.66226 5 4.325V6.6751C5 7.21365 5.35477 7.66934 5.84335 7.82121C5.31857 8.41399 5 9.19354 5 10.0475V23.5154C5 25.3711 6.50432 26.8754 8.36 26.8754H21.8279C23.6836 26.8754 25.1879 25.3711 25.1879 23.5154V10.0475C25.1879 9.19354 24.8693 8.41399 24.3446 7.82121C24.8331 7.66934 25.1879 7.21365 25.1879 6.6751V4.325C25.1879 3.66226 24.6507 3.125 23.9879 3.125H6.2Z"/>
</mask>
<path d="M5.84335 7.82121L7.09126 8.92597C7.46622 8.50243 7.60076 7.91762 7.44857 7.37281C7.29638 6.828 6.87824 6.39757 6.33807 6.22966L5.84335 7.82121ZM24.3446 7.82121L23.8498 6.22966C23.3097 6.39757 22.8915 6.828 22.7393 7.37281C22.5872 7.91762 22.7217 8.50243 23.0966 8.92597L24.3446 7.82121ZM6.66667 4.325C6.66667 4.58273 6.45773 4.79167 6.2 4.79167V1.45833C4.61678 1.45833 3.33333 2.74179 3.33333 4.325H6.66667ZM6.66667 6.6751V4.325H3.33333V6.6751H6.66667ZM6.33807 6.22966C6.52664 6.28827 6.66667 6.46316 6.66667 6.6751H3.33333C3.33333 7.96414 4.1829 9.0504 5.34864 9.41276L6.33807 6.22966ZM6.66667 10.0475C6.66667 9.616 6.82588 9.22574 7.09126 8.92597L4.59545 6.71645C3.81126 7.60224 3.33333 8.77107 3.33333 10.0475H6.66667ZM6.66667 23.5154V10.0475H3.33333V23.5154H6.66667ZM8.36 25.2087C7.4248 25.2087 6.66667 24.4506 6.66667 23.5154H3.33333C3.33333 26.2916 5.58384 28.5421 8.36 28.5421V25.2087ZM21.8279 25.2087H8.36V28.5421H21.8279V25.2087ZM23.5212 23.5154C23.5212 24.4506 22.7631 25.2087 21.8279 25.2087V28.5421C24.6041 28.5421 26.8546 26.2916 26.8546 23.5154H23.5212ZM23.5212 10.0475V23.5154H26.8546V10.0475H23.5212ZM23.0966 8.92597C23.362 9.22575 23.5212 9.61601 23.5212 10.0475H26.8546C26.8546 8.77107 26.3766 7.60224 25.5925 6.71645L23.0966 8.92597ZM23.5212 6.6751C23.5212 6.46315 23.6613 6.28827 23.8498 6.22966L24.8393 9.41276C26.005 9.05041 26.8546 7.96414 26.8546 6.6751H23.5212ZM23.5212 4.325V6.6751H26.8546V4.325H23.5212ZM23.9879 4.79167C23.7302 4.79167 23.5212 4.58273 23.5212 4.325H26.8546C26.8546 2.74179 25.5711 1.45833 23.9879 1.45833V4.79167ZM6.2 4.79167H23.9879V1.45833H6.2V4.79167Z" fill="#0A0A0A" mask="url(#path-1-inside-1_2006_158)"/>
<rect x="8.57031" y="16.1875" width="13.0628" height="7.12515" rx="1" fill="#0A0A0A"/>
</svg>
