<svg width="20" height="20" viewBox="0 0 20 20" fill="none" xmlns="http://www.w3.org/2000/svg">
<path d="M15.4366 4.54863C15.1799 4.42824 14.8721 4.5413 14.7412 4.78452C14.0236 6.11804 13 7.71972 10.0009 7.71972C7.00189 7.71972 5.97631 6.11846 5.25854 4.78441C5.12769 4.54122 4.81997 4.42815 4.56332 4.54845L1.33281 6.07976C0.633597 6.40751 0.317163 7.19625 0.607463 7.88774L1.49238 9.99559C1.8079 10.7472 2.71439 11.0952 3.48505 10.7607L3.7755 10.6346C3.90668 10.5777 4.05548 10.6695 4.05548 10.8074V17.5775C4.05548 18.3631 4.72084 19 5.54159 19H14.4583C15.279 19 15.9444 18.3631 15.9444 17.5775V10.8354C15.9444 10.6986 16.091 10.6068 16.2219 10.6616L16.5253 10.7886C17.2934 11.1103 18.1872 10.7604 18.4998 10.0158L19.3925 7.88931C19.6828 7.19795 19.3665 6.40937 18.6676 6.0815L15.4366 4.54863Z" fill="#9836EB"/>
<path fill-rule="evenodd" clip-rule="evenodd" d="M9.66475 3.07918C9.8759 2.97361 10.1244 2.97361 10.3356 3.07918L13.3356 4.57918C13.7061 4.76442 13.8562 5.21493 13.671 5.58541C13.4857 5.95589 13.0352 6.10606 12.6648 5.92082L10.0002 4.58853L7.33557 5.92082C6.96509 6.10606 6.51459 5.95589 6.32934 5.58541C6.1441 5.21493 6.29427 4.76442 6.66475 4.57918L9.66475 3.07918Z" fill="#E3A5F5"/>
<path fill-rule="evenodd" clip-rule="evenodd" d="M9.74794 1.58528C9.66692 1.64632 9.64844 1.70897 9.64844 1.74817C9.64844 2.16239 9.31265 2.49817 8.89844 2.49817C8.48422 2.49817 8.14844 2.16239 8.14844 1.74817C8.14844 0.584109 9.27577 -0.142006 10.3417 0.0233888C11.0623 0.134524 11.7186 0.670436 11.8669 1.4232L11.8673 1.42549C12.0125 2.17497 11.6409 2.83775 11.0856 3.19311C10.9877 3.25607 10.9175 3.30263 10.8608 3.34509C10.8087 3.38408 10.7829 3.4088 10.7707 3.42229C10.7705 3.42576 10.7704 3.4301 10.7704 3.43539V3.74883C10.7704 4.16304 10.4346 4.49883 10.0204 4.49883C9.60614 4.49883 9.27035 4.16304 9.27035 3.74883V3.43539C9.27035 3.03558 9.4049 2.70638 9.63734 2.43961C9.83257 2.21555 10.0873 2.05175 10.2691 1.93481L10.2769 1.92979C10.3334 1.8937 10.3662 1.85169 10.3824 1.81729C10.3971 1.78628 10.4029 1.75302 10.3947 1.71074L10.3951 1.71303C10.3858 1.66553 10.2999 1.53467 10.1124 1.50576C9.95673 1.4816 9.8285 1.5246 9.74794 1.58528Z" fill="#E3A5F5"/>
</svg>
