<svg width="20" height="20" viewBox="0 0 20 20" fill="none" xmlns="http://www.w3.org/2000/svg">
<g clip-path="url(#clip0_2038_4303)">
<path d="M18.3385 17.2214C18.3385 18.4436 17.3385 19.4436 16.1163 19.4436H3.8941C2.67187 19.4436 1.67188 18.4436 1.67188 17.2214V7.77691C1.67188 6.55469 2.67187 5.55469 3.8941 5.55469H16.1163C17.3385 5.55469 18.3385 6.55469 18.3385 7.77691V17.2214Z" fill="#FDD888"/>
<path d="M20 6.11285C20 7.33507 19 8.33507 17.7778 8.33507H2.22222C1 8.33507 0 7.33507 0 6.11285C0 4.89062 1 3.89062 2.22222 3.89062H17.7778C19 3.89062 20 4.89062 20 6.11285Z" fill="#FDD888"/>
<path d="M1.67188 8.33594H18.3385V9.44705H1.67188V8.33594Z" fill="#FCAB40"/>
<path d="M10.559 1.66406H9.44792C9.00589 1.66406 8.58197 1.83966 8.26941 2.15222C7.95684 2.46478 7.78125 2.8887 7.78125 3.33073V19.4418H12.2257V3.33073C12.2257 2.8887 12.0501 2.46478 11.7375 2.15222C11.425 1.83966 11.0011 1.66406 10.559 1.66406Z" fill="#DA2F47"/>
<path d="M8.88472 3.88804C9.49583 3.88804 9.58638 3.60137 9.08527 3.25082L5.35083 0.636371C5.23625 0.552941 5.1052 0.494895 4.96641 0.466103C4.82763 0.437312 4.6843 0.438436 4.54599 0.4694C4.40767 0.500364 4.27755 0.560458 4.16429 0.645674C4.05103 0.730891 3.95724 0.839272 3.88916 0.963593L2.76916 2.92359C2.46583 3.45415 2.71805 3.88804 3.32916 3.88804H8.88472ZM11.1069 3.88804C10.4958 3.88804 10.4053 3.60137 10.9064 3.25082L14.6414 0.636371C14.756 0.55303 14.887 0.495058 15.0258 0.466316C15.1646 0.437574 15.3079 0.43872 15.4462 0.469679C15.5844 0.500637 15.7146 0.560697 15.8278 0.645861C15.9411 0.731025 16.0349 0.839339 16.1031 0.963593L17.2231 2.92304C17.5258 3.45415 17.2736 3.88804 16.6625 3.88804H11.1069Z" fill="#DA2F47"/>
</g>
<defs>
<clipPath id="clip0_2038_4303">
<rect width="20" height="20" fill="white"/>
</clipPath>
</defs>
</svg>
