<svg width="50" height="50" viewBox="0 0 50 50" fill="none" xmlns="http://www.w3.org/2000/svg">
<path d="M46.6514 37.5599L36.8744 36.9094L37.5042 46.6837L29.3483 41.2268L25.0111 50L20.6598 41.2078L12.5088 46.6064L13.1252 36.8368L3.35291 37.4355L8.78389 29.2969L0 24.9265L8.77535 20.6084L3.35088 12.4401L13.1225 13.0875L12.4958 3.30799L20.6517 8.76483L24.9911 0L29.3402 8.78385L37.4912 3.38524L36.8748 13.1549L46.6493 12.5645L41.2161 20.6948L50 25.0652L41.2216 29.3885L46.6514 37.5599Z" fill="#F66161"/>
<path d="M18.8949 32L23.3949 17.925H27.5699L32.1949 32H29.4699L28.2699 28.025H22.7949L21.5949 32H18.8949ZM25.5199 19L23.3949 26.05H27.6699L25.5199 19Z" fill="white"/>
</svg>
