<svg width="32" height="32" viewBox="0 0 32 32" fill="none" xmlns="http://www.w3.org/2000/svg">
<circle cx="16" cy="16" r="15.5" fill="#4664FF" stroke="#354FD9"/>
<g clip-path="url(#clip0_32_12358)" filter="url(#filter0_d_32_12358)">
<path d="M17.2133 14.5762C17.4338 14.5762 17.875 14.5762 18.0956 14.135L18.3161 13.9144C18.0956 13.9144 17.4338 13.9144 16.9927 14.135C16.9927 14.135 17.2133 14.3556 17.2133 14.5762Z" fill="white"/>
<path d="M24.9337 9.50293C15.2283 7.0766 7.06703 9.50293 7.06703 9.50293C6.62588 23.1787 15.8901 26.2667 15.8901 26.2667C25.816 22.0758 24.9337 9.50293 24.9337 9.50293ZM23.1691 13.4733C23.1691 13.9145 23.1691 14.135 22.7279 14.5762C22.7279 14.5762 22.7279 15.2379 21.8456 15.4585C21.8456 15.6791 21.4045 16.1202 20.7427 16.1202C20.5222 16.5614 20.3016 16.5614 19.8604 16.5614C19.8604 16.7819 19.6399 16.7819 19.4193 16.7819C19.1987 16.7819 19.1987 16.7819 18.9781 16.7819C18.9781 16.7819 18.7576 16.7819 18.7576 17.0025C18.9781 17.0025 18.9781 17.2231 18.9781 17.2231C18.9781 17.4437 18.9781 17.6642 18.7576 17.8848C18.7576 17.8848 18.7576 18.1054 18.537 18.1054C18.537 18.1054 18.537 18.326 18.537 18.5466V18.7671C18.537 18.7671 18.537 18.9877 18.3164 18.9877C18.3164 18.9877 18.3164 18.9877 18.0958 18.9877C18.0958 18.9877 18.0958 18.9877 18.0958 19.2083V19.4289V19.6494C18.3164 19.87 18.0958 19.87 18.0958 20.0906V20.3112C18.0958 20.5317 18.0958 20.7523 17.8753 20.9729C17.6547 21.1935 17.4341 21.1935 17.2135 20.9729H16.993C16.993 20.9729 16.7724 20.9729 16.5518 20.9729H16.3312H16.1106H15.8901H15.6695C15.4489 20.9729 15.4489 20.9729 15.2283 20.9729H15.0078C14.7872 20.9729 14.5666 20.9729 14.346 20.9729C13.9049 20.7523 13.9049 20.5317 13.9049 20.3112C13.9049 20.0906 13.9049 20.0906 13.9049 20.0906C13.9049 20.0906 13.9049 19.87 13.6843 19.87V19.6494V19.4289C13.6843 19.4289 13.6843 19.4289 13.6843 19.2083C13.6843 19.2083 13.6843 19.2083 13.4637 19.2083L13.2432 18.9877V18.7671C13.2432 18.5466 13.2432 18.5466 13.2432 18.326C13.2432 18.326 13.2432 18.1054 13.0226 18.1054C12.802 17.6642 12.802 17.4437 13.0226 17.2231C13.0226 17.0025 13.0226 17.0025 13.2432 17.0025C13.2432 17.0025 13.0226 17.0025 13.0226 16.7819C12.802 16.7819 12.802 16.7819 12.5814 16.7819C12.3609 16.7819 12.1403 16.5614 12.1403 16.5614C11.6991 16.5614 11.4785 16.5614 11.258 16.1202C10.5962 16.1202 10.3757 15.6791 10.1551 15.4585C9.27279 15.2379 9.27279 14.5762 9.27279 14.5762C8.83164 14.135 8.83164 13.9145 8.83164 13.6939V13.4733C8.39048 13.0322 8.39048 12.591 8.61106 12.3704C8.39048 12.3704 8.39048 12.1498 8.39048 11.9293C8.39048 11.7087 8.39048 11.4881 8.39048 11.4881C8.61106 11.9293 10.3757 13.2527 12.5814 13.4733H15.0078C15.0078 13.2527 15.0078 13.2527 15.0078 13.2527C14.7872 13.2527 14.7872 13.4733 14.7872 13.4733L14.5666 13.2527V13.0322V12.8116C14.5666 12.8116 14.7872 12.8116 14.7872 12.591C15.0078 12.591 15.0078 12.591 15.2283 12.591C15.2283 12.591 15.2283 12.591 15.2283 12.3704C15.2283 12.3704 15.4489 12.3704 15.4489 12.1498C15.4489 12.1498 15.6695 12.1498 15.8901 12.1498C16.1106 12.1498 16.1106 12.1498 16.3312 12.1498C16.7724 12.1498 16.7724 12.1498 16.993 12.1498C16.993 12.1498 16.993 12.1498 17.2135 12.1498C17.2135 12.3704 17.2135 12.3704 17.2135 12.591C17.2135 12.8116 16.993 12.8116 16.993 12.8116C16.993 13.0322 16.993 13.2527 17.2135 13.4733V13.6939H19.6399V13.9145C21.8456 13.6939 23.6102 12.1498 23.8308 11.9293C23.8308 11.9293 23.8308 12.1498 23.8308 12.3704C23.8308 12.591 23.8308 12.8116 23.6102 12.8116C23.6102 12.591 23.6102 13.0322 23.1691 13.4733Z" fill="white"/>
<path d="M13.9047 14.135C14.1252 14.3556 14.5664 14.5762 14.787 14.5762C14.787 14.3556 14.787 14.135 15.0075 14.135C14.787 14.135 13.9047 14.135 13.6841 13.9144C13.6841 13.9144 13.9047 13.9144 13.9047 14.135Z" fill="white"/>
</g>
<defs>
<filter id="filter0_d_32_12358" x="5.06689" y="6.40002" width="21.8667" height="21.8667" filterUnits="userSpaceOnUse" color-interpolation-filters="sRGB">
<feFlood flood-opacity="0" result="BackgroundImageFix"/>
<feColorMatrix in="SourceAlpha" type="matrix" values="0 0 0 0 0 0 0 0 0 0 0 0 0 0 0 0 0 0 127 0" result="hardAlpha"/>
<feOffset/>
<feGaussianBlur stdDeviation="1"/>
<feComposite in2="hardAlpha" operator="out"/>
<feColorMatrix type="matrix" values="0 0 0 0 0 0 0 0 0 0 0 0 0 0 0 0 0 0 0.3 0"/>
<feBlend mode="normal" in2="BackgroundImageFix" result="effect1_dropShadow_32_12358"/>
<feBlend mode="normal" in="SourceGraphic" in2="effect1_dropShadow_32_12358" result="shape"/>
</filter>
<clipPath id="clip0_32_12358">
<rect width="17.8667" height="17.8667" fill="white" transform="translate(7.06689 8.40002)"/>
</clipPath>
</defs>
</svg>
