<svg width="32" height="32" viewBox="0 0 32 32" fill="none" xmlns="http://www.w3.org/2000/svg">
<circle cx="16" cy="16" r="15.5" fill="#F34545" stroke="#DA4444"/>
<g clip-path="url(#clip0_32_12326)">
<g filter="url(#filter0_d_32_12326)">
<path d="M6.6665 21.0168C6.6665 20.9002 6.78317 20.7835 7.0165 20.6668C7.13317 20.6668 7.3665 20.6668 7.48317 20.6668L9.58317 21.4835C10.0498 21.6002 10.5165 21.6002 10.8665 21.4835L12.0332 21.0168C12.7332 20.7835 13.5498 20.7835 14.2498 21.0168L15.4165 21.4835C15.8832 21.6002 16.3498 21.6002 16.6998 21.4835L17.8665 21.0168C18.5665 20.7835 19.3832 20.7835 20.0832 21.0168L21.2498 21.4835C21.7165 21.6002 22.1832 21.6002 22.5332 21.4835L24.6332 20.6668C24.7498 20.6668 24.7498 20.6668 24.8665 20.6668C24.9832 20.6668 24.9832 20.6668 25.0998 20.6668C25.2165 20.6668 25.2165 20.7835 25.3332 20.7835C25.3332 20.7835 25.4498 20.9002 25.4498 21.0168C25.4498 21.1335 25.4498 21.1335 25.4498 21.2502C25.4498 21.3668 25.4498 21.3668 25.4498 21.4835C25.4498 21.6002 25.3332 21.6002 25.3332 21.7168C25.3332 21.7168 25.2165 21.8335 25.0998 21.8335L22.9998 22.6502C22.2998 22.8835 21.4832 22.8835 20.7832 22.6502L19.6165 22.1835C19.1498 22.0668 18.6832 22.0668 18.3332 22.1835L17.1665 22.6502C16.4665 22.8835 15.6498 22.8835 14.9498 22.6502L13.7832 22.1835C13.3165 22.0668 12.8498 22.0668 12.4998 22.1835L11.3332 22.6502C10.6332 22.8835 9.8165 22.8835 9.1165 22.6502L7.0165 21.8335C6.89984 21.8335 6.78317 21.7168 6.6665 21.4835C6.6665 21.3668 6.6665 21.1335 6.6665 21.0168ZM6.6665 23.3502C6.6665 23.2335 6.78317 23.1168 7.0165 23.0002C7.13317 23.0002 7.3665 23.0002 7.48317 23.0002L9.58317 23.8168C10.0498 23.9335 10.5165 23.9335 10.8665 23.8168L12.0332 23.3502C12.7332 23.1168 13.5498 23.1168 14.2498 23.3502L15.4165 23.8168C15.8832 23.9335 16.3498 23.9335 16.6998 23.8168L17.8665 23.3502C18.5665 23.1168 19.3832 23.1168 20.0832 23.3502L21.2498 23.8168C21.7165 23.9335 22.1832 23.9335 22.5332 23.8168L24.6332 23.0002C24.7498 23.0002 24.7498 23.0002 24.8665 23.0002C24.9832 23.0002 24.9832 23.0002 25.0998 23.0002C25.2165 23.0002 25.2165 23.1168 25.3332 23.1168C25.3332 23.1168 25.4498 23.2335 25.4498 23.3502C25.4498 23.4668 25.4498 23.4668 25.4498 23.5835C25.4498 23.7002 25.4498 23.7002 25.4498 23.8168C25.4498 23.9335 25.3332 23.9335 25.3332 24.0502C25.3332 24.0502 25.2165 24.1668 25.0998 24.1668L22.9998 24.9835C22.2998 25.2168 21.4832 25.2168 20.7832 24.9835L19.6165 24.5168C19.1498 24.4002 18.6832 24.4002 18.3332 24.5168L17.1665 24.9835C16.4665 25.2168 15.6498 25.2168 14.9498 24.9835L13.7832 24.5168C13.3165 24.4002 12.8498 24.4002 12.4998 24.5168L11.3332 24.9835C10.6332 25.2168 9.8165 25.2168 9.1165 24.9835L7.0165 24.1668C6.89984 24.1668 6.78317 24.0502 6.6665 23.8168C6.6665 23.7002 6.6665 23.4668 6.6665 23.3502Z" fill="white"/>
<path d="M7.24984 19.5002C7.48317 19.5002 7.7165 19.5002 7.94984 19.6168L10.0498 20.4335C10.1665 20.4335 10.1665 20.4335 10.2832 20.4335C10.3998 20.4335 10.3998 20.4335 10.5165 20.4335L11.6832 19.9668C12.1498 19.7335 12.7332 19.7335 13.1998 19.7335C13.6665 19.7335 14.2498 19.8502 14.7165 19.9668L15.8832 20.4335C15.9998 20.4335 15.9998 20.4335 16.1165 20.4335C16.2332 20.4335 16.2332 20.4335 16.3498 20.4335L17.5165 19.9668C17.9832 19.7335 18.5665 19.7335 19.0332 19.7335C19.4998 19.7335 20.0832 19.8502 20.5498 19.9668C19.8498 19.5002 19.6165 19.0335 19.6165 19.0335C19.3832 18.6835 19.1498 18.2168 19.0332 17.6335C18.9165 17.2835 18.9165 16.8168 19.1498 16.4668C19.4998 16.0002 19.9665 15.8835 20.3165 16.3502C20.4332 16.4668 20.5498 16.4668 20.6665 16.2335C20.6665 16.2335 20.6665 16.0002 20.7832 15.7668C21.1332 15.8835 21.3665 16.1168 21.4832 16.4668C21.4832 16.4668 21.4832 16.4668 21.4832 16.5835C21.4832 16.7002 21.7165 16.7002 21.7165 16.5835C22.1832 15.5335 21.7165 14.2502 20.5498 13.7835C19.6165 13.4335 18.7998 13.4335 17.8665 13.7835C17.1665 14.1335 16.5832 14.7168 16.1165 15.3002C15.9998 14.4835 15.9998 13.7835 16.4665 13.0835C17.1665 12.0335 18.0998 11.9168 18.9165 12.7335C19.2665 13.0835 19.4998 12.9668 19.6165 12.6168C19.7332 12.2668 19.8498 11.8002 19.8498 11.4502C20.5498 11.8002 21.1332 12.1502 21.3665 12.9668C21.3665 12.9668 21.3665 13.0835 21.4832 13.0835C21.5998 13.3168 21.8332 13.3168 21.9498 13.0835V12.9668C22.8832 10.6335 21.8332 8.1835 19.6165 7.1335C17.7498 6.31683 15.8832 6.31683 14.0165 7.1335C12.2665 8.06683 10.8665 9.46683 9.8165 11.1002C7.94984 13.6668 7.24984 16.5835 6.89984 19.5002C7.0165 19.5002 7.13317 19.5002 7.24984 19.5002Z" fill="white"/>
</g>
</g>
<defs>
<filter id="filter0_d_32_12326" x="4.6665" y="4.521" width="22.7832" height="22.6375" filterUnits="userSpaceOnUse" color-interpolation-filters="sRGB">
<feFlood flood-opacity="0" result="BackgroundImageFix"/>
<feColorMatrix in="SourceAlpha" type="matrix" values="0 0 0 0 0 0 0 0 0 0 0 0 0 0 0 0 0 0 127 0" result="hardAlpha"/>
<feOffset/>
<feGaussianBlur stdDeviation="1"/>
<feComposite in2="hardAlpha" operator="out"/>
<feColorMatrix type="matrix" values="0 0 0 0 0 0 0 0 0 0 0 0 0 0 0 0 0 0 0.3 0"/>
<feBlend mode="normal" in2="BackgroundImageFix" result="effect1_dropShadow_32_12326"/>
<feBlend mode="normal" in="SourceGraphic" in2="effect1_dropShadow_32_12326" result="shape"/>
</filter>
<clipPath id="clip0_32_12326">
<rect width="18.6667" height="18.6667" fill="white" transform="translate(6.6665 6.66675)"/>
</clipPath>
</defs>
</svg>
