<svg width="20" height="21" viewBox="0 0 20 21" fill="none" xmlns="http://www.w3.org/2000/svg">
<path d="M8.2 20L7.7 17.5L7.1 17.3C6.9 17.2 6.6 17.1 6.4 16.9C6.2 16.8 5.9 16.6 5.7 16.4L5.3 16.1L2.9 16.9L1 13.6L2.9 11.9L2.8 11.3C2.7 10.8 2.7 10.2 2.8 9.7L2.9 9.1L1.1 7.4L3 4.1L5.3 4.9L5.7 4.6C6 4.4 6.2 4.3 6.4 4.1C6.6 4 6.9 3.8 7.1 3.7L7.6 3.5L8.1 1H11.8L12.3 3.5L12.8 3.7C13.3 3.9 13.8 4.2 14.2 4.5L14.6 4.8L17 4L18.9 7.3L17 9L17.3 9.7C17.3 10.3 17.3 10.8 17.3 11.3L17.2 11.9L19.1 13.6L17.2 16.9L14.8 16.1L14.4 16.4C14 16.7 13.5 17 13 17.2L12.5 17.4L12 19.9H8.2V20Z" stroke="#EBEFF7" stroke-width="1.5" stroke-miterlimit="10" stroke-linecap="round" stroke-linejoin="round"/>
<path d="M10.0998 13.8002C11.9223 13.8002 13.3998 12.3227 13.3998 10.5002C13.3998 8.67766 11.9223 7.2002 10.0998 7.2002C8.27727 7.2002 6.7998 8.67766 6.7998 10.5002C6.7998 12.3227 8.27727 13.8002 10.0998 13.8002Z" stroke="#EBEFF7" stroke-width="1.5" stroke-miterlimit="10" stroke-linecap="round" stroke-linejoin="round"/>
</svg>
