<svg width="25" height="24" viewBox="0 0 25 24" fill="none" xmlns="http://www.w3.org/2000/svg">
<path d="M5.76264 5H19.1426C19.9426 5 20.2326 5.08 20.5326 5.22C20.8226 5.37 21.0526 5.58 21.2126 5.86C21.3726 6.14 21.4526 6.41 21.4526 7.16V18.84C21.4526 19.59 21.3726 19.86 21.2126 20.14C21.0526 20.41 20.8226 20.63 20.5326 20.78C20.2426 20.92 19.9426 21 19.1426 21H5.76264C4.96264 21 4.67264 20.92 4.37264 20.78C4.08264 20.63 3.85264 20.42 3.69264 20.14C3.53264 19.86 3.45264 19.59 3.45264 18.84V7.16C3.45264 6.41 3.53264 6.14 3.69264 5.86C3.85264 5.59 4.08264 5.37 4.37264 5.22C4.66264 5.08 4.96264 5 5.76264 5Z" stroke="#EBEFF7" stroke-width="1.5" stroke-miterlimit="10" stroke-linecap="round" stroke-linejoin="round"/>
<path d="M8.45264 8C9.00264 8 9.45264 8.45 9.45264 9C9.45264 9.51 9.06264 9.94 8.57264 9.99L8.45264 10C7.90264 10 7.45264 9.55 7.45264 9C7.45264 8.49 7.84264 8.06 8.33264 8.01L8.45264 8Z" fill="#EBEFF7"/>
<path d="M12.4626 8C13.0126 8 13.4626 8.45 13.4626 9C13.4626 9.51 13.0726 9.94 12.5826 9.99L12.4626 10C11.9026 10 11.4526 9.55 11.4526 9C11.4526 8.49 11.8426 8.06 12.3326 8.01L12.4626 8Z" fill="#EBEFF7"/>
<path d="M16.4624 8C17.0124 8 17.4624 8.45 17.4624 9C17.4624 9.51 17.0724 9.94 16.5824 9.99L16.4624 10C15.9024 10 15.4624 9.55 15.4624 9C15.4624 8.49 15.8524 8.06 16.3424 8.01L16.4624 8Z" fill="#EBEFF7"/>
<path d="M8.45264 12C9.00264 12 9.45264 12.45 9.45264 13C9.45264 13.51 9.06264 13.94 8.57264 13.99L8.45264 14C7.89264 14 7.45264 13.55 7.45264 13C7.45264 12.49 7.84264 12.06 8.33264 12.01L8.45264 12Z" fill="#EBEFF7"/>
<path d="M12.4624 12C13.0124 12 13.4624 12.45 13.4624 13C13.4624 13.51 13.0724 13.94 12.5824 13.99L12.4624 14C11.9024 14 11.4624 13.55 11.4624 13C11.4624 12.49 11.8524 12.06 12.3424 12.01L12.4624 12Z" fill="#EBEFF7"/>
<path d="M16.4624 12C17.0124 12 17.4624 12.45 17.4624 13C17.4624 13.51 17.0724 13.94 16.5824 13.99L16.4624 14C15.9024 14 15.4624 13.55 15.4624 13C15.4624 12.49 15.8524 12.06 16.3424 12.01L16.4624 12Z" fill="#EBEFF7"/>
<path d="M8.45264 16C9.00264 16 9.45264 16.45 9.45264 17C9.45264 17.51 9.06264 17.94 8.57264 17.99L8.45264 18C7.89264 18 7.45264 17.55 7.45264 17C7.45264 16.49 7.84264 16.06 8.33264 16.01L8.45264 16Z" fill="#EBEFF7"/>
<path d="M12.4624 16C13.0124 16 13.4624 16.45 13.4624 17C13.4624 17.51 13.0724 17.94 12.5824 17.99L12.4624 18C11.9024 18 11.4624 17.55 11.4624 17C11.4624 16.49 11.8524 16.06 12.3424 16.01L12.4624 16Z" fill="#EBEFF7"/>
<path d="M7.45264 3V5M17.4526 3V5V3Z" stroke="#EBEFF7" stroke-width="1.5" stroke-miterlimit="10" stroke-linecap="round" stroke-linejoin="round"/>
</svg>
