<svg width="20" height="21" viewBox="0 0 20 21" fill="none" xmlns="http://www.w3.org/2000/svg">
<g clip-path="url(#clip0_2_3286)">
<path d="M13.08 14.66L6.91 11.57M6.01 12.21C4.81 13.42 2.85 13.42 1.65 12.21C0.45 11 0.45 9.05 1.65 7.84C2.85 6.63 4.81 6.63 6.01 7.84C7.22 9.04 7.22 11 6.01 12.21ZM16.17 19.29C14.47 19.29 13.09 17.91 13.09 16.2C13.09 14.49 14.47 13.11 16.17 13.11C17.87 13.11 19.25 14.49 19.25 16.2C19.25 17.91 17.87 19.29 16.17 19.29ZM16.17 6.93C14.47 6.93 13.09 5.55 13.09 3.84C13.09 2.13 14.47 0.75 16.17 0.75C17.87 0.75 19.25 2.13 19.25 3.84C19.25 5.55 17.87 6.93 16.17 6.93ZM13.08 5.39L6.92 8.48L13.08 5.39Z" stroke="#EBEFF7" stroke-width="1.5" stroke-miterlimit="10" stroke-linecap="round" stroke-linejoin="round"/>
</g>
<defs>
<clipPath id="clip0_2_3286">
<rect width="20" height="20.04" fill="white"/>
</clipPath>
</defs>
</svg>
