<svg width="96" height="82" viewBox="0 0 96 82" fill="none" xmlns="http://www.w3.org/2000/svg">
<path d="M2.03132 64.3499H18.0213V67.0799H5.03132V71.5499H17.7213V74.2799H5.03132V78.3299H18.6213V81.0599H2.03132V64.3499ZM31.5987 81.0599H26.4087L20.1087 64.3499H23.3187L28.5987 78.3299H29.4087L34.6887 64.3499H37.8987L31.5987 81.0599ZM40.293 64.3499H56.283V67.0799H43.293V71.5499H55.983V74.2799H43.293V78.3299H56.883V81.0599H40.293V64.3499ZM59.5704 64.3499H62.5704L73.1604 76.8299V64.3499H76.1604V81.0599H73.1604L62.5704 68.6099V81.0599H59.5704V64.3499ZM94.8759 64.3499V67.0799H88.3659V81.0599H85.3659V67.0799H78.8559V64.3499H94.8759Z" fill="black"/>
<path d="M48 0L50.9508 15.9182L62.6946 4.77457L55.7254 19.3871L71.7764 17.2746L57.5491 25L71.7764 32.7254L55.7254 30.6129L62.6946 45.2254L50.9508 34.0818L48 50L45.0492 34.0818L33.3054 45.2254L40.2746 30.6129L24.2236 32.7254L38.4508 25L24.2236 17.2746L40.2746 19.3871L33.3054 4.77457L45.0492 15.9182L48 0Z" fill="black"/>
</svg>
