<svg width="226" height="170" viewBox="0 0 226 170" fill="none" xmlns="http://www.w3.org/2000/svg">
<path d="M177.465 4.35197C186.983 1.94606 196.65 7.71185 199.057 17.2304L206.137 45.2419C197.811 47.3493 192.768 55.8067 194.873 64.1343C196.978 72.4617 205.434 77.5051 213.761 75.4026L220.841 103.409C223.247 112.928 217.481 122.595 207.962 125.001L48.532 165.302C39.0132 167.708 29.3463 161.943 26.94 152.424L5.15557 66.245C2.74967 56.7263 8.51546 47.0594 18.034 44.653L177.465 4.35197Z" fill="black"/>
<path d="M44.7374 72.6873C44.4812 72.7896 44.2636 72.9053 44.084 73.0317C43.9044 73.1581 43.7697 73.2991 43.6825 73.4542C43.5926 73.61 43.5745 73.7823 43.6219 73.9698C43.6906 74.2417 43.8236 74.396 44.0169 74.4281C44.2101 74.4603 44.4103 74.4502 44.6146 74.3985C45.0123 74.298 45.3204 74.0871 45.5396 73.7685C45.758 73.4472 45.8571 73.0838 45.83 72.6742L45.809 72.3585L45.5742 72.4179C45.2732 72.494 44.9963 72.5842 44.7401 72.6866L44.7374 72.6873Z" fill="white"/>
<path d="M84.0996 71L83.9895 67.6818C84.1482 67.7053 84.3125 67.7159 84.4781 67.7203C84.6458 67.7212 84.8198 67.7004 84.9993 67.655C85.4439 67.5426 85.7685 67.3623 85.9683 67.118C86.1674 66.871 86.3099 66.5863 86.3958 66.2638L86.4541 66.0409L81.8463 57.3903L86.3258 56.258L88.1968 61.2306L88.2686 61.2124L89.1952 55.5326L93.5283 54.4373L90.5288 65.7483C90.3527 66.4233 90.165 67.0289 89.96 67.5665C89.7551 68.1042 89.4957 68.5775 89.1778 68.9933C89.0893 69.1082 88.996 69.2157 88.8965 69.3218L99.0137 65.7696L92.2044 46.5385L38.8081 65.2937L39.3492 73.2573C39.3934 73.839 39.3955 74.44 39.3526 75.061C39.3105 75.6848 39.1663 76.2765 38.9192 76.845C38.6715 77.4109 38.2754 77.9245 37.733 78.3826C37.1879 78.8414 36.4366 79.1933 35.4727 79.437C34.2797 79.7385 33.2237 79.7105 32.3013 79.3508C31.3789 78.9911 30.6397 78.3451 30.0844 77.4154L33.5754 75.1159C33.6622 75.308 33.7931 75.4658 33.9642 75.5845C34.1359 75.7059 34.3402 75.7352 34.5832 75.6738C34.8594 75.604 35.0328 75.4532 35.1034 75.2213C35.1741 74.9894 35.1979 74.7116 35.181 74.389L34.6506 66.7582L25.574 69.9404L32.3874 89.1646L84.1023 70.9993L84.0968 71.0007L84.0996 71ZM49.6421 74.7939C49.6942 75.0699 49.7375 75.2874 49.776 75.4396L46.31 76.3158C46.2894 76.2342 46.2585 76.1003 46.2173 75.9141C46.1768 75.7306 46.1466 75.5762 46.1302 75.4531L46.0943 75.4622C45.8453 75.9416 45.5183 76.3221 45.1149 76.6092C44.7136 76.8928 44.2412 77.1048 43.6999 77.2416C43.363 77.3268 43.0144 77.3657 42.6534 77.3558C42.2925 77.3458 41.9523 77.2785 41.6321 77.1512C41.312 77.0239 41.0265 76.8242 40.779 76.5542C40.5315 76.2842 40.3504 75.928 40.2398 75.4904C40.057 74.7673 40.0722 74.1301 40.2854 73.5788C40.4987 73.0275 40.8498 72.5454 41.3411 72.1292C41.833 71.7156 42.4304 71.3593 43.1369 71.0621C43.8433 70.765 44.5994 70.5131 45.4058 70.3093C45.4052 70.2603 45.4031 70.2174 45.3963 70.1902L45.3763 70.1114C45.3166 69.8749 45.1656 69.7193 44.9241 69.6473C44.6826 69.5753 44.3906 69.5826 44.0537 69.6678C43.667 69.7655 43.3128 69.9332 42.9915 70.1734C42.6676 70.4144 42.3863 70.6966 42.1478 71.02L39.8746 69.4777C40.0959 69.1326 40.3613 68.811 40.6757 68.5089C40.9908 68.2094 41.3217 67.9378 41.6726 67.6987C42.0207 67.4603 42.3854 67.2525 42.7652 67.0813C43.145 66.9101 43.5145 66.7791 43.8762 66.6877C45.3206 66.3225 46.4788 66.3363 47.3528 66.7256C48.2269 67.1148 48.7962 67.8327 49.0594 68.8738C49.17 69.3115 49.2474 69.8153 49.2889 70.3862L49.543 73.9716C49.562 74.2444 49.5962 74.5192 49.6455 74.7959L49.6421 74.7939ZM62.0213 72.3443L61.6517 67.1627C61.6525 67.0613 61.6402 66.9545 61.6175 66.8417C61.5949 66.7288 61.5743 66.6357 61.5564 66.565C61.419 66.0214 61.1038 65.809 60.6095 65.9339C60.3444 66.001 60.1502 66.186 60.0297 66.4883C59.9065 66.7912 59.8585 67.1707 59.8869 67.632L60.2524 72.7972L56.2065 73.8199L55.8459 68.6737C55.8467 68.5723 55.8358 68.4709 55.8159 68.369C55.796 68.267 55.7788 68.1875 55.7637 68.1277C55.695 67.8558 55.5758 67.6517 55.4068 67.518C55.2379 67.3843 55.0343 67.3461 54.794 67.4069C54.5538 67.4676 54.3838 67.632 54.2468 67.9038C54.1105 68.1783 54.0583 68.5761 54.0874 69.098L54.4529 74.2632L50.407 75.2859L49.8431 67.4293C49.833 67.1918 49.8119 66.8877 49.7778 66.5204C49.743 66.1503 49.7013 65.8225 49.654 65.5308L53.5535 64.5451C53.5871 64.7245 53.62 64.936 53.6536 65.1734C53.6871 65.4107 53.7152 65.6147 53.7323 65.7868L53.8041 65.7687C53.9792 65.3456 54.264 64.9265 54.6586 64.5115C55.0532 64.0966 55.5767 63.8081 56.2257 63.644C56.9244 63.4674 57.5111 63.4521 57.9907 63.5941C58.4702 63.736 58.8654 63.9976 59.1777 64.3727C59.3942 63.916 59.6956 63.4928 60.0764 63.1044C60.4578 62.7188 60.9924 62.4391 61.68 62.2653C62.2324 62.1256 62.7301 62.0953 63.1641 62.1735C63.6009 62.2511 63.977 62.4019 64.2977 62.6244C64.6156 62.8477 64.8783 63.1197 65.0815 63.4472C65.2847 63.7746 65.4328 64.1161 65.5221 64.4694C65.564 64.6353 65.5956 64.795 65.6133 64.9467C65.6318 65.1011 65.6489 65.25 65.6598 65.3977L66.0823 71.3235L62.0199 72.3504L62.0213 72.3443ZM78.6522 68.1403L78.2826 62.9588C78.2834 62.8573 78.2711 62.7506 78.2484 62.6377C78.2258 62.5249 78.2052 62.4317 78.1873 62.3611C78.0499 61.8174 77.7347 61.605 77.2403 61.73C76.9752 61.797 76.7811 61.982 76.6606 62.2843C76.5374 62.5873 76.4894 62.9667 76.5178 63.428L76.8833 68.5932L72.8374 69.6159L72.4768 64.4697C72.4776 64.3683 72.4666 64.267 72.4467 64.165C72.4268 64.063 72.4097 63.9835 72.3946 63.9237C72.3258 63.6519 72.2067 63.4477 72.0377 63.314C71.8688 63.1803 71.6652 63.1422 71.4249 63.2029C71.1847 63.2636 71.0147 63.4281 70.8777 63.6998C70.7414 63.9743 70.6892 64.3721 70.7183 64.894L71.0837 70.0592L67.0379 71.0819L66.4739 63.2253C66.4638 62.9878 66.4428 62.6837 66.4087 62.3164C66.3739 61.9463 66.3322 61.6185 66.2849 61.3268L70.1844 60.3411C70.218 60.5206 70.2509 60.732 70.2845 60.9694C70.318 61.2067 70.3461 61.4107 70.3631 61.5828L70.4349 61.5647C70.61 61.1416 70.8949 60.7225 71.2895 60.3076C71.6841 59.8926 72.2076 59.6041 72.8566 59.44C73.5553 59.2634 74.142 59.2481 74.6215 59.3901C75.1011 59.532 75.4963 59.7936 75.8085 60.1687C76.0251 59.712 76.3265 59.2888 76.7073 58.9005C77.0887 58.5148 77.6233 58.2351 78.3109 58.0613C78.8633 57.9217 79.3609 57.8913 79.795 57.9696C80.2318 58.0471 80.6078 58.1979 80.9285 58.4205C81.2465 58.6438 81.5091 58.9157 81.7124 59.2432C81.9156 59.5707 82.0636 59.9121 82.153 60.2655C82.1949 60.4313 82.2264 60.591 82.2442 60.7427C82.2627 60.8971 82.2798 61.0461 82.2906 61.1937L82.7132 67.1195L78.6508 68.1464L78.6522 68.1403Z" fill="white"/>
<path d="M50.4465 111.277L56.6103 135.654L50.1946 137.276L45.5296 118.827L45.3868 118.863L40.8372 123.458L39.4528 117.982L44.5307 112.773L50.4465 111.277ZM65.6717 130.564L65.057 141.205L60.7839 142.285L59.8273 132.042L65.6717 130.564ZM79.2546 130.612C77.0724 131.164 75.0514 131.134 73.1917 130.524C71.3299 129.906 69.7287 128.749 68.3882 127.053C67.0456 125.349 66.0432 123.171 65.381 120.519C64.7188 117.867 64.5774 115.488 64.9569 113.382C65.3364 111.277 66.1962 109.536 67.5365 108.159C68.8847 106.779 70.6538 105.813 72.8439 105.259C75.0261 104.707 77.0391 104.722 78.8829 105.302C80.7346 105.881 82.3238 107.007 83.6504 108.681C84.9829 110.345 85.9833 112.498 86.6514 115.141C87.3256 117.807 87.473 120.21 87.0936 122.349C86.7201 124.478 85.8643 126.252 84.5262 127.671C83.186 129.082 81.4288 130.062 79.2546 130.612ZM77.9333 125.387C78.7268 125.186 79.3559 124.736 79.8205 124.036C80.2832 123.328 80.5397 122.372 80.59 121.169C80.6384 119.958 80.4489 118.507 80.0215 116.817C79.6022 115.159 79.0874 113.824 78.4772 112.813C77.8671 111.802 77.1922 111.103 76.4527 110.716C75.7132 110.329 74.9467 110.236 74.1532 110.437C73.3517 110.639 72.7216 111.086 72.2629 111.776C71.8042 112.466 71.5467 113.401 71.4903 114.58C71.4339 115.759 71.6114 117.179 72.0228 118.84C72.4402 120.524 72.958 121.887 73.5762 122.93C74.1944 123.972 74.8713 124.696 75.6069 125.101C76.3485 125.496 77.1239 125.591 77.9333 125.387ZM102.802 124.658C100.62 125.21 98.5992 125.18 96.7394 124.57C94.8777 123.952 93.2765 122.795 91.936 121.099C90.5934 119.395 89.591 117.217 88.9288 114.565C88.2666 111.912 88.1252 109.534 88.5047 107.428C88.8841 105.323 89.744 103.582 91.0843 102.204C92.4324 100.825 94.2016 99.8585 96.3917 99.3048C98.5739 98.753 100.587 98.7674 102.431 99.3481C104.282 99.9268 105.872 101.053 107.198 102.727C108.531 104.391 109.531 106.544 110.199 109.187C110.873 111.853 111.021 114.255 110.641 116.394C110.268 118.524 109.412 120.298 108.074 121.717C106.734 123.128 104.977 124.108 102.802 124.658ZM101.481 119.433C102.275 119.232 102.904 118.782 103.368 118.081C103.831 117.374 104.087 116.418 104.138 115.215C104.186 114.004 103.997 112.553 103.569 110.863C103.15 109.204 102.635 107.87 102.025 106.859C101.415 105.848 100.74 105.149 100.001 104.762C99.261 104.375 98.4945 104.282 97.7009 104.483C96.8995 104.685 96.2694 105.132 95.8107 105.822C95.352 106.512 95.0944 107.446 95.0381 108.626C94.9817 109.805 95.1592 111.225 95.5706 112.885C95.988 114.57 96.5058 115.933 97.124 116.976C97.7422 118.018 98.4191 118.742 99.1547 119.147C99.8962 119.542 100.672 119.637 101.481 119.433ZM126.35 118.704C124.168 119.255 122.147 119.226 120.287 118.616C118.425 117.997 116.824 116.84 115.484 115.145C114.141 113.441 113.139 111.263 112.477 108.611C111.814 105.958 111.673 103.579 112.052 101.474C112.432 99.3689 113.292 97.6276 114.632 96.2503C115.98 94.871 117.749 93.9044 119.94 93.3506C122.122 92.7989 124.135 92.8133 125.978 93.394C127.83 93.9726 129.419 95.0989 130.746 96.7728C132.079 98.4368 133.079 100.59 133.747 103.232C134.421 105.899 134.569 108.301 134.189 110.44C133.816 112.569 132.96 114.343 131.622 115.762C130.282 117.174 128.524 118.154 126.35 118.704ZM125.029 113.478C125.822 113.278 126.451 112.827 126.916 112.127C127.379 111.419 127.635 110.464 127.686 109.261C127.734 108.05 127.544 106.599 127.117 104.909C126.698 103.25 126.183 101.916 125.573 100.905C124.963 99.8941 124.288 99.1952 123.548 98.8081C122.809 98.421 122.042 98.3277 121.249 98.5284C120.447 98.731 119.817 99.1774 119.358 99.8675C118.9 100.558 118.642 101.492 118.586 102.672C118.529 103.851 118.707 105.271 119.118 106.931C119.536 108.616 120.054 109.979 120.672 111.022C121.29 112.064 121.967 112.788 122.703 113.193C123.444 113.588 124.219 113.683 125.029 113.478ZM149.863 119.774C148.094 120.222 146.49 120.357 145.052 120.18C143.617 120.011 142.422 119.562 141.469 118.832C140.519 118.11 139.85 117.169 139.464 116.008L145.618 114.452C145.781 114.833 146.021 115.114 146.337 115.296C146.656 115.486 147.035 115.584 147.476 115.591C147.918 115.606 148.414 115.544 148.961 115.405C149.913 115.164 150.605 114.745 151.036 114.146C151.467 113.547 151.551 112.728 151.289 111.689L150.497 108.558L150.295 108.609C150.293 108.635 150.291 108.661 150.289 108.687C150.285 108.705 150.281 108.723 150.277 108.741C150.178 109.382 149.935 109.975 149.549 110.52C149.172 111.063 148.67 111.532 148.044 111.927C147.425 112.319 146.703 112.62 145.878 112.829C144.521 113.172 143.215 113.165 141.959 112.807C140.712 112.447 139.603 111.684 138.633 110.52C137.661 109.347 136.92 107.753 136.411 105.737C135.883 103.651 135.775 101.82 136.086 100.247C136.396 98.6664 137.006 97.4062 137.916 96.4667C138.833 95.5174 139.934 94.8801 141.22 94.5551C142.045 94.3464 142.822 94.2977 143.551 94.4089C144.278 94.5121 144.925 94.7367 145.494 95.0826C146.061 95.4205 146.564 95.842 147.004 96.3471C147.042 96.3966 147.081 96.4501 147.121 96.5075C147.159 96.5571 147.197 96.6106 147.237 96.668L147.38 96.6319L146.577 93.4538L152.933 91.8467L157.553 110.118C157.938 111.641 157.875 113.046 157.364 114.332C156.854 115.617 155.951 116.724 154.658 117.65C153.374 118.583 151.776 119.291 149.863 119.774ZM147.05 107.695C147.676 107.537 148.173 107.23 148.539 106.774C148.911 106.308 149.134 105.72 149.207 105.009C149.287 104.289 149.211 103.472 148.98 102.559C148.747 101.639 148.423 100.872 148.006 100.26C147.598 99.6458 147.119 99.2222 146.571 98.9895C146.028 98.7468 145.443 98.7047 144.816 98.8632C144.189 99.0217 143.695 99.3367 143.333 99.8081C142.971 100.28 142.756 100.883 142.689 101.617C142.627 102.342 142.713 103.165 142.945 104.085C143.178 105.006 143.492 105.762 143.887 106.355C144.289 106.945 144.757 107.359 145.289 107.596C145.828 107.822 146.415 107.856 147.05 107.695Z" fill="white"/>
</svg>
