<svg width="32" height="32" viewBox="0 0 32 32" fill="none" xmlns="http://www.w3.org/2000/svg">
<path d="M22.1101 5.33865V3.27655C22.1101 2.73459 21.6765 2.28516 21.1537 2.28516C20.6308 2.28516 20.1972 2.73459 20.1972 3.27655V5.25934H11.9081V3.27655C11.9081 2.73459 11.4746 2.28516 10.9517 2.28516C10.4289 2.28516 9.99527 2.73459 9.99527 3.27655V5.33865C6.55211 5.66912 4.88154 7.79731 4.62649 10.9566C4.60098 11.3399 4.90704 11.6571 5.26411 11.6571H26.8413C27.2111 11.6571 27.5172 11.3267 27.4789 10.9566C27.2239 7.79731 25.5533 5.66912 22.1101 5.33865Z" fill="#826AA7"/>
<path opacity="0.4" d="M26.1654 13.6406C26.8638 13.6406 27.4353 14.2355 27.4353 14.9625V23.1052C27.4353 27.0707 25.5305 29.7145 21.0861 29.7145H10.9273C6.48289 29.7145 4.57812 27.0707 4.57812 23.1052V14.9625C4.57812 14.2355 5.14955 13.6406 5.84797 13.6406H26.1654Z" fill="#A99FB7"/>
<path d="M11.6031 20.4548C11.2594 20.4548 10.9157 20.3093 10.6646 20.0714C10.4267 19.8203 10.2812 19.4766 10.2812 19.1329C10.2812 18.7892 10.4267 18.4455 10.6646 18.1944C11.0347 17.8243 11.6163 17.7053 12.1054 17.9168C12.2773 17.9829 12.4227 18.0754 12.5416 18.1944C12.7796 18.4455 12.925 18.7892 12.925 19.1329C12.925 19.4766 12.7796 19.8203 12.5416 20.0714C12.2905 20.3093 11.9468 20.4548 11.6031 20.4548Z" fill="#826AA7"/>
<path d="M16.2281 20.4548C15.8844 20.4548 15.5407 20.3093 15.2896 20.0714C15.0517 19.8203 14.9062 19.4766 14.9062 19.1329C14.9062 18.7892 15.0517 18.4455 15.2896 18.1944C15.4086 18.0754 15.554 17.9829 15.7258 17.9168C16.2149 17.7053 16.7965 17.8243 17.1666 18.1944C17.4046 18.4455 17.55 18.7892 17.55 19.1329C17.55 19.4766 17.4046 19.8203 17.1666 20.0714C17.1005 20.1243 17.0344 20.1772 16.9684 20.23C16.889 20.2829 16.8097 20.3226 16.7304 20.349C16.6511 20.3887 16.5718 20.4151 16.4925 20.4283C16.4 20.4416 16.3206 20.4548 16.2281 20.4548Z" fill="#826AA7"/>
<path d="M20.8531 20.4562C20.5094 20.4562 20.1657 20.3108 19.9146 20.0729C19.6767 19.8217 19.5312 19.4781 19.5312 19.1344C19.5312 18.7907 19.6767 18.447 19.9146 18.1959C20.0468 18.0769 20.179 17.9843 20.3508 17.9182C20.5887 17.8125 20.8531 17.7861 21.1175 17.8389C21.1968 17.8522 21.2761 17.8786 21.3554 17.9182C21.4347 17.9447 21.514 17.9844 21.5934 18.0372C21.6594 18.0901 21.7255 18.143 21.7916 18.1959C22.0296 18.447 22.175 18.7907 22.175 19.1344C22.175 19.4781 22.0296 19.8217 21.7916 20.0729C21.7255 20.1258 21.6594 20.1786 21.5934 20.2315C21.514 20.2844 21.4347 20.3241 21.3554 20.3505C21.2761 20.3902 21.1968 20.4166 21.1175 20.4298C21.025 20.443 20.9324 20.4562 20.8531 20.4562Z" fill="#826AA7"/>
<path d="M11.6031 25.089C11.4313 25.089 11.2594 25.0494 11.1008 24.9833C10.929 24.9172 10.7968 24.8247 10.6646 24.7057C10.4267 24.4545 10.2812 24.1109 10.2812 23.7672C10.2812 23.4235 10.4267 23.0798 10.6646 22.8287C10.7968 22.7097 10.929 22.6172 11.1008 22.5511C11.3387 22.4453 11.6031 22.4189 11.8675 22.4718C11.9468 22.485 12.0261 22.5114 12.1054 22.5511C12.1847 22.5775 12.264 22.6172 12.3434 22.6701C12.4094 22.7229 12.4755 22.7758 12.5416 22.8287C12.7796 23.0798 12.925 23.4235 12.925 23.7672C12.925 24.1109 12.7796 24.4545 12.5416 24.7057C12.4755 24.7586 12.4094 24.8247 12.3434 24.8643C12.264 24.9172 12.1847 24.9569 12.1054 24.9833C12.0261 25.023 11.9468 25.0494 11.8675 25.0626C11.775 25.0758 11.6956 25.089 11.6031 25.089Z" fill="#826AA7"/>
<path d="M16.2281 25.0842C15.8844 25.0842 15.5407 24.9388 15.2896 24.7009C15.0517 24.4497 14.9062 24.106 14.9062 23.7624C14.9062 23.4187 15.0517 23.075 15.2896 22.8238C15.7787 22.3348 16.6775 22.3348 17.1666 22.8238C17.4046 23.075 17.55 23.4187 17.55 23.7624C17.55 24.106 17.4046 24.4497 17.1666 24.7009C16.9155 24.9388 16.5718 25.0842 16.2281 25.0842Z" fill="#826AA7"/>
<path d="M20.8531 25.0842C20.5094 25.0842 20.1657 24.9388 19.9146 24.7009C19.6767 24.4497 19.5312 24.106 19.5312 23.7624C19.5312 23.4187 19.6767 23.075 19.9146 22.8238C20.4037 22.3348 21.3025 22.3348 21.7916 22.8238C22.0296 23.075 22.175 23.4187 22.175 23.7624C22.175 24.106 22.0296 24.4497 21.7916 24.7009C21.5405 24.9388 21.1968 25.0842 20.8531 25.0842Z" fill="#826AA7"/>
</svg>
