<svg width="900" height="15" viewBox="0 0 900 15" fill="none" xmlns="http://www.w3.org/2000/svg">
<rect x="427.344" y="1.70312" width="8" height="8" rx="1.4" transform="rotate(45 427.344 1.70312)" fill="#C2AAD5" fill-opacity="0.3"/>
<path opacity="0.8" d="M449.999 2.11014C450.076 2.11014 450.152 2.11014 450.228 2.11014C449.479 2.80646 448.997 3.74338 448.867 4.75801C448.736 5.77265 448.966 6.80085 449.515 7.66389C450.064 8.52694 450.898 9.17024 451.873 9.48199C452.847 9.79374 453.9 9.75422 454.848 9.3703C454.483 10.2479 453.887 11.0101 453.123 11.5755C452.359 12.1408 451.456 12.4882 450.51 12.5806C449.564 12.673 448.611 12.5069 447.752 12.1C446.893 11.693 446.161 11.0606 445.633 10.2702C445.106 9.47968 444.803 8.5608 444.756 7.61153C444.71 6.66227 444.922 5.71822 445.37 4.8801C445.818 4.04198 446.486 3.34122 447.301 2.85256C448.116 2.36391 449.048 2.1057 449.999 2.10547V2.11014Z" stroke="#8D80A8" stroke-width="1.2" stroke-linecap="round" stroke-linejoin="round"/>
<rect x="472.656" y="1.70312" width="8" height="8" rx="1.4" transform="rotate(45 472.656 1.70312)" fill="#C2AAD5" fill-opacity="0.3"/>
</svg>
