<svg width="498" height="55" viewBox="0 0 498 55" fill="none" xmlns="http://www.w3.org/2000/svg">
<path d="M23.609 32.996H27.979V38.01H23.609V44.864H18.319V38.01H1.80499V34.698C1.80499 33.134 1.89699 32.766 2.86299 30.742L15.467 6.73H23.609V32.996ZM18.319 12.204L7.50899 32.996H18.319V12.204ZM48.6233 15.746L32.9833 28.856L29.4873 24.946L44.9433 12.02H31.2813V6.96H65.9653V12.02H52.3493L67.7593 24.946L64.2633 28.856L48.6233 15.746ZM29.3493 31.524H67.8973V36.676H51.3833V46.474H45.9093V36.676H29.3493V31.524ZM106.167 6.27V16.804H110.997V22.094H106.167V36.216H100.693V6.27H106.167ZM86.7095 30.88L81.3735 29.316L87.9975 12.066H72.0355V6.96H93.9775V11.79L86.7095 30.88ZM74.8875 32.904H80.3615V41.368H107.409V46.474H74.8875V32.904ZM223.56 32.168V39.482H240.074V44.634H201.526V39.482H218.086V32.168H203.458V17.77L232.714 16.712V11.882H203.458V6.96H238.142V21.266L208.932 22.324V27.2H238.464V32.168H223.56ZM268.23 10.042V15.194H262.25L268.414 44.174L263.216 45.14L258.662 20.99L254.062 45.14L248.864 44.174L255.074 15.194H249.048V10.042H256.04V5.442H261.284V10.042H268.23ZM281.984 46.474V6.27H287.228V46.474H281.984ZM266.942 22.232H272.738V6.362H277.89V45.784H272.738V27.43H266.942V22.232ZM306.5 8.478H316.574V12.756H290.906V8.478H301.026V5.442H306.5V8.478ZM321.956 17.448V6.27H327.43V29.5H321.956V22.554H316.298V17.448H321.956ZM307.742 29.178H299.784C294.908 29.178 292.608 27.292 292.608 23.152V20.944C292.608 16.804 294.908 14.918 299.784 14.918H307.742C312.572 14.918 314.872 16.804 314.872 20.944V23.152C314.872 27.292 312.572 29.178 307.742 29.178ZM298.082 21.174V22.876C298.082 24.532 298.91 25.13 300.75 25.13H306.776C308.616 25.13 309.444 24.532 309.444 22.876V21.174C309.444 19.564 308.616 18.92 306.776 18.92H300.75C298.91 18.92 298.082 19.564 298.082 21.174ZM327.43 46.474H294.356V31.892H327.43V46.474ZM321.956 36.538H299.83V41.736H321.956V36.538ZM339.204 5.442H344.494V10.042H352.36V15.194H331.292V10.042H339.204V5.442ZM364.78 22.232V6.27H370.024V46.474H364.78V27.43H360.088V45.784H354.89V6.362H360.088V22.232H364.78ZM340.492 19.012H343.206C348.312 19.012 350.658 21.956 350.658 27.568V36.63C350.658 42.288 348.312 45.232 343.206 45.232H340.492C335.34 45.232 332.994 42.288 332.994 36.63V27.568C332.994 21.956 335.34 19.012 340.492 19.012ZM345.552 36.078V28.166C345.552 25.268 344.862 24.118 342.7 24.118H341.044C338.928 24.118 338.192 25.268 338.192 28.166V36.078C338.192 38.93 338.928 40.126 341.044 40.126H342.7C344.862 40.126 345.552 38.93 345.552 36.078ZM395.736 30.788V39.482H412.25V44.634H373.702V39.482H390.262V30.788H375.634V6.5H381.154V13.446H404.844V6.5H410.318V30.788H395.736ZM404.844 18.598H381.154V25.636H404.844V18.598ZM447.577 46.474V6.27H452.821V46.474H447.577ZM432.995 21.772H438.331V6.362H443.483V45.784H438.331V26.97H432.995V21.772ZM414.457 44.174L420.805 6.96H427.981L434.329 44.174L429.085 45.14L424.393 15.47L419.701 45.14L414.457 44.174ZM486.583 30.972V39.482H495.047V44.634H456.499V39.482H465.009V30.972C460.501 30.558 458.201 27.89 458.201 22.784V14.918C458.201 9.398 460.915 6.73 466.205 6.73H485.341C490.677 6.73 493.345 9.398 493.345 14.918V22.784C493.345 27.844 491.091 30.558 486.583 30.972ZM463.721 15.792V21.956C463.721 24.808 464.641 25.866 467.447 25.866H484.099C486.905 25.866 487.871 24.808 487.871 21.956V15.792C487.871 12.94 486.905 11.836 484.099 11.836H467.447C464.641 11.836 463.721 12.94 463.721 15.792ZM481.109 31.018H470.483V39.482H481.109V31.018Z" fill="white"/>
<path d="M120.661 6.96H155.345V27.66H120.661V6.96ZM126.181 22.6H149.871V12.02H126.181V22.6ZM118.729 31.524H157.277V36.676H140.763V46.474H135.289V36.676H118.729V31.524ZM190.212 32.168V39.482H198.676V44.634H160.128V39.482H168.638V32.168H162.06V17.77L191.316 16.712V11.882H162.06V6.96H196.744V21.266L167.534 22.324V27.2H197.066V32.168H190.212ZM184.738 32.168H174.112V39.482H184.738V32.168Z" fill="url(#paint0_linear_5410_319253)"/>
<defs>
<linearGradient id="paint0_linear_5410_319253" x1="120.238" y1="6.63792" x2="202.442" y2="43.3377" gradientUnits="userSpaceOnUse">
<stop stop-color="#FFA8A3"/>
<stop offset="1" stop-color="#7AB7FF"/>
</linearGradient>
</defs>
</svg>
