<svg width="57" height="15" viewBox="0 0 57 15" fill="none" xmlns="http://www.w3.org/2000/svg">
<rect opacity="0.4" x="5.84375" y="1.42188" width="8" height="8" rx="1.4" transform="rotate(45 5.84375 1.42188)" fill="#9685D9"/>
<path opacity="0.8" d="M28.4987 1.82889C28.5757 1.82889 28.6522 1.82889 28.728 1.82889C27.9786 2.52521 27.4969 3.46213 27.3667 4.47676C27.2364 5.4914 27.4658 6.5196 28.015 7.38264C28.5642 8.24569 29.3984 8.88899 30.3728 9.20074C31.3471 9.51249 32.3998 9.47297 33.348 9.08905C32.9832 9.96667 32.3871 10.7288 31.6232 11.2942C30.8592 11.8596 29.9562 12.207 29.0103 12.2994C28.0644 12.3917 27.1111 12.2256 26.2523 11.8187C25.3934 11.4118 24.661 10.7794 24.1334 9.9889C23.6058 9.19843 23.3026 8.27955 23.2562 7.33028C23.2099 6.38102 23.4221 5.43697 23.8702 4.59885C24.3183 3.76073 24.9855 3.05997 25.8007 2.57131C26.6158 2.08266 27.5483 1.82445 28.4987 1.82422V1.82889Z" stroke="#9685D9" stroke-width="1.2" stroke-linecap="round" stroke-linejoin="round"/>
<rect opacity="0.4" x="51.1562" y="1.42188" width="8" height="8" rx="1.4" transform="rotate(45 51.1562 1.42188)" fill="#9685D9"/>
</svg>
