<svg width="43" height="49" viewBox="0 0 43 49" fill="none" xmlns="http://www.w3.org/2000/svg">
<g filter="url(#filter0_f_5396_318845)">
<path d="M14.9844 38.6514L12.0312 24.0859H32.4627L29.8688 38.6514H14.9844Z" fill="#FFF1CE"/>
</g>
<g filter="url(#filter1_f_5396_318845)">
<path d="M14.9844 38.6514L12.0312 24.0859H32.4627L29.8688 38.6514H14.9844Z" fill="#FFF1CE"/>
</g>
<path d="M16.04 17.2422L12.0429 23.9277H32.5396L29.0488 17.2422H16.04Z" fill="#826AA7"/>
<path d="M0.96875 1.35938H17.3818C20.1433 1.35938 22.3818 3.59795 22.3818 6.35937V16.2838" stroke="#826AA7" stroke-width="2"/>
<path d="M14.9844 38.6514L12.0312 24.0859H32.4627L29.8688 38.6514H14.9844Z" fill="#FFF1CE"/>
<path d="M22.6455 43.4385L14.9844 38.5703H29.789L22.6455 43.4385Z" fill="#826AA7"/>
<path d="M22.4409 13.6289L18.7578 18.0586H25.7261L22.4409 13.6289Z" fill="#826AA7"/>
<path d="M24.5781 22.8086V38.7705" stroke="#826AA7" stroke-width="2"/>
<path d="M19.1875 11.7969H25.7314" stroke="#826AA7" stroke-width="1.5"/>
<defs>
<filter id="filter0_f_5396_318845" x="2.03125" y="14.0859" width="40.4297" height="34.5664" filterUnits="userSpaceOnUse" color-interpolation-filters="sRGB">
<feFlood flood-opacity="0" result="BackgroundImageFix"/>
<feBlend mode="normal" in="SourceGraphic" in2="BackgroundImageFix" result="shape"/>
<feGaussianBlur stdDeviation="5" result="effect1_foregroundBlur_5396_318845"/>
</filter>
<filter id="filter1_f_5396_318845" x="2.03125" y="14.0859" width="40.4297" height="34.5664" filterUnits="userSpaceOnUse" color-interpolation-filters="sRGB">
<feFlood flood-opacity="0" result="BackgroundImageFix"/>
<feBlend mode="normal" in="SourceGraphic" in2="BackgroundImageFix" result="shape"/>
<feGaussianBlur stdDeviation="5" result="effect1_foregroundBlur_5396_318845"/>
</filter>
</defs>
</svg>
