<svg width="408" height="99" viewBox="0 0 408 99" fill="none" xmlns="http://www.w3.org/2000/svg">
<path d="M22.0528 21.666V23.9512H12.9122V31.5938H10.1192V23.9512H1.08015V21.666H22.0528ZM19.4884 9.83398V18.9746H3.64461V9.83398H19.4884ZM6.41219 12.0938V16.7656H16.67V12.0938H6.41219ZM43.5089 26.6172V28.9531H22.5362V26.6172H28.0968V22.834H25.0245V15.3438H38.2277V12.5254H24.9737V10.2402H41.0206V17.6035H27.8429V20.5488H41.5538V22.834H38.2023V26.6172H43.5089ZM30.839 26.6172H35.4347V22.834H30.839V26.6172ZM56.1047 15.6738C56.1047 19.2285 57.5773 22.8086 60.7766 24.5352L59.2023 26.6172C57.0695 25.4873 55.6223 23.4688 54.8098 21.0566C53.9973 23.6592 52.55 25.8809 50.3918 27.1504L48.7414 25.0176C51.9914 23.1387 53.4387 19.3047 53.4387 15.6738V14.9629H49.5285V12.6777H53.4387V9.47852H56.1047V12.6777H59.9387V14.9629H56.1047V15.6738ZM68.8508 8.66602V31.6191H66.1594V8.66602H68.8508ZM64.1789 9.09766V30.502H61.5129V19.8125H58.5168V17.4766H61.5129V9.09766H64.1789ZM89.7483 8.66602V22.5547H86.9299V17.8066H83.6545V15.4707H86.9299V8.66602H89.7483ZM89.7483 23.5957V31.3398H74.4885V23.5957H89.7483ZM77.3069 25.8301V29.0547H86.9807V25.8301H77.3069ZM84.0354 10.7988V13.084H70.5784V10.7988H75.9104V8.48828H78.7034V10.7988H84.0354ZM77.3069 13.9727C80.5061 13.9727 82.7405 15.6738 82.7659 18.0859C82.7405 20.5742 80.5061 22.1992 77.3069 22.1992C74.133 22.1992 71.8733 20.5742 71.8733 18.0859C71.8733 15.6738 74.133 13.9727 77.3069 13.9727ZM77.3069 16.1055C75.6565 16.1055 74.5647 16.8672 74.5647 18.0859C74.5647 19.3555 75.6565 20.0918 77.3069 20.0918C78.9573 20.0918 80.0491 19.3555 80.0491 18.0859C80.0491 16.8672 78.9573 16.1055 77.3069 16.1055ZM109.935 8.66602V17.8066H113.464V20.1426H109.935V31.6191H107.142V8.66602H109.935ZM105.365 12.1953V14.4551H91.8313V12.1953H97.2649V8.99609H100.083V12.1953H105.365ZM98.6868 15.9531C101.988 15.9531 104.45 18.1875 104.45 21.3613C104.45 24.5352 101.988 26.7441 98.6868 26.7441C95.3352 26.7441 92.8723 24.5352 92.8977 21.3613C92.8723 18.1875 95.3352 15.9531 98.6868 15.9531ZM98.6868 18.2637C96.8841 18.2637 95.5891 19.4824 95.5891 21.3613C95.5891 23.2402 96.8841 24.4336 98.6868 24.4082C100.439 24.4336 101.734 23.2402 101.759 21.3613C101.734 19.4824 100.439 18.2637 98.6868 18.2637ZM122.073 14.1758C122.047 18.3906 124.256 22.6055 127.989 24.2051L126.313 26.4648C123.672 25.2461 121.73 22.8086 120.676 19.8125C119.622 23.0498 117.655 25.6904 114.862 26.998L113.135 24.6367C116.969 22.9863 119.203 18.5938 119.203 14.1758V10.5195H122.073V14.1758ZM132.483 8.66602V31.6445H129.639V8.66602H132.483ZM153.406 15.166V17.4004H137.511V9.50391H140.304V15.166H153.406ZM155.767 20.0664V22.3008H134.794V20.0664H155.767ZM153.558 28.8008V31.0859H137.308V24.332H140.126V28.8008H153.558ZM361.722 19.4316V21.6914H345.625V10.6719H361.545V12.957H348.418V19.4316H361.722ZM364.058 26.3633V28.6992H343.086V26.3633H364.058ZM383.636 8.66602V31.6445H380.843V8.66602H383.636ZM376.577 10.6719V19.2793H368.681V23.9004C372.299 23.875 375.422 23.6973 378.989 23.0879L379.243 25.3984C375.333 26.084 371.905 26.2109 367.792 26.2109H365.786V17.0449H373.708V12.957H365.761V10.6719H376.577ZM404.533 15.166V17.4004H388.639V9.50391H391.432V15.166H404.533ZM406.894 20.0664V22.3008H385.922V20.0664H406.894ZM404.685 28.8008V31.0859H388.435V24.332H391.254V28.8008H404.685Z" fill="white"/>
<path d="M182.353 26.5156V28.8262H161.38V26.5156H170.419V21.5137H163.691V10.4434H179.941V21.5137H173.212V26.5156H182.353ZM166.458 12.7031V19.3047H177.148V12.7031H166.458ZM203.758 20.0918V22.3516H182.811V20.0918H203.758ZM201.422 15.7246V18.0098H185.375V9.58008H201.219V11.8145H188.194V15.7246H201.422ZM201.575 28.8516V31.1367H185.401V24.3574H188.168V28.8516H201.575ZM216.379 15.6738C216.379 19.2285 217.852 22.8086 221.051 24.5352L219.477 26.6172C217.344 25.4873 215.897 23.4688 215.085 21.0566C214.272 23.6592 212.825 25.8809 210.667 27.1504L209.016 25.0176C212.266 23.1387 213.713 19.3047 213.713 15.6738V14.9629H209.803V12.6777H213.713V9.47852H216.379V12.6777H220.213V14.9629H216.379V15.6738ZM229.126 8.66602V31.6191H226.434V8.66602H229.126ZM224.454 9.09766V30.502H221.788V19.8125H218.792V17.4766H221.788V9.09766H224.454ZM250.023 8.66602V22.5547H247.205V17.8066H243.929V15.4707H247.205V8.66602H250.023ZM250.023 23.5957V31.3398H234.763V23.5957H250.023ZM237.582 25.8301V29.0547H247.255V25.8301H237.582ZM244.31 10.7988V13.084H230.853V10.7988H236.185V8.48828H238.978V10.7988H244.31ZM237.582 13.9727C240.781 13.9727 243.015 15.6738 243.041 18.0859C243.015 20.5742 240.781 22.1992 237.582 22.1992C234.408 22.1992 232.148 20.5742 232.148 18.0859C232.148 15.6738 234.408 13.9727 237.582 13.9727ZM237.582 16.1055C235.931 16.1055 234.839 16.8672 234.839 18.0859C234.839 19.3555 235.931 20.0918 237.582 20.0918C239.232 20.0918 240.324 19.3555 240.324 18.0859C240.324 16.8672 239.232 16.1055 237.582 16.1055ZM270.337 8.66602V15.1152H273.561V17.4512H270.337V25.2715H267.518V8.66602H270.337ZM263.481 10.5703V12.8301H255.991V19.0762C260.307 19.0889 262.707 18.9365 265.436 18.3652L265.741 20.6504C262.745 21.2344 260.053 21.3867 255.051 21.3867H253.198V10.5703H263.481ZM271.251 28.877V31.1621H255.635V23.5195H258.454V28.877H271.251ZM294.611 20.5488V22.8086H285.75V26.7695H282.957V22.8086H273.638V20.5488H294.611ZM292.3 28.877V31.1621H276.177V24.8398H278.97V28.877H292.3ZM279.174 9.40234V11.9922H289.076V9.40234H291.869V18.7461H276.381V9.40234H279.174ZM279.174 16.5117H289.076V14.0996H279.174V16.5117ZM316.042 17.8574V20.0918H295.094V17.8574H316.042ZM313.553 14.1504V16.3848H297.76V9.25H313.35V11.5098H300.579V14.1504H313.553ZM313.401 21.666V27.4297H300.35V29.1816H314.036V31.3906H297.583V25.3984H310.633V23.7988H297.557V21.666H313.401ZM322.187 11.3574C322.162 16.7656 321.552 21.9961 318.506 26.5156L316.297 25.3223C318.836 21.7549 319.572 18.0352 319.75 13.6426H316.957V11.3574H322.187ZM327.316 11.3574C327.303 13.3252 327.265 15.3691 327.062 17.4004H329.373V9.22461H332.039V30.5273H329.373V19.6855H326.758C326.25 22.5293 325.323 25.2969 323.635 27.7852L321.476 26.5664C324.231 22.6182 324.764 18.2002 324.879 13.6426H322.873V11.3574H327.316ZM336.482 8.66602V31.6191H333.765V8.66602H336.482Z" fill="url(#paint0_linear_5401_319078)"/>
<path d="M107.063 69.4394C109.303 70.5194 110.503 72.4394 110.503 75.0394V79.2794C110.503 84.1194 108.343 86.7194 103.743 86.7194H90.5827V53.5594H103.143C107.743 53.5594 109.903 56.1594 109.903 60.9994V63.9994C109.903 66.4794 108.903 68.3194 107.063 69.4394ZM102.503 57.9994H95.3427V67.4794H101.503C103.943 67.4794 105.143 66.2794 105.143 64.1594V61.1194C105.143 59.0394 104.343 57.9994 102.503 57.9994ZM105.743 79.1194V75.0794C105.743 72.9594 104.543 71.7594 102.103 71.7594H95.3427V82.2394H103.103C104.943 82.2394 105.743 81.2394 105.743 79.1194ZM117.2 86.7194H112.44V53.5594H117.2V86.7194ZM132.363 86.8794H126.363C121.803 86.8794 119.603 84.2794 119.603 79.4394V60.8394C119.603 55.9994 121.803 53.3994 126.363 53.3994H138.443V57.8394H127.043C125.203 57.8394 124.363 58.8794 124.363 60.9594V79.2794C124.363 81.3994 125.203 82.3994 127.043 82.3994H131.723C133.563 82.3994 134.363 81.3994 134.363 79.2794V72.1994H129.123V67.7194H139.123V79.4394C139.123 84.2794 136.963 86.8794 132.363 86.8794ZM157.593 56.4394H164.353V60.9194H146.233V56.4394H153.033V52.4394H157.593V56.4394ZM175.353 88.1194V53.1594H179.913V88.1194H175.353ZM164.033 62.5194H167.393V53.2394H171.873V87.5194H167.393V78.1194H164.033V73.5994H167.393V67.0394H164.033V62.5194ZM154.193 64.2394H156.393C160.873 64.2394 162.873 66.7994 162.873 71.6794V79.5594C162.873 84.4794 160.873 87.0394 156.393 87.0394H154.193C149.753 87.0394 147.713 84.4794 147.713 79.5594V71.6794C147.713 66.7994 149.753 64.2394 154.193 64.2394ZM158.433 79.0794V72.1994C158.433 69.6794 157.833 68.6794 155.993 68.6794H154.713C152.873 68.6794 152.233 69.6794 152.233 72.1994V79.0794C152.233 81.5594 152.873 82.5994 154.713 82.5994H155.993C157.833 82.5994 158.433 81.5594 158.433 79.0794ZM211.351 61.3594V53.1594H215.911V75.1594H211.351V65.8794H207.271V74.7594H202.751V53.2394H207.271V61.3594H211.351ZM188.271 70.7194L199.951 70.0794L200.231 74.2394L183.711 75.1194V53.8394H199.391V57.9594H188.271V61.9594H198.671V65.9994H188.271V70.7194ZM211.151 81.5594H186.031V77.2394H215.911V88.1194H211.151V81.5594ZM240.115 69.5994C241.995 70.7994 242.955 72.8794 242.955 75.7194V79.3994C242.955 84.2794 240.795 86.8794 236.195 86.8794H224.075V82.4394H235.555C237.395 82.4394 238.195 81.3994 238.195 79.3194V74.9594C238.195 72.8394 237.395 71.8394 235.555 71.8394H227.395V67.6794H235.155C236.995 67.6794 237.795 66.6794 237.795 64.5594V60.9194C237.795 58.8394 236.995 57.7994 235.155 57.7994H224.675V53.3994H235.795C240.395 53.3994 242.555 55.9994 242.555 60.8394V63.5994C242.555 66.3594 241.715 68.3594 240.115 69.5994ZM275.93 66.9994H280.13V71.5994H275.93V88.1194H271.17V53.1594H275.93V66.9994ZM260.21 58.1994H246.25V53.7594H265.33V57.9594L255.49 87.4394L250.73 86.3594L260.21 58.1994ZM308.128 88.1194V53.1594H312.888V88.1194H308.128ZM304.208 53.7594V58.1994H295.808L304.328 85.5994L299.688 86.9994L292.688 63.5594L285.688 86.9994L281.048 85.5994L289.568 58.1994H281.208V53.7594H304.208ZM322.087 77.8394H318.287L317.247 53.5594H323.167L322.087 77.8394ZM320.927 87.5994H319.447C317.927 87.5994 317.207 86.7594 317.207 85.1594V84.1594C317.207 82.5194 317.927 81.6794 319.447 81.6794H320.927C322.487 81.6794 323.167 82.5194 323.167 84.1594V85.1594C323.167 86.7594 322.487 87.5994 320.927 87.5994Z" fill="white"/>
<defs>
<linearGradient id="paint0_linear_5401_319078" x1="160.516" y1="0.518715" x2="325.664" y2="-48.7697" gradientUnits="userSpaceOnUse">
<stop stop-color="#FFCFCC"/>
<stop offset="1" stop-color="#9ECBFF"/>
</linearGradient>
</defs>
</svg>
