<svg width="755" height="101" viewBox="0 0 755 101" fill="none" xmlns="http://www.w3.org/2000/svg">
<g clip-path="url(#clip0_740_570)">
<g filter="url(#filter0_i_740_570)">
<path d="M113.97 58.0887H121.32V66.1388H113.97V95.0488H105.64V33.8687H113.97V58.0887ZM70.5002 34.9187V84.6187L97.6602 83.0787L98.0802 90.9188L62.1002 92.8788V34.9187H70.5002ZM177.247 95.0488H168.917V33.8687H177.247V95.0488ZM158.417 92.2488H124.257V34.9187H132.587V54.3787H150.087V34.9187H158.417V92.2488ZM132.587 62.2187V84.4088H150.087V62.2187H132.587ZM232.685 33.8687H240.665V79.4387H232.685V33.8687ZM201.465 70.2687H193.975C186.905 70.2687 183.825 66.6287 183.825 58.9987V45.4887C183.825 37.8587 186.905 34.2187 193.975 34.2187H201.465C208.675 34.2187 211.615 37.8587 211.615 45.4887V48.7087H218.615V34.0087H226.455V78.3887H218.615V56.5487H211.615V58.9987C211.615 66.6287 208.675 70.2687 201.465 70.2687ZM191.735 45.9087V58.6487C191.735 61.2387 192.505 62.7087 195.445 62.7087H200.135C203.285 62.7087 203.915 61.2387 203.915 58.6487V45.9087C203.915 43.2487 203.285 41.7787 200.135 41.7787H195.445C192.505 41.7787 191.735 43.2487 191.735 45.9087ZM197.265 75.3087V87.2788H240.875V95.0488H188.935V75.3087H197.265ZM305.141 59.9087L282.811 41.7787L260.481 59.9087L255.091 53.3987L278.121 34.5687H287.501L310.531 53.3987L305.141 59.9087ZM312.141 63.1287V70.4787H287.011V76.0787H309.201V95.0488H300.871V83.7087H256.421V76.0787H278.681V70.4787H253.481V63.1287H312.141ZM362.328 63.8287H351.128V69.5687H317.668V34.9187H351.128V41.3587H362.328V33.8687H370.658V79.4387H362.328V63.8287ZM325.998 62.0087H342.798V42.5487H325.998V62.0087ZM362.328 56.5487V48.6387H351.128V56.5487H362.328ZM329.358 75.3087V87.2788H371.568V95.0488H321.028V75.3087H329.358ZM426.095 58.1587V33.8687H434.075V95.0488H426.095V66.0687H418.955V93.9988H411.045V34.0087H418.955V58.1587H426.095ZM405.025 92.2488H377.725V34.9187H405.025V92.2488ZM397.185 42.6887H385.705V84.4088H397.185V42.6887ZM449.543 66.4187H494.833V73.9787H441.213V34.9187H493.993V42.4087H449.543V50.7388H493.993V58.0187H449.543V66.4187ZM438.273 92.2488V84.4088H496.933V92.2488H438.273Z" fill="white"/>
</g>
<path d="M565.974 58.0887H573.324V66.1388H565.974V95.0488H557.644V33.8687H565.974V58.0887ZM511.374 90.9188L525.584 34.9187H536.504L550.714 90.9188L542.524 93.0188L531.044 46.8187L519.564 93.0188L511.374 90.9188ZM623.091 95.0488V33.8687H631.071V95.0488H623.091ZM600.271 47.2387H609.021V34.0087H616.861V93.9988H609.021V77.0587H598.171V69.0787H609.021V55.1487H600.271V47.2387ZM574.861 34.9187H599.711V42.2687L583.611 93.8588L575.421 91.9688L590.961 42.6887H574.861V34.9187ZM690.849 64.3187H682.519V54.0287H671.809V46.3287H682.519V33.8687H690.849V64.3187ZM653.399 47.6587L642.059 64.3887L635.409 60.3987L647.939 41.9187H635.409V34.9187H671.459V41.9187H658.859L671.389 60.3987L664.739 64.3887L653.399 47.6587ZM648.849 84.7587V88.4688H691.759V95.0488H640.519V79.1587L682.589 77.8987V74.3287H640.519V67.9587H690.849V83.4987L648.849 84.7587Z" fill="url(#paint0_linear_740_570)"/>
<rect x="691.219" y="-0.195312" width="67.4464" height="41.9178" rx="20.9589" transform="rotate(18.3914 691.219 -0.195312)" fill="url(#paint1_linear_740_570)"/>
<path d="M714.964 21.313L714.75 38.1238L712.296 38.0245L712.368 33.749L706.257 31.7172L703.755 35.1849L701.711 33.7888L711.624 20.2024L714.964 21.313ZM712.524 23.0731L707.698 29.7302L712.404 31.2951L712.524 23.0731ZM720.158 25.316L720.947 22.9437L723.319 23.7325L722.53 26.1048L720.158 25.316ZM717.905 39.763L715.684 39.0247L719.603 27.2391L721.823 27.9774L717.905 39.763ZM719.971 40.4501L723.89 28.6645L726.129 29.4091L725.788 30.4339C727.167 30.1546 728.805 30.1723 729.893 30.4497L729.193 32.5564C728.003 32.2663 726.416 32.2865 725.05 32.6544L722.211 41.1947L719.971 40.4501Z" fill="white"/>
</g>
<defs>
<filter id="filter0_i_740_570" x="62.1016" y="33.8672" width="434.832" height="61.1797" filterUnits="userSpaceOnUse" color-interpolation-filters="sRGB">
<feFlood flood-opacity="0" result="BackgroundImageFix"/>
<feBlend mode="normal" in="SourceGraphic" in2="BackgroundImageFix" result="shape"/>
<feColorMatrix in="SourceAlpha" type="matrix" values="0 0 0 0 0 0 0 0 0 0 0 0 0 0 0 0 0 0 127 0" result="hardAlpha"/>
<feOffset/>
<feGaussianBlur stdDeviation="2.5"/>
<feComposite in2="hardAlpha" operator="arithmetic" k2="-1" k3="1"/>
<feColorMatrix type="matrix" values="0 0 0 0 0.706505 0 0 0 0 0.103864 0 0 0 0 0.103864 0 0 0 0.2 0"/>
<feBlend mode="normal" in2="shape" result="effect1_innerShadow_740_570"/>
</filter>
<linearGradient id="paint0_linear_740_570" x1="535.777" y1="39.4688" x2="642.405" y2="-18.3322" gradientUnits="userSpaceOnUse">
<stop stop-color="#FF9C75"/>
<stop offset="0.5" stop-color="#92E6CF"/>
<stop offset="1" stop-color="#649DFF"/>
</linearGradient>
<linearGradient id="paint1_linear_740_570" x1="717.781" y1="-1.65002" x2="747.474" y2="40.1146" gradientUnits="userSpaceOnUse">
<stop stop-color="#81B9FF"/>
<stop offset="1" stop-color="#FF967F"/>
</linearGradient>
<clipPath id="clip0_740_570">
<rect width="755" height="101" fill="white"/>
</clipPath>
</defs>
</svg>
