<svg width="224" height="223" viewBox="0 0 224 223" fill="none" xmlns="http://www.w3.org/2000/svg">
<path fill-rule="evenodd" clip-rule="evenodd" d="M119.746 0H103.817V70.5272L77.397 5.13549L62.6283 11.1024L89.7327 78.1881L38.5705 27.0259L27.3073 38.2892L76.344 87.3258L12.7961 59.5612L6.41887 74.1574L73.66 103.536H0.28125V119.464H73.6599L6.41889 148.842L12.7961 163.439L76.3439 135.674L27.3073 184.711L38.5705 195.974L89.7327 144.812L62.6283 211.898L77.397 217.864L103.817 152.473V223H119.746V152.473L146.166 217.864L160.934 211.898L133.83 144.812L184.992 195.974L196.255 184.711L147.218 135.674L210.766 163.439L217.143 148.842L149.903 119.464H223.281V103.536H149.902L217.143 74.1574L210.766 59.5612L147.218 87.3258L196.255 38.2891L184.992 27.0259L133.83 78.188L160.934 11.1024L146.166 5.13549L119.746 70.5272V0Z" fill="#E2E2E2" fill-opacity="0.4"/>
</svg>
