<svg width="108" height="61" viewBox="0 0 108 61" fill="none" xmlns="http://www.w3.org/2000/svg">
<rect width="81" height="28" transform="translate(0.679688)" fill="white"/>
<path d="M12.207 21.2734C9.7168 21.2734 7.95898 19.7402 7.44141 17.1914L10.2734 16.6445C10.5566 17.9531 11.2402 18.5391 12.207 18.5391C13.4375 18.5391 14.209 17.5625 14.2188 15.9219V6.85938H17.1289V15.9219C17.1191 19.1348 15.127 21.2734 12.207 21.2734ZM23.775 18.7344C25.2496 18.7344 26.3043 17.5918 26.3141 15.9609C26.3043 14.3301 25.2496 13.1875 23.775 13.1875C22.2906 13.1875 21.2457 14.3398 21.2555 15.9609C21.2457 17.582 22.2906 18.7344 23.775 18.7344ZM29.0094 21H26.2359V19.6133H26.1578C25.523 20.7266 24.4977 21.2734 23.1695 21.2734C20.4059 21.2734 18.4527 18.9883 18.4625 15.9609C18.4527 12.9336 20.4059 10.6484 23.1695 10.6484C24.4977 10.6484 25.5035 11.1855 26.1578 12.2891H26.2359V10.9219H29.0094V21ZM30.7727 21V10.9219H33.5461V12.4062H33.6047C34.1223 11.3223 35.1672 10.6484 36.4953 10.6484C37.9504 10.6484 39.0051 11.4395 39.5227 12.8164H39.5812C40.0207 11.4883 41.1926 10.6484 42.7258 10.6484C44.9035 10.6484 46.1926 12.3184 46.2023 15.0234V21H43.4289V15.4922C43.4191 14.0273 42.8039 13.1875 41.7687 13.1875C40.7336 13.1875 39.884 14.0078 39.8742 15.8828V21H37.1008V15.4922C37.091 14.0273 36.4758 13.1875 35.4406 13.1875C34.4055 13.1875 33.5559 14.0078 33.5461 15.8828V21H30.7727ZM47.9656 21V10.9219H50.7391V12.4062H50.7977C51.3152 11.3223 52.3602 10.6484 53.6883 10.6484C55.1434 10.6484 56.198 11.4395 56.7156 12.8164H56.7742C57.2137 11.4883 58.3855 10.6484 59.9188 10.6484C62.0965 10.6484 63.3855 12.3184 63.3953 15.0234V21H60.6219V15.4922C60.6121 14.0273 59.9969 13.1875 58.9617 13.1875C57.9266 13.1875 57.077 14.0078 57.0672 15.8828V21H54.2938V15.4922C54.284 14.0273 53.6688 13.1875 52.6336 13.1875C51.5984 13.1875 50.7488 14.0078 50.7391 15.8828V21H47.9656ZM68.0102 21L63.85 10.9219H66.7797L69.3969 17.8555H69.5141L72.0531 10.9219H74.9633L69.2602 25.2188H66.3305L68.0102 21Z" fill="#0A0A0A"/>
<rect width="71.0021" height="28" transform="translate(32.1797 33.0312) rotate(-11.3991)" fill="white"/>
<path d="M45.6962 36.7617C45.7872 36.2968 46.3951 36.1742 46.6592 36.5676L48.8285 39.799C48.9627 39.9989 49.2145 40.0836 49.4422 40.0055L53.1239 38.7432C53.572 38.5895 53.9821 39.0547 53.7735 39.48L52.0596 42.9744C51.9536 43.1906 52.0061 43.451 52.1876 43.6092L55.1217 46.1664C55.4789 46.4777 55.2811 47.0654 54.8084 47.0974L50.9252 47.3603C50.685 47.3766 50.4857 47.5523 50.4395 47.7886L49.6919 51.6082C49.6009 52.0731 48.993 52.1957 48.7289 51.8023L46.5596 48.5709C46.4254 48.371 46.1736 48.2862 45.9459 48.3643L42.2643 49.6267C41.8161 49.7804 41.406 49.3152 41.6147 48.8899L43.3285 45.3955C43.4345 45.1793 43.382 44.9189 43.2005 44.7607L40.2664 42.2035C39.9093 41.8922 40.1071 41.3045 40.5798 41.2725L44.4629 41.0095C44.7031 40.9933 44.9024 40.8176 44.9487 40.5813L45.6962 36.7617Z" fill="#0A0A0A"/>
<path d="M60.12 48.82L57.3252 34.9583L60.5418 34.3098L68.4795 42.4523L68.5561 42.4369L66.6685 33.0745L69.5021 32.5032L72.2969 46.3649L69.1187 47.0057L61.1693 38.8057L61.0544 38.8289L62.9536 48.2487L60.12 48.82ZM79.0191 45.2885C75.8121 45.9351 73.2028 44.1599 72.5891 41.1655C71.983 38.1098 73.7409 35.5139 76.7277 34.9117C79.7144 34.3095 82.2069 36.0485 82.813 39.1042C82.8824 39.399 82.9136 39.7016 82.9332 39.9965L75.5237 41.4904C76.0025 42.7288 77.2119 43.3417 78.5713 43.0676C79.5956 42.8611 80.2286 42.2453 80.4456 41.3946L83.0011 41.8158C82.5135 43.5479 81.1539 44.8581 79.0191 45.2885ZM75.1451 39.4149L79.7975 38.4769C79.457 37.4796 78.4391 36.8779 77.1755 37.1326C75.9788 37.3739 75.2103 38.2561 75.1451 39.4149ZM87.0883 43.3827L81.7842 34.1711L84.5412 33.6153L87.8719 39.8575L88.0059 39.8305L88.3704 32.8432L90.8211 32.3491L93.8837 38.6454L94.0177 38.6183L94.6503 31.5771L97.4073 31.0212L96.0869 41.5684L93.215 42.1474L90.4178 36.5747L90.3795 36.5824L89.9602 42.8036L87.0883 43.3827Z" fill="#0A0A0A"/>
</svg>
