<svg width="55" height="37" viewBox="0 0 55 37" fill="none" xmlns="http://www.w3.org/2000/svg">
<path d="M0.544 18.048C0.544 12.512 1.536 8.176 3.52 5.04C5.536 1.904 8.864 0.335999 13.504 0.335999C18.144 0.335999 21.456 1.904 23.44 5.04C25.456 8.176 26.464 12.512 26.464 18.048C26.464 23.616 25.456 27.984 23.44 31.152C21.456 34.32 18.144 35.904 13.504 35.904C8.864 35.904 5.536 34.32 3.52 31.152C1.536 27.984 0.544 23.616 0.544 18.048ZM19.84 18.048C19.84 15.68 19.68 13.696 19.36 12.096C19.072 10.464 18.464 9.136 17.536 8.112C16.64 7.088 15.296 6.576 13.504 6.576C11.712 6.576 10.352 7.088 9.424 8.112C8.528 9.136 7.92 10.464 7.6 12.096C7.312 13.696 7.168 15.68 7.168 18.048C7.168 20.48 7.312 22.528 7.6 24.192C7.888 25.824 8.496 27.152 9.424 28.176C10.352 29.168 11.712 29.664 13.504 29.664C15.296 29.664 16.656 29.168 17.584 28.176C18.512 27.152 19.12 25.824 19.408 24.192C19.696 22.528 19.84 20.48 19.84 18.048ZM30.7113 10.224C30.8713 7.024 31.9913 4.56 34.0713 2.832C36.1833 1.072 38.9513 0.191998 42.3753 0.191998C44.7113 0.191998 46.7113 0.607998 48.3753 1.44C50.0393 2.24 51.2873 3.344 52.1193 4.752C52.9833 6.128 53.4153 7.696 53.4153 9.456C53.4153 11.472 52.8873 13.184 51.8313 14.592C50.8073 15.968 49.5753 16.896 48.1353 17.376V17.568C49.9913 18.144 51.4313 19.168 52.4553 20.64C53.5113 22.112 54.0393 24 54.0393 26.304C54.0393 28.224 53.5913 29.936 52.6953 31.44C51.8313 32.944 50.5353 34.128 48.8073 34.992C47.1113 35.824 45.0633 36.24 42.6633 36.24C39.0473 36.24 36.1033 35.328 33.8313 33.504C31.5593 31.68 30.3593 28.992 30.2313 25.44H36.7593C36.8233 27.008 37.3513 28.272 38.3433 29.232C39.3673 30.16 40.7593 30.624 42.5193 30.624C44.1513 30.624 45.3993 30.176 46.2633 29.28C47.1593 28.352 47.6073 27.168 47.6073 25.728C47.6073 23.808 46.9993 22.432 45.7833 21.6C44.5673 20.768 42.6793 20.352 40.1193 20.352H38.7273V14.832H40.1193C44.6633 14.832 46.9353 13.312 46.9353 10.272C46.9353 8.896 46.5193 7.824 45.6873 7.056C44.8873 6.288 43.7193 5.904 42.1833 5.904C40.6793 5.904 39.5113 6.32 38.6793 7.152C37.8793 7.952 37.4153 8.976 37.2873 10.224H30.7113Z" fill="white" fill-opacity="0.25"/>
</svg>
