<svg width="42" height="36" viewBox="0 0 42 36" fill="none" xmlns="http://www.w3.org/2000/svg">
<path d="M0.813062 18.048C0.813062 12.512 1.80506 8.176 3.78906 5.04C5.80506 1.904 9.13306 0.335999 13.7731 0.335999C18.4131 0.335999 21.7251 1.904 23.7091 5.04C25.7251 8.176 26.7331 12.512 26.7331 18.048C26.7331 23.616 25.7251 27.984 23.7091 31.152C21.7251 34.32 18.4131 35.904 13.7731 35.904C9.13306 35.904 5.80506 34.32 3.78906 31.152C1.80506 27.984 0.813062 23.616 0.813062 18.048ZM20.1091 18.048C20.1091 15.68 19.9491 13.696 19.6291 12.096C19.3411 10.464 18.7331 9.136 17.8051 8.112C16.9091 7.088 15.5651 6.576 13.7731 6.576C11.9811 6.576 10.6211 7.088 9.69306 8.112C8.79706 9.136 8.18906 10.464 7.86906 12.096C7.58106 13.696 7.43706 15.68 7.43706 18.048C7.43706 20.48 7.58106 22.528 7.86906 24.192C8.15706 25.824 8.76506 27.152 9.69306 28.176C10.6211 29.168 11.9811 29.664 13.7731 29.664C15.5651 29.664 16.9251 29.168 17.8531 28.176C18.7811 27.152 19.3891 25.824 19.6771 24.192C19.9651 22.528 20.1091 20.48 20.1091 18.048ZM30.0683 7.2V1.008H41.6363V36H34.7243V7.2H30.0683Z" fill="white" fill-opacity="0.25"/>
</svg>
