<svg width="427" height="186" viewBox="0 0 427 186" fill="none" xmlns="http://www.w3.org/2000/svg">
<path d="M29.1914 60.0117C29.1348 67.2617 34.7988 75.4746 47.4297 77.5703L43.8613 84.3105C34.5723 82.5547 28.1719 77.627 24.8301 71.2266C21.46 77.5703 15.0312 82.5264 5.79883 84.3105L2.34375 77.5703C14.6914 75.418 20.4121 67.1484 20.4688 60.0117V56.3867H29.1914V60.0117ZM48.9023 92.5801V99.2637H1.38086V92.5801H48.9023ZM95.4609 53.4414V105.438H87.3613V53.4414H95.4609ZM62.2129 58.3691V85.8398C68.9531 85.6982 76.2598 85.0469 83.5098 83.6309L84.5293 90.3711C75.4668 92.2402 66.7441 92.8066 58.8145 92.75H54.1133V58.3691H62.2129ZM128.369 58.3125C128.312 74.5684 124.348 87.8789 105.486 97.791L101.068 91.6738C108.885 87.5107 113.756 83.0361 116.701 77.627L102.428 78.9863L101.408 72.0762L119.193 71.1133C119.703 69.1309 120.043 67.0068 120.213 64.7695H104.24V58.3125H128.369ZM145.645 53.4414V105.438H137.545V79.7793H128.312V73.1523H137.545V53.4414H145.645ZM212.141 78.873V85.3867H164.732V78.873H184.217V75.0781H170.736V54.7441H178.723V59.1055H198.037V54.7441H206.08V75.0781H192.43V78.873H212.141ZM206.42 88.4453V105.438H198.264V94.8457H170V88.4453H206.42ZM178.723 68.6777H198.037V65.0527H178.723V68.6777ZM259.266 53.498V92.6934H251.053V88.9551H241.367V83.4609H251.053V53.498H259.266ZM260.342 98.0742V104.588H221.033V88.9551H228.17V82.3848C223.695 82.5547 219.419 82.6113 215.596 82.6113L214.689 76.2109C224.205 76.0977 236.949 75.9844 247.881 74.625L248.334 80.4023C244.426 81.082 240.376 81.5635 236.383 81.875V91.6172H229.189V98.0742H260.342ZM231.512 55.1406C239.102 55.1406 244.539 59.0488 244.539 64.543C244.539 70.1504 239.102 73.7754 231.512 73.7754C223.809 73.7754 218.428 70.1504 218.428 64.543C218.428 59.0488 223.809 55.1406 231.512 55.1406ZM231.512 61.0879C228.283 61.0879 226.131 62.2207 226.131 64.543C226.131 66.8086 228.283 67.9414 231.512 67.9414C234.57 67.9414 236.779 66.8086 236.836 64.543C236.779 62.2207 234.57 61.0879 231.512 61.0879ZM321.627 53.4414V105.551H313.414V53.4414H321.627ZM293.25 57.0098C301.123 57.0098 307.014 64.2031 307.07 75.5879C307.014 87.1426 301.123 94.3359 293.25 94.3359C285.207 94.3359 279.316 87.1426 279.316 75.5879C279.316 64.2031 285.207 57.0098 293.25 57.0098ZM293.25 64.373C289.568 64.373 287.189 68.168 287.246 75.5879C287.189 83.1211 289.568 86.916 293.25 86.916C296.818 86.916 299.197 83.1211 299.197 75.5879C299.197 68.168 296.818 64.373 293.25 64.373ZM372.887 53.4414V92.6934H365.127V53.4414H372.887ZM362.125 54.1777V90.9941H354.422V74.1152H350.57V83.9141H329.727V57.4062H337.43V65.0527H343.094V57.4062H350.57V67.6016H354.422V54.1777H362.125ZM337.43 77.4004H343.094V71.2266H337.43V77.4004ZM374.133 98.0742V104.588H337.316V87.5391H345.473V98.0742H374.133ZM420.691 79.8926V86.293H383.648V57.0664H420.295V63.6367H391.975V68.3945H419.049V74.7383H391.975V79.8926H420.691ZM425.732 93.0332V99.6035H378.211V93.0332H425.732Z" fill="white"/>
<path d="M98.816 175.15C99.0077 175.075 99.1869 175.062 99.3535 175.113C99.5285 175.162 99.6494 175.258 99.716 175.4C99.7827 175.558 99.766 175.721 99.666 175.887C99.566 176.046 99.416 176.162 99.216 176.237C99.166 176.262 99.1077 176.283 99.041 176.3C99.0077 176.308 98.9785 176.317 98.9535 176.325C98.8785 176.342 98.7827 176.362 98.666 176.387C98.5577 176.412 98.4119 176.454 98.2285 176.512C98.0035 176.579 97.716 176.658 97.366 176.75C97.0244 176.842 96.6035 176.933 96.1035 177.025C95.8619 177.067 95.5869 177.108 95.2785 177.15C94.9702 177.183 94.6285 177.208 94.2535 177.225C94.1869 177.225 94.1244 177.229 94.066 177.237C94.0077 177.237 93.9452 177.237 93.8785 177.237C93.7452 177.237 93.6077 177.233 93.466 177.225C93.3244 177.217 93.1869 177.204 93.0535 177.187C92.9035 177.187 92.7244 177.162 92.516 177.112L92.4035 177.175C92.3785 177.192 92.3494 177.212 92.316 177.237C92.291 177.262 92.2577 177.283 92.216 177.3H92.2285L92.116 177.375C91.9494 177.483 91.7785 177.596 91.6035 177.712C91.4369 177.829 91.2577 177.95 91.066 178.075C90.7744 178.267 90.4744 178.467 90.166 178.675C89.8577 178.883 89.5285 179.096 89.1785 179.312C88.9035 179.487 88.6077 179.671 88.291 179.862C87.9744 180.046 87.6452 180.225 87.3035 180.4C87.1285 180.492 86.9494 180.579 86.766 180.662C86.5827 180.746 86.3952 180.825 86.2035 180.9C86.0035 180.975 85.7952 181.046 85.5785 181.112C85.3702 181.179 85.1369 181.229 84.8785 181.262C84.7952 181.271 84.7077 181.275 84.616 181.275C84.5244 181.275 84.4369 181.267 84.3535 181.25C84.2619 181.242 84.1702 181.225 84.0785 181.2C83.9952 181.175 83.916 181.142 83.841 181.1C83.566 180.967 83.3327 180.779 83.141 180.537C82.9744 180.329 82.8494 180.133 82.766 179.95C82.691 179.767 82.6285 179.592 82.5785 179.425C82.4869 179.108 82.4202 178.8 82.3785 178.5C82.3452 178.2 82.3202 177.9 82.3035 177.6C82.2952 177.575 82.291 177.533 82.291 177.475L82.116 177.65C81.7827 177.983 81.391 178.362 80.941 178.788C80.4994 179.204 79.9785 179.683 79.3785 180.225C79.0369 180.517 78.7035 180.796 78.3785 181.062C78.0535 181.329 77.716 181.571 77.366 181.787C77.2744 181.846 77.1827 181.9 77.091 181.95C77.0077 181.992 76.9202 182.033 76.8285 182.075C76.7119 182.117 76.5952 182.154 76.4785 182.188C76.3619 182.221 76.216 182.229 76.041 182.213C75.8827 182.179 75.7535 182.121 75.6535 182.038C75.5535 181.962 75.4619 181.879 75.3785 181.787C75.3035 181.696 75.241 181.617 75.191 181.55C75.141 181.483 75.0952 181.417 75.0535 181.35C74.8869 181.05 74.7494 180.771 74.641 180.512C74.541 180.246 74.4494 179.992 74.366 179.75C74.2827 179.517 74.2119 179.296 74.1535 179.087C74.0952 178.871 74.041 178.671 73.991 178.487C73.841 177.929 73.7202 177.467 73.6285 177.1C73.5369 176.725 73.4785 176.483 73.4535 176.375L73.466 176.387C73.441 176.329 73.4285 176.287 73.4285 176.262C73.3952 176.062 73.4202 175.879 73.5035 175.712C73.5952 175.537 73.716 175.433 73.866 175.4C74.0327 175.375 74.1827 175.425 74.316 175.55C74.4494 175.675 74.5369 175.837 74.5785 176.037C74.5869 176.071 74.5952 176.112 74.6035 176.162C74.6119 176.212 74.6202 176.271 74.6285 176.337C74.6452 176.437 74.666 176.587 74.691 176.787C74.7244 176.979 74.7785 177.279 74.8535 177.687L74.841 177.662C74.8494 177.679 74.8577 177.708 74.866 177.75C74.8744 177.792 74.8827 177.821 74.891 177.837C74.9244 177.979 74.9535 178.125 74.9785 178.275C75.0035 178.425 75.041 178.6 75.091 178.8C75.141 179.008 75.2035 179.237 75.2785 179.487C75.3535 179.737 75.4494 180.021 75.566 180.337L75.5535 180.325C75.6202 180.475 75.6869 180.625 75.7535 180.775C75.8202 180.925 75.8994 181.062 75.991 181.187V181.175C76.0327 181.225 76.0702 181.271 76.1035 181.312C76.1452 181.354 76.1869 181.379 76.2285 181.387L76.216 181.375C76.2577 181.383 76.3119 181.379 76.3785 181.362C76.4535 181.337 76.5244 181.308 76.591 181.275C76.7494 181.192 76.9244 181.087 77.116 180.962C77.316 180.837 77.516 180.704 77.716 180.562C77.916 180.421 78.116 180.275 78.316 180.125C78.5244 179.967 78.716 179.812 78.891 179.662C79.6327 179.037 80.2744 178.462 80.816 177.937C81.3577 177.404 81.816 176.946 82.191 176.562C82.2077 176.546 82.2244 176.525 82.241 176.5C82.266 176.475 82.2869 176.454 82.3035 176.437C82.3035 176.429 82.3035 176.425 82.3035 176.425C82.3119 176.425 82.316 176.421 82.316 176.412V176.375L82.3285 176.412L82.3535 176.387C82.3785 176.362 82.3994 176.337 82.416 176.312C82.441 176.287 82.466 176.262 82.491 176.237L82.666 176.062C82.866 176.154 82.991 176.208 83.041 176.225C83.0994 176.242 83.1202 176.25 83.1035 176.25C83.0952 176.25 83.0744 176.25 83.041 176.25C83.016 176.242 83.0244 176.258 83.066 176.3V176.387C83.1077 176.387 83.141 176.404 83.166 176.437C83.191 176.471 83.1577 176.562 83.066 176.712C83.066 176.821 83.066 176.925 83.066 177.025C83.0744 177.117 83.0827 177.208 83.091 177.3C83.1077 177.483 83.1285 177.662 83.1535 177.837C83.1869 178.012 83.2202 178.183 83.2535 178.35H83.241C83.2994 178.608 83.391 178.9 83.516 179.225L83.5035 179.212C83.5619 179.337 83.6244 179.462 83.691 179.587C83.766 179.712 83.8577 179.833 83.966 179.95H83.9535C84.0452 180.042 84.1535 180.121 84.2785 180.187C84.4119 180.246 84.566 180.267 84.741 180.25C84.9494 180.233 85.1785 180.187 85.4285 180.112C85.6785 180.037 85.9494 179.942 86.241 179.825C86.616 179.683 86.9535 179.542 87.2535 179.4C87.5619 179.25 87.8452 179.108 88.1035 178.975C88.1202 178.967 88.1369 178.958 88.1535 178.95C88.1785 178.942 88.1994 178.933 88.216 178.925C88.4577 178.792 88.6785 178.667 88.8785 178.55C89.0869 178.433 89.2869 178.317 89.4785 178.2C89.4952 178.192 89.5119 178.183 89.5285 178.175C89.5452 178.158 89.5619 178.146 89.5785 178.137L89.566 178.15C89.8327 177.883 90.1244 177.617 90.441 177.35C90.7577 177.075 91.0744 176.846 91.391 176.662C91.7077 176.471 92.0119 176.346 92.3035 176.287C92.5952 176.221 92.8494 176.267 93.066 176.425C93.1244 176.467 93.191 176.492 93.266 176.5C93.3494 176.508 93.4327 176.512 93.516 176.512C93.6077 176.504 93.6952 176.492 93.7785 176.475C93.8619 176.458 93.9369 176.45 94.0035 176.45C94.2785 176.433 94.5452 176.408 94.8035 176.375C95.0702 176.333 95.3119 176.292 95.5285 176.25C95.9119 176.167 96.266 176.079 96.591 175.987C96.9244 175.887 97.1869 175.804 97.3785 175.737C97.6035 175.646 97.7952 175.571 97.9535 175.512C98.1119 175.454 98.2452 175.4 98.3535 175.35C98.4285 175.317 98.4994 175.283 98.566 175.25C98.641 175.217 98.7244 175.183 98.816 175.15ZM122.738 175.4C122.805 175.542 122.801 175.692 122.726 175.85C122.651 176.008 122.53 176.125 122.363 176.2C122.321 176.217 122.288 176.233 122.263 176.25C122.238 176.258 122.205 176.267 122.163 176.275L122.176 176.262C122.151 176.271 122.113 176.283 122.063 176.3C122.013 176.308 121.938 176.329 121.838 176.362C121.738 176.396 121.605 176.442 121.438 176.5C121.271 176.558 121.051 176.637 120.776 176.737C120.409 176.871 119.942 177.046 119.376 177.262C118.817 177.471 118.109 177.733 117.251 178.05C116.392 178.367 115.376 178.737 114.201 179.162C113.034 179.579 111.646 180.033 110.038 180.525C108.413 181.008 106.93 181.392 105.588 181.675C104.246 181.95 103.009 182.1 101.876 182.125C101.309 182.133 100.767 182.096 100.251 182.013C99.7423 181.937 99.2756 181.779 98.8506 181.537C98.6339 181.412 98.4381 181.271 98.2631 181.112C98.0881 180.946 97.9464 180.767 97.8381 180.575C97.7214 180.383 97.6339 180.187 97.5756 179.987C97.5173 179.779 97.4798 179.592 97.4631 179.425C97.4381 179.067 97.4506 178.742 97.5006 178.45C97.5506 178.158 97.6048 177.892 97.6631 177.65C97.7464 177.358 97.8173 177.133 97.8756 176.975C97.9339 176.808 97.9881 176.667 98.0381 176.55C98.1298 176.308 98.2131 176.112 98.2881 175.962C98.3714 175.812 98.4339 175.704 98.4756 175.637C98.5756 175.471 98.7089 175.362 98.8756 175.312C99.0506 175.254 99.2048 175.271 99.3381 175.362C99.4548 175.454 99.5298 175.579 99.5631 175.737C99.5964 175.887 99.5756 176.033 99.5006 176.175C99.4673 176.25 99.4464 176.292 99.4381 176.3C99.4381 176.308 99.4298 176.321 99.4131 176.337C99.3881 176.379 99.3548 176.429 99.3131 176.487C99.2798 176.546 99.2339 176.621 99.1756 176.712C99.1173 176.796 99.0631 176.887 99.0131 176.987C98.9631 177.087 98.9048 177.204 98.8381 177.337C98.7714 177.487 98.7006 177.658 98.6256 177.85C98.5589 178.042 98.4964 178.258 98.4381 178.5C98.4131 178.617 98.3923 178.742 98.3756 178.875C98.3589 179.008 98.3506 179.15 98.3506 179.3C98.3589 179.45 98.3756 179.6 98.4006 179.75C98.4339 179.9 98.4923 180.042 98.5756 180.175C98.6589 180.317 98.7673 180.454 98.9006 180.587C99.0423 180.712 99.2089 180.825 99.4006 180.925C99.6006 181.025 99.8173 181.108 100.051 181.175C100.284 181.233 100.534 181.279 100.801 181.312C101.159 181.362 101.538 181.387 101.938 181.387C102.355 181.387 102.792 181.367 103.251 181.325C103.717 181.275 104.213 181.208 104.738 181.125C105.488 181 106.296 180.829 107.163 180.612C108.03 180.396 108.921 180.154 109.838 179.887C110.521 179.679 111.18 179.471 111.813 179.262C112.455 179.046 113.059 178.833 113.626 178.625C114.201 178.417 114.734 178.221 115.226 178.037C115.717 177.846 116.155 177.675 116.538 177.525C117.296 177.225 117.955 176.954 118.513 176.712C119.08 176.471 119.538 176.271 119.888 176.112H119.876C120.292 175.921 120.609 175.771 120.826 175.662C121.042 175.546 121.217 175.454 121.351 175.387C121.451 175.337 121.538 175.296 121.613 175.262C121.696 175.221 121.788 175.179 121.888 175.137C122.063 175.071 122.23 175.062 122.388 175.113C122.555 175.162 122.671 175.258 122.738 175.4ZM103.651 168.962C103.517 168.979 103.392 168.996 103.276 169.012C103.159 169.021 103.042 169.033 102.926 169.05C102.459 169.108 102.067 169.154 101.751 169.187C101.434 169.212 101.176 169.225 100.976 169.225C100.667 169.225 100.455 169.183 100.338 169.1C100.221 169.017 100.155 168.879 100.138 168.687C100.121 168.521 100.151 168.379 100.226 168.262C100.301 168.146 100.388 168.087 100.488 168.087C100.505 168.087 100.521 168.087 100.538 168.087C100.563 168.087 100.596 168.096 100.638 168.112L100.613 168.1C100.671 168.117 100.788 168.133 100.963 168.15C101.146 168.167 101.467 168.175 101.926 168.175C102.284 168.175 102.738 168.167 103.288 168.15C103.846 168.133 104.542 168.1 105.376 168.05C106.051 168.008 106.596 167.967 107.013 167.925C107.438 167.883 107.771 167.846 108.013 167.812C108.263 167.771 108.446 167.737 108.563 167.712C108.68 167.679 108.767 167.65 108.826 167.625C108.909 167.6 108.984 167.583 109.051 167.575C109.101 167.558 109.155 167.542 109.213 167.525C109.28 167.508 109.338 167.508 109.388 167.525C109.446 167.533 109.496 167.562 109.538 167.612C109.58 167.662 109.605 167.746 109.613 167.862C109.621 168.012 109.576 168.133 109.476 168.225C109.384 168.308 109.238 168.379 109.038 168.437C108.838 168.487 108.584 168.529 108.276 168.562C107.976 168.596 107.621 168.625 107.213 168.65C106.771 168.683 106.251 168.721 105.651 168.762C105.059 168.804 104.392 168.871 103.651 168.962ZM140.186 175.462C140.211 175.538 140.207 175.621 140.174 175.712C140.149 175.796 140.094 175.883 140.011 175.975C139.936 176.067 139.84 176.158 139.724 176.25C139.607 176.333 139.482 176.408 139.349 176.475C139.274 176.508 139.194 176.542 139.111 176.575C139.028 176.608 138.903 176.654 138.736 176.712C138.619 176.754 138.469 176.808 138.286 176.875C138.103 176.933 137.861 177.017 137.561 177.125C137.211 177.242 136.724 177.404 136.099 177.612C135.474 177.812 134.711 178.025 133.811 178.25C132.894 178.483 131.786 178.721 130.486 178.962C129.186 179.196 127.694 179.362 126.011 179.462C125.636 179.479 125.278 179.496 124.936 179.512C124.594 179.521 124.215 179.529 123.799 179.537C123.707 179.771 123.619 179.996 123.536 180.212C123.461 180.429 123.382 180.671 123.299 180.937C123.565 181.287 123.828 181.646 124.086 182.013C124.353 182.388 124.615 182.796 124.874 183.238C124.965 183.404 125.053 183.571 125.136 183.738C125.228 183.904 125.311 184.083 125.386 184.275C125.419 184.383 125.449 184.492 125.474 184.6C125.507 184.708 125.524 184.838 125.524 184.988C125.524 185.071 125.507 185.167 125.474 185.275C125.449 185.392 125.382 185.508 125.274 185.625C125.157 185.742 125.032 185.813 124.899 185.838C124.774 185.863 124.665 185.871 124.574 185.863C124.407 185.846 124.265 185.817 124.149 185.775C124.04 185.733 123.932 185.683 123.824 185.625C123.757 185.592 123.674 185.538 123.574 185.463C123.474 185.396 123.378 185.329 123.286 185.263C123.119 185.129 122.957 184.988 122.799 184.838C122.64 184.688 122.499 184.533 122.374 184.375C122.215 184.158 122.069 183.908 121.936 183.625C121.844 183.417 121.799 183.238 121.799 183.088C121.807 182.946 121.819 182.813 121.836 182.688C121.861 182.463 121.894 182.246 121.936 182.038C121.986 181.837 122.04 181.642 122.099 181.45C122.115 181.433 122.124 181.412 122.124 181.387C122.149 181.296 122.169 181.221 122.186 181.162C122.203 181.104 122.228 181.029 122.261 180.937C122.194 180.846 122.124 180.762 122.049 180.687C121.982 180.604 121.915 180.517 121.849 180.425C121.824 180.392 121.799 180.358 121.774 180.325C121.757 180.292 121.736 180.258 121.711 180.225C121.653 180.15 121.59 180.075 121.524 180C121.465 179.917 121.407 179.837 121.349 179.762C121.324 179.721 121.307 179.7 121.299 179.7C121.299 179.7 121.303 179.7 121.311 179.7C121.244 179.633 121.199 179.583 121.174 179.55C121.157 179.533 121.132 179.5 121.099 179.45H120.924V179.25L120.899 179.212L120.874 179.012C120.882 178.996 120.886 178.983 120.886 178.975C120.894 178.967 120.903 178.954 120.911 178.937C120.928 178.912 120.949 178.883 120.974 178.85C120.999 178.808 121.032 178.75 121.074 178.675C121.099 178.675 121.136 178.675 121.186 178.675C121.236 178.675 121.324 178.679 121.449 178.687C121.582 178.696 121.774 178.708 122.024 178.725C122.282 178.742 122.632 178.767 123.074 178.8C123.215 178.458 123.365 178.121 123.524 177.787C123.682 177.446 123.836 177.108 123.986 176.775C124.003 176.75 124.011 176.725 124.011 176.7C124.019 176.667 124.032 176.637 124.049 176.612V176.625C124.232 176.233 124.428 175.817 124.636 175.375C124.853 174.925 125.099 174.412 125.374 173.837C125.04 174.129 124.732 174.392 124.449 174.625C124.165 174.858 123.919 175.058 123.711 175.225C123.544 175.35 123.403 175.458 123.286 175.55C123.178 175.633 123.082 175.708 122.999 175.775C122.949 175.817 122.903 175.854 122.861 175.887C122.828 175.912 122.799 175.933 122.774 175.95C122.507 176.142 122.244 176.258 121.986 176.3C121.728 176.342 121.553 176.292 121.461 176.15C121.369 176.017 121.386 175.842 121.511 175.625C121.636 175.4 121.832 175.196 122.099 175.012H122.086C122.169 174.946 122.261 174.879 122.361 174.812C122.453 174.754 122.578 174.671 122.736 174.562C122.753 174.546 122.774 174.529 122.799 174.512C122.824 174.496 122.844 174.479 122.861 174.462C123.036 174.337 123.257 174.179 123.524 173.987C123.79 173.787 124.124 173.525 124.524 173.2C124.807 172.967 125.128 172.696 125.486 172.387C125.844 172.079 126.228 171.717 126.636 171.3C126.986 170.625 127.374 169.879 127.799 169.062C128.224 168.246 128.719 167.333 129.286 166.325C129.303 166.308 129.319 166.279 129.336 166.237C129.361 166.187 129.382 166.15 129.399 166.125C129.59 165.8 129.782 165.475 129.974 165.15C130.174 164.825 130.369 164.529 130.561 164.262L130.549 164.275C130.565 164.25 130.59 164.217 130.624 164.175C130.665 164.125 130.707 164.075 130.749 164.025L130.799 163.975C130.815 163.958 130.828 163.946 130.836 163.937C130.853 163.921 130.869 163.904 130.886 163.887C130.903 163.887 130.919 163.879 130.936 163.862L131.011 163.787C131.028 163.779 131.049 163.771 131.074 163.762C131.099 163.746 131.14 163.729 131.199 163.712H131.311C131.336 163.712 131.374 163.725 131.424 163.75C131.474 163.767 131.515 163.783 131.549 163.8L131.511 163.762C131.619 163.812 131.69 163.875 131.724 163.95C131.765 164.025 131.803 164.104 131.836 164.187C131.836 164.196 131.836 164.208 131.836 164.225C131.844 164.233 131.849 164.242 131.849 164.25C131.857 164.275 131.861 164.304 131.861 164.337C131.861 164.362 131.861 164.387 131.861 164.412C131.861 164.479 131.857 164.542 131.849 164.6C131.849 164.658 131.844 164.708 131.836 164.75C131.811 164.95 131.769 165.146 131.711 165.337C131.653 165.521 131.594 165.696 131.536 165.862C131.278 166.537 130.978 167.146 130.636 167.687C130.303 168.229 129.969 168.737 129.636 169.212C129.144 169.887 128.669 170.483 128.211 171C127.753 171.517 127.311 171.987 126.886 172.412C126.728 172.729 126.578 173.029 126.436 173.312C126.303 173.596 126.174 173.871 126.049 174.137V174.125C125.615 175.042 125.257 175.842 124.974 176.525C124.69 177.208 124.436 177.837 124.211 178.412C124.194 178.454 124.178 178.487 124.161 178.512C124.153 178.537 124.144 178.562 124.136 178.587C124.128 178.612 124.115 178.642 124.099 178.675C124.09 178.708 124.078 178.75 124.061 178.8C124.403 178.792 124.74 178.783 125.074 178.775C125.415 178.758 125.782 178.737 126.174 178.712C127.624 178.604 128.899 178.45 129.999 178.25C131.107 178.05 132.053 177.842 132.836 177.625C133.619 177.425 134.286 177.233 134.836 177.05C135.394 176.858 135.874 176.683 136.274 176.525C136.532 176.425 136.761 176.337 136.961 176.262C137.161 176.179 137.336 176.104 137.486 176.037C137.636 175.971 137.769 175.912 137.886 175.862C138.011 175.804 138.132 175.75 138.249 175.7C138.34 175.658 138.44 175.612 138.549 175.562C138.665 175.512 138.778 175.467 138.886 175.425C139.178 175.292 139.449 175.229 139.699 175.237C139.957 175.246 140.119 175.321 140.186 175.462ZM123.661 182.988C123.544 182.804 123.432 182.629 123.324 182.463C123.215 182.296 123.107 182.138 122.999 181.987C122.957 182.129 122.924 182.271 122.899 182.412C122.874 182.554 122.857 182.696 122.849 182.838C122.84 182.904 122.836 182.975 122.836 183.05C122.836 183.133 122.844 183.192 122.861 183.225C122.928 183.367 123.024 183.521 123.149 183.688C123.265 183.846 123.399 184 123.549 184.15C123.707 184.3 123.882 184.446 124.074 184.588C124.149 184.646 124.224 184.7 124.299 184.75C124.374 184.8 124.453 184.838 124.536 184.863V184.825H124.549C124.515 184.683 124.461 184.533 124.386 184.375C124.319 184.225 124.253 184.075 124.186 183.925V183.938C124.178 183.921 124.174 183.908 124.174 183.9C124.174 183.9 124.169 183.892 124.161 183.875C124.069 183.7 123.982 183.538 123.899 183.388C123.815 183.246 123.736 183.108 123.661 182.975V182.988ZM129.924 166.7C129.657 167.15 129.411 167.583 129.186 168C128.961 168.408 128.744 168.804 128.536 169.187C128.853 168.787 129.178 168.346 129.511 167.862C129.844 167.371 130.153 166.85 130.436 166.3C130.519 166.133 130.599 165.962 130.674 165.787C130.757 165.604 130.832 165.417 130.899 165.225C130.907 165.2 130.915 165.175 130.924 165.15C130.932 165.125 130.94 165.096 130.949 165.062C130.932 165.079 130.924 165.092 130.924 165.1C130.832 165.233 130.753 165.354 130.686 165.462C130.561 165.662 130.436 165.867 130.311 166.075C130.186 166.275 130.057 166.483 129.924 166.7ZM122.574 180.025C122.582 180.008 122.586 179.996 122.586 179.987C122.594 179.979 122.603 179.967 122.611 179.95C122.636 179.883 122.661 179.817 122.686 179.75C122.711 179.675 122.736 179.608 122.761 179.55V179.525C122.661 179.525 122.561 179.525 122.461 179.525C122.369 179.525 122.269 179.521 122.161 179.512C122.294 179.704 122.428 179.871 122.561 180.012C122.561 180.021 122.565 180.029 122.574 180.037V180.025ZM168.356 175.375C168.448 175.508 168.414 175.7 168.256 175.95C168.106 176.2 167.873 176.442 167.556 176.675C167.539 176.683 167.51 176.7 167.468 176.725C167.435 176.75 167.402 176.771 167.368 176.787H167.381C167.306 176.837 167.214 176.896 167.106 176.962C167.006 177.029 166.873 177.117 166.706 177.225C166.464 177.375 166.135 177.579 165.718 177.837C165.31 178.087 164.81 178.387 164.218 178.737C163.902 178.921 163.543 179.121 163.143 179.337C162.743 179.546 162.298 179.771 161.806 180.012C161.331 180.246 160.789 180.492 160.181 180.75C159.573 181 158.914 181.242 158.206 181.475C157.831 181.592 157.448 181.704 157.056 181.812C156.664 181.912 156.252 182 155.818 182.075C155.502 182.125 155.168 182.167 154.818 182.2C154.477 182.233 154.118 182.25 153.743 182.25C153.627 182.25 153.498 182.25 153.356 182.25C153.223 182.25 153.098 182.242 152.981 182.225C152.464 182.192 151.935 182.108 151.393 181.975C150.86 181.842 150.335 181.642 149.818 181.375C149.293 181.108 148.793 180.771 148.318 180.362C147.843 179.946 147.418 179.462 147.043 178.912C146.877 178.662 146.723 178.408 146.581 178.15C146.439 177.892 146.31 177.637 146.193 177.387C146.143 177.262 146.093 177.137 146.043 177.012C145.993 176.879 145.948 176.75 145.906 176.625L145.831 176.375C145.439 176.617 145.064 176.854 144.706 177.087C144.356 177.312 144.014 177.533 143.681 177.75C142.948 178.225 142.277 178.667 141.668 179.075C141.06 179.483 140.493 179.875 139.968 180.25C139.702 180.433 139.448 180.612 139.206 180.787C138.973 180.954 138.748 181.121 138.531 181.287C138.498 181.304 138.46 181.329 138.418 181.362C138.385 181.387 138.356 181.408 138.331 181.425C138.264 181.467 138.202 181.508 138.143 181.55C138.093 181.592 138.006 181.662 137.881 181.762C137.848 181.787 137.818 181.808 137.793 181.825C137.777 181.842 137.768 181.858 137.768 181.875C137.768 181.883 137.764 181.896 137.756 181.912C137.756 181.921 137.748 181.942 137.731 181.975C137.714 182.008 137.689 182.038 137.656 182.063C137.631 182.096 137.593 182.121 137.543 182.138C137.502 182.154 137.452 182.15 137.393 182.125L137.331 182.2L136.981 181.837L136.993 181.7L137.006 181.437L137.056 181.412C137.073 181.404 137.089 181.4 137.106 181.4C137.123 181.392 137.139 181.379 137.156 181.362L137.031 181.412L137.106 181.337L137.156 181.3C137.339 180.883 137.506 180.5 137.656 180.15C137.814 179.8 137.968 179.454 138.118 179.112C138.235 178.846 138.348 178.587 138.456 178.337C138.564 178.087 138.673 177.837 138.781 177.587C138.839 177.454 138.885 177.346 138.918 177.262C138.96 177.171 138.998 177.087 139.031 177.012C139.064 176.929 139.098 176.842 139.131 176.75C139.173 176.65 139.227 176.525 139.293 176.375C139.202 176.375 139.11 176.362 139.018 176.337C138.927 176.304 138.864 176.258 138.831 176.2C138.756 176.058 138.802 175.875 138.968 175.65C139.135 175.417 139.356 175.187 139.631 174.962C139.673 174.929 139.706 174.9 139.731 174.875C139.764 174.85 139.798 174.825 139.831 174.8C139.856 174.783 139.893 174.754 139.943 174.712C139.993 174.671 140.043 174.629 140.093 174.587C140.427 173.829 140.81 172.975 141.243 172.025C141.677 171.075 142.189 169.954 142.781 168.662C142.998 168.179 143.206 167.712 143.406 167.262C143.614 166.812 143.814 166.387 144.006 165.987C144.473 164.979 144.914 164.021 145.331 163.112C145.756 162.196 146.127 161.4 146.443 160.725C146.452 160.708 146.46 160.692 146.468 160.675C146.477 160.65 146.485 160.629 146.493 160.612C146.602 160.387 146.702 160.167 146.793 159.95C146.893 159.733 146.998 159.517 147.106 159.3V159.312C147.156 159.196 147.206 159.083 147.256 158.975C147.314 158.858 147.373 158.746 147.431 158.637L147.506 158.487C147.523 158.462 147.539 158.433 147.556 158.4C147.581 158.358 147.602 158.321 147.618 158.287C147.627 158.279 147.639 158.258 147.656 158.225L147.693 158.175C147.702 158.133 147.731 158.087 147.781 158.037C147.789 158.029 147.793 158.025 147.793 158.025C147.793 158.017 147.798 158.008 147.806 158L147.756 158.062C147.764 158.037 147.785 158.008 147.818 157.975C147.86 157.942 147.898 157.912 147.931 157.887C147.973 157.854 148.027 157.821 148.093 157.787C148.168 157.754 148.252 157.746 148.343 157.762H148.318C148.435 157.762 148.531 157.8 148.606 157.875C148.689 157.95 148.743 158.021 148.768 158.087L148.756 158.075C148.798 158.175 148.823 158.267 148.831 158.35C148.848 158.433 148.856 158.508 148.856 158.575C148.864 158.692 148.864 158.808 148.856 158.925C148.848 159.033 148.835 159.137 148.818 159.237C148.818 159.262 148.814 159.292 148.806 159.325C148.806 159.358 148.806 159.387 148.806 159.412C148.773 159.646 148.723 159.9 148.656 160.175C148.598 160.45 148.531 160.742 148.456 161.05C148.214 161.958 147.956 162.8 147.681 163.575C147.406 164.342 147.135 165.062 146.868 165.737C146.593 166.396 146.327 167.004 146.068 167.562C145.81 168.121 145.56 168.637 145.318 169.112C144.827 170.062 144.377 170.854 143.968 171.487C143.568 172.121 143.21 172.654 142.893 173.087C142.585 173.512 142.314 173.862 142.081 174.137C141.848 174.404 141.639 174.637 141.456 174.837C141.339 174.962 141.223 175.079 141.106 175.187C140.998 175.296 140.885 175.404 140.768 175.512C140.527 176.037 140.306 176.521 140.106 176.962C139.906 177.396 139.714 177.808 139.531 178.2C139.348 178.583 139.168 178.954 138.993 179.312C138.827 179.671 138.656 180.029 138.481 180.387C138.798 180.171 139.131 179.942 139.481 179.7C139.839 179.45 140.223 179.187 140.631 178.912C141.098 178.596 141.598 178.262 142.131 177.912C142.673 177.554 143.268 177.162 143.918 176.737C144.043 176.662 144.168 176.587 144.293 176.512C144.418 176.429 144.548 176.342 144.681 176.25C144.723 176.225 144.76 176.2 144.793 176.175C144.835 176.15 144.877 176.125 144.918 176.1C145.01 176.042 145.102 175.987 145.193 175.937C145.285 175.879 145.377 175.821 145.468 175.762H145.456C145.473 175.746 145.489 175.737 145.506 175.737C145.523 175.729 145.539 175.717 145.556 175.7L145.543 175.712C145.618 175.662 145.698 175.617 145.781 175.575L145.743 175.6C145.843 175.592 145.918 175.571 145.968 175.537C146.027 175.504 146.077 175.487 146.118 175.487C146.16 175.487 146.202 175.517 146.243 175.575C146.293 175.633 146.36 175.742 146.443 175.9C146.443 175.908 146.443 175.917 146.443 175.925C146.452 175.925 146.456 175.929 146.456 175.937V175.912L146.493 176.062C146.61 176.462 146.764 176.871 146.956 177.287C147.156 177.704 147.393 178.108 147.668 178.5C147.943 178.9 148.252 179.258 148.593 179.575C148.935 179.892 149.298 180.167 149.681 180.4C150.056 180.633 150.443 180.821 150.843 180.962C151.243 181.104 151.648 181.212 152.056 181.287H152.043C152.31 181.329 152.573 181.362 152.831 181.387C153.089 181.412 153.339 181.425 153.581 181.425C154.114 181.425 154.618 181.387 155.093 181.312C155.577 181.237 156.043 181.146 156.493 181.037C157.152 180.879 157.768 180.692 158.343 180.475C158.927 180.258 159.468 180.037 159.968 179.812C160.452 179.596 160.91 179.375 161.343 179.15C161.785 178.925 162.185 178.712 162.543 178.512C163.277 178.096 163.893 177.725 164.393 177.4C164.902 177.067 165.331 176.783 165.681 176.55C166.031 176.317 166.298 176.137 166.481 176.012C166.664 175.879 166.793 175.783 166.868 175.725C167.027 175.617 167.185 175.525 167.343 175.45C167.502 175.375 167.648 175.321 167.781 175.287C167.914 175.254 168.031 175.246 168.131 175.262C168.231 175.271 168.306 175.308 168.356 175.375ZM146.268 163.012C146.127 163.329 145.981 163.654 145.831 163.987C145.689 164.321 145.548 164.658 145.406 165C144.906 166.142 144.389 167.333 143.856 168.575C143.323 169.808 142.752 171.108 142.143 172.475C142.418 172.125 142.718 171.717 143.043 171.25C143.368 170.775 143.718 170.217 144.093 169.575C144.385 169.067 144.685 168.508 144.993 167.9C145.302 167.292 145.623 166.621 145.956 165.887C146.273 165.154 146.593 164.346 146.918 163.462C147.243 162.571 147.543 161.621 147.818 160.612C147.885 160.354 147.948 160.083 148.006 159.8C148.064 159.517 148.102 159.225 148.118 158.925C148.102 158.958 148.085 158.987 148.068 159.012C148.06 159.037 148.048 159.062 148.031 159.087C147.764 159.637 147.498 160.208 147.231 160.8C146.973 161.383 146.706 161.996 146.431 162.637L146.443 162.625C146.418 162.692 146.389 162.754 146.356 162.812C146.331 162.871 146.306 162.933 146.281 163L146.268 163.012ZM146.456 175.912C146.456 175.896 146.452 175.883 146.443 175.875C146.443 175.867 146.443 175.858 146.443 175.85L146.456 175.912ZM201.616 159.523V184.68H197.651V159.523H201.616ZM185.675 161.492V167.426H190.405V161.492H194.288V178.883H181.71V161.492H185.675ZM185.675 175.684H190.405V170.461H185.675V175.684ZM216.464 160.809V163.844H214.96V169.039C215.602 168.998 216.218 168.943 216.792 168.875L216.983 171.664C213.128 172.348 208.124 172.43 204.87 172.457L204.487 169.34H206.319V163.844H204.952V160.809H216.464ZM226.499 159.523V172.758H222.753V159.523H226.499ZM221.604 159.852V172.676H217.968V167.836H215.862V164.801H217.968V159.852H221.604ZM226.499 173.578V180.359H213.128V181.48H227.155V184.488H209.163V177.598H222.589V176.531H209.163V173.578H226.499ZM209.901 169.258L211.46 169.23V163.844H209.901V169.258ZM248.839 159.523V168.848H252.393V172.102H248.839V184.68H244.956V159.523H248.839ZM241.62 161.574V171.5H233.909V175.629C237.272 175.615 240.171 175.465 243.343 174.945L243.698 178.062C239.897 178.773 236.397 178.91 232.132 178.91H229.999V168.438H237.682V164.719H229.971V161.574H241.62ZM272.819 162.695C272.792 166.195 275.526 170.16 281.624 171.172L279.901 174.426C275.417 173.578 272.327 171.199 270.714 168.109C269.087 171.172 265.983 173.564 261.526 174.426L259.858 171.172C265.819 170.133 268.581 166.141 268.608 162.695V160.945H272.819V162.695ZM282.335 178.418V181.645H259.393V178.418H282.335ZM306.507 174.262V177.461H301.448V184.625H297.456V177.461H292.671V184.625H288.706V177.461H283.565V174.262H306.507ZM304.128 169.695V172.758H286.382V160.48H303.854V163.57H290.237V165.074H303.335V168.109H290.237V169.695H304.128ZM328.874 159.523V184.68H324.909V159.523H328.874ZM321.546 161.684V164.855H313.206V175.465C317.554 175.451 320.192 175.342 323.159 174.809L323.514 178.008C320.206 178.691 317.034 178.773 311.483 178.773H309.296V161.684H321.546ZM343.421 160.727C348.835 160.699 352.964 163.488 352.964 167.672C352.964 171.486 349.805 174.029 345.362 174.59V178.582H354.932V181.781H331.991V178.582H341.479V174.59C337.063 174.029 333.932 171.486 333.932 167.672C333.932 163.488 338.007 160.699 343.421 160.727ZM343.421 163.844C340.112 163.844 337.815 165.266 337.843 167.672C337.815 170.242 340.112 171.609 343.421 171.609C346.784 171.609 349.054 170.242 349.054 167.672C349.054 165.266 346.784 163.844 343.421 163.844Z" fill="url(#paint0_linear_10335_48148)"/>
<path d="M46.4595 1.93848V24.8047H41.5376V1.93848H46.4595ZM47.2456 28.8379V32.7686H25.1997V22.5488H30.1899V28.8379H47.2456ZM32.4116 6.65527C32.3774 10.6201 34.2573 14.585 39.5894 16.2256L37.0942 20.0879C33.5908 18.96 31.2495 16.7725 29.8823 13.9697C28.4639 16.9946 26.0371 19.4214 22.397 20.6006L19.8335 16.7383C25.3022 14.9609 27.2847 10.6885 27.2847 6.65527V3.64746H32.4116V6.65527ZM56.0298 3.33984V6.82617H61.6011V3.33984H66.5229V17.0459H51.1763V3.33984H56.0298ZM56.0298 13.2178H61.6011V10.4834H56.0298V13.2178ZM75.3413 1.9043V7.7832H79.4087V11.748H75.3413V17.7979H70.4194V1.9043H75.3413ZM75.3413 18.8574V27.6758H59.1743V29.248H76.1616V33.1104H54.3208V24.1895H70.4194V22.6172H54.2866V18.8574H75.3413ZM117.041 17.251V21.1816H88.4321V17.251H100.19V14.9609H92.0552V2.69043H96.8745V5.32227H108.53V2.69043H113.383V14.9609H105.146V17.251H117.041ZM113.588 23.0273V33.2812H108.667V26.8896H91.6108V23.0273H113.588ZM96.8745 11.0986H108.53V8.91113H96.8745V11.0986ZM145.478 1.93848V25.5908H140.522V23.335H134.677V20.0195H140.522V1.93848H145.478ZM146.127 28.8379V32.7686H122.407V23.335H126.713V19.3701C124.013 19.4727 121.433 19.5068 119.125 19.5068L118.579 15.6445C124.321 15.5762 132.011 15.5078 138.608 14.6875L138.881 18.1738C136.523 18.584 134.079 18.8745 131.669 19.0625V24.9414H127.329V28.8379H146.127ZM128.73 2.92969C133.31 2.92969 136.591 5.28809 136.591 8.60352C136.591 11.9873 133.31 14.1748 128.73 14.1748C124.082 14.1748 120.834 11.9873 120.834 8.60352C120.834 5.28809 124.082 2.92969 128.73 2.92969ZM128.73 6.51855C126.782 6.51855 125.483 7.20215 125.483 8.60352C125.483 9.9707 126.782 10.6543 128.73 10.6543C130.576 10.6543 131.909 9.9707 131.943 8.60352C131.909 7.20215 130.576 6.51855 128.73 6.51855ZM183.315 1.93848V24.8047H178.427V13.833H173.71V9.86816H178.427V1.93848H183.315ZM184.033 28.8379V32.7686H162.294V22.8223H167.216V28.8379H184.033ZM168.891 7.9541C168.891 11.4746 170.839 15.3369 175.932 16.9775L173.54 20.874C170.104 19.7803 167.797 17.6099 166.43 14.9268C165.063 17.9004 162.653 20.293 159.013 21.4551L156.484 17.4902C161.85 15.8838 163.867 11.7822 163.867 7.91992V7.85156H157.851V3.9209H174.873V7.85156H168.891V7.9541ZM215.649 17.2168V21.1133H204.165V26.2061H199.311V21.1133H186.972V17.2168H215.649ZM211.992 3.2373V14.9951H190.493V3.2373H211.992ZM195.312 7.03125V11.2012H207.172V7.03125H195.312ZM212.504 28.8379V32.7686H190.219V23.6084H195.141V28.8379H212.504ZM242.138 1.9043V13.6963H246.342V17.7295H242.138V33.1787H237.216V1.9043H242.138ZM233.662 5.04883C233.662 14.585 230.175 22.7197 219.511 27.9492L216.743 24.1895C223.938 20.5835 227.8 15.9009 228.671 9.08203H218.623V5.04883H233.662ZM257.075 4.36523C261.757 4.39941 265.141 7.27051 265.175 11.5088C265.141 15.3198 262.407 18.0371 258.442 18.5156V23.7109C261.279 23.5742 264.133 23.3691 266.782 23.0273L266.953 25.0439C260.527 26.1377 253.315 26.2061 247.983 26.1719L247.539 23.916C249.982 23.8989 252.819 23.8818 255.742 23.7793V18.5156C251.708 18.0542 248.94 15.3369 248.974 11.5088C248.94 7.27051 252.324 4.39941 257.075 4.36523ZM257.075 6.68945C253.896 6.68945 251.572 8.67188 251.606 11.5088C251.572 14.3457 253.896 16.3281 257.075 16.3281C260.219 16.3281 262.509 14.3457 262.543 11.5088C262.509 8.67188 260.219 6.68945 257.075 6.68945ZM271.396 2.38281V14.9268H276.352V17.251H271.396V32.7686H268.73V2.38281H271.396ZM310.703 2.38281V10.4834H315.283V12.7734H310.703V20.7031H308.037V2.38281H310.703ZM310.703 22.4463V32.3584H291.528V22.4463H310.703ZM294.16 24.5996V30.1709H308.037V24.5996H294.16ZM305.131 5.62988V7.85156H287.016V5.62988H294.741V2.14355H297.407V5.62988H305.131ZM296.074 9.35547C300.449 9.35547 303.354 11.5088 303.388 14.7559C303.354 18.0713 300.449 20.1904 296.074 20.1904C291.665 20.1904 288.725 18.0713 288.759 14.7559C288.725 11.5088 291.665 9.35547 296.074 9.35547ZM296.074 11.4404C293.203 11.4404 291.289 12.7734 291.323 14.7559C291.289 16.8408 293.203 18.1055 296.074 18.1396C298.911 18.1055 300.825 16.8408 300.859 14.7559C300.825 12.7734 298.911 11.4404 296.074 11.4404ZM324.75 6.07422C324.716 12.4658 323.828 19.6436 319.384 25.5225L317.265 24.292C321.076 19.5239 322.204 13.9014 322.426 8.2959H317.88V6.07422H324.75ZM331.484 6.07422C331.467 8.55225 331.416 11.4062 331.04 14.3457H335.073V3.20312H337.636V31.2305H335.073V16.5674H330.698C329.997 20.3613 328.664 24.2065 326.186 27.5391L324.101 26.2744C328.305 20.9082 329.006 13.9697 329.125 8.2959H325.708V6.07422H331.484ZM343.344 2.38281V32.7686H340.747V2.38281H343.344ZM370.961 2.38281V14.9268H376.054V17.1484H370.961V32.7686H368.295V2.38281H370.961ZM365.356 7.27051V9.49219H347.275V7.27051H355.102V2.75879H357.768V7.27051H365.356ZM356.469 12.0215C360.776 12.0215 363.886 14.8926 363.92 18.9941C363.886 23.0957 360.776 25.9668 356.469 25.9668C352.128 25.9668 348.984 23.0957 349.018 18.9941C348.984 14.8926 352.128 12.0215 356.469 12.0215ZM356.469 14.2773C353.632 14.2773 351.547 16.2598 351.582 18.9941C351.547 21.7627 353.632 23.7109 356.469 23.6768C359.272 23.7109 361.323 21.7627 361.357 18.9941C361.323 16.2598 359.272 14.2773 356.469 14.2773ZM402.27 11.6113V13.7646H381.455V3.51074H384.121V11.6113H402.27ZM405.483 17.9004V20.0879H377.661V17.9004H405.483ZM402.441 29.7949V32.0166H381.284V23.1982H383.95V29.7949H402.441Z" fill="white"/>
<defs>
<linearGradient id="paint0_linear_10335_48148" x1="71" y1="172" x2="356" y2="172" gradientUnits="userSpaceOnUse">
<stop stop-color="#FED5DD"/>
<stop offset="1" stop-color="#FF3E65"/>
</linearGradient>
</defs>
</svg>
