<svg width="470" height="64" viewBox="0 0 470 64" fill="none" xmlns="http://www.w3.org/2000/svg">
<rect y="34" width="252" height="28" fill="#F8DB59"/>
<path d="M153.031 15.18C151.351 15.26 140.691 15.24 138.711 15.18C138.591 13.56 138.611 8.76 138.711 7.2C140.671 7.1 150.931 7.14 152.831 7.2C152.911 7.8 152.911 8.44 152.831 9.04C151.331 9.08 142.551 9.08 141.051 9.04V10.32C143.971 10.3 150.231 10.3 152.251 10.32C152.311 10.9 152.311 11.5 152.251 12.08C150.271 12.12 143.951 12.1 141.051 12.08V13.32C142.631 13.32 151.451 13.3 153.031 13.32C153.091 13.94 153.091 14.66 153.031 15.18ZM154.411 16.5C154.471 17.06 154.471 17.82 154.411 18.44C151.951 18.52 140.371 18.5 137.331 18.44C137.271 17.88 137.271 17.08 137.331 16.5C141.571 16.42 151.831 16.46 154.411 16.5ZM138.451 19.78C140.171 19.7 151.191 19.68 153.231 19.78C153.351 21.32 153.291 24.02 153.231 25.04C152.671 25.08 151.411 25.08 150.851 25.04C150.811 24 150.851 22.86 150.851 21.74C147.411 21.74 140.091 21.8 138.451 21.74C138.371 21.14 138.371 20.38 138.451 19.78ZM166.49 12.42C167.05 12.4 168.17 12.4 169.17 12.4V10.58C168.19 10.58 167.05 10.56 166.49 10.54C166.43 9.94 166.43 9.04 166.49 8.46C167.05 8.44 168.17 8.44 169.19 8.44C169.19 7.92 169.19 7.46 169.21 7.16C169.67 7.08 170.97 7.08 171.53 7.16C171.57 9.2 171.59 14.14 171.53 16.08C171.03 16.16 169.79 16.14 169.21 16.08C169.19 15.7 169.19 15.16 169.19 14.54C168.19 14.54 167.07 14.52 166.49 14.5C166.43 13.9 166.43 13 166.49 12.42ZM165.55 15.38C164.03 15.46 157.45 15.48 155.75 15.38C155.71 13.9 155.71 8.94 155.75 7.44C156.35 7.38 157.49 7.38 158.03 7.44V9.5C159.51 9.48 161.79 9.48 163.27 9.5V7.44C163.89 7.38 164.93 7.38 165.55 7.44C165.61 9.12 165.61 14.4 165.55 15.38ZM158.03 11.42V13.42C159.21 13.46 162.23 13.46 163.27 13.42V11.42C161.79 11.44 159.49 11.44 158.03 11.42ZM159.27 23.16H171.87C171.93 23.68 171.91 24.52 171.87 25.02C170.25 25.14 159.45 25.14 156.93 25.02C156.87 24.02 156.83 21.76 156.93 20.08H169.19V18.78H156.97C156.91 18.26 156.91 17.32 156.97 16.9C161.81 16.84 168.97 16.84 171.53 16.9C171.63 17.7 171.63 20.92 171.53 21.84H159.27V23.16ZM184.448 10.62C182.808 10.66 174.028 10.66 172.768 10.62C172.688 10.04 172.688 9.22 172.768 8.64C173.248 8.62 175.268 8.62 177.528 8.62C177.508 8 177.528 7.26 177.548 6.8C178.028 6.68 179.368 6.68 180.008 6.8C180.028 7.26 180.048 7.98 180.028 8.62C181.948 8.62 183.668 8.62 184.448 8.64C184.488 9.2 184.508 10.1 184.448 10.62ZM190.488 12.94C190.548 13.52 190.548 14.44 190.488 15.04C190.148 15.08 189.408 15.1 188.608 15.1C188.608 17.62 188.588 20 188.568 21C188.068 21.08 186.828 21.06 186.248 21C186.188 18.88 186.188 9.1 186.248 7.16C186.708 7.08 188.008 7.08 188.568 7.16C188.588 8.18 188.608 10.46 188.608 12.92C189.348 12.92 190.068 12.92 190.488 12.94ZM184.208 15.18C184.208 18 182.648 18.92 178.768 18.92C174.888 18.92 173.328 18 173.328 15.18C173.328 12.36 174.888 11.44 178.768 11.44C182.648 11.44 184.208 12.36 184.208 15.18ZM175.528 15.18C175.528 16.5 176.308 17.04 178.768 17.04C181.228 17.04 182.008 16.5 182.008 15.18C182.008 13.86 181.228 13.32 178.768 13.32C176.308 13.32 175.528 13.86 175.528 15.18ZM176.668 23C180.508 22.98 187.168 22.96 188.908 23C188.968 23.56 188.968 24.44 188.908 25.04C187.108 25.12 176.768 25.12 174.348 25.02C174.248 23.64 174.288 21.08 174.348 19.96C174.848 19.9 176.088 19.9 176.668 19.96C176.708 20.94 176.708 21.94 176.668 23ZM200.086 11.24C200.106 12.46 200.106 14.3 200.086 15.82C201.386 18.18 202.866 20.92 203.766 22.72C203.386 23.1 202.486 23.62 201.866 23.78C201.146 22.56 199.946 20.26 198.846 18.06C197.766 20.34 196.606 22.7 195.906 24.02C195.386 23.92 194.386 23.46 193.986 23.1C194.866 21.26 196.326 18.28 197.586 15.76C197.566 14.22 197.566 12.42 197.586 11.24C196.246 11.24 195.046 11.24 194.526 11.2C194.466 10.6 194.466 9.72 194.526 9.16C195.126 9.14 196.266 9.12 197.586 9.12C197.566 8.32 197.586 7.44 197.606 6.96C198.086 6.86 199.486 6.86 200.066 6.96C200.086 7.44 200.106 8.32 200.086 9.12C201.186 9.12 202.266 9.14 203.166 9.16C203.226 9.74 203.226 10.66 203.166 11.2C202.526 11.22 201.366 11.22 200.086 11.24ZM210.946 7.16C211.006 9.66 210.986 22.64 210.946 25.04C210.506 25.12 209.286 25.08 208.706 25.04C208.666 22.62 208.666 9.4 208.706 7.16C209.166 7.06 210.466 7.06 210.946 7.16ZM204.786 7.26C205.246 7.16 206.546 7.16 207.026 7.26C207.086 9.76 207.066 22.48 207.026 24.86C206.586 24.92 205.366 24.92 204.786 24.86C204.746 23.66 204.726 19.9 204.726 16.14C203.726 16.14 202.706 16.14 201.926 16.1C201.866 15.62 201.866 14.36 201.926 13.96C202.686 13.94 203.706 13.94 204.746 13.94C204.746 10.9 204.766 8.18 204.786 7.26ZM223.244 10.22C221.604 10.26 213.224 10.26 211.964 10.22C211.884 9.64 211.884 8.82 211.964 8.24C212.444 8.22 214.364 8.22 216.524 8.22C216.504 7.7 216.524 7.18 216.544 6.8C217.024 6.68 218.364 6.68 219.004 6.8C219.024 7.18 219.044 7.7 219.024 8.22C220.844 8.22 222.484 8.22 223.244 8.24C223.284 8.8 223.304 9.7 223.244 10.22ZM226.164 13.7C225.244 13.72 224.284 13.7 223.764 13.68C223.704 13.06 223.704 12.12 223.764 11.52C224.264 11.5 225.244 11.5 226.164 11.5C226.164 9.64 226.184 7.9 226.204 7.16C226.664 7.08 227.964 7.08 228.524 7.16C228.564 9.3 228.584 15.68 228.524 17.74C228.024 17.82 226.784 17.8 226.204 17.74C226.184 16.98 226.164 15.42 226.164 13.7ZM223.004 14.24C223.004 16.7 221.384 17.54 217.764 17.54C214.024 17.54 212.524 16.64 212.524 14.24C212.524 11.78 214.144 10.94 217.764 10.94C221.504 10.94 223.004 11.84 223.004 14.24ZM214.744 14.24C214.744 15.2 215.504 15.68 217.764 15.68C220.064 15.68 220.784 15.2 220.784 14.24C220.784 13.3 220.024 12.82 217.764 12.82C215.464 12.82 214.744 13.3 214.744 14.24ZM228.524 18.7C228.604 20.4 228.604 23.38 228.524 25.02C226.724 25.14 215.884 25.16 213.944 25.02C213.844 22.94 213.884 20.7 213.944 18.7C215.684 18.64 227.264 18.64 228.524 18.7ZM226.224 23.06C226.264 22.32 226.264 21.54 226.224 20.7C224.924 20.64 217.684 20.66 216.244 20.7C216.204 21.48 216.184 22.16 216.244 23.06C217.424 23.12 225.104 23.1 226.224 23.06ZM247.582 25.04C247.522 22.68 247.522 9.56 247.582 7.16C248.062 7.06 249.382 7.08 249.942 7.16C250.002 9.84 250.002 22.66 249.942 25.04C249.442 25.1 248.162 25.1 247.582 25.04ZM241.182 23.7C241.182 22 241.202 11.38 241.182 9.92C239.902 9.96 235.362 9.96 233.782 9.92C233.722 9.32 233.722 8.36 233.782 7.8C235.422 7.72 241.562 7.7 243.482 7.8C243.622 10.12 243.662 21.44 243.542 23.7C243.122 23.78 241.742 23.78 241.182 23.7ZM263.481 10.54C261.841 10.58 252.881 10.58 251.621 10.54C251.541 9.96 251.541 9.14 251.621 8.58C252.101 8.56 254.121 8.54 256.401 8.54C256.381 7.94 256.401 7.26 256.441 6.8C256.901 6.68 258.241 6.68 258.881 6.8C258.901 7.24 258.921 7.92 258.901 8.54C260.881 8.54 262.701 8.56 263.481 8.58C263.521 9.12 263.541 10 263.481 10.54ZM267.581 7.16C267.641 9.8 267.641 22.62 267.581 25.04C267.081 25.1 265.801 25.1 265.221 25.04C265.141 22.66 265.161 9.54 265.221 7.16C265.701 7.06 267.021 7.06 267.581 7.16ZM258.901 21.44C261.161 21.44 263.241 21.46 264.041 21.48C264.101 22.16 264.101 22.92 264.041 23.52C262.581 23.6 254.221 23.6 251.341 23.52C251.261 22.9 251.261 22.08 251.341 21.48C252.161 21.46 254.201 21.44 256.441 21.44C256.441 20.58 256.441 19.64 256.461 18.86C253.361 18.64 252.161 17.54 252.161 15.16C252.161 12.48 253.661 11.4 257.661 11.4C261.661 11.4 263.181 12.48 263.181 15.16C263.181 17.52 261.981 18.64 258.901 18.86V21.44ZM254.381 15.16C254.381 16.38 255.101 16.96 257.661 16.96C260.241 16.96 260.961 16.38 260.961 15.16C260.961 13.92 260.241 13.34 257.661 13.34C255.101 13.34 254.381 13.92 254.381 15.16ZM285.239 18.36C283.579 18.42 272.379 18.46 270.299 18.36C270.159 16.22 270.179 14.12 270.299 12.04C271.959 12 281.239 12 282.479 12.04V9.8C280.879 9.84 272.039 9.84 270.379 9.8C270.299 9.22 270.299 8.34 270.379 7.76C271.899 7.68 282.859 7.68 284.839 7.78C284.979 9.9 284.959 11.96 284.839 14.08C283.119 14.16 274.459 14.1 272.679 14.08V16.32C274.259 16.3 283.559 16.28 285.239 16.32C285.319 16.9 285.319 17.78 285.239 18.36ZM286.199 22.44C286.259 23.04 286.259 23.82 286.199 24.48C284.319 24.6 271.599 24.56 269.119 24.48C269.059 23.9 269.059 23.06 269.119 22.44C270.639 22.42 273.499 22.4 276.439 22.4C276.439 21.24 276.459 19.94 276.479 19.28C276.979 19.18 278.259 19.2 278.859 19.28C278.879 20.02 278.879 21.28 278.879 22.4C282.219 22.4 285.259 22.42 286.199 22.44ZM290.757 24.22C290.697 23.48 290.697 22.82 290.757 22.08C292.917 19.96 295.137 17.58 296.397 16.1C297.697 14.58 298.077 13.76 298.077 12.42C298.077 11 297.157 10 295.597 10C294.097 10 293.317 10.72 292.717 11.9C292.037 11.68 291.197 11.2 290.657 10.74C291.657 8.76 293.257 7.76 295.597 7.76C298.797 7.76 300.497 9.7 300.497 12.24C300.497 14.14 299.937 15.62 298.297 17.54C297.357 18.62 295.717 20.42 294.097 22.02C295.697 21.98 299.437 21.98 300.777 22.02C300.837 22.7 300.837 23.64 300.777 24.22C299.437 24.3 292.937 24.3 290.757 24.22ZM303.632 17.12C303.232 16.74 302.712 15.86 302.532 15.26C304.172 14.42 306.872 13.1 309.072 12V10.02C306.472 10.02 304.072 10 303.172 9.98C303.092 9.36 303.092 8.52 303.172 7.96C305.332 7.9 314.052 7.88 317.512 7.96C317.572 8.54 317.572 9.42 317.512 9.98C316.472 10 314.112 10.02 311.592 10.02C311.592 10.68 311.592 11.42 311.572 12.02C313.852 12.98 316.592 14.14 318.212 14.86C318.032 15.54 317.632 16.3 317.212 16.78C315.852 16.2 312.812 14.96 310.332 13.84C307.912 15.08 305.012 16.48 303.632 17.12ZM318.872 18.08C318.932 18.66 318.932 19.46 318.872 20.12C318.012 20.16 314.912 20.18 311.552 20.18C311.552 21.88 311.572 24.34 311.532 25.2C310.992 25.24 309.792 25.24 309.152 25.2C309.112 24.42 309.092 21.92 309.132 20.18C305.892 20.18 302.872 20.16 301.792 20.12C301.732 19.52 301.732 18.7 301.792 18.08C305.472 18 316.872 18.04 318.872 18.08ZM337.15 11.94C337.21 12.52 337.21 13.44 337.15 14.04C336.81 14.08 336.07 14.1 335.27 14.1C335.27 16.58 335.25 18.98 335.23 20.02C334.73 20.08 333.49 20.08 332.91 20.02C332.85 17.96 332.85 9.04 332.91 7.16C333.37 7.08 334.67 7.08 335.23 7.16C335.25 8.06 335.25 9.88 335.27 11.92C336.01 11.92 336.73 11.92 337.15 11.94ZM327.67 9.62C326.41 9.66 321.57 9.66 319.93 9.64C319.87 9.02 319.87 8.14 319.93 7.56C321.63 7.5 328.03 7.48 329.95 7.58C330.07 9.98 330.11 14.96 329.99 17.22C329.43 17.3 328.23 17.3 327.67 17.22C327.67 15.5 327.69 11.16 327.67 9.62ZM323.33 22.96C327.17 22.94 333.83 22.92 335.57 22.96C335.63 23.54 335.63 24.44 335.57 25.04C333.77 25.12 323.43 25.12 321.01 25.02C320.91 23.48 320.95 19.28 321.01 18.02C321.51 17.96 322.75 17.96 323.33 18.02C323.37 19.16 323.37 21.74 323.33 22.96ZM5.6025 56.22C5.5825 52.8 5.5825 43.4 5.6025 40C6.4425 39.88 8.0425 39.88 8.6825 40C8.7425 42.82 8.7225 51.3 8.6825 53.42C10.4025 53.38 13.7425 53.38 15.2225 53.42C15.3025 54.24 15.3025 55.48 15.2225 56.22C13.7425 56.28 7.2025 56.28 5.6025 56.22ZM22.2823 56.52C17.8623 56.52 15.3023 53.98 15.3023 48.14C15.3023 42.3 17.9223 39.76 22.3423 39.76C24.4623 39.76 26.0623 40.26 27.5223 41.84C27.1023 42.64 26.4023 43.44 25.7623 43.92C24.9623 43.1 23.8023 42.64 22.3423 42.64C19.9023 42.64 18.3823 44.1 18.3823 48.14C18.3823 52.16 19.8423 53.62 22.2823 53.62C23.6223 53.62 24.7023 53.2 25.2023 52.76C25.2023 51.82 25.2023 50.86 25.2223 49.84C24.4423 49.88 23.4423 49.88 22.6223 49.84C22.5423 49.2 22.5423 47.72 22.6223 47.08C24.4823 47.02 26.4023 47.02 28.1423 47.08C28.1623 48.86 28.1823 51.84 28.1423 53.82C26.9023 55.56 24.8823 56.52 22.2823 56.52ZM35.1747 51.14C34.7347 50.82 33.5347 49.56 33.2147 48.94C34.7747 47.54 37.5347 45.16 39.6347 43.32C39.6147 41.74 39.6347 40.52 39.6747 39.6C40.2147 39.54 42.1347 39.52 42.8347 39.6C42.8747 40.64 42.8947 41.86 42.8747 43.34C45.0147 45.12 47.8147 47.42 49.3947 48.76C49.0747 49.38 47.9147 50.68 47.4947 51.02C46.4147 50.16 43.5347 47.88 41.2947 45.88C39.0747 47.92 36.2747 50.28 35.1747 51.14ZM49.8547 54.02C49.9347 54.76 49.9347 55.78 49.8547 56.62C48.1347 56.74 35.0147 56.7 32.6547 56.62C32.5747 55.9 32.5747 54.8 32.6547 54.02C36.8147 53.94 47.9747 53.98 49.8547 54.02ZM63.0731 52.16C62.5331 52.22 60.9531 52.22 60.2531 52.16C60.1731 50.34 60.1931 40.5 60.2531 39.2C60.7931 39.1 62.4731 39.12 63.0731 39.2C63.0931 39.88 63.1131 41.72 63.1131 43.82H64.4131C64.4131 41.56 64.4331 39.62 64.4331 39.1C64.9731 39 66.6731 39 67.2731 39.1C67.3131 40.8 67.3131 50.48 67.2731 52.3C66.7331 52.38 65.1331 52.34 64.4331 52.3C64.4131 51.5 64.4131 49.06 64.4131 46.48H63.0931C63.0931 48.98 63.0731 51.36 63.0731 52.16ZM59.3131 49.6C57.6731 49.68 52.7531 49.7 50.7931 49.6C50.6731 47.86 50.6931 41.14 50.7931 39.44C52.5731 39.36 56.9531 39.38 58.7131 39.44C58.7931 40.14 58.7931 41.14 58.7131 41.9C57.5131 41.94 55.1931 41.92 53.7731 41.9C53.7531 42.24 53.7531 42.74 53.7531 43.34C55.1931 43.32 56.6331 43.32 58.1131 43.34C58.1931 44.1 58.1731 44.94 58.1131 45.7C56.6531 45.74 55.2931 45.74 53.7531 45.72C53.7531 46.3 53.7531 46.82 53.7731 47.14C55.2131 47.1 58.0331 47.1 59.3131 47.14C59.3931 47.9 59.3931 48.84 59.3131 49.6ZM67.6131 54.56C67.6931 55.28 67.6931 56.42 67.6131 57.16C66.0131 57.26 54.1331 57.26 52.3131 57.16C52.2131 55.68 52.2531 52.2 52.3131 51.02C52.9331 50.96 54.5731 50.96 55.2931 51.02C55.3331 52.02 55.3331 53.48 55.2931 54.56C59.7131 54.54 66.1131 54.52 67.6131 54.56ZM85.9916 45.74C86.0716 46.5 86.0716 47.82 85.9916 48.58C85.6716 48.62 85.0516 48.64 84.2116 48.64C84.2116 52.36 84.1916 55.96 84.1516 57.1C83.5316 57.18 81.8516 57.16 81.1516 57.1C81.0716 54.78 81.0916 41.42 81.1516 39.1C81.6916 38.98 83.4516 39 84.1516 39.1C84.1916 40.16 84.2116 42.78 84.2116 45.7C84.9516 45.7 85.5516 45.72 85.9916 45.74ZM76.0516 39.66C76.8316 39.6 78.2916 39.6 79.0716 39.66C79.1116 44.26 79.0916 54.96 79.0716 55.76C77.6516 55.86 70.5716 55.9 68.9516 55.76C68.8916 54.22 68.8716 43.98 68.9516 39.66C69.7316 39.58 71.2716 39.6 71.9516 39.66C71.9716 40.18 71.9716 42.32 71.9716 44.76C73.1916 44.74 74.9116 44.74 76.0516 44.76V39.66ZM76.0516 53.08V47.48C74.8716 47.5 73.1716 47.5 71.9716 47.48C71.9516 49.8 71.9516 52 71.9516 53.08C72.9116 53.12 75.1916 53.12 76.0516 53.08ZM99.65 57.1C99.57 54.78 99.59 41.42 99.65 39.1C100.19 38.98 101.95 39 102.65 39.1C102.73 41.84 102.73 54.72 102.65 57.1C102.03 57.18 100.35 57.16 99.65 57.1ZM91.85 56.24C87.85 56.24 86.19 54.32 86.19 47.72C86.19 41.12 87.85 39.2 91.85 39.2C95.85 39.2 97.49 41.12 97.49 47.72C97.49 54.32 95.85 56.24 91.85 56.24ZM91.85 53.44C93.87 53.44 94.43 52.36 94.43 47.72C94.43 43.08 93.87 42 91.85 42C89.83 42 89.25 43.08 89.25 47.72C89.25 52.36 89.83 53.44 91.85 53.44ZM117.448 57.1C117.368 54.78 117.388 41.42 117.448 39.1C117.988 38.98 119.748 39 120.448 39.1C120.528 41.84 120.528 54.72 120.448 57.1C119.828 57.18 118.148 57.16 117.448 57.1ZM104.548 55.76C104.408 53.56 104.448 41.68 104.548 39.66C105.788 39.56 113.328 39.54 114.868 39.66C114.988 41.84 114.988 54.66 114.868 55.76C113.528 55.88 106.108 55.9 104.548 55.76ZM107.568 53.08C108.488 53.12 111.008 53.12 111.848 53.08C111.908 49.86 111.908 45.34 111.848 42.32C110.728 42.26 108.888 42.28 107.568 42.32C107.528 45.04 107.508 50 107.568 53.08ZM132.326 56.52C127.906 56.52 125.346 53.98 125.346 48.14C125.346 42.3 127.966 39.76 132.386 39.76C134.506 39.76 136.106 40.26 137.566 41.84C137.146 42.64 136.446 43.44 135.806 43.92C135.006 43.1 133.846 42.64 132.386 42.64C129.946 42.64 128.426 44.1 128.426 48.14C128.426 52.16 129.886 53.62 132.326 53.62C133.666 53.62 134.746 53.2 135.246 52.76C135.246 51.82 135.246 50.86 135.266 49.84C134.486 49.88 133.486 49.88 132.666 49.84C132.586 49.2 132.586 47.72 132.666 47.08C134.526 47.02 136.446 47.02 138.186 47.08C138.206 48.86 138.226 51.84 138.186 53.82C136.946 55.56 134.926 56.52 132.326 56.52ZM144.679 56.52C141.059 56.52 139.179 54.56 139.179 50.28C139.179 46 141.059 44.04 144.679 44.04C148.299 44.04 150.179 46 150.179 50.28C150.179 54.56 148.299 56.52 144.679 56.52ZM144.679 53.86C146.359 53.86 147.299 52.94 147.299 50.28C147.299 47.62 146.359 46.7 144.679 46.7C142.999 46.7 142.059 47.62 142.059 50.28C142.059 52.94 142.999 53.86 144.679 53.86ZM168.602 45.74C168.682 46.5 168.682 47.82 168.602 48.58C168.282 48.62 167.662 48.64 166.822 48.64C166.822 52.36 166.802 55.96 166.762 57.1C166.142 57.18 164.462 57.16 163.762 57.1C163.682 54.78 163.702 41.42 163.762 39.1C164.302 38.98 166.062 39 166.762 39.1C166.802 40.16 166.822 42.78 166.822 45.7C167.562 45.7 168.162 45.72 168.602 45.74ZM156.802 49.82C152.882 49.82 151.182 47.94 151.182 44.5C151.182 41.08 152.882 39.18 156.802 39.18C160.722 39.18 162.422 41.08 162.422 44.5C162.422 47.94 160.722 49.82 156.802 49.82ZM156.802 41.8C154.942 41.8 154.242 42.82 154.242 44.5C154.242 46.18 154.942 47.22 156.802 47.22C158.622 47.22 159.362 46.18 159.362 44.5C159.362 42.82 158.622 41.8 156.802 41.8ZM158.342 53C160.282 53 162.022 53.02 162.702 53.06C162.782 53.9 162.782 54.9 162.702 55.66C161.622 55.74 153.942 55.74 150.882 55.66C150.782 54.88 150.782 53.8 150.882 53.06C151.542 53.02 153.282 53 155.222 53C155.222 52.04 155.242 51.16 155.262 50.5C155.862 50.42 157.582 50.42 158.322 50.5C158.342 51.26 158.342 52.1 158.342 53ZM183.84 42.5C182.1 42.54 173.34 42.54 172.16 42.5C172.08 41.74 172.08 40.72 172.16 39.98C172.56 39.96 174.4 39.94 176.56 39.94C176.56 39.54 176.58 39.14 176.6 38.8C177.14 38.68 178.94 38.68 179.74 38.8C179.76 39.14 179.76 39.54 179.76 39.94C181.48 39.94 183.04 39.96 183.84 39.98C183.88 40.68 183.9 41.82 183.84 42.5ZM189.92 42.96C189.98 43.72 189.98 44.9 189.92 45.66C189.6 45.7 189 45.72 188.2 45.72C188.2 47.4 188.18 48.94 188.16 49.74C187.54 49.82 185.88 49.8 185.18 49.74C185.12 48.02 185.12 40.62 185.18 39.1C185.72 39.02 187.46 39 188.16 39.1C188.18 39.92 188.18 41.34 188.2 42.92C188.9 42.92 189.5 42.94 189.92 42.96ZM178.16 49.68C174.08 49.68 172.58 48.76 172.58 46.34C172.58 43.82 174.26 43 178.16 43C182.24 43 183.74 43.92 183.74 46.34C183.74 48.86 182.06 49.68 178.16 49.68ZM178.16 45.36C175.96 45.36 175.38 45.7 175.38 46.34C175.38 47 176.04 47.34 178.16 47.34C180.36 47.34 180.94 47 180.94 46.34C180.94 45.7 180.28 45.36 178.16 45.36ZM173.3 50.64C174.54 50.56 187.62 50.58 188.16 50.64C188.24 52.22 188.24 55.66 188.16 57.16C186.82 57.28 174.86 57.3 173.3 57.16C173.2 54.98 173.24 52.66 173.3 50.64ZM185.22 54.66C185.26 54.08 185.26 53.88 185.22 53.16C184.1 53.1 177.56 53.12 176.24 53.16C176.2 53.78 176.18 53.86 176.24 54.66C177.16 54.72 184.38 54.7 185.22 54.66ZM206.879 39.1C206.919 41.6 206.919 54.68 206.879 57.1C206.339 57.18 204.879 57.14 204.179 57.1C204.139 54.68 204.159 41.2 204.179 39.1C204.719 38.98 206.279 38.98 206.879 39.1ZM200.459 39.2C200.999 39.08 202.559 39.1 203.159 39.2C203.199 41.74 203.179 54.54 203.159 56.92C202.619 56.98 201.159 56.98 200.459 56.92C200.419 55.78 200.399 52.26 200.399 48.64C199.979 48.64 199.599 48.62 199.259 48.6C199.179 48.02 199.179 46.3 199.259 45.84C199.579 45.84 199.959 45.82 200.419 45.82C200.419 42.76 200.439 40.06 200.459 39.2ZM190.099 39.66C191.099 39.6 193.239 39.62 193.999 39.66C194.139 41.98 194.179 53.44 194.059 55.76C193.539 55.86 192.019 55.84 191.299 55.76C191.299 54.28 191.319 43.86 191.299 42.4C191.119 42.38 190.319 42.38 190.099 42.4C190.019 41.62 190.019 40.4 190.099 39.66ZM194.639 39.66C195.639 39.6 197.859 39.62 198.619 39.66C198.759 41.98 198.799 53.44 198.679 55.76C198.159 55.86 196.639 55.84 195.919 55.76C195.919 54.28 195.939 43.86 195.919 42.4C195.739 42.38 194.859 42.38 194.639 42.4C194.559 41.62 194.559 40.4 194.639 39.66ZM228.656 45.68C228.736 46.38 228.736 47.38 228.656 48.16C226.936 48.28 213.816 48.24 211.456 48.16C211.376 47.48 211.376 46.42 211.456 45.68C213.076 45.64 215.736 45.64 218.496 45.64V44.52C215.876 44.52 213.516 44.5 212.756 44.46C212.656 43.16 212.676 40.22 212.756 39.26C213.376 39.2 215.096 39.2 215.816 39.26C215.876 39.86 215.856 41.2 215.816 41.9C217.856 41.82 225.856 41.84 227.356 41.9C227.436 42.66 227.436 43.7 227.356 44.46C226.676 44.5 224.296 44.52 221.616 44.52C221.616 44.88 221.636 45.26 221.616 45.64C224.896 45.64 227.776 45.66 228.656 45.68ZM215.576 54.2V54.96H227.956C228.036 55.62 227.996 56.52 227.956 57.16C226.656 57.26 215.116 57.28 212.556 57.16C212.476 56.06 212.436 53.92 212.556 52.08H224.476V51.32H212.596C212.516 50.66 212.516 49.56 212.596 49.1C218.416 49.04 225.036 49.04 227.496 49.1C227.596 49.88 227.596 53.34 227.496 54.2H215.576ZM241.915 42.5C237.495 42.5 231.855 42.56 230.355 42.5C230.275 41.74 230.275 40.58 230.355 39.82C231.955 39.76 243.155 39.72 244.975 39.82C245.075 41.5 245.075 50.44 244.975 51.62C244.355 51.7 242.635 51.7 241.915 51.62C241.875 50.5 241.875 43.48 241.915 42.5ZM246.455 54.02C246.535 54.76 246.535 55.78 246.455 56.62C244.735 56.74 231.615 56.7 229.255 56.62C229.175 55.9 229.175 54.8 229.255 54.02C230.615 54 232.695 53.98 234.975 53.98C234.975 51.66 234.995 46.98 235.035 46.2C235.655 46.08 237.355 46.08 238.055 46.2C238.075 47.08 238.095 51.7 238.095 53.98C241.875 53.98 245.455 54 246.455 54.02ZM260.931 42.58C259.951 42.6 259.151 42.58 258.631 42.58C258.571 41.94 258.571 41.08 258.631 40.52C259.711 40.5 262.331 40.48 265.191 40.48C265.171 39.82 265.191 39.16 265.231 38.6C265.931 38.52 267.131 38.52 267.671 38.6C267.711 39.16 267.731 39.82 267.711 40.48C270.311 40.48 272.811 40.48 274.271 40.52C274.331 41.12 274.331 42.02 274.271 42.58H271.971C272.711 43 273.251 43.78 273.251 44.86C273.251 47.32 271.711 48.78 266.451 48.78C261.191 48.78 259.671 47.32 259.671 44.86C259.671 43.82 260.211 43 260.931 42.58ZM266.451 42.66C262.871 42.66 262.031 43.48 262.031 44.66C262.031 45.92 262.871 46.64 266.451 46.64C270.011 46.64 270.891 45.92 270.891 44.66C270.891 43.48 270.011 42.66 266.451 42.66ZM274.991 50.34C275.051 50.94 275.051 51.72 274.991 52.38C274.131 52.44 271.031 52.46 267.651 52.46C267.671 53.9 267.691 56.2 267.651 57.2C267.111 57.24 265.911 57.24 265.271 57.2C265.231 56.3 265.211 53.96 265.251 52.46C262.031 52.44 258.991 52.42 257.911 52.38C257.851 51.8 257.851 50.96 257.911 50.34C261.591 50.28 272.991 50.3 274.991 50.34ZM289.769 57.04C289.709 54.68 289.709 41.56 289.769 39.16C290.249 39.06 291.569 39.08 292.129 39.16C292.189 41.84 292.189 54.66 292.129 57.04C291.629 57.1 290.349 57.1 289.769 57.04ZM283.369 55.7C283.369 54 283.389 43.38 283.369 41.92C282.089 41.96 277.549 41.96 275.969 41.92C275.909 41.32 275.909 40.36 275.969 39.8C277.609 39.72 283.749 39.7 285.669 39.8C285.809 42.12 285.849 53.44 285.729 55.7C285.309 55.78 283.929 55.78 283.369 55.7ZM314.767 46.06C314.827 46.64 314.827 47.66 314.767 48.26C314.307 48.3 313.647 48.32 312.807 48.3C312.807 52.12 312.787 55.86 312.747 57.04C312.247 57.1 310.987 57.1 310.407 57.04C310.327 54.68 310.347 41.56 310.407 39.16C310.867 39.06 312.187 39.08 312.747 39.16C312.787 40.24 312.807 42.98 312.807 46.04C313.567 46.04 314.247 46.04 314.767 46.06ZM303.987 39.64C304.027 40.88 304.047 44.24 304.027 46.62C305.627 49.08 307.967 52.62 309.047 54.4C308.687 54.86 307.667 55.54 307.187 55.7C306.307 54.46 304.327 51.4 302.787 48.84C301.467 51.5 299.787 54.68 298.987 55.98C298.507 55.86 297.387 55.32 296.987 54.9C297.967 53.02 300.087 49.06 301.527 46.4C301.487 43.98 301.507 40.76 301.547 39.64C302.007 39.54 303.427 39.54 303.987 39.64ZM331.105 52C330.605 52.08 329.365 52.06 328.785 52C328.725 49.96 328.725 41.04 328.785 39.16C329.245 39.08 330.545 39.08 331.105 39.16C331.145 41.46 331.165 49.78 331.105 52ZM325.425 49.6C323.905 48.54 322.285 47.34 320.825 46.16C319.465 47.5 317.845 48.92 316.465 50.1C316.025 49.8 315.265 49.02 314.945 48.54C316.465 47.18 318.085 45.7 319.605 44.34C319.585 43.52 319.585 42.48 319.605 41.62C317.685 41.62 315.945 41.6 315.345 41.58C315.265 40.96 315.265 40.14 315.345 39.58C316.865 39.54 323.405 39.5 326.225 39.58C326.285 40.16 326.285 41.04 326.225 41.58C325.505 41.6 323.865 41.6 322.045 41.62C322.065 42.48 322.065 43.52 322.045 44.34L326.805 47.92C326.545 48.44 325.865 49.26 325.425 49.6ZM331.445 55C331.525 55.56 331.525 56.44 331.445 57.04C329.645 57.12 319.445 57.12 317.005 57.02C316.925 55.58 316.965 52.42 317.005 51.24C317.505 51.18 318.765 51.18 319.345 51.24C319.365 52.28 319.365 53.88 319.345 55C323.185 54.98 329.725 54.96 331.445 55ZM341.244 45C335.024 45 333.644 44.08 333.644 41.98C333.644 39.9 335.024 38.98 341.244 38.98C347.464 38.98 348.844 39.9 348.844 41.98C348.844 44.08 347.464 45 341.244 45ZM341.244 43.08C345.804 43.08 346.424 42.72 346.424 41.98C346.424 41.26 345.804 40.9 341.244 40.9C336.684 40.9 336.064 41.26 336.064 41.98C336.064 42.72 336.684 43.08 341.244 43.08ZM332.704 48C332.644 47.46 332.644 46.74 332.704 46.16C336.944 46.08 347.204 46.12 349.784 46.16C349.844 46.72 349.844 47.38 349.784 48C347.324 48.08 335.744 48.08 332.704 48ZM333.884 57.06C333.804 55.96 333.764 53.96 333.884 52.32H346.204V51.12H333.924C333.844 50.58 333.844 49.68 333.924 49.3C338.944 49.24 345.944 49.24 348.544 49.3C348.644 50.12 348.644 53.2 348.544 54.06H336.224V55.28H349.004C349.084 55.8 349.064 56.54 349.004 57.06C347.724 57.16 336.384 57.18 333.884 57.06ZM367.261 41.42C363.801 41.44 357.101 41.48 355.481 41.44C355.401 40.84 355.401 39.98 355.481 39.4C357.161 39.3 367.561 39.32 369.601 39.4C369.701 41.1 369.701 44.04 369.601 45.16C369.161 45.22 367.701 45.22 367.261 45.16C367.241 43.96 367.241 42.38 367.261 41.42ZM371.181 46.38C371.241 46.94 371.241 47.8 371.181 48.4C368.721 48.5 357.141 48.48 354.101 48.4C354.041 47.86 354.041 46.96 354.101 46.38C355.701 46.34 358.141 46.34 360.701 46.34C360.701 45.24 360.721 43.86 360.741 43.28C361.281 43.2 362.561 43.2 363.121 43.28C363.141 43.9 363.141 45.26 363.141 46.34C366.601 46.34 369.881 46.36 371.181 46.38ZM362.641 50C368.801 50 370.361 51.26 370.361 53.64C370.361 56.2 368.601 57.3 362.641 57.3C356.481 57.3 354.921 56.04 354.921 53.64C354.921 51.1 356.681 50 362.641 50ZM362.641 55.34C367.301 55.34 368.001 54.76 368.001 53.64C368.001 52.56 367.301 51.96 362.641 51.96C357.981 51.96 357.281 52.54 357.281 53.64C357.281 54.74 357.981 55.34 362.641 55.34ZM380.44 48.76C374.46 48.76 372.64 47.26 372.64 44.14C372.64 41.02 374.46 39.52 380.44 39.52C386.42 39.52 388.24 41.02 388.24 44.14C388.24 47.26 386.42 48.76 380.44 48.76ZM380.44 41.62C376.18 41.62 375.06 42.34 375.06 44.14C375.06 45.94 376.18 46.66 380.44 46.66C384.7 46.66 385.82 45.94 385.82 44.14C385.82 42.34 384.7 41.62 380.44 41.62ZM388.98 50.52C389.04 51.1 389.04 51.9 388.98 52.56C388.48 52.58 387.22 52.6 385.6 52.62C385.6 54.14 385.62 56.34 385.58 57.2C385.02 57.24 383.84 57.24 383.18 57.2C383.14 56.42 383.14 54.2 383.16 52.62H377.72C377.72 54.14 377.74 56.34 377.7 57.2C377.16 57.24 375.96 57.24 375.32 57.2C375.28 56.42 375.26 54.18 375.3 52.6C373.74 52.58 372.52 52.58 371.9 52.56C371.84 51.96 371.84 51.12 371.9 50.52C375.58 50.44 386.98 50.48 388.98 50.52ZM395.438 40.86C396.678 40.86 397.858 40.88 398.798 40.9C398.858 41.5 398.858 42.36 398.798 42.9C397.078 42.94 390.978 42.96 389.638 42.9C389.558 42.28 389.558 41.46 389.638 40.9C390.258 40.88 391.518 40.86 392.978 40.86C392.978 40.06 392.998 39.16 393.018 38.7C393.478 38.6 394.838 38.58 395.418 38.7C395.438 39.16 395.458 40.06 395.438 40.86ZM406.318 39.16C406.378 41.66 406.358 54.64 406.318 57.04C405.878 57.12 404.658 57.08 404.078 57.04C404.058 55.86 404.058 52.08 404.058 48.28C403.498 48.3 402.838 48.3 402.178 48.3C402.178 52.02 402.158 55.68 402.158 56.86C401.698 56.92 400.478 56.92 399.898 56.86C399.838 54.44 399.838 41.48 399.898 39.26C400.378 39.16 401.658 39.16 402.158 39.26C402.178 40.3 402.198 43.06 402.198 46.14C402.818 46.12 403.478 46.14 404.058 46.16C404.058 42.96 404.058 40.1 404.078 39.16C404.538 39.06 405.838 39.06 406.318 39.16ZM394.218 44.04C397.378 44.04 398.498 45.8 398.498 50.24C398.498 54.68 397.378 56.46 394.218 56.46C391.058 56.46 389.938 54.68 389.938 50.24C389.938 45.8 391.058 44.04 394.218 44.04ZM394.218 54.46C395.738 54.46 396.258 53.44 396.258 50.24C396.258 47.04 395.738 46.04 394.218 46.04C392.678 46.04 392.178 47.04 392.178 50.24C392.178 53.44 392.678 54.46 394.218 54.46ZM423.417 49.34C421.957 49.44 410.337 49.48 408.677 49.34C408.617 46.98 408.597 41.86 408.677 39.68C409.277 39.62 410.517 39.62 411.037 39.68C411.057 40.2 411.057 41.2 411.057 42.3C413.357 42.28 418.737 42.28 421.057 42.3V39.68C421.657 39.62 422.817 39.62 423.417 39.68C423.477 42.04 423.477 47.08 423.417 49.34ZM421.057 44.46C418.757 44.48 413.337 44.48 411.057 44.46C411.057 45.64 411.037 46.72 411.037 47.24C412.117 47.28 420.077 47.28 421.057 47.24V44.46ZM424.577 54.44C424.637 55.04 424.637 55.82 424.577 56.48C422.697 56.6 409.977 56.56 407.497 56.48C407.437 55.9 407.437 55.06 407.497 54.44C409.017 54.42 411.877 54.4 414.837 54.4C414.797 53.04 414.817 51.28 414.857 50.54C415.357 50.42 416.637 50.44 417.237 50.54C417.277 51.38 417.257 53.08 417.257 54.4C420.577 54.4 423.637 54.42 424.577 54.44ZM441.915 39.16C441.975 41.66 441.955 54.64 441.915 57.04C441.475 57.12 440.255 57.08 439.675 57.04C439.635 54.62 439.635 41.4 439.675 39.16C440.135 39.06 441.435 39.06 441.915 39.16ZM435.735 39.26C436.195 39.16 437.475 39.16 437.975 39.26C438.035 41.76 437.995 54.48 437.975 56.86C437.535 56.92 436.315 56.92 435.735 56.86C435.695 55.58 435.675 51.4 435.675 47.4C434.675 47.42 433.655 47.42 432.895 47.38C432.835 46.88 432.835 45.64 432.895 45.22C433.635 45.2 434.675 45.2 435.695 45.2C435.695 42.46 435.715 40.1 435.735 39.26ZM431.095 39.64C431.135 40.9 431.155 44.42 431.115 46.8C432.355 49.42 434.075 52.98 434.855 54.78C434.435 55.18 433.435 55.68 432.935 55.78C432.295 54.6 430.975 51.78 429.855 49.26C428.815 51.84 427.575 54.74 426.955 55.98C426.455 55.9 425.395 55.5 424.955 55.12C425.755 53.26 427.435 49.36 428.615 46.66C428.595 44.2 428.615 40.78 428.655 39.64C429.115 39.54 430.515 39.54 431.095 39.64ZM451.634 49.36C445.554 49.36 443.834 47.7 443.834 44.46C443.834 41.16 445.654 39.56 451.634 39.56C457.714 39.56 459.434 41.24 459.434 44.46C459.434 47.76 457.614 49.36 451.634 49.36ZM451.634 41.68C447.534 41.68 446.254 42.44 446.254 44.46C446.254 46.38 447.414 47.24 451.634 47.24C455.734 47.24 457.014 46.48 457.014 44.46C457.014 42.54 455.854 41.68 451.634 41.68ZM460.174 54.44C460.234 55.04 460.234 55.82 460.174 56.48C458.294 56.6 445.574 56.56 443.094 56.48C443.034 55.9 443.034 55.06 443.094 54.44C443.914 54.42 445.134 54.42 446.534 54.42C446.514 52.98 446.534 50.96 446.554 50.16C447.074 50.08 448.314 50.08 448.914 50.16C448.954 51.06 448.934 53.02 448.914 54.4C450.694 54.4 452.594 54.4 454.334 54.42C454.314 53.04 454.294 51.06 454.334 50.16C454.954 50.08 456.194 50.08 456.694 50.16C456.734 50.96 456.734 52.98 456.714 54.42C458.334 54.42 459.614 54.44 460.174 54.44ZM462.252 51.78C462.172 50.08 462.112 41.68 462.092 39.82C463.112 39.72 463.732 39.72 464.732 39.82C464.732 41.68 464.632 50.1 464.552 51.78C463.872 51.84 463.032 51.84 462.252 51.78ZM462.152 56.3C462.112 55.46 462.092 54.66 462.152 53.84C463.032 53.76 463.872 53.76 464.712 53.84C464.752 54.68 464.752 55.46 464.712 56.28C463.852 56.38 463.012 56.36 462.152 56.3Z" fill="#15306D"/>
</svg>
