<svg width="21" height="20" viewBox="0 0 21 20" fill="none" xmlns="http://www.w3.org/2000/svg">
<path d="M1 19C6.98757 16.2964 13.8378 16.2656 19.8459 18.928L20 19V1L19.8459 1.07196C13.8378 3.73444 6.98757 3.7036 1 1V19Z" stroke="white" stroke-width="1.5" stroke-miterlimit="10" stroke-linecap="round" stroke-linejoin="round"/>
<path d="M1.04102 16.9133L6.62804 8.50439L13.6632 16.8516" stroke="white" stroke-width="1.5" stroke-miterlimit="10" stroke-linecap="round" stroke-linejoin="round"/>
<path d="M12.1328 14.0347L14.5155 11.7012L19.9382 16.9645" stroke="white" stroke-width="1.5" stroke-miterlimit="10" stroke-linecap="round" stroke-linejoin="round"/>
<path d="M15.9639 8.37614C16.8147 8.37614 17.5044 7.75481 17.5044 6.98836C17.5044 6.22192 16.8147 5.60059 15.9639 5.60059C15.1131 5.60059 14.4233 6.22192 14.4233 6.98836C14.4233 7.75481 15.1131 8.37614 15.9639 8.37614Z" fill="white"/>
</svg>
