<svg width="22" height="22" viewBox="0 0 22 22" fill="none" xmlns="http://www.w3.org/2000/svg">
<path fill-rule="evenodd" clip-rule="evenodd" d="M9.74544 3.46605L2.18497 17.0964C1.93875 17.5403 1.93832 18.0876 2.18384 18.5319C2.42936 18.9762 2.88349 19.25 3.375 19.25H18.4959C18.9874 19.25 19.4416 18.9762 19.6871 18.5319C19.9326 18.0876 19.9322 17.5403 19.6859 17.0964L12.1255 3.46605C11.8797 3.02288 11.4262 2.75 10.9355 2.75C10.4448 2.75 9.99125 3.02288 9.74544 3.46605ZM11 8.5C11.5523 8.5 12 8.94772 12 9.5V12.5C12 13.0523 11.5523 13.5 11 13.5C10.4477 13.5 10 13.0523 10 12.5V9.5C10 8.94772 10.4477 8.5 11 8.5ZM11 17.125C11.5523 17.125 12 16.6773 12 16.125C12 15.5727 11.5523 15.125 11 15.125C10.4477 15.125 10 15.5727 10 16.125C10 16.6773 10.4477 17.125 11 17.125Z" fill="#FF2869"/>
</svg>
