<svg width="46" height="46" viewBox="0 0 46 46" fill="none" xmlns="http://www.w3.org/2000/svg">
<path d="M23 45C25.8896 45.0035 28.7514 44.4361 31.4211 43.3303C34.0907 42.2244 36.5155 40.602 38.5562 38.5562C40.602 36.5155 42.2244 34.0907 43.3303 31.4211C44.4361 28.7514 45.0035 25.8896 45 23C45.0035 20.1104 44.4361 17.2486 43.3303 14.5789C42.2244 11.9093 40.602 9.4845 38.5562 7.44381C36.5155 5.39799 34.0907 3.77556 31.4211 2.66972C28.7514 1.56389 25.8896 0.996453 23 1.00002C20.1104 0.996453 17.2486 1.56389 14.5789 2.66972C11.9093 3.77556 9.4845 5.39799 7.44381 7.44381C5.39799 9.4845 3.77556 11.9093 2.66972 14.5789C1.56389 17.2486 0.996453 20.1104 1.00002 23C0.996453 25.8896 1.56389 28.7514 2.66972 31.4211C3.77556 34.0907 5.39799 36.5155 7.44381 38.5562C9.4845 40.602 11.9093 42.2244 14.5789 43.3303C17.2486 44.4361 20.1104 45.0035 23 45Z" fill="#F66161" stroke="black" stroke-width="2" stroke-linejoin="round"/>
<path d="M14.75 24.1016L20.25 29.6016L31.25 18.6016" fill="#F66161"/>
<path d="M14.75 24.1016L20.25 29.6016L31.25 18.6016" stroke="white" stroke-width="2.5" stroke-linecap="round" stroke-linejoin="round"/>
</svg>
