<svg width="46" height="46" viewBox="0 0 46 46" fill="none" xmlns="http://www.w3.org/2000/svg">
	<path d="M23.0832 45C25.9591 45.0035 28.8074 44.4361 31.4644 43.3303C34.1214 42.2244 36.5347 40.602 38.5657 38.5562C40.6018 36.5155 42.2166 34.0907 43.3172 31.4211C44.4178 28.7514 44.9825 25.8896 44.979 23C44.9825 20.1104 44.4178 17.2486 43.3172 14.5789C42.2166 11.9093 40.6018 9.4845 38.5657 7.44381C36.5347 5.39799 34.1214 3.77556 31.4644 2.66972C28.8074 1.56389 25.9591 0.996453 23.0832 1.00002C20.2073 0.996453 17.3591 1.56389 14.7021 2.66972C12.0451 3.77556 9.63179 5.39799 7.60077 7.44381C5.56465 9.4845 3.9499 11.9093 2.84931 14.5789C1.74872 17.2486 1.18397 20.1104 1.18752 23C1.18397 25.8896 1.74872 28.7514 2.84931 31.4211C3.9499 34.0907 5.56465 36.5155 7.60077 38.5562C9.63179 40.602 12.0451 42.2244 14.7021 43.3303C17.3591 44.4361 20.2073 45.0035 23.0832 45Z" fill="white" stroke="black" stroke-width="2" stroke-linejoin="round"/>
	<path d="M14.875 24.1016L20.3489 29.6016L31.2968 18.6016" fill="000"/>
	<path d="M14.875 24.1016L20.3489 29.6016L31.2968 18.6016" stroke="#A2A2A2" stroke-width="2.5" stroke-linecap="round" stroke-linejoin="round"/>
</svg>
