<svg width="18" height="18" viewBox="0 0 18 18" fill="none" xmlns="http://www.w3.org/2000/svg">
<path d="M8.53534 4.10614C8.19332 3.75709 7.7853 3.47954 7.33502 3.28964C6.88474 3.09974 6.40119 3.00129 5.9125 3.00001C5.42382 2.99874 4.93976 3.09466 4.48849 3.2822C4.03723 3.46975 3.62776 3.74517 3.28393 4.09243C1.83716 5.55377 1.84402 7.92878 3.29765 9.39697L8.67761 14.8309C8.90046 15.0564 9.26215 15.0564 9.48499 14.8309L14.8375 9.42783C15.5315 8.71887 15.9189 7.7655 15.9162 6.77343C15.9135 5.78136 15.5208 4.83013 14.823 4.125C14.4805 3.77548 14.0719 3.49758 13.621 3.30747C13.1701 3.11736 12.6859 3.01884 12.1965 3.01764C11.7072 3.01644 11.2225 3.11259 10.7707 3.3005C10.3188 3.4884 9.90889 3.7643 9.5647 4.11214L9.05388 4.62897L8.53534 4.10614Z" fill="#888888" stroke="#888888" stroke-width="1.2"/>
</svg>
