<svg width="18" height="18" viewBox="0 0 18 18" fill="none" xmlns="http://www.w3.org/2000/svg">
<path d="M11.25 3.375L8.86266 5.76234C8.4589 6.1661 7.97338 6.47873 7.43873 6.67923L6.06127 7.19577C5.52662 7.39627 5.0411 7.7089 4.63734 8.11266L4.125 8.625L9.375 13.875L9.88734 13.3627C10.2911 12.9589 10.6037 12.4734 10.8042 11.9387L11.3208 10.5613C11.5213 10.0266 11.8339 9.5411 12.2377 9.13734L14.625 6.75M6.75 11.25L3.375 14.625L6.75 11.25ZM10.5 2.625L15.375 7.5L10.5 2.625Z" fill="#0A0A0A"/>
<path d="M11.25 3.375L8.86266 5.76234C8.4589 6.1661 7.97338 6.47873 7.43873 6.67923L6.06127 7.19577C5.52662 7.39627 5.0411 7.7089 4.63734 8.11266L4.125 8.625L9.375 13.875L9.88734 13.3627C10.2911 12.9589 10.6037 12.4734 10.8042 11.9387L11.3208 10.5613C11.5213 10.0266 11.8339 9.5411 12.2377 9.13734L14.625 6.75M6.75 11.25L3.375 14.625M10.5 2.625L15.375 7.5" stroke="#0A0A0A" stroke-width="2" stroke-linecap="round" stroke-linejoin="round"/>
</svg>
