<svg width="18" height="18" viewBox="0 0 18 18" fill="none" xmlns="http://www.w3.org/2000/svg">
<path d="M9 15.5C7.71442 15.5 6.45772 15.1188 5.3888 14.4046C4.31988 13.6903 3.48676 12.6752 2.99479 11.4874C2.50282 10.2997 2.37409 8.99279 2.6249 7.73191C2.8757 6.47104 3.49477 5.31285 4.40381 4.40381C5.31285 3.49477 6.47104 2.8757 7.73192 2.6249C8.99279 2.37409 10.2997 2.50282 11.4874 2.99479C12.6752 3.48676 13.6903 4.31988 14.4046 5.3888C15.1188 6.45771 15.5 7.71442 15.5 9C15.5 10.0747 15.24 11.0872 14.7778 11.9806L15.5 15.5L11.9806 14.7778C11.0879 15.2393 10.0739 15.5 9 15.5Z" stroke="#888888" stroke-width="1.2" stroke-linecap="round" stroke-linejoin="round"/>
<circle cx="6.22545" cy="9.0067" r="0.928571" fill="#888888"/>
<circle cx="8.99888" cy="9.0067" r="0.928571" fill="#888888"/>
<circle cx="11.7879" cy="9.0067" r="0.928571" fill="#888888"/>
</svg>
