<svg width="16" height="16" viewBox="0 0 16 16" fill="none" xmlns="http://www.w3.org/2000/svg">
<path fill-rule="evenodd" clip-rule="evenodd" d="M15 8C15 6.5 11.5 2.5 8 2.5C4 2.5 1 6.5 1 8C1 9.5 4 13.5 8 13.5C12 13.5 15 9.5 15 8Z" stroke="white"/>
<path d="M9.80512 9.76322C9.32246 10.2335 8.66514 10.5 7.97711 10.5C7.28909 10.5 6.63177 10.2335 6.14911 9.76322C5.66689 9.29332 5.39844 8.6588 5.39844 8C5.39844 7.3412 5.66689 6.70668 6.14911 6.23678C6.63177 5.76645 7.28909 5.5 7.97711 5.5C8.66514 5.5 9.32246 5.76645 9.80512 6.23678C10.2873 6.70668 10.5558 7.3412 10.5558 8C10.5558 8.6588 10.2873 9.29332 9.80512 9.76322Z" stroke="white"/>
</svg>
