<svg width="20" height="20" viewBox="0 0 20 20" fill="none" xmlns="http://www.w3.org/2000/svg">
<path fill-rule="evenodd" clip-rule="evenodd" d="M18.4035 6.08496C18.2764 6.02893 18.139 5.99999 18.0001 6H2.00006C1.86114 5.99999 1.72375 6.02893 1.59664 6.08496C1.46953 6.14099 1.35548 6.22289 1.26178 6.32544C1.16807 6.42799 1.09676 6.54894 1.05239 6.68058C1.00802 6.81221 0.991556 6.95165 1.00406 7.09L1.83906 16.272C1.90692 17.0174 2.25094 17.7105 2.8036 18.2152C3.35625 18.7199 4.07761 18.9998 4.82606 19H15.1741C15.9225 18.9998 16.6439 18.7199 17.1965 18.2152C17.7492 17.7105 18.0932 17.0174 18.1611 16.272L18.9961 7.09C19.0086 6.95165 18.9921 6.81221 18.9477 6.68058C18.9034 6.54894 18.832 6.42799 18.7383 6.32544C18.6446 6.22289 18.5306 6.14099 18.4035 6.08496ZM7.5 9C7.5 9.55228 7.05228 10 6.5 10C5.94772 10 5.5 9.55228 5.5 9C5.5 8.44772 5.94772 8 6.5 8C7.05228 8 7.5 8.44772 7.5 9ZM13.5 10C14.0523 10 14.5 9.55228 14.5 9C14.5 8.44772 14.0523 8 13.5 8C12.9477 8 12.5 8.44772 12.5 9C12.5 9.55228 12.9477 10 13.5 10Z" fill="#0A0A0A"/>
<path fill-rule="evenodd" clip-rule="evenodd" d="M10 2.5C9.46957 2.5 8.96086 2.71071 8.58579 3.08579C8.21071 3.46086 8 3.96957 8 4.5C8 5.05228 7.55228 5.5 7 5.5C6.44772 5.5 6 5.05228 6 4.5C6 3.43913 6.42143 2.42172 7.17157 1.67157C7.92172 0.921427 8.93913 0.5 10 0.5C11.0609 0.5 12.0783 0.921427 12.8284 1.67157C13.5786 2.42172 14 3.43913 14 4.5C14 5.05228 13.5523 5.5 13 5.5C12.4477 5.5 12 5.05228 12 4.5C12 3.96957 11.7893 3.46086 11.4142 3.08579C11.0391 2.71071 10.5304 2.5 10 2.5Z" fill="#888888"/>
</svg>
