<svg width="20" height="20" viewBox="0 0 20 20" fill="none" xmlns="http://www.w3.org/2000/svg">
<path fill-rule="evenodd" clip-rule="evenodd" d="M12.2425 1.17605C12.6976 1.48894 12.8129 2.11152 12.5 2.56662L1.82414 18.5666C1.51125 19.0217 0.88867 19.137 0.433564 18.8241C-0.0215413 18.5112 -0.136834 17.8887 0.176051 17.4336L10.8519 1.43356C11.1648 0.978459 11.7874 0.863166 12.2425 1.17605Z" fill="#9BDDAB"/>
<path fill-rule="evenodd" clip-rule="evenodd" d="M7.75751 1.17605C7.30241 1.48894 7.18711 2.11152 7.5 2.56662L18.1759 18.5668C18.4887 19.0219 19.1113 19.1372 19.5664 18.8244C20.0215 18.5115 20.1368 17.8889 19.8239 17.4338L9.14808 1.43356C8.8352 0.978459 8.21262 0.863166 7.75751 1.17605Z" fill="#9BDDAB"/>
<path d="M10.8229 9.40325C10.4257 8.82393 9.57063 8.82391 9.17342 9.40325L3.87227 17.4369C3.41728 18.1005 3.89242 19.0024 4.69703 19.0024H8.4C8.73137 19.0024 9 18.7338 9 18.4024V16.0031C9 15.4509 9.44772 15.0031 10 15.0031C10.5523 15.0031 11 15.4509 11 16.0031V18.4031C11 18.7345 11.2687 19.0031 11.6001 19.0031L15.2999 19.0024C16.1045 19.0024 16.5797 18.1005 16.1246 17.4369L10.8229 9.40325Z" fill="#1FB051"/>
</svg>
