<svg width="24" height="25" viewBox="0 0 24 25" fill="none" xmlns="http://www.w3.org/2000/svg">
<path d="M3.20312 16.5469L7.36212 11.3879C7.57106 11.1789 7.8191 11.0132 8.09208 10.9001C8.36507 10.7871 8.65765 10.7289 8.95312 10.7289C9.2486 10.7289 9.54118 10.7871 9.81417 10.9001C10.0872 11.0132 10.3352 11.1789 10.5441 11.3879L14.7031 16.5469M13.395 14.9243L14.6121 13.6379C14.8211 13.4289 15.0691 13.2632 15.3421 13.1501C15.6151 13.0371 15.9076 12.9789 16.2031 12.9789C16.4986 12.9789 16.7912 13.0371 17.0642 13.1501C17.3372 13.2632 17.5852 13.4289 17.7941 13.6379L20.7031 16.5469M4.70312 20.2969H19.2031C19.6009 20.2969 19.9825 20.1388 20.2638 19.8575C20.5451 19.5762 20.7031 19.1947 20.7031 18.7969V6.79688C20.7031 6.39905 20.5451 6.01752 20.2638 5.73621C19.9825 5.45491 19.6009 5.29688 19.2031 5.29688H4.70312C4.3053 5.29688 3.92377 5.45491 3.64246 5.73621C3.36116 6.01752 3.20312 6.39905 3.20312 6.79688V18.7969C3.20312 19.1947 3.36116 19.5762 3.64246 19.8575C3.92377 20.1388 4.3053 20.2969 4.70312 20.2969Z" stroke="black" stroke-width="1.5" stroke-linecap="round" stroke-linejoin="round"/>
<path d="M16.2779 7.67523L16.7613 8.73867L17.8248 9.22205C18.0584 9.33484 18.0584 9.67321 17.8248 9.77795L16.7613 10.2613L16.2779 11.3248C16.1652 11.5584 15.8268 11.5584 15.7221 11.3248L15.2387 10.2613L14.1752 9.77795C13.9416 9.66516 13.9416 9.32679 14.1752 9.22205L15.2387 8.73867L15.7221 7.67523C15.8348 7.44159 16.1732 7.44159 16.2779 7.67523Z" fill="black"/>
</svg>
