<svg width="27" height="27" viewBox="0 0 27 27" fill="none" xmlns="http://www.w3.org/2000/svg">
<path d="M21.7416 6.49993L22.4899 5.99992L22.4899 5.99992L21.7416 6.49993ZM21.7416 18.2501L22.4899 18.7501L22.4899 18.7501L21.7416 18.2501ZM20.5001 19.4916L21.0001 20.2399L20.5001 19.4916ZM15.75 20.2485L15.7461 19.3485C15.2506 19.3506 14.85 19.7529 14.85 20.2485H15.75ZM15.75 20.25L16.555 20.6525C16.6175 20.5275 16.65 20.3897 16.65 20.25H15.75ZM12.4625 22.675L11.6575 23.0775H11.6575L12.4625 22.675ZM11.25 20.25H10.35C10.35 20.3897 10.3825 20.5275 10.445 20.6525L11.25 20.25ZM11.25 20.2485H12.15C12.15 19.7529 11.7494 19.3506 11.2539 19.3485L11.25 20.2485ZM6.49993 19.4916L5.99992 20.2399H5.99992L6.49993 19.4916ZM5.25839 18.2501L4.51006 18.7501H4.51006L5.25839 18.2501ZM5.25839 6.49993L6.00671 6.99995L5.25839 6.49993ZM6.49993 5.25839L6.99995 6.00671L6.49993 5.25839ZM20.5001 5.25839L20.0001 6.00671V6.00671L20.5001 5.25839ZM23.4 12.375C23.4 10.8137 23.4011 9.575 23.3006 8.58699C23.1985 7.58395 22.9844 6.73995 22.4899 5.99992L20.9933 6.99995C21.2572 7.39492 21.4223 7.90844 21.5098 8.76916C21.5989 9.64493 21.6 10.7762 21.6 12.375H23.4ZM22.4899 18.7501C22.9844 18.01 23.1985 17.1661 23.3006 16.163C23.4011 15.175 23.4 13.9363 23.4 12.375H21.6C21.6 13.9738 21.5989 15.1051 21.5098 15.9808C21.4223 16.8416 21.2572 17.3551 20.9933 17.7501L22.4899 18.7501ZM21.0001 20.2399C21.5897 19.846 22.096 19.3397 22.4899 18.7501L20.9933 17.7501C20.7306 18.1431 20.3931 18.4806 20.0001 18.7433L21.0001 20.2399ZM15.7539 21.1485C16.9634 21.1432 17.9594 21.1204 18.7867 21.006C19.6286 20.8897 20.3537 20.6718 21.0001 20.2399L20.0001 18.7433C19.6549 18.9739 19.2187 19.1292 18.5403 19.223C17.8473 19.3188 16.9641 19.3432 15.7461 19.3485L15.7539 21.1485ZM16.65 20.25V20.2485H14.85V20.25H16.65ZM15.3425 23.0775L16.555 20.6525L14.945 19.8475L13.7325 22.2725L15.3425 23.0775ZM11.6575 23.0775C12.4167 24.5958 14.5833 24.5958 15.3425 23.0775L13.7325 22.2725C13.6367 22.4641 13.3633 22.4641 13.2675 22.2725L11.6575 23.0775ZM10.445 20.6525L11.6575 23.0775L13.2675 22.2725L12.055 19.8475L10.445 20.6525ZM10.35 20.2485V20.25H12.15V20.2485H10.35ZM5.99992 20.2399C6.64627 20.6718 7.37144 20.8897 8.21327 21.006C9.04064 21.1204 10.0366 21.1432 11.2461 21.1485L11.2539 19.3485C10.0359 19.3432 9.15267 19.3188 8.45974 19.223C7.78128 19.1292 7.34512 18.9739 6.99995 18.7433L5.99992 20.2399ZM4.51006 18.7501C4.90404 19.3397 5.41029 19.846 5.99992 20.2399L6.99995 18.7433C6.60686 18.4806 6.26936 18.1431 6.00671 17.7501L4.51006 18.7501ZM3.6 12.375C3.6 13.9363 3.59891 15.175 3.69942 16.163C3.80146 17.1661 4.01559 18.01 4.51006 18.7501L6.00671 17.7501C5.74279 17.3551 5.57774 16.8416 5.49018 15.9808C5.40109 15.1051 5.4 13.9738 5.4 12.375H3.6ZM4.51006 5.99992C4.01559 6.73995 3.80146 7.58395 3.69942 8.58699C3.59891 9.575 3.6 10.8137 3.6 12.375H5.4C5.4 10.7762 5.40109 9.64493 5.49018 8.76916C5.57774 7.90844 5.74279 7.39492 6.00671 6.99995L4.51006 5.99992ZM5.99992 4.51006C5.41029 4.90404 4.90404 5.41029 4.51006 5.99992L6.00671 6.99995C6.26936 6.60686 6.60686 6.26936 6.99995 6.00671L5.99992 4.51006ZM12.375 3.6C10.8137 3.6 9.575 3.59891 8.58699 3.69942C7.58395 3.80146 6.73995 4.01559 5.99992 4.51006L6.99995 6.00671C7.39492 5.74279 7.90844 5.57774 8.76916 5.49018C9.64493 5.40109 10.7762 5.4 12.375 5.4V3.6ZM14.625 3.6H12.375V5.4H14.625V3.6ZM21.0001 4.51006C20.26 4.01559 19.4161 3.80146 18.413 3.69942C17.425 3.59891 16.1863 3.6 14.625 3.6V5.4C16.2238 5.4 17.3551 5.40109 18.2308 5.49018C19.0916 5.57774 19.6051 5.74279 20.0001 6.00671L21.0001 4.51006ZM22.4899 5.99992C22.096 5.41029 21.5897 4.90404 21.0001 4.51006L20.0001 6.00671C20.3931 6.26936 20.7306 6.60686 20.9933 6.99995L22.4899 5.99992Z" fill="black"/>
<circle cx="13.5" cy="12.375" r="1.125" fill="black" stroke="black" stroke-width="0.231995" stroke-linecap="round"/>
<circle cx="18" cy="12.375" r="1.125" fill="black" stroke="black" stroke-width="0.231995" stroke-linecap="round"/>
<circle cx="9" cy="12.375" r="1.125" fill="black" stroke="black" stroke-width="0.231995" stroke-linecap="round"/>
</svg>
