<svg width="27" height="27" viewBox="0 0 27 27" fill="none" xmlns="http://www.w3.org/2000/svg">
<path d="M6.31633 15.8542L13.4012 22.4431C13.6344 22.66 13.751 22.7684 13.8871 22.799C13.9615 22.8157 14.0385 22.8157 14.1129 22.799C14.249 22.7684 14.3656 22.66 14.5988 22.4431L21.6837 15.8542C23.7002 13.9789 23.9445 10.8716 22.2458 8.7042L21.9572 8.33588C19.9387 5.76031 15.9187 6.19516 14.4976 9.14278C14.2967 9.55949 13.7033 9.55949 13.5024 9.14278C12.0813 6.19516 8.06128 5.76031 6.04281 8.33588L5.75415 8.7042C4.05553 10.8716 4.29984 13.9789 6.31633 15.8542Z" stroke="black" stroke-width="1.8"/>
</svg>
