<svg width="22" height="22" viewBox="0 0 22 22" fill="none" xmlns="http://www.w3.org/2000/svg">
<mask id="path-1-inside-1_2450_3064" fill="white">
<path fill-rule="evenodd" clip-rule="evenodd" d="M3.85 1.82812C3.24249 1.82812 2.75 2.32061 2.75 2.92813V4.39479C2.75 4.9357 3.14041 5.38542 3.65482 5.47753C3.09586 6.03511 2.75 6.80623 2.75 7.65812V17.0815C2.75 18.7825 4.12896 20.1615 5.83 20.1615H15.2533C16.9544 20.1615 18.3333 18.7825 18.3333 17.0815V7.65812C18.3333 6.80623 17.9875 6.03511 17.4285 5.47753C17.9429 5.38542 18.3333 4.9357 18.3333 4.39479V2.92812C18.3333 2.32061 17.8408 1.82812 17.2333 1.82812H3.85Z"/>
</mask>
<path d="M3.65482 5.47753L4.73379 6.55916C5.13685 6.15709 5.28292 5.56425 5.11278 5.02095C4.94264 4.47765 4.48452 4.07402 3.92411 3.97367L3.65482 5.47753ZM17.4285 5.47753L17.1592 3.97367C16.5988 4.07402 16.1407 4.47765 15.9706 5.02095C15.8004 5.56425 15.9465 6.15709 16.3495 6.55917L17.4285 5.47753ZM4.27778 2.92813C4.27778 3.16438 4.08626 3.3559 3.85 3.3559V0.300348C2.39872 0.300348 1.22222 1.47685 1.22222 2.92813H4.27778ZM4.27778 4.39479V2.92813H1.22222V4.39479H4.27778ZM3.92411 3.97367C4.12517 4.00967 4.27778 4.18284 4.27778 4.39479H1.22222C1.22222 5.68856 2.15566 6.76116 3.38553 6.98139L3.92411 3.97367ZM4.27778 7.65812C4.27778 7.22838 4.4504 6.84185 4.73379 6.55916L2.57586 4.39589C1.74132 5.22837 1.22222 6.38407 1.22222 7.65812H4.27778ZM4.27778 17.0815V7.65812H1.22222V17.0815H4.27778ZM5.83 18.6337C4.97273 18.6337 4.27778 17.9387 4.27778 17.0815H1.22222C1.22222 19.6263 3.28519 21.6892 5.83 21.6892V18.6337ZM15.2533 18.6337H5.83V21.6892H15.2533V18.6337ZM16.8056 17.0815C16.8056 17.9387 16.1106 18.6337 15.2533 18.6337V21.6892C17.7981 21.6892 19.8611 19.6263 19.8611 17.0815H16.8056ZM16.8056 7.65812V17.0815H19.8611V7.65812H16.8056ZM16.3495 6.55917C16.6329 6.84186 16.8056 7.22839 16.8056 7.65812H19.8611C19.8611 6.38406 19.342 5.22836 18.5075 4.39589L16.3495 6.55917ZM16.8056 4.39479C16.8056 4.18283 16.9582 4.00967 17.1592 3.97367L17.6978 6.98139C18.9277 6.76116 19.8611 5.68856 19.8611 4.39479H16.8056ZM16.8056 2.92812V4.39479H19.8611V2.92812H16.8056ZM17.2333 3.3559C16.9971 3.3559 16.8056 3.16438 16.8056 2.92812H19.8611C19.8611 1.47684 18.6846 0.300348 17.2333 0.300348V3.3559ZM3.85 3.3559H17.2333V0.300348H3.85V3.3559Z" fill="white" mask="url(#path-1-inside-1_2450_3064)"/>
<rect x="5.5" y="11.9141" width="10.0833" height="5.5" rx="0.916667" fill="white"/>
</svg>
