<svg width="20" height="20" viewBox="0 0 20 20" fill="none" xmlns="http://www.w3.org/2000/svg">
<path fill-rule="evenodd" clip-rule="evenodd" d="M4.21441 3.00781C2.98711 3.00781 1.99219 4.00274 1.99219 5.23003V12.7856C1.99219 14.0129 2.98711 15.0078 4.21441 15.0078H15.77C16.9973 15.0078 17.9922 14.0129 17.9922 12.7856V5.23003C17.9922 4.00274 16.9973 3.00781 15.77 3.00781H4.21441ZM8.48438 13.0078C8.20823 13.0078 7.98438 13.2317 7.98438 13.5078C7.98438 13.784 8.20823 14.0078 8.48438 14.0078H11.4844C11.7605 14.0078 11.9844 13.784 11.9844 13.5078C11.9844 13.2317 11.7605 13.0078 11.4844 13.0078H8.48438Z" fill="#F25839"/>
<rect x="1" y="16" width="18" height="2" rx="1" fill="#FB9C89"/>
</svg>
