<svg width="24" height="24" viewBox="0 0 24 24" fill="none" xmlns="http://www.w3.org/2000/svg">
<path d="M9.99184 15.0082L22 3M9.99184 15.0082L13.8126 22.6497C13.8605 22.7542 13.9374 22.8428 14.0342 22.9049C14.1309 22.967 14.2435 23 14.3584 23C14.4734 23 14.586 22.967 14.6827 22.9049C14.7795 22.8428 14.8564 22.7542 14.9043 22.6497L22 3M9.99184 15.0082L2.35028 11.1874C2.24576 11.1395 2.1572 11.0626 2.0951 10.9658C2.03301 10.8691 2 10.7565 2 10.6416C2 10.5266 2.03301 10.414 2.0951 10.3173C2.1572 10.2205 2.24576 10.1436 2.35028 10.0957L22 3" stroke="white" stroke-width="1.5" stroke-linecap="round" stroke-linejoin="round"/>
</svg>
