<svg width="20" height="20" viewBox="0 0 20 20" fill="none" xmlns="http://www.w3.org/2000/svg">
<path fill-rule="evenodd" clip-rule="evenodd" d="M18.4035 6.08496C18.2764 6.02893 18.139 5.99999 18.0001 6H2.00006C1.86114 5.99999 1.72375 6.02893 1.59664 6.08496C1.46953 6.14099 1.35548 6.22289 1.26178 6.32544C1.16807 6.42799 1.09676 6.54894 1.05239 6.68058C1.00802 6.81221 0.991556 6.95165 1.00406 7.09L1.83906 16.272C1.90692 17.0174 2.25094 17.7105 2.8036 18.2152C3.35625 18.7199 4.07761 18.9998 4.82606 19H15.1741C15.9225 18.9998 16.6439 18.7199 17.1965 18.2152C17.7492 17.7105 18.0932 17.0174 18.1611 16.272L18.9961 7.09C19.0086 6.95165 18.9921 6.81221 18.9477 6.68058C18.9034 6.54894 18.832 6.42799 18.7383 6.32544C18.6446 6.22289 18.5306 6.14099 18.4035 6.08496ZM7.5 9C7.5 9.55228 7.05228 10 6.5 10C5.94772 10 5.5 9.55228 5.5 9C5.5 8.44772 5.94772 8 6.5 8C7.05228 8 7.5 8.44772 7.5 9ZM13.5 10C14.0523 10 14.5 9.55228 14.5 9C14.5 8.44772 14.0523 8 13.5 8C12.9477 8 12.5 8.44772 12.5 9C12.5 9.55228 12.9477 10 13.5 10Z" fill="#0A0A0A"/>
<path fill-rule="evenodd" clip-rule="evenodd" d="M9.99219 2.49219C9.46175 2.49219 8.95305 2.7029 8.57797 3.07797C8.2029 3.45305 7.99219 3.96175 7.99219 4.49219C7.99219 5.04447 7.54447 5.49219 6.99219 5.49219C6.4399 5.49219 5.99219 5.04447 5.99219 4.49219C5.99219 3.43132 6.41361 2.41391 7.16376 1.66376C7.91391 0.913615 8.93132 0.492188 9.99219 0.492188C11.0531 0.492188 12.0705 0.913615 12.8206 1.66376C13.5708 2.41391 13.9922 3.43132 13.9922 4.49219C13.9922 5.04447 13.5445 5.49219 12.9922 5.49219C12.4399 5.49219 11.9922 5.04447 11.9922 4.49219C11.9922 3.96175 11.7815 3.45305 11.4064 3.07797C11.0313 2.7029 10.5226 2.49219 9.99219 2.49219Z" fill="#888888"/>
</svg>
