<svg width="28" height="28" viewBox="0 0 28 28" fill="none" xmlns="http://www.w3.org/2000/svg">
<g clip-path="url(#clip0_2450_3068)">
<path d="M17.9218 4.00781L21.668 10.4968H25.6615V12.8301H24.3L23.4168 23.427C23.3925 23.7185 23.2596 23.9903 23.0444 24.1884C22.8291 24.3866 22.5473 24.4967 22.2548 24.4968H5.73479C5.44225 24.4967 5.16044 24.3866 4.94522 24.1884C4.73 23.9903 4.59707 23.7185 4.57279 23.427L3.68846 12.8301H2.32812V10.4968H6.32046L10.0678 4.00781L12.0885 5.17448L9.01546 10.4968H18.973L15.9011 5.17448L17.9218 4.00781ZM21.9585 12.8301H6.02996L6.80813 22.1635H21.1803L21.9585 12.8301ZM15.1615 15.1635V19.8301H12.8281V15.1635H15.1615ZM10.4948 15.1635V19.8301H8.16146V15.1635H10.4948ZM19.8281 15.1635V19.8301H17.4948V15.1635H19.8281Z" fill="#0A0A0A"/>
</g>
<defs>
<clipPath id="clip0_2450_3068">
<rect width="28" height="28" fill="white"/>
</clipPath>
</defs>
</svg>
