<svg width="16" height="16" viewBox="0 0 16 16" fill="none" xmlns="http://www.w3.org/2000/svg">
<path d="M5.43333 6.98889L10.5667 4.34444M5.43333 9.01111L10.5667 11.6556M1 8C1 8.61884 1.24583 9.21233 1.68342 9.64992C2.121 10.0875 2.71449 10.3333 3.33333 10.3333C3.95217 10.3333 4.54566 10.0875 4.98325 9.64992C5.42083 9.21233 5.66667 8.61884 5.66667 8C5.66667 7.38116 5.42083 6.78767 4.98325 6.35008C4.54566 5.9125 3.95217 5.66667 3.33333 5.66667C2.71449 5.66667 2.121 5.9125 1.68342 6.35008C1.24583 6.78767 1 7.38116 1 8ZM10.3333 3.33333C10.3333 3.95217 10.5792 4.54566 11.0168 4.98325C11.4543 5.42083 12.0478 5.66667 12.6667 5.66667C13.2855 5.66667 13.879 5.42083 14.3166 4.98325C14.7542 4.54566 15 3.95217 15 3.33333C15 2.71449 14.7542 2.121 14.3166 1.68342C13.879 1.24583 13.2855 1 12.6667 1C12.0478 1 11.4543 1.24583 11.0168 1.68342C10.5792 2.121 10.3333 2.71449 10.3333 3.33333ZM10.3333 12.6667C10.3333 13.2855 10.5792 13.879 11.0168 14.3166C11.4543 14.7542 12.0478 15 12.6667 15C13.2855 15 13.879 14.7542 14.3166 14.3166C14.7542 13.879 15 13.2855 15 12.6667C15 12.0478 14.7542 11.4543 14.3166 11.0168C13.879 10.5792 13.2855 10.3333 12.6667 10.3333C12.0478 10.3333 11.4543 10.5792 11.0168 11.0168C10.5792 11.4543 10.3333 12.0478 10.3333 12.6667Z" stroke="#666666" stroke-width="1.2" stroke-linecap="round" stroke-linejoin="round"/>
</svg>
