<svg width="23" height="24" viewBox="0 0 23 24" fill="none" xmlns="http://www.w3.org/2000/svg">
<g clip-path="url(#clip0_2450_3586)">
<path d="M3.20287 16.7908C2.79776 16.0902 2.48285 15.3412 2.26562 14.5617C2.73838 14.3212 3.1354 13.9547 3.41278 13.5026C3.69015 13.0505 3.83707 12.5306 3.83727 12.0002C3.83746 11.4698 3.69094 10.9497 3.4139 10.4974C3.13687 10.0451 2.74011 9.67827 2.26754 9.43747C2.70074 7.87106 3.52557 6.44072 4.66433 5.28118C5.10909 5.57033 5.62518 5.73079 6.15548 5.7448C6.68578 5.75881 7.20962 5.62583 7.66902 5.36056C8.12843 5.0953 8.50548 4.7081 8.75846 4.24181C9.01143 3.77553 9.13046 3.24834 9.10238 2.7186C10.6761 2.3119 12.3274 2.31256 13.9008 2.72051C13.8729 3.25025 13.9922 3.77735 14.2453 4.24351C14.4985 4.70966 14.8757 5.09668 15.3352 5.36174C15.7947 5.6268 16.3186 5.75957 16.8488 5.74535C17.3791 5.73113 17.8951 5.57048 18.3398 5.28118C18.8946 5.8466 19.3872 6.48964 19.8012 7.20743C20.2162 7.92522 20.5267 8.67368 20.7385 9.43652C20.2657 9.67696 19.8687 10.0435 19.5913 10.4956C19.3139 10.9477 19.167 11.4676 19.1668 11.998C19.1666 12.5284 19.3131 13.0485 19.5902 13.5008C19.8672 13.9531 20.264 14.3199 20.7365 14.5607C20.3033 16.1271 19.4785 17.5575 18.3398 18.717C17.895 18.4279 17.3789 18.2674 16.8486 18.2534C16.3183 18.2394 15.7945 18.3724 15.3351 18.6376C14.8757 18.9029 14.4986 19.2901 14.2456 19.7564C13.9927 20.2227 13.8736 20.7499 13.9017 21.2796C12.328 21.6863 10.6767 21.6856 9.10333 21.2777C9.13117 20.7479 9.01191 20.2208 8.75874 19.7547C8.50557 19.2885 8.12837 18.9015 7.66887 18.6365C7.20938 18.3714 6.68551 18.2386 6.15524 18.2528C5.62496 18.2671 5.10896 18.4277 4.66433 18.717C4.09795 18.1391 3.6069 17.4919 3.20287 16.7908ZM8.62704 16.9786C9.64827 17.5676 10.4161 18.5129 10.7833 19.6332C11.2615 19.6782 11.7416 19.6792 12.2198 19.6341C12.5873 18.5137 13.3555 17.5684 14.377 16.9796C15.3979 16.3889 16.6009 16.1961 17.7552 16.4381C18.0331 16.0471 18.2727 15.6302 18.472 15.1942C17.6856 14.3158 17.2512 13.178 17.252 11.9991C17.252 10.7916 17.7025 9.66364 18.472 8.80402C18.2713 8.36812 18.0307 7.9517 17.7533 7.5601C16.5997 7.80189 15.3975 7.60943 14.377 7.0196C13.3558 6.43058 12.588 5.48529 12.2208 4.36501C11.7426 4.31997 11.2625 4.31901 10.7843 4.36406C10.4168 5.48449 9.64863 6.4298 8.62704 7.01864C7.60621 7.60927 6.40321 7.8021 5.24892 7.5601C4.97154 7.95137 4.73154 8.36784 4.53208 8.80402C5.31846 9.68238 5.75289 10.8201 5.75204 11.9991C5.75204 13.2066 5.30163 14.3346 4.53208 15.1942C4.73283 15.6301 4.97343 16.0465 5.25083 16.4381C6.4044 16.1963 7.60662 16.3888 8.62704 16.9786ZM11.502 14.8741C10.7395 14.8741 10.0083 14.5712 9.46911 14.032C8.92994 13.4929 8.62704 12.7616 8.62704 11.9991C8.62704 11.2366 8.92994 10.5053 9.46911 9.96617C10.0083 9.427 10.7395 9.1241 11.502 9.1241C12.2645 9.1241 12.9958 9.427 13.535 9.96617C14.0741 10.5053 14.377 11.2366 14.377 11.9991C14.377 12.7616 14.0741 13.4929 13.535 14.032C12.9958 14.5712 12.2645 14.8741 11.502 14.8741ZM11.502 12.9574C11.7562 12.9574 12 12.8565 12.1797 12.6767C12.3594 12.497 12.4604 12.2533 12.4604 11.9991C12.4604 11.7449 12.3594 11.5012 12.1797 11.3215C12 11.1417 11.7562 11.0408 11.502 11.0408C11.2479 11.0408 11.0041 11.1417 10.8244 11.3215C10.6447 11.5012 10.5437 11.7449 10.5437 11.9991C10.5437 12.2533 10.6447 12.497 10.8244 12.6767C11.0041 12.8565 11.2479 12.9574 11.502 12.9574Z" fill="black"/>
</g>
<defs>
<clipPath id="clip0_2450_3586">
<rect width="23" height="23" fill="white" transform="translate(0 0.5)"/>
</clipPath>
</defs>
</svg>
