<svg width="18" height="18" viewBox="0 0 18 18" fill="none" xmlns="http://www.w3.org/2000/svg">
<path d="M9.39255 11.2422V11.1697C9.40462 10.2443 9.63397 9.94187 10.318 9.52743C11.0423 9.08483 11.4808 8.47323 11.4808 7.5679C11.4808 6.26021 10.491 5.375 9.0103 5.375C7.65835 5.375 6.56391 6.16766 6.51562 7.61619H7.74687C7.79918 6.77524 8.39468 6.39701 9.00628 6.39701C9.6903 6.39701 10.2415 6.84766 10.2415 7.55583C10.2415 8.15938 9.87137 8.57784 9.39255 8.8756C8.64415 9.3343 8.24178 9.67695 8.22971 11.1697V11.2422H9.39255ZM8.80304 13.6273C9.24162 13.6273 9.60778 13.2651 9.6118 12.8225C9.60778 12.3799 9.24162 12.0178 8.80304 12.0178C8.36044 12.0178 7.99026 12.3799 7.99831 12.8225C7.99026 13.2651 8.36044 13.6273 8.80304 13.6273Z" fill="#525357"/>
<circle cx="9" cy="9.375" r="7.3125" stroke="#BABCC2"/>
</svg>
