<svg width="24" height="25" viewBox="0 0 24 25" fill="none" xmlns="http://www.w3.org/2000/svg">
<path d="M18.6667 5H5.33333C4.97971 5 4.64057 5.14048 4.39052 5.39052C4.14048 5.64057 4 5.97971 4 6.33333V19.6667C4 20.0203 4.14048 20.3594 4.39052 20.6095C4.64057 20.8595 4.97971 21 5.33333 21H18.6667C19.0203 21 19.3594 20.8595 19.6095 20.6095C19.8595 20.3594 20 20.0203 20 19.6667V6.33333C20 5.97971 19.8595 5.64057 19.6095 5.39052C19.3594 5.14048 19.0203 5 18.6667 5Z" stroke="#0A0A0A" stroke-width="1.5" stroke-linecap="round" stroke-linejoin="round"/>
<path d="M4 9H20M16 5L13.3333 9M10.6667 5L8 9M10.4444 14.7778V12.0836L12.7778 13.4302L15.1111 14.7778L12.7778 16.1249L10.4444 17.472V14.7778Z" stroke="#0A0A0A" stroke-width="1.5" stroke-linecap="round" stroke-linejoin="round"/>
</svg>
