<svg width="79" height="68" viewBox="0 0 79 68" fill="none" xmlns="http://www.w3.org/2000/svg">
<path d="M33.6979 46.3943H34.9373L35.305 45.2106L47.9516 4.49925L48.6294 2.31706H46.3444H35.0112H33.7689L33.4029 3.50415L25.6722 28.578L17.9415 3.50415L17.5755 2.31706H16.3332H5H2.71494L3.39282 4.49925L16.0393 45.2106L16.407 46.3943H17.6465H33.6979Z" fill="url(#paint0_linear_2037_3384)" stroke="white" stroke-width="3.36589"/>
<path d="M74.0289 36.1751H75.7119V34.4921C75.7119 30.0715 74.36 26.236 71.0572 23.5605C67.825 20.9422 62.9943 19.6608 56.5184 19.6608C50.0425 19.6608 45.2118 20.9422 41.9796 23.5605C38.6768 26.236 37.3249 30.0715 37.3249 34.4921C37.3249 38.9178 38.6813 42.7207 42.0681 45.3483C45.3639 47.9054 50.3106 49.1287 57.0048 49.1287C59.7238 49.1287 61.1 49.4024 61.7745 49.7666C62.0503 49.9156 62.1573 50.0537 62.22 50.1778C62.2969 50.3298 62.3747 50.6003 62.3747 51.0981C62.3747 51.5418 62.3155 51.7881 62.25 51.933C62.1997 52.0441 62.1145 52.1702 61.8742 52.314C61.273 52.6737 59.9224 53.0188 57.0048 53.0188C54.2524 53.0188 52.9011 52.7746 52.2415 52.4147C51.9874 52.2761 51.8814 52.1425 51.8102 51.9914C51.7201 51.8003 51.6349 51.4633 51.6349 50.8546V49.1716H49.9519H39.0078H37.3249V50.8546C37.3249 55.2778 38.679 59.1212 42.0541 61.7972C45.3486 64.4093 50.2981 65.6859 57.0048 65.6859C63.7115 65.6859 68.6609 64.4093 71.9554 61.7972C75.3305 59.1212 76.6847 55.2778 76.6847 50.8546C76.6847 46.429 75.3282 42.6261 71.9415 39.9984C68.6456 37.4413 63.699 36.218 57.0048 36.218C54.2858 36.218 52.9096 35.9443 52.2351 35.5801C51.9593 35.4312 51.8523 35.293 51.7895 35.169C51.7126 35.017 51.6349 34.7464 51.6349 34.2487C51.6349 33.8063 51.6935 33.5485 51.7617 33.3918C51.8163 33.2663 51.9021 33.1431 52.1136 33.0086C52.6446 32.6709 53.8585 32.328 56.5184 32.328C59.0159 32.328 60.2318 32.5717 60.8199 32.9116C61.0442 33.0413 61.1503 33.1716 61.2253 33.3362C61.3173 33.5379 61.4019 33.8851 61.4019 34.4921V36.1751H63.0848H74.0289Z" fill="url(#paint1_linear_2037_3384)" stroke="white" stroke-width="3.36589"/>
<defs>
<linearGradient id="paint0_linear_2037_3384" x1="25.6722" y1="4" x2="25.6722" y2="44.7113" gradientUnits="userSpaceOnUse">
<stop stop-color="#F2A22C"/>
<stop offset="0.8" stop-color="#F66161"/>
</linearGradient>
<linearGradient id="paint1_linear_2037_3384" x1="57.0048" y1="21.3437" x2="57.0048" y2="64.003" gradientUnits="userSpaceOnUse">
<stop stop-color="#F2A22C"/>
<stop offset="0.8" stop-color="#F66161"/>
</linearGradient>
</defs>
</svg>
