<svg width="52" height="52" viewBox="0 0 52 52" fill="none" xmlns="http://www.w3.org/2000/svg">
<rect x="0.5" y="0.5" width="51" height="51" rx="25.5" fill="white"/>
<rect x="0.5" y="0.5" width="51" height="51" rx="25.5" stroke="#F2F2F2"/>
<path d="M27.7001 17.5H24.3001C21.095 17.5 19.4913 17.5 18.4962 18.5302C17.5011 19.5604 17.5 21.2185 17.5 24.5347C17.5 27.8509 17.5 29.509 18.4962 30.5392C19.4913 31.5694 21.095 31.5694 24.3001 31.5694H25.4618C26.3594 31.5694 26.6756 31.7541 27.2944 32.4273C27.9778 33.1719 29.0364 34.1659 29.994 34.3971C31.3552 34.7258 31.5082 34.2713 31.2045 32.9736C31.1183 32.6041 30.9018 32.0137 31.1297 31.6691C31.2577 31.4765 31.4697 31.4289 31.8947 31.3337C32.5645 31.1841 33.1175 30.9392 33.504 30.5392C34.5002 29.5078 34.5002 27.8509 34.5002 24.5347C34.5002 21.2185 34.5002 19.5604 33.504 18.5302C32.5089 17.5 30.9052 17.5 27.7001 17.5Z" stroke="#666666" stroke-width="1.2" stroke-linecap="round" stroke-linejoin="round"/>
<path d="M24.1094 26.2266C24.5394 26.7769 25.2244 27.1332 25.9955 27.1332C26.7665 27.1332 27.4515 26.7769 27.8815 26.2266" stroke="#666666" stroke-width="1.2" stroke-linecap="round" stroke-linejoin="round"/>
<path d="M23.7412 22.6016H23.7344M28.2678 22.6016H28.261" stroke="#666666" stroke-width="1.5" stroke-linecap="round" stroke-linejoin="round"/>
</svg>
