<svg width="50" height="50" viewBox="0 0 50 50" fill="none" xmlns="http://www.w3.org/2000/svg">
<path d="M46.6514 37.5599L36.8744 36.9094L37.5042 46.6837L29.3483 41.2268L25.0111 50L20.6598 41.2078L12.5088 46.6064L13.1252 36.8368L3.35291 37.4355L8.78389 29.2969L0 24.9265L8.77535 20.6084L3.35088 12.4401L13.1225 13.0875L12.4958 3.30799L20.6517 8.76483L24.9911 0L29.3402 8.78385L37.4912 3.38524L36.8748 13.1549L46.6493 12.5645L41.2161 20.6948L50 25.0652L41.2216 29.3885L46.6514 37.5599Z" fill="#F2A22C"/>
<path d="M19.3804 32V17.925H24.9554C25.472 17.925 26.0387 17.9583 26.6554 18.025C27.2887 18.0917 27.897 18.2417 28.4804 18.475C29.0637 18.7083 29.5387 19.075 29.9054 19.575C30.2887 20.075 30.4804 20.7667 30.4804 21.65C30.4804 22.1833 30.372 22.675 30.1554 23.125C29.9554 23.575 29.572 23.95 29.0054 24.25C28.4554 24.5333 27.6637 24.7 26.6304 24.75V24.825C27.8304 24.8583 28.7554 25.0333 29.4054 25.35C30.0554 25.65 30.5054 26.05 30.7554 26.55C31.0054 27.05 31.1304 27.6083 31.1304 28.225C31.1304 29.125 30.9304 29.8333 30.5304 30.35C30.1304 30.85 29.6137 31.225 28.9804 31.475C28.347 31.7083 27.6804 31.8583 26.9804 31.925C26.297 31.975 25.6637 32 25.0804 32H19.3804ZM21.8804 23.775H24.6554C25.2387 23.775 25.7804 23.7417 26.2804 23.675C26.797 23.6083 27.2054 23.45 27.5054 23.2C27.8054 22.9333 27.9554 22.5083 27.9554 21.925C27.9554 21.3083 27.797 20.8667 27.4804 20.6C27.1804 20.3333 26.7804 20.1667 26.2804 20.1C25.7804 20.0333 25.2387 20 24.6554 20H21.8804V23.775ZM21.9054 29.95H24.8804C25.5304 29.95 26.1304 29.9083 26.6804 29.825C27.2304 29.7417 27.672 29.5583 28.0054 29.275C28.3387 28.975 28.5054 28.5083 28.5054 27.875C28.5054 27.225 28.3304 26.75 27.9804 26.45C27.6304 26.1333 27.172 25.9333 26.6054 25.85C26.0387 25.7667 25.4137 25.725 24.7304 25.725H21.9054V29.95Z" fill="white"/>
</svg>
